<?xml version="1.0" encoding="UTF-8" standalone="no"?>
<svg
   xmlns:dc="http://purl.org/dc/elements/1.1/"
   xmlns:cc="http://creativecommons.org/ns#"
   xmlns:rdf="http://www.w3.org/1999/02/22-rdf-syntax-ns#"
   xmlns:svg="http://www.w3.org/2000/svg"
   xmlns="http://www.w3.org/2000/svg"
   xmlns:xlink="http://www.w3.org/1999/xlink"
   xmlns:sodipodi="http://sodipodi.sourceforge.net/DTD/sodipodi-0.dtd"
   xmlns:inkscape="http://www.inkscape.org/namespaces/inkscape"
   enable-background="new 0 0 64 64"
   height="64px"
   id="Github"
   version="1.1"
   viewBox="0 0 64 64"
   width="64px"
   xml:space="preserve"
   sodipodi:docname="social-git.svg"
   inkscape:version="0.92.3 (2405546, 2018-03-11)"><metadata
     id="metadata45"><rdf:RDF><cc:Work
         rdf:about=""><dc:format>image/svg+xml</dc:format><dc:type
           rdf:resource="http://purl.org/dc/dcmitype/StillImage" /><dc:title></dc:title></cc:Work></rdf:RDF></metadata><defs
     id="defs43" /><sodipodi:namedview
     pagecolor="#ffffff"
     bordercolor="#666666"
     borderopacity="1"
     objecttolerance="10"
     gridtolerance="10"
     guidetolerance="10"
     inkscape:pageopacity="0"
     inkscape:pageshadow="2"
     inkscape:window-width="1366"
     inkscape:window-height="740"
     id="namedview41"
     showgrid="false"
     inkscape:zoom="7.375"
     inkscape:cx="40.182654"
     inkscape:cy="32.580195"
     inkscape:window-x="0"
     inkscape:window-y="0"
     inkscape:window-maximized="1"
     inkscape:current-layer="Github" /><linearGradient
     gradientTransform="matrix(0.78967495,0,0,-0.78967495,-671.41187,-797.49522)"
     gradientUnits="userSpaceOnUse"
     id="Circle_Shadow_1_"
     x1="886.0303"
     x2="854.0302"
     y1="-1089.9985"
     y2="-1057.9985"><stop
       offset="0.3163"
       style="stop-color:#FFFFFF;stop-opacity:0"
       id="stop2" /><stop
       offset="0.3508"
       style="stop-color:#E9E9E9;stop-opacity:0.0504"
       id="stop4" /><stop
       offset="0.4543"
       style="stop-color:#ACACAC;stop-opacity:0.2018"
       id="stop6" /><stop
       offset="0.5572"
       style="stop-color:#787878;stop-opacity:0.3523"
       id="stop8" /><stop
       offset="0.6569"
       style="stop-color:#4D4D4D;stop-opacity:0.4981"
       id="stop10" /><stop
       offset="0.7528"
       style="stop-color:#2B2B2B;stop-opacity:0.6385"
       id="stop12" /><stop
       offset="0.8441"
       style="stop-color:#131313;stop-opacity:0.7719"
       id="stop14" /><stop
       offset="0.9286"
       style="stop-color:#050505;stop-opacity:0.8956"
       id="stop16" /><stop
       offset="1"
       style="stop-color:#000000"
       id="stop18" /></linearGradient><ellipse
     cx="31.980679"
     cy="31.999998"
     id="Circle"
     style="fill:#99cc33;stroke-width:0.99999988"
     rx="31.980679"
     ry="32" /><g
     id="Cat_Shadow"
     transform="matrix(1.3325283,0,0,1.3333333,-10.660224,-10.666665)"
     style="stroke-width:0.7502265;fill:#669900"><g
       id="g36"
       style="stroke-width:0.7502265;fill:#669900"><defs
         id="defs24"><circle
           cx="32.028999"
           cy="32"
           id="SVGID_1_"
           r="24" /></defs><clipPath
         id="SVGID_2_"><use
           overflow="visible"
           xlink:href="#SVGID_1_"
           id="use26"
           style="overflow:visible"
           x="0"
           y="0"
           width="100%"
           height="100%" /></clipPath><linearGradient
         gradientTransform="matrix(0.75045311,0,0,-0.75,-197.62416,-216.25)"
         gradientUnits="userSpaceOnUse"
         id="SVGID_3_"
         x1="348.54691"
         x2="296.0939"
         y1="-370.8364"
         y2="-318.38351"><stop
           offset="0.5255"
           style="stop-color:#000000;stop-opacity:0"
           id="stop29" /><stop
           offset="1"
           style="stop-color:#000000"
           id="stop31" /></linearGradient><path
         clip-path="url(#SVGID_2_)"
         d="m 74.375,61 c 0,-4.494 -0.809,-5.756 -1.698,-6.691 -0.032,-0.035 -0.065,-0.072 -0.101,-0.106 -0.032,-0.036 -0.064,-0.071 -0.1,-0.104 -0.031,-0.037 -0.064,-0.07 -0.098,-0.105 h -0.001 c 0.208,-0.504 1.029,-2.319 -0.035,-4.99 0,0 -0.024,0.001 -0.063,0.004 -0.014,-0.038 -0.021,-0.072 -0.035,-0.109 0,0 -0.025,0 -0.063,0.004 -0.016,-0.039 -0.021,-0.072 -0.037,-0.11 0,0 -0.023,10e-4 -0.063,0.004 -0.016,-0.038 -0.021,-0.071 -0.036,-0.11 0,0 -0.024,0.002 -0.063,0.004 -0.015,-0.037 -0.021,-0.07 -0.035,-0.108 0,0 -0.025,0.001 -0.063,0.004 -0.015,-0.038 -0.021,-0.071 -0.036,-0.11 0,0 -0.025,0.002 -0.063,0.004 -0.016,-0.037 -0.021,-0.072 -0.036,-0.109 0,0 -0.024,10e-4 -0.063,0.004 -0.015,-0.038 -0.021,-0.072 -0.035,-0.109 0,0 -0.025,0 -0.063,0.004 -0.015,-0.039 -0.021,-0.072 -0.036,-0.111 0,0 -0.025,0.002 -0.063,0.005 -0.016,-0.038 -0.021,-0.072 -0.036,-0.11 0,0 -0.024,10e-4 -0.063,0.004 -0.015,-0.037 -0.021,-0.072 -0.035,-0.109 0,0 -0.025,0 -0.063,0.004 -0.015,-0.038 -0.021,-0.072 -0.036,-0.11 0,0 -0.025,10e-4 -0.063,0.004 -0.016,-0.038 -0.021,-0.071 -0.037,-0.108 0,0 -0.024,0 -0.063,0.004 -0.015,-0.038 -0.021,-0.072 -0.036,-0.11 0,0 -0.024,10e-4 -0.063,0.004 -0.015,-0.038 -0.021,-0.071 -0.036,-0.11 0,0 -0.025,0.002 -0.063,0.004 -0.016,-0.037 -0.021,-0.071 -0.037,-0.109 0,0 -0.024,10e-4 -0.063,0.004 -0.015,-0.038 -0.021,-0.072 -0.036,-0.109 0,0 -0.023,0 -0.063,0.004 -0.016,-0.039 -0.021,-0.072 -0.037,-0.11 0,0 -0.024,10e-4 -0.063,0.004 -0.015,-0.038 -0.021,-0.072 -0.035,-0.11 0,0 -0.025,0.002 -0.063,0.004 -0.015,-0.037 -0.021,-0.07 -0.036,-0.108 0,0 -0.025,10e-4 -0.063,0.004 -0.016,-0.038 -0.021,-0.072 -0.037,-0.11 0,0 -0.023,0.002 -0.063,0.004 -0.016,-0.037 -0.021,-0.072 -0.036,-0.109 0,0 -0.024,0.001 -0.063,0.004 -0.014,-0.038 -0.021,-0.072 -0.035,-0.11 0,0 -0.025,10e-4 -0.063,0.005 -0.016,-0.039 -0.021,-0.072 -0.037,-0.111 0,0 -0.024,0.002 -0.063,0.004 -0.016,-0.037 -0.021,-0.071 -0.036,-0.109 0,0 -0.024,0.001 -0.063,0.004 -0.015,-0.037 -0.021,-0.072 -0.035,-0.109 0,0 -0.024,0 -0.063,0.004 -0.015,-0.039 -0.021,-0.071 -0.036,-0.109 0,0 -0.025,10e-4 -0.064,0.004 -0.014,-0.038 -0.021,-0.072 -0.035,-0.109 0,0 -0.023,0 -0.063,0.004 -0.016,-0.039 -0.021,-0.072 -0.037,-0.11 0,0 -0.024,0.001 -0.063,0.004 -0.016,-0.038 -0.021,-0.071 -0.036,-0.11 0,0 -0.024,0.002 -0.063,0.004 -0.015,-0.037 -0.021,-0.071 -0.035,-0.109 0,0 -0.025,0.001 -0.063,0.004 -0.015,-0.038 -0.021,-0.072 -0.036,-0.109 0,0 -0.025,0 -0.063,0.004 -0.016,-0.039 -0.021,-0.072 -0.036,-0.109 0,0 -0.024,0.001 -0.063,0.004 -0.015,-0.038 -0.021,-0.072 -0.035,-0.111 0,0 -0.025,0.001 -0.063,0.004 -0.015,-0.037 -0.021,-0.07 -0.036,-0.109 0,0 -0.025,0.002 -0.063,0.005 -0.016,-0.038 -0.021,-0.072 -0.036,-0.11 0,0 -0.025,0.001 -0.063,0.004 -0.015,-0.037 -0.021,-0.072 -0.035,-0.109 0,0 -0.025,0 -0.063,0.004 -0.015,-0.038 -0.021,-0.072 -0.036,-0.11 0,0 -0.025,10e-4 -0.063,0.004 -0.016,-0.038 -0.021,-0.071 -0.037,-0.11 0,0 -0.024,0.002 -0.063,0.004 -0.015,-0.037 -0.021,-0.071 -0.036,-0.109 0,0 -0.024,10e-4 -0.063,0.004 -0.015,-0.038 -0.021,-0.072 -0.036,-0.109 0,0 -0.025,0 -0.063,0.004 -0.016,-0.039 -0.021,-0.072 -0.037,-0.11 0,0 -0.024,10e-4 -0.063,0.004 -0.016,-0.038 -0.021,-0.071 -0.036,-0.108 0,0 -0.024,0 -0.063,0.004 -0.015,-0.039 -0.021,-0.072 -0.035,-0.11 0,0 -0.024,10e-4 -0.063,0.004 -0.015,-0.038 -0.021,-0.072 -0.036,-0.11 0,0 -0.024,0.002 -0.063,0.004 -0.016,-0.037 -0.021,-0.072 -0.036,-0.109 0,0 -0.024,10e-4 -0.063,0.004 -0.015,-0.038 -0.021,-0.072 -0.035,-0.11 0,0 -0.025,10e-4 -0.063,0.005 -0.015,-0.039 -0.021,-0.072 -0.036,-0.109 0,0 -0.025,0 -0.063,0.004 -0.016,-0.038 -0.021,-0.072 -0.036,-0.111 0,0 -0.025,10e-4 -0.063,0.004 -0.015,-0.037 -0.021,-0.07 -0.035,-0.109 0,0 -0.025,0.002 -0.063,0.004 -0.015,-0.037 -0.021,-0.071 -0.036,-0.109 0,0 -0.023,10e-4 -0.063,0.004 -0.016,-0.038 -0.021,-0.072 -0.037,-0.109 0,0 -0.024,0 -0.063,0.004 -0.015,-0.039 -0.021,-0.072 -0.035,-0.11 0,0 -0.025,10e-4 -0.063,0.004 -0.015,-0.038 -0.021,-0.071 -0.036,-0.11 0,0 -0.025,0.002 -0.063,0.004 -0.016,-0.037 -0.021,-0.07 -0.037,-0.108 0,0 -0.023,10e-4 -0.063,0.004 -0.016,-0.038 -0.021,-0.071 -0.036,-0.11 0,0 -0.024,0 -0.063,0.004 -0.015,-0.039 -0.021,-0.071 -0.035,-0.109 0,0 -0.025,0.001 -0.063,0.004 -0.015,-0.038 -0.021,-0.072 -0.036,-0.109 0,0 -0.024,0 -0.063,0.004 -0.016,-0.039 -0.021,-0.072 -0.036,-0.11 0,0 -0.024,0.001 -0.063,0.004 -0.015,-0.038 -0.021,-0.072 -0.035,-0.11 0,0 -0.025,0.001 -0.063,0.004 -0.015,-0.037 -0.021,-0.072 -0.036,-0.109 0,0 -0.025,0 -0.063,0.004 -0.016,-0.038 -0.021,-0.072 -0.036,-0.11 0,0 -0.025,0.001 -0.063,0.004 -0.015,-0.038 -0.021,-0.071 -0.035,-0.108 0,0 -0.024,0 -0.063,0.004 -0.015,-0.038 -0.021,-0.072 -0.036,-0.11 0,0 -0.025,0.001 -0.063,0.004 -0.016,-0.038 -0.021,-0.071 -0.037,-0.11 0,0 -0.024,0.002 -0.063,0.004 -0.015,-0.037 -0.021,-0.071 -0.035,-0.109 0,0 -0.025,0.001 -0.063,0.004 -0.015,-0.038 -0.021,-0.072 -0.036,-0.109 0,0 -0.023,0 -0.063,0.004 -0.016,-0.039 -0.021,-0.072 -0.037,-0.11 0,0 -0.024,10e-4 -0.063,0.004 -0.016,-0.038 -0.021,-0.072 -0.036,-0.11 0,0 -0.024,0.002 -0.063,0.004 -0.014,-0.037 -0.021,-0.07 -0.035,-0.108 0,0 -0.025,10e-4 -0.063,0.004 -0.015,-0.038 -0.021,-0.072 -0.036,-0.111 0,0 -0.024,10e-4 -0.063,0.005 -0.016,-0.039 -0.021,-0.072 -0.036,-0.109 0,0 -0.024,10e-4 -0.063,0.004 -0.015,-0.038 -0.021,-0.072 -0.035,-0.11 0,0 -0.025,10e-4 -0.063,0.005 -0.015,-0.039 -0.021,-0.072 -0.036,-0.111 0,0 -0.023,0.002 -0.063,0.005 -0.016,-0.038 -0.021,-0.072 -0.036,-0.11 0,0 -0.025,10e-4 -0.063,0.004 -0.015,-0.037 -0.021,-0.072 -0.035,-0.109 0,0 -0.025,0 -0.063,0.004 -0.015,-0.038 -0.021,-0.072 -0.036,-0.11 0,0 -0.025,10e-4 -0.063,0.004 -0.016,-0.038 -0.021,-0.071 -0.037,-0.108 0,0 -0.023,0 -0.063,0.004 -0.015,-0.039 -0.021,-0.072 -0.035,-0.111 0,0 -0.025,0.001 -0.064,0.004 -0.016,-0.037 -0.021,-0.07 -0.036,-0.109 0,0 -0.024,0.002 -0.063,0.004 -0.015,-0.037 -0.021,-0.071 -0.035,-0.109 0,0 -0.025,10e-4 -0.063,0.004 -0.015,-0.038 -0.021,-0.072 -0.036,-0.109 0,0 -0.025,0 -0.063,0.004 -0.016,-0.039 -0.021,-0.072 -0.036,-0.11 0,0 -0.025,0.001 -0.063,0.004 -0.015,-0.038 -0.021,-0.072 -0.035,-0.11 0,0 -0.025,10e-4 -0.063,0.004 -0.015,-0.037 -0.021,-0.07 -0.036,-0.109 0,0 -0.025,0.002 -0.063,0.005 -0.016,-0.038 -0.021,-0.072 -0.037,-0.111 0,0 -0.024,0.001 -0.063,0.004 -0.015,-0.038 -0.021,-0.071 -0.036,-0.108 0,0 -0.024,0 -0.063,0.004 -0.015,-0.038 -0.021,-0.072 -0.036,-0.11 0,0 -0.025,10e-4 -0.063,0.004 -0.016,-0.038 -0.021,-0.071 -0.037,-0.11 0,0 -0.024,0.002 -0.063,0.004 -0.016,-0.037 -0.021,-0.071 -0.036,-0.109 0,0 -0.024,0.001 -0.063,0.004 -0.014,-0.038 -0.021,-0.072 -0.035,-0.109 0,0 -0.025,0 -0.063,0.004 -0.015,-0.039 -0.021,-0.071 -0.036,-0.109 0,0 -0.023,0.001 -0.063,0.004 -0.016,-0.038 -0.021,-0.072 -0.036,-0.109 0,0 -0.024,0 -0.063,0.004 -0.015,-0.039 -0.021,-0.072 -0.035,-0.11 0,0 -0.025,0.001 -0.063,0.004 -0.015,-0.038 -0.021,-0.072 -0.036,-0.11 0,0 -0.025,0.002 -0.063,0.004 -0.016,-0.037 -0.021,-0.072 -0.036,-0.109 0,0 -0.024,10e-4 -0.063,0.004 -0.015,-0.038 -0.021,-0.072 -0.035,-0.11 0,0 -0.025,0.001 -0.063,0.005 -0.015,-0.039 -0.021,-0.072 -0.036,-0.111 0,0 -0.025,0.002 -0.063,0.005 -0.016,-0.038 -0.021,-0.071 -0.036,-0.109 0,0 -0.025,0.001 -0.063,0.004 -0.015,-0.038 -0.021,-0.071 -0.035,-0.11 0,0 -0.025,0.002 -0.063,0.004 -0.015,-0.037 -0.021,-0.071 -0.036,-0.109 0,0 -0.025,0.001 -0.063,0.004 -0.016,-0.038 -0.021,-0.072 -0.037,-0.109 0,0 -0.024,0 -0.063,0.004 -0.015,-0.039 -0.021,-0.072 -0.036,-0.11 0,0 -0.024,10e-4 -0.063,0.004 -0.015,-0.038 -0.021,-0.071 -0.036,-0.11 0,0 -0.025,0.002 -0.063,0.004 -0.016,-0.037 -0.021,-0.071 -0.037,-0.109 0,0 -0.024,10e-4 -0.063,0.004 -0.016,-0.038 -0.021,-0.072 -0.036,-0.109 0,0 -0.024,0 -0.063,0.004 -0.014,-0.039 -0.021,-0.072 -0.035,-0.11 0,0 -0.025,10e-4 -0.063,0.004 -0.015,-0.038 -0.021,-0.071 -0.036,-0.108 0,0 -0.024,0 -0.063,0.004 -0.016,-0.039 -0.021,-0.072 -0.036,-0.111 0,0 -0.024,0.001 -0.063,0.004 -0.015,-0.038 -0.021,-0.071 -0.035,-0.109 0,0 -0.025,10e-4 -0.063,0.004 -0.015,-0.037 -0.021,-0.072 -0.036,-0.109 0,0 -0.025,0 -0.063,0.004 -0.016,-0.038 -0.021,-0.072 -0.036,-0.11 0,0 -0.024,10e-4 -0.063,0.004 -0.015,-0.038 -0.021,-0.071 -0.035,-0.11 0,0 -0.025,0.002 -0.063,0.004 -0.015,-0.037 -0.021,-0.071 -0.036,-0.109 0,0 -0.025,10e-4 -0.063,0.004 -0.016,-0.038 -0.021,-0.07 -0.036,-0.109 0,0 -0.024,0.002 -0.063,0.004 -0.015,-0.037 -0.021,-0.071 -0.035,-0.11 0,0 -0.025,0.001 -0.063,0.004 -0.015,-0.038 -0.021,-0.071 -0.036,-0.108 0,0 -0.025,0 -0.063,0.004 -0.016,-0.039 -0.021,-0.072 -0.037,-0.11 0,0 -0.024,0.001 -0.063,0.004 -0.015,-0.038 -0.021,-0.072 -0.036,-0.11 0,0 -0.024,0.002 -0.063,0.004 -0.015,-0.037 -0.021,-0.072 -0.036,-0.109 0,0 -0.025,0.001 -0.063,0.004 -0.016,-0.038 -0.021,-0.072 -0.037,-0.11 0,0 -0.024,0.001 -0.063,0.005 -0.016,-0.039 -0.021,-0.072 -0.036,-0.109 0,0 -0.024,0.001 -0.063,0.004 -0.014,-0.038 -0.021,-0.072 -0.035,-0.11 0,0 -0.024,10e-4 -0.063,0.005 -0.015,-0.039 -0.021,-0.072 -0.036,-0.111 0,0 -0.024,0.002 -0.063,0.005 -0.016,-0.038 -0.021,-0.072 -0.036,-0.11 0,0 -0.024,0.001 -0.063,0.004 C 60,35.901 59.994,35.866 59.98,35.829 c 0,0 -0.024,0 -0.063,0.004 -0.015,-0.038 -0.021,-0.071 -0.036,-0.109 0,0 -0.025,0.001 -0.063,0.004 -0.016,-0.038 -0.021,-0.072 -0.036,-0.111 0,0 -0.024,0.002 -0.063,0.004 -0.015,-0.037 -0.021,-0.07 -0.035,-0.108 0,0 -0.025,0.001 -0.063,0.004 -0.015,-0.038 -0.021,-0.071 -0.036,-0.11 0,0 -0.025,0.002 -0.063,0.004 -0.016,-0.037 -0.021,-0.071 -0.036,-0.109 0,0 -0.025,10e-4 -0.063,0.004 -0.015,-0.038 -0.021,-0.072 -0.035,-0.109 0,0 -0.025,0 -0.063,0.004 -0.015,-0.039 -0.021,-0.072 -0.036,-0.11 0,0 -0.025,10e-4 -0.063,0.004 -0.016,-0.038 -0.021,-0.072 -0.037,-0.11 0,0 -0.023,0.002 -0.063,0.004 -0.015,-0.037 -0.021,-0.072 -0.036,-0.109 0,0 -0.024,10e-4 -0.063,0.004 -0.015,-0.038 -0.021,-0.072 -0.036,-0.11 0,0 -0.025,10e-4 -0.063,0.004 -0.016,-0.038 -0.021,-0.071 -0.037,-0.108 0,0 -0.024,0 -0.063,0.004 -0.016,-0.038 -0.021,-0.072 -0.036,-0.11 0,0 -0.024,10e-4 -0.063,0.004 -0.014,-0.038 -0.021,-0.071 -0.035,-0.11 0,0 -0.025,0.002 -0.063,0.004 -0.015,-0.037 -0.021,-0.071 -0.036,-0.109 0,0 -0.024,10e-4 -0.063,0.004 -0.016,-0.038 -0.021,-0.072 -0.036,-0.109 0,0 -0.024,0 -0.063,0.004 -0.015,-0.039 -0.021,-0.072 -0.035,-0.11 0,0 -0.025,10e-4 -0.063,0.004 -0.015,-0.038 -0.021,-0.071 -0.036,-0.11 0,0 -0.025,0.002 -0.063,0.004 -0.016,-0.037 -0.021,-0.071 -0.036,-0.109 0,0 -0.024,0.001 -0.063,0.004 -0.015,-0.038 -0.021,-0.071 -0.035,-0.109 0,0 -0.025,0.002 -0.063,0.004 -0.015,-0.037 -0.021,-0.072 -0.036,-0.109 0,0 -0.023,0.001 -0.063,0.004 -0.016,-0.038 -0.021,-0.072 -0.036,-0.11 0,0 -0.025,10e-4 -0.063,0.005 -0.015,-0.039 -0.021,-0.072 -0.035,-0.111 0,0 -0.025,0.002 -0.063,0.005 -0.015,-0.038 -0.021,-0.072 -0.036,-0.11 0,0 -0.023,10e-4 -0.063,0.004 -0.016,-0.037 -0.021,-0.072 -0.037,-0.109 0,0 -0.024,0 -0.063,0.004 -0.015,-0.038 -0.021,-0.072 -0.036,-0.11 0,0 -0.024,0.001 -0.063,0.004 -0.015,-0.038 -0.021,-0.071 -0.036,-0.11 0,0 -0.025,0.002 -0.063,0.004 -0.016,-0.037 -0.021,-0.07 -0.037,-0.108 0,0 -0.024,0.001 -0.063,0.004 -0.016,-0.038 -0.021,-0.071 -0.036,-0.11 0,0 -0.024,0.002 -0.063,0.004 -0.014,-0.037 -0.021,-0.071 -0.035,-0.109 0,0 -0.025,0.001 -0.063,0.004 -0.015,-0.038 -0.021,-0.072 -0.036,-0.109 0,0 -0.024,0 -0.063,0.004 -0.016,-0.039 -0.021,-0.072 -0.036,-0.11 0,0 -0.024,10e-4 -0.063,0.004 -0.015,-0.038 -0.021,-0.071 -0.035,-0.109 0,0 -0.025,10e-4 -0.063,0.004 -0.015,-0.038 -0.021,-0.072 -0.036,-0.111 0,0 -0.025,0.001 -0.063,0.004 -0.016,-0.038 -0.021,-0.072 -0.036,-0.11 0,0 -0.024,10e-4 -0.063,0.004 -0.015,-0.038 -0.021,-0.072 -0.035,-0.11 0,0 -0.025,10e-4 -0.063,0.004 -0.015,-0.038 -0.021,-0.072 -0.036,-0.11 0,0 -0.025,10e-4 -0.064,0.004 -0.015,-0.038 -0.021,-0.072 -0.035,-0.111 0,0 -0.024,0.001 -0.063,0.004 -0.015,-0.038 -0.021,-0.072 -0.036,-0.11 0,0 -0.024,10e-4 -0.063,0.004 -0.016,-0.038 -0.021,-0.072 -0.036,-0.11 0,0 -0.024,0.001 -0.063,0.004 -0.015,-0.038 -0.021,-0.071 -0.035,-0.109 0,0 -0.025,0.001 -0.063,0.004 -0.015,-0.038 -0.021,-0.072 -0.036,-0.111 0,0 -0.025,0.001 -0.063,0.004 -0.016,-0.038 -0.021,-0.072 -0.036,-0.11 0,0 -0.025,0.001 -0.063,0.004 -0.015,-0.038 -0.021,-0.072 -0.035,-0.11 0,0 -0.024,0.001 -0.063,0.004 -0.015,-0.038 -0.021,-0.072 -0.036,-0.11 0,0 -0.025,0.001 -0.063,0.004 -0.016,-0.038 -0.021,-0.072 -0.037,-0.11 0,0 -0.024,0.001 -0.063,0.004 -0.015,-0.038 -0.021,-0.072 -0.036,-0.111 0,0 -0.025,10e-4 -0.063,0.004 -0.016,-0.038 -0.021,-0.071 -0.036,-0.109 0,0 -0.024,10e-4 -0.063,0.004 -0.015,-0.038 -0.021,-0.072 -0.035,-0.11 0,0 -0.025,0.001 -0.063,0.004 -0.015,-0.038 -0.021,-0.072 -0.036,-0.11 0,0 -0.025,10e-4 -0.063,0.004 -0.016,-0.038 -0.021,-0.072 -0.036,-0.111 0,0 -0.025,10e-4 -0.063,0.004 -0.015,-0.038 -0.021,-0.072 -0.035,-0.11 0,0 -0.025,0.001 -0.063,0.004 -0.015,-0.038 -0.021,-0.072 -0.036,-0.11 0,0 -0.025,0.001 -0.063,0.004 -0.016,-0.038 -0.021,-0.072 -0.037,-0.11 0,0 -0.024,0.001 -0.063,0.004 -0.015,-0.038 -0.021,-0.072 -0.035,-0.111 0,0 -0.025,10e-4 -0.063,0.004 -0.015,-0.038 -0.021,-0.072 -0.036,-0.11 0,0 -0.023,0.001 -0.063,0.004 -0.016,-0.038 -0.021,-0.072 -0.037,-0.11 0,0 -0.024,10e-4 -0.063,0.004 -0.016,-0.038 -0.021,-0.072 -0.036,-0.11 0,0 -0.024,0.001 -0.063,0.004 -0.014,-0.038 -0.021,-0.072 -0.035,-0.11 0,0 -0.025,10e-4 -0.063,0.004 -0.016,-0.038 -0.021,-0.072 -0.037,-0.11 0,0 -0.023,0.001 -0.063,0.004 -0.016,-0.038 -0.021,-0.071 -0.036,-0.109 0,0 -0.024,0.001 -0.063,0.004 -0.015,-0.038 -0.021,-0.073 -0.035,-0.111 0,0 -0.025,0.001 -0.064,0.004 -0.015,-0.038 -0.021,-0.072 -0.035,-0.11 0,0 -0.025,0.001 -0.063,0.004 -0.015,-0.038 -0.021,-0.072 -0.036,-0.11 0,0 -0.025,0.001 -0.063,0.004 -0.016,-0.038 -0.021,-0.072 -0.037,-0.11 0,0 -0.024,0.001 -0.063,0.004 -0.016,-0.038 -0.021,-0.072 -0.036,-0.11 0,0 -0.024,10e-4 -0.063,0.004 -0.014,-0.038 -0.021,-0.072 -0.035,-0.11 0,0 -0.024,0.001 -0.063,0.004 -0.016,-0.038 -0.021,-0.072 -0.037,-0.11 0,0 -0.024,10e-4 -0.063,0.004 -0.016,-0.038 -0.021,-0.071 -0.036,-0.109 0,0 -0.024,0.001 -0.063,0.004 -0.015,-0.038 -0.021,-0.073 -0.035,-0.111 0,0 -0.025,10e-4 -0.063,0.004 -0.015,-0.038 -0.021,-0.072 -0.036,-0.11 0,0 -0.025,0.001 -0.063,0.004 -0.016,-0.038 -0.021,-0.071 -0.036,-0.109 0,0 -0.024,0.001 -0.063,0.004 -0.015,-0.038 -0.021,-0.072 -0.035,-0.11 0,0 -0.025,10e-4 -0.063,0.004 -0.015,-0.038 -0.021,-0.072 -0.036,-0.11 0,0 -0.025,0.001 -0.063,0.004 -0.016,-0.038 -0.021,-0.072 -0.036,-0.11 0,0 -0.025,10e-4 -0.063,0.004 -0.015,-0.038 -0.021,-0.072 -0.035,-0.11 0,0 -0.025,0.001 -0.063,0.004 -0.015,-0.038 -0.021,-0.072 -0.036,-0.11 0,0 -0.025,10e-4 -0.063,0.004 -0.016,-0.038 -0.021,-0.072 -0.037,-0.11 0,0 -0.024,0.001 -0.063,0.004 -0.015,-0.038 -0.021,-0.073 -0.035,-0.111 0,0 -0.025,0.001 -0.063,0.004 -0.015,-0.038 -0.021,-0.071 -0.036,-0.109 0,0 -0.025,0.001 -0.063,0.004 -0.016,-0.038 -0.021,-0.072 -0.037,-0.11 0,0 -0.024,0.001 -0.063,0.004 -0.016,-0.038 -0.021,-0.072 -0.036,-0.11 0,0 -0.024,0.001 -0.063,0.004 -0.014,-0.038 -0.021,-0.072 -0.035,-0.11 0,0 -0.025,0.001 -0.063,0.004 -0.016,-0.038 -0.021,-0.072 -0.037,-0.11 0,0 -0.023,10e-4 -0.063,0.004 -0.016,-0.038 -0.021,-0.072 -0.036,-0.11 0,0 -0.024,0.001 -0.063,0.004 -0.015,-0.038 -0.021,-0.072 -0.035,-0.111 0,0 -0.025,0.001 -0.063,0.004 -0.015,-0.038 -0.021,-0.072 -0.036,-0.11 0,0 -0.025,10e-4 -0.063,0.004 -0.016,-0.038 -0.021,-0.072 -0.036,-0.11 0,0 -0.024,0.001 -0.063,0.004 -0.015,-0.038 -0.021,-0.072 -0.035,-0.11 0,0 -0.025,0.001 -0.063,0.004 -0.015,-0.038 -0.021,-0.072 -0.036,-0.111 0,0 -0.025,0.001 -0.063,0.004 -0.016,-0.038 -0.021,-0.072 -0.036,-0.11 0,0 -0.024,10e-4 -0.063,0.004 -0.015,-0.038 -0.021,-0.072 -0.035,-0.11 0,0 -0.025,0.001 -0.063,0.004 -0.015,-0.038 -0.021,-0.071 -0.036,-0.109 0,0 -0.025,0.001 -0.063,0.004 -0.016,-0.038 -0.021,-0.072 -0.037,-0.111 0,0 -0.024,0.001 -0.063,0.004 -0.015,-0.038 -0.021,-0.072 -0.035,-0.11 0,0 -0.025,10e-4 -0.063,0.004 -0.015,-0.038 -0.021,-0.072 -0.036,-0.11 0,0 -0.025,0.001 -0.063,0.004 -0.016,-0.038 -0.021,-0.072 -0.037,-0.11 0,0 -0.024,10e-4 -0.063,0.004 -0.016,-0.038 -0.021,-0.072 -0.036,-0.11 0,0 -0.024,0.001 -0.063,0.004 -0.014,-0.038 -0.021,-0.072 -0.035,-0.111 0,0 -0.025,10e-4 -0.063,0.004 -0.016,-0.038 -0.021,-0.071 -0.037,-0.109 0,0 -0.024,0.001 -0.063,0.004 -0.016,-0.038 -0.021,-0.072 -0.036,-0.11 0,0 -0.024,0.001 -0.063,0.004 -0.015,-0.038 -0.021,-0.072 -0.035,-0.11 0,0 -0.024,0.001 -0.063,0.004 -0.015,-0.038 -0.021,-0.072 -0.036,-0.11 0,0 -0.025,0.001 -0.063,0.004 -0.015,-0.038 -0.021,-0.072 -0.036,-0.11 0,0 -0.023,10e-4 -0.063,0.004 -0.016,-0.038 -0.021,-0.072 -0.037,-0.11 0,0 -0.024,0.001 -0.063,0.004 -0.016,-0.038 -0.021,-0.072 -0.036,-0.11 0,0 -0.024,10e-4 -0.063,0.004 -0.014,-0.038 -0.021,-0.072 -0.035,-0.11 0,0 -0.025,0.001 -0.063,0.004 -0.016,-0.038 -0.021,-0.072 -0.037,-0.11 0,0 -0.023,10e-4 -0.063,0.004 -0.016,-0.038 -0.021,-0.072 -0.036,-0.11 0,0 -0.024,0.001 -0.063,0.004 -0.015,-0.038 -0.021,-0.072 -0.035,-0.11 0,0 -0.025,10e-4 -0.063,0.004 -0.015,-0.038 -0.021,-0.072 -0.036,-0.11 0,0 -0.025,0.001 -0.063,0.004 -0.016,-0.038 -0.021,-0.072 -0.036,-0.11 0,0 -0.024,10e-4 -0.063,0.004 -0.015,-0.038 -0.021,-0.072 -0.035,-0.11 0,0 -0.024,0.001 -0.063,0.004 -0.015,-0.038 -0.021,-0.072 -0.036,-0.11 0,0 -0.025,0.001 -0.064,0.004 -0.014,-0.038 -0.021,-0.072 -0.035,-0.11 0,0 -0.025,0.001 -0.063,0.004 -0.015,-0.038 -0.021,-0.072 -0.036,-0.111 0,0 -0.023,10e-4 -0.063,0.004 -0.016,-0.038 -0.021,-0.072 -0.036,-0.11 0,0 -0.024,0.001 -0.063,0.004 -0.015,-0.038 -0.021,-0.072 -0.035,-0.11 0,0 -0.025,10e-4 -0.063,0.004 -0.015,-0.038 -0.021,-0.072 -0.036,-0.11 0,0 -0.025,0.001 -0.063,0.004 -0.016,-0.038 -0.021,-0.072 -0.036,-0.11 0,0 -0.024,10e-4 -0.063,0.004 -0.015,-0.038 -0.021,-0.072 -0.035,-0.11 0,0 -0.025,0.001 -0.063,0.004 -0.015,-0.038 -0.021,-0.072 -0.036,-0.11 0,0 -0.025,0.001 -0.063,0.004 -0.016,-0.038 -0.021,-0.072 -0.036,-0.11 0,0 -0.025,0.001 -0.063,0.004 -0.015,-0.038 -0.021,-0.072 -0.035,-0.11 0,0 -0.025,0.001 -0.063,0.004 -0.015,-0.038 -0.021,-0.072 -0.036,-0.11 0,0 -0.023,0.001 -0.063,0.004 -0.016,-0.038 -0.021,-0.072 -0.037,-0.11 0,0 -0.024,0.001 -0.063,0.004 -0.015,-0.038 -0.021,-0.072 -0.036,-0.111 0,0 -0.023,0.001 -0.063,0.004 -0.016,-0.038 -0.021,-0.072 -0.036,-0.11 0,0 -0.024,10e-4 -0.063,0.004 -0.015,-0.038 -0.021,-0.072 -0.035,-0.111 0,0 -0.024,0.001 -0.063,0.004 -0.015,-0.038 -0.021,-0.071 -0.036,-0.109 0,0 -0.025,10e-4 -0.064,0.004 -0.015,-0.038 -0.021,-0.072 -0.035,-0.111 0,0 -0.025,0.001 -0.063,0.004 -0.015,-0.038 -0.021,-0.072 -0.036,-0.11 0,0 -0.023,10e-4 -0.063,0.004 -0.016,-0.038 -0.021,-0.072 -0.036,-0.11 0,0 -0.024,0.001 -0.063,0.004 -0.015,-0.038 -0.021,-0.072 -0.035,-0.11 0,0 -0.025,10e-4 -0.063,0.004 -0.015,-0.038 -0.021,-0.072 -0.036,-0.111 0,0 -0.025,10e-4 -0.063,0.004 -0.016,-0.038 -0.021,-0.072 -0.036,-0.11 0,0 -0.025,0.001 -0.063,0.004 -0.015,-0.038 -0.021,-0.072 -0.035,-0.11 0,0 -0.025,0.001 -0.063,0.004 -0.015,-0.038 -0.021,-0.072 -0.036,-0.11 0,0 -0.025,0.001 -0.063,0.004 -0.016,-0.038 -0.021,-0.072 -0.037,-0.11 0,0 -0.023,0.001 -0.063,0.004 -0.015,-0.038 -0.021,-0.072 -0.035,-0.11 0,0 -0.025,0.001 -0.063,0.004 -0.015,-0.038 -0.021,-0.072 -0.036,-0.11 0,0 -0.025,0.001 -0.063,0.004 -0.016,-0.038 -0.021,-0.072 -0.037,-0.11 0,0 -0.024,10e-4 -0.063,0.004 -0.016,-0.038 -0.021,-0.072 -0.036,-0.11 0,0 -0.024,0.001 -0.063,0.004 -0.014,-0.038 -0.021,-0.072 -0.035,-0.11 0,0 -0.025,10e-4 -0.064,0.004 -0.015,-0.038 -0.021,-0.072 -0.035,-0.11 0,0 -0.024,0.001 -0.063,0.004 -0.015,-0.038 -0.021,-0.072 -0.036,-0.11 0,0 -0.025,10e-4 -0.063,0.004 -0.016,-0.038 -0.021,-0.072 -0.037,-0.11 0,0 -0.024,0.001 -0.063,0.004 -0.015,-0.038 -0.021,-0.072 -0.035,-0.11 0,0 -0.024,10e-4 -0.063,0.004 -0.015,-0.038 -0.021,-0.072 -0.036,-0.11 0,0 -0.025,0.001 -0.064,0.004 -0.015,-0.038 -0.021,-0.072 -0.035,-0.11 0,0 -0.024,10e-4 -0.063,0.004 -0.015,-0.038 -0.021,-0.072 -0.036,-0.111 0,0 -0.025,0.001 -0.063,0.004 -0.016,-0.038 -0.021,-0.072 -0.036,-0.11 0,0 -0.025,10e-4 -0.063,0.004 -0.015,-0.038 -0.021,-0.072 -0.035,-0.11 0,0 -0.025,0.001 -0.063,0.004 -0.015,-0.038 -0.021,-0.072 -0.036,-0.11 0,0 -0.025,10e-4 -0.063,0.004 -0.016,-0.038 -0.021,-0.072 -0.037,-0.11 0,0 -0.024,0.001 -0.063,0.004 -0.015,-0.038 -0.021,-0.072 -0.035,-0.11 0,0 -0.025,10e-4 -0.063,0.004 -0.015,-0.038 -0.021,-0.072 -0.036,-0.11 0,0 -0.025,0.001 -0.063,0.004 -0.016,-0.038 -0.021,-0.072 -0.037,-0.11 0,0 -0.024,10e-4 -0.063,0.004 -0.016,-0.038 -0.021,-0.072 -0.036,-0.11 0,0 -0.024,0.001 -0.063,0.004 -0.014,-0.038 -0.021,-0.072 -0.035,-0.11 0,0 -0.025,10e-4 -0.063,0.004 -0.016,-0.038 -0.021,-0.072 -0.037,-0.11 0,0 -0.024,0.001 -0.063,0.004 -0.016,-0.038 -0.021,-0.072 -0.036,-0.11 0,0 -0.024,0.001 -0.063,0.004 -0.015,-0.038 -0.021,-0.072 -0.035,-0.11 0,0 -0.025,0.001 -0.063,0.004 -0.015,-0.038 -0.021,-0.072 -0.036,-0.111 0,0 -0.025,10e-4 -0.063,0.004 -0.016,-0.038 -0.021,-0.071 -0.036,-0.109 0,0 -0.024,10e-4 -0.063,0.004 -0.015,-0.038 -0.021,-0.072 -0.035,-0.111 0,0 -0.024,10e-4 -0.063,0.004 -0.015,-0.038 -0.021,-0.072 -0.036,-0.11 0,0 -0.025,0.001 -0.064,0.004 -0.014,-0.038 -0.021,-0.072 -0.035,-0.111 0,0 -0.025,0.001 -0.063,0.004 -0.016,-0.038 -0.021,-0.072 -0.037,-0.11 0,0 -0.023,0.001 -0.063,0.004 -0.016,-0.038 -0.021,-0.072 -0.036,-0.11 0,0 -0.024,10e-4 -0.063,0.004 -0.015,-0.038 -0.021,-0.072 -0.035,-0.11 0,0 -0.025,0.001 -0.063,0.004 -0.015,-0.038 -0.021,-0.072 -0.036,-0.111 0,0 -0.025,0.001 -0.063,0.004 -0.016,-0.038 -0.021,-0.071 -0.036,-0.109 0,0 -0.024,0.001 -0.063,0.004 -0.015,-0.038 -0.021,-0.072 -0.035,-0.111 0,0 -0.025,0.001 -0.063,0.004 -0.015,-0.038 -0.021,-0.072 -0.036,-0.11 0,0 -0.025,0.001 -0.063,0.004 -0.016,-0.038 -0.021,-0.072 -0.036,-0.11 0,0 -0.025,0.001 -0.063,0.004 -0.015,-0.038 -0.021,-0.072 -0.035,-0.11 0,0 -1.97,0 -3.97,3 -0.991,-0.991 -4,-1 -4.999,-1 -0.97,0 -3.808,0.017 -4.886,0.918 -0.017,-0.018 -0.035,-0.036 -0.051,-0.054 -0.035,-0.036 -0.069,-0.075 -0.104,-0.11 -0.032,-0.034 -0.064,-0.07 -0.096,-0.102 C 28.438,19.795 28.404,19.757 28.37,19.722 28.337,19.688 28.305,19.651 28.272,19.618 28.238,19.581 28.203,19.543 28.169,19.508 28.137,19.474 28.104,19.437 28.072,19.404 28.038,19.368 28.004,19.329 27.969,19.295 27.938,19.262 27.906,19.226 27.875,19.194 27.839,19.156 27.803,19.116 27.768,19.08 27.737,19.047 27.705,19.012 27.675,18.98 27.641,18.944 27.607,18.906 27.572,18.871 25.817,17.005 24.478,17 24.478,17 c -1.07,2.685 -0.233,4.507 -0.031,5 -1,1 -2.004,2 -2.004,7 0,2.229 0.726,3.959 1.913,5.239 0.033,0.036 0.067,0.071 0.101,0.108 0.032,0.035 0.067,0.07 0.1,0.106 0.033,0.036 0.066,0.069 0.1,0.104 0.033,0.037 0.067,0.072 0.101,0.108 0.031,0.035 0.065,0.067 0.097,0.104 0.032,0.035 0.067,0.07 0.1,0.105 0.031,0.035 0.064,0.068 0.096,0.104 0.034,0.039 0.069,0.074 0.104,0.111 0.032,0.035 0.065,0.069 0.098,0.104 0.033,0.037 0.068,0.074 0.102,0.109 0.031,0.035 0.064,0.068 0.096,0.103 0.034,0.038 0.07,0.075 0.104,0.112 0.031,0.035 0.064,0.067 0.097,0.103 0.033,0.037 0.067,0.071 0.1,0.106 0.031,0.035 0.064,0.068 0.096,0.103 0.034,0.039 0.07,0.076 0.106,0.114 0.03,0.033 0.063,0.065 0.094,0.1 0.033,0.037 0.067,0.072 0.101,0.107 0.032,0.037 0.066,0.072 0.1,0.107 0.033,0.037 0.067,0.072 0.101,0.108 0.032,0.034 0.065,0.067 0.097,0.103 0.033,0.037 0.067,0.072 0.1,0.107 0.032,0.036 0.066,0.07 0.099,0.105 0.032,0.037 0.066,0.07 0.1,0.106 0.032,0.035 0.065,0.069 0.098,0.104 0.034,0.037 0.069,0.073 0.104,0.109 0.031,0.036 0.064,0.069 0.097,0.104 0.032,0.037 0.066,0.07 0.099,0.105 0.033,0.037 0.067,0.072 0.101,0.107 0.032,0.035 0.065,0.07 0.098,0.104 0.033,0.037 0.068,0.072 0.103,0.109 0.032,0.034 0.065,0.067 0.097,0.104 0.033,0.035 0.067,0.07 0.1,0.106 0.032,0.034 0.065,0.069 0.098,0.104 0.033,0.036 0.068,0.071 0.102,0.108 0.032,0.035 0.066,0.069 0.099,0.104 0.032,0.035 0.066,0.069 0.099,0.104 0.033,0.037 0.067,0.071 0.101,0.106 0.033,0.037 0.067,0.072 0.101,0.108 0.031,0.035 0.064,0.067 0.096,0.103 0.033,0.037 0.069,0.074 0.104,0.111 0.032,0.034 0.065,0.068 0.098,0.104 0.032,0.037 0.066,0.07 0.1,0.105 0.031,0.035 0.063,0.067 0.094,0.103 0.034,0.038 0.069,0.073 0.104,0.11 0.032,0.037 0.067,0.071 0.1,0.107 0.033,0.037 0.068,0.072 0.102,0.107 0.031,0.035 0.064,0.067 0.095,0.103 0.033,0.037 0.068,0.072 0.102,0.108 0.032,0.035 0.065,0.068 0.097,0.104 0.033,0.036 0.067,0.071 0.1,0.107 0.012,0.013 0.021,0.025 0.033,0.039 -0.008,0.103 -0.015,0.203 -0.015,0.298 -0.77,0.343 -2.483,0.677 -4.049,-0.111 -0.011,-0.011 -0.021,-0.021 -0.032,-0.03 -0.036,-0.039 -0.066,-0.074 -0.105,-0.113 -0.034,-0.034 -0.062,-0.068 -0.098,-0.104 -0.034,-0.035 -0.063,-0.07 -0.1,-0.105 -0.034,-0.036 -0.063,-0.07 -0.1,-0.106 -0.033,-0.036 -0.062,-0.069 -0.098,-0.104 -0.035,-0.037 -0.064,-0.071 -0.102,-0.108 -0.033,-0.036 -0.062,-0.069 -0.097,-0.104 -0.033,-0.035 -0.061,-0.067 -0.096,-0.104 -0.037,-0.038 -0.068,-0.075 -0.107,-0.113 -0.033,-0.035 -0.06,-0.066 -0.095,-0.102 -0.034,-0.036 -0.063,-0.07 -0.099,-0.105 -0.034,-0.037 -0.063,-0.07 -0.1,-0.106 -0.034,-0.036 -0.063,-0.07 -0.1,-0.107 C 24.04,38.423 24.01,38.388 23.973,38.351 23.94,38.317 23.912,38.284 23.876,38.247 23.842,38.212 23.813,38.179 23.777,38.142 23.742,38.105 23.713,38.072 23.676,38.035 23.643,38 23.615,37.967 23.58,37.931 23.545,37.894 23.516,37.86 23.478,37.823 c -0.034,-0.036 -0.063,-0.07 -0.099,-0.106 -0.034,-0.035 -0.063,-0.07 -0.1,-0.105 -0.035,-0.036 -0.064,-0.071 -0.101,-0.107 -0.034,-0.035 -0.063,-0.068 -0.099,-0.105 -0.034,-0.034 -0.062,-0.068 -0.098,-0.104 -0.034,-0.035 -0.063,-0.07 -0.1,-0.107 -0.034,-0.034 -0.063,-0.068 -0.099,-0.104 -0.498,-0.528 -1.269,-1.09 -2.33,-1.09 0,0 -1.368,-0.126 -0.697,0.507 0.026,0.033 0.059,0.068 0.1,0.105 0.026,0.033 0.059,0.068 0.1,0.107 0.026,0.033 0.059,0.068 0.1,0.107 0.026,0.031 0.059,0.066 0.1,0.105 0.026,0.032 0.059,0.066 0.099,0.104 0.026,0.032 0.059,0.067 0.1,0.106 0.026,0.031 0.058,0.066 0.098,0.104 0.027,0.032 0.06,0.069 0.102,0.108 0.026,0.03 0.056,0.064 0.095,0.102 0.027,0.034 0.061,0.07 0.103,0.111 0.026,0.031 0.058,0.066 0.099,0.104 0.027,0.034 0.06,0.069 0.101,0.107 0.026,0.033 0.059,0.068 0.099,0.105 0.026,0.032 0.059,0.067 0.099,0.104 0.026,0.032 0.059,0.067 0.1,0.106 0.026,0.032 0.059,0.067 0.1,0.106 0.026,0.032 0.059,0.067 0.1,0.104 0.025,0.032 0.055,0.065 0.094,0.103 0.284,0.433 0.596,0.952 0.912,1.584 0,0 0.298,0.812 1.098,1.618 0.035,0.037 0.067,0.072 0.104,0.109 0.032,0.035 0.062,0.068 0.096,0.104 0.034,0.036 0.066,0.071 0.103,0.108 0.034,0.035 0.064,0.07 0.099,0.105 0.033,0.035 0.063,0.07 0.098,0.105 0.034,0.035 0.064,0.069 0.1,0.104 0.033,0.035 0.063,0.069 0.097,0.104 0.034,0.035 0.065,0.071 0.101,0.107 0.034,0.036 0.065,0.072 0.102,0.107 0.031,0.035 0.06,0.066 0.093,0.101 0.035,0.038 0.068,0.075 0.105,0.113 0.034,0.034 0.064,0.069 0.099,0.104 0.034,0.036 0.064,0.071 0.1,0.106 0.033,0.034 0.063,0.069 0.097,0.104 0.033,0.035 0.064,0.07 0.099,0.105 0.035,0.037 0.067,0.074 0.104,0.111 0.032,0.033 0.061,0.065 0.094,0.101 0.035,0.036 0.066,0.073 0.103,0.108 0.033,0.035 0.062,0.069 0.097,0.104 0.033,0.035 0.063,0.07 0.099,0.106 0.034,0.035 0.065,0.07 0.102,0.107 0.033,0.035 0.063,0.069 0.098,0.104 0.035,0.037 0.067,0.074 0.105,0.113 0.031,0.031 0.059,0.063 0.091,0.098 0.036,0.037 0.069,0.074 0.107,0.113 0.031,0.033 0.06,0.065 0.093,0.101 0.035,0.037 0.067,0.073 0.104,0.11 0.032,0.033 0.062,0.067 0.096,0.103 0.034,0.036 0.065,0.071 0.102,0.108 0.033,0.035 0.063,0.07 0.099,0.104 0.034,0.037 0.066,0.073 0.102,0.108 0.033,0.035 0.063,0.068 0.097,0.104 0.034,0.036 0.065,0.071 0.102,0.108 0.033,0.033 0.062,0.068 0.097,0.104 0.034,0.036 0.065,0.072 0.102,0.108 0.033,0.035 0.063,0.069 0.098,0.104 0.034,0.035 0.065,0.07 0.101,0.106 0.034,0.036 0.064,0.071 0.1,0.106 0.034,0.035 0.065,0.071 0.102,0.107 0.032,0.034 0.061,0.066 0.094,0.102 0.036,0.037 0.068,0.074 0.106,0.112 0.031,0.033 0.059,0.065 0.092,0.099 0.036,0.039 0.07,0.078 0.109,0.117 0.031,0.031 0.059,0.063 0.092,0.098 0.034,0.037 0.065,0.072 0.102,0.109 0.033,0.034 0.063,0.069 0.098,0.104 0.034,0.036 0.064,0.071 0.101,0.106 0.034,0.037 0.066,0.072 0.103,0.109 0.033,0.034 0.063,0.068 0.097,0.104 0.033,0.035 0.063,0.069 0.098,0.105 0.034,0.035 0.064,0.07 0.1,0.105 0.033,0.035 0.063,0.07 0.097,0.104 0.036,0.038 0.069,0.075 0.107,0.113 0.03,0.032 0.057,0.063 0.088,0.095 0.037,0.039 0.071,0.078 0.11,0.118 0.031,0.033 0.06,0.065 0.093,0.099 0.035,0.037 0.067,0.073 0.104,0.11 0.032,0.034 0.062,0.067 0.095,0.103 0.035,0.037 0.066,0.072 0.102,0.108 0.035,0.037 0.066,0.073 0.103,0.11 0.03,0.031 0.057,0.063 0.089,0.096 0.038,0.04 0.073,0.08 0.113,0.12 0.03,0.032 0.057,0.063 0.088,0.095 0.035,0.037 0.067,0.073 0.104,0.11 0.034,0.036 0.064,0.071 0.1,0.106 0.034,0.035 0.064,0.07 0.1,0.105 0.034,0.036 0.064,0.07 0.1,0.107 0.032,0.032 0.061,0.065 0.094,0.101 0.036,0.039 0.07,0.077 0.109,0.116 0.03,0.031 0.057,0.063 0.089,0.096 0.036,0.039 0.069,0.076 0.107,0.115 0.033,0.035 0.063,0.068 0.099,0.104 0.032,0.035 0.062,0.068 0.096,0.104 0.033,0.035 0.063,0.07 0.099,0.105 0.035,0.037 0.067,0.073 0.104,0.11 0.033,0.034 0.063,0.069 0.098,0.104 0.034,0.035 0.065,0.07 0.101,0.107 0.033,0.035 0.063,0.068 0.099,0.104 0.031,0.033 0.06,0.066 0.093,0.102 0.036,0.038 0.07,0.076 0.108,0.115 0.032,0.033 0.061,0.066 0.095,0.102 0.034,0.036 0.065,0.071 0.101,0.107 0.035,0.037 0.066,0.072 0.103,0.109 0.032,0.034 0.061,0.067 0.095,0.103 0.033,0.034 0.063,0.069 0.098,0.104 0.034,0.036 0.065,0.072 0.102,0.108 0.034,0.035 0.066,0.072 0.102,0.107 0.033,0.035 0.062,0.069 0.096,0.104 0.034,0.036 0.065,0.071 0.101,0.106 0.035,0.037 0.066,0.073 0.104,0.11 0.03,0.032 0.059,0.063 0.09,0.099 0.037,0.037 0.07,0.076 0.107,0.113 0.032,0.034 0.063,0.067 0.096,0.102 0.033,0.037 0.064,0.072 0.101,0.107 0.034,0.036 0.063,0.071 0.101,0.106 0.031,0.034 0.062,0.067 0.096,0.104 0.035,0.037 0.068,0.074 0.106,0.112 0.03,0.032 0.058,0.063 0.091,0.097 0.035,0.039 0.069,0.077 0.107,0.116 0.033,0.035 0.063,0.069 0.1,0.104 0.03,0.033 0.059,0.064 0.09,0.099 0.037,0.039 0.071,0.078 0.111,0.117 0.031,0.034 0.061,0.067 0.096,0.101 0.031,0.035 0.063,0.07 0.098,0.105 0.031,0.033 0.063,0.068 0.096,0.104 0.036,0.039 0.07,0.077 0.11,0.116 0.028,0.032 0.057,0.063 0.088,0.097 0.034,0.036 0.067,0.073 0.104,0.11 0.032,0.035 0.063,0.069 0.099,0.104 0.034,0.037 0.063,0.071 0.101,0.106 0.033,0.036 0.063,0.071 0.1,0.106 0.033,0.035 0.063,0.07 0.101,0.105 0.033,0.037 0.063,0.072 0.101,0.107 0.032,0.035 0.063,0.068 0.096,0.104 0.035,0.037 0.068,0.073 0.104,0.11 0.033,0.034 0.063,0.069 0.099,0.104 0.031,0.034 0.063,0.069 0.098,0.104 0.033,0.036 0.064,0.071 0.102,0.108 0.033,0.035 0.063,0.069 0.1,0.104 0.033,0.036 0.063,0.071 0.1,0.106 0.033,0.035 0.064,0.069 0.1,0.105 0.033,0.035 0.063,0.07 0.101,0.105 0.032,0.035 0.063,0.069 0.099,0.104 0.033,0.037 0.065,0.073 0.102,0.108 0.035,0.037 0.066,0.072 0.103,0.109 0.031,0.032 0.06,0.064 0.093,0.098 0.034,0.037 0.066,0.074 0.104,0.111 0.03,0.033 0.06,0.066 0.093,0.102 0.037,0.039 0.071,0.076 0.11,0.117 0.03,0.033 0.061,0.065 0.094,0.101 0.034,0.035 0.063,0.069 0.101,0.104 0.032,0.035 0.062,0.068 0.096,0.104 0.033,0.036 0.064,0.071 0.102,0.108 0.034,0.035 0.065,0.072 0.102,0.107 0.033,0.035 0.063,0.07 0.1,0.105 0.035,0.037 0.068,0.074 0.105,0.111 0.031,0.033 0.061,0.066 0.094,0.101 0.031,0.034 0.063,0.069 0.097,0.104 0.035,0.036 0.068,0.073 0.106,0.111 0.029,0.032 0.058,0.064 0.09,0.098 0.037,0.039 0.07,0.077 0.109,0.116 0.03,0.032 0.059,0.063 0.09,0.097 0.035,0.039 0.068,0.075 0.106,0.114 0.03,0.032 0.06,0.063 0.091,0.099 0.036,0.039 0.069,0.076 0.108,0.115 0.032,0.033 0.062,0.067 0.097,0.104 0.033,0.035 0.063,0.07 0.1,0.105 0.033,0.035 0.063,0.07 0.101,0.106 0.034,0.036 0.065,0.071 0.103,0.108 0.033,0.035 0.063,0.067 0.096,0.103 0.033,0.036 0.063,0.069 0.098,0.104 0.035,0.037 0.066,0.071 0.104,0.108 0.033,0.035 0.063,0.07 0.099,0.106 0.034,0.035 0.063,0.07 0.101,0.104 0.032,0.035 0.063,0.07 0.099,0.104 0.032,0.035 0.062,0.07 0.097,0.104 0.036,0.038 0.07,0.076 0.107,0.115 0.031,0.032 0.06,0.063 0.092,0.097 0.035,0.038 0.068,0.075 0.105,0.113 0.032,0.034 0.063,0.068 0.098,0.104 0.033,0.035 0.063,0.07 0.1,0.105 0.033,0.036 0.063,0.07 0.1,0.105 0.031,0.035 0.061,0.067 0.095,0.104 0.036,0.038 0.069,0.077 0.108,0.116 0.03,0.032 0.059,0.063 0.09,0.096 0.037,0.039 0.07,0.077 0.108,0.116 0.031,0.031 0.06,0.064 0.093,0.098 0.033,0.036 0.064,0.072 0.102,0.109 0.033,0.035 0.063,0.07 0.099,0.105 0.034,0.035 0.065,0.07 0.103,0.106 0.033,0.037 0.066,0.073 0.103,0.11 0.031,0.033 0.06,0.065 0.093,0.1 0.036,0.038 0.069,0.075 0.107,0.113 0.031,0.033 0.061,0.066 0.094,0.101 0.032,0.035 0.063,0.069 0.098,0.104 0.035,0.037 0.065,0.072 0.103,0.108 0.034,0.036 0.063,0.071 0.101,0.106 0.033,0.035 0.063,0.07 0.1,0.105 0.033,0.036 0.064,0.07 0.1,0.106 0.033,0.034 0.064,0.069 0.1,0.106 0.033,0.034 0.063,0.069 0.101,0.105 0.033,0.035 0.063,0.07 0.101,0.105 0.032,0.035 0.063,0.07 0.1,0.106 0.033,0.035 0.063,0.069 0.1,0.104 0.033,0.037 0.063,0.07 0.1,0.106 0.033,0.035 0.063,0.069 0.099,0.104 0.033,0.035 0.063,0.07 0.099,0.105 0.034,0.037 0.066,0.074 0.104,0.111 0.032,0.035 0.063,0.068 0.098,0.104 0.033,0.035 0.063,0.07 0.099,0.105 0.031,0.033 0.061,0.066 0.095,0.101 0.036,0.039 0.069,0.077 0.108,0.116 0.03,0.032 0.058,0.064 0.09,0.098 0.037,0.038 0.07,0.076 0.109,0.116 0.03,0.032 0.059,0.063 0.09,0.097 0.036,0.039 0.07,0.076 0.108,0.115 0.032,0.033 0.062,0.066 0.094,0.1 0.032,0.035 0.062,0.069 0.097,0.104 0.035,0.036 0.066,0.073 0.104,0.11 0.034,0.035 0.064,0.07 0.1,0.104 0.035,0.038 0.068,0.074 0.105,0.112 0.029,0.031 0.059,0.063 0.09,0.098 0.034,0.035 0.064,0.071 0.102,0.107 0.035,0.035 0.065,0.072 0.103,0.107 0.033,0.035 0.063,0.07 0.101,0.105 0.032,0.036 0.063,0.07 0.1,0.107 0.033,0.035 0.063,0.069 0.1,0.104 0.034,0.038 0.067,0.074 0.104,0.11 0.031,0.035 0.062,0.068 0.096,0.103 0.031,0.034 0.063,0.068 0.096,0.103 0.034,0.037 0.064,0.072 0.102,0.107 0.033,0.037 0.063,0.072 0.101,0.108 0.034,0.036 0.063,0.071 0.101,0.106 0.031,0.033 0.061,0.066 0.094,0.102 0.035,0.037 0.066,0.074 0.105,0.111 0.033,0.037 0.065,0.072 0.103,0.109 0.032,0.035 0.063,0.069 0.099,0.104 0.032,0.035 0.063,0.069 0.098,0.104 0.033,0.035 0.063,0.07 0.101,0.104 0.032,0.037 0.063,0.072 0.101,0.107 0.032,0.035 0.063,0.07 0.098,0.105 0.033,0.035 0.063,0.068 0.098,0.104 0.034,0.036 0.064,0.072 0.102,0.108 0.033,0.036 0.065,0.073 0.104,0.11 0.033,0.035 0.063,0.068 0.1,0.104 0.03,0.034 0.061,0.066 0.094,0.102 0.035,0.037 0.065,0.073 0.104,0.109 0.033,0.036 0.063,0.07 0.1,0.105 0.034,0.037 0.065,0.074 0.104,0.11 0.031,0.034 0.061,0.067 0.095,0.101 0.035,0.039 0.067,0.074 0.104,0.111 0.031,0.033 0.059,0.065 0.091,0.098 0.036,0.039 0.067,0.076 0.106,0.115 0.031,0.033 0.062,0.066 0.096,0.102 0.033,0.037 0.063,0.072 0.101,0.107 0.034,0.037 0.065,0.072 0.103,0.108 0.033,0.035 0.063,0.069 0.1,0.104 0.031,0.035 0.061,0.067 0.096,0.103 0.033,0.038 0.065,0.073 0.104,0.11 0.033,0.035 0.063,0.07 0.097,0.104 0.034,0.036 0.065,0.071 0.103,0.108 0.033,0.035 0.063,0.07 0.1,0.104 0.033,0.036 0.063,0.071 0.1,0.107 0.033,0.034 0.063,0.069 0.101,0.104 0.032,0.036 0.063,0.07 0.099,0.106 0.033,0.034 0.063,0.069 0.1,0.106 0.033,0.034 0.063,0.069 0.1,0.104 0.033,0.036 0.064,0.071 0.1,0.106 0.034,0.035 0.064,0.07 0.1,0.105 0.033,0.035 0.063,0.068 0.098,0.104 0.033,0.037 0.064,0.071 0.102,0.107 0.033,0.037 0.065,0.073 0.103,0.11 0.034,0.036 0.065,0.071 0.103,0.106 0.031,0.034 0.062,0.068 0.096,0.104 0.033,0.035 0.063,0.07 0.101,0.107 0.033,0.034 0.063,0.069 0.099,0.104 0.032,0.034 0.062,0.067 0.096,0.103 0.035,0.037 0.066,0.073 0.104,0.11 0.034,0.036 0.065,0.071 0.102,0.106 0.033,0.035 0.063,0.07 0.099,0.105 0.034,0.036 0.065,0.072 0.103,0.107 0.031,0.035 0.062,0.068 0.095,0.103 0.034,0.037 0.065,0.072 0.103,0.108 0.033,0.035 0.063,0.07 0.1,0.107 0.033,0.034 0.063,0.069 0.101,0.104 0.034,0.036 0.065,0.073 0.103,0.11 0.031,0.032 0.061,0.065 0.094,0.1 0.035,0.037 0.068,0.074 0.105,0.111 0.03,0.033 0.059,0.066 0.092,0.101 0.035,0.037 0.066,0.073 0.104,0.108 0.034,0.037 0.064,0.071 0.1,0.107 0.034,0.035 0.064,0.07 0.101,0.105 0.034,0.035 0.063,0.07 0.1,0.105 0.033,0.036 0.063,0.07 0.101,0.105 0.033,0.035 0.063,0.07 0.1,0.107 0.033,0.034 0.063,0.069 0.1,0.105 0.033,0.035 0.063,0.07 0.101,0.105 0.032,0.035 0.063,0.07 0.1,0.106 0.032,0.034 0.062,0.067 0.097,0.104 0.033,0.034 0.063,0.069 0.1,0.104 0.033,0.037 0.064,0.073 0.102,0.108 0.035,0.037 0.067,0.074 0.104,0.11 0.032,0.035 0.063,0.069 0.098,0.104 0.033,0.035 0.063,0.07 0.099,0.104 0.031,0.034 0.061,0.067 0.095,0.102 0.034,0.037 0.065,0.074 0.104,0.111 0.032,0.036 0.063,0.071 0.098,0.106 0.035,0.036 0.064,0.071 0.102,0.106 0.033,0.036 0.064,0.071 0.102,0.108 0.033,0.034 0.063,0.067 0.098,0.103 0.033,0.037 0.064,0.072 0.102,0.108 0.031,0.034 0.062,0.067 0.094,0.103 0.035,0.035 0.066,0.072 0.104,0.108 0.034,0.036 0.064,0.071 0.1,0.106 0.036,0.035 0.064,0.07 0.101,0.105 0.034,0.036 0.063,0.071 0.1,0.106 0.032,0.034 0.062,0.067 0.097,0.104 0.035,0.037 0.067,0.074 0.105,0.112 0.031,0.033 0.061,0.066 0.094,0.1 0.034,0.038 0.067,0.075 0.105,0.113 0.501,0.532 1.223,1.07 2.216,1.393 0,0.017 0,0.051 0,0.051 h 0.101 c 0,0.068 0,0.105 0,0.105 h 0.1 c 0,0.068 0,0.106 0,0.106 h 0.1 c 0,0.067 0,0.106 0,0.106 h 0.1 c 0,0.067 0,0.105 0,0.105 h 0.101 c 0,0.068 0,0.105 0,0.105 h 0.101 c 0,0.067 0,0.105 0,0.105 h 0.099 c 0,0.068 0,0.105 0,0.105 h 0.1 c 0,0.068 0,0.106 0,0.106 h 0.101 c 0,0.067 0,0.106 0,0.106 h 0.1 c 0,0.067 0,0.105 0,0.105 h 0.1 c 0,0.068 0,0.105 0,0.105 h 0.1 c 0,0.068 0,0.106 0,0.106 h 0.1 c 0,0.068 0,0.105 0,0.105 h 0.1 c 0,0.067 0,0.106 0,0.106 h 0.101 c 0,0.067 0,0.105 0,0.105 h 0.101 c 0,0.068 0,0.105 0,0.105 h 0.1 c -10e-4,0.068 -10e-4,0.106 -10e-4,0.106 h 0.1 c 0,0.067 0,0.106 0,0.106 h 0.101 c 0,0.067 0,0.105 0,0.105 h 0.1 c 0,0.068 0,0.105 0,0.105 h 0.1 c 0,0.067 0,0.105 0,0.105 h 0.101 c 0,0.068 0,0.105 0,0.105 h 0.1 c 0,0.068 0,0.106 0,0.106 h 0.101 c 0,0.068 0,0.106 0,0.106 h 0.099 c 0,0.068 0,0.105 0,0.105 h 0.101 c 0,0.068 0,0.105 0,0.105 h 0.1 c 0,0.068 0,0.107 0,0.107 h 0.1 c 0,0.067 0,0.104 0,0.104 h 0.1 c 0,0.067 0,0.106 0,0.106 h 0.1 c 0,0.067 0,0.105 0,0.105 h 0.1 c 0,0.068 0,0.105 0,0.105 h 0.1 c 0,0.068 0,0.106 0,0.106 h 0.101 c 0,0.067 0,0.106 0,0.106 h 0.099 c 0,0.067 0,0.104 0,0.104 h 0.101 c 0,0.068 0,0.106 0,0.106 h 0.1 c 0,0.068 0,0.105 0,0.105 h 0.101 c 0,0.068 0,0.106 0,0.106 h 0.1 c 0,0.067 0,0.106 0,0.106 h 4 3.996 v -7 c 0,-0.791 -0.438,-2.513 -1,-3 4.218,-0.332 7.85,-2.84 7.85,-7.84 z"
         id="path34"
         inkscape:connector-curvature="0"
         style="fill:#669900;stroke-width:0.7502265" /></g></g><path
     d="m 39.230966,51.999999 h -5.324783 -5.330114 c 0,0 0.01466,-3.164 0,-5.333333 -7.292926,1.570667 -9.327697,-4 -9.327697,-4 -1.332528,-2.666666 -2.665057,-4 -2.665057,-4 -2.665055,-1.584 0,-1.333333 0,-1.333333 2.665057,0 3.997586,2.666667 3.997586,2.666667 2.338587,3.973332 6.500073,3.333332 7.995168,2.666666 0,-1.333334 0.583648,-3.349333 1.332529,-4 -5.820483,-0.655999 -10.665555,-4 -10.665555,-10.666665 0,-6.666667 1.337858,-8 2.670385,-9.333334 -0.26917,-0.657333 -1.384496,-3.086666 0.04131,-6.666666 0,0 2.618419,0 5.283474,3.999999 1.320536,-1.321332 5.330114,-1.333332 6.663975,-1.333332 1.329863,0 5.340773,0.012 6.659976,1.333332 2.665057,-3.999999 5.290137,-3.999999 5.290137,-3.999999 1.424472,3.58 0.310479,6.009333 0.03998,6.666666 1.332528,1.333334 2.665056,2.666667 2.665056,9.333334 0,6.666665 -4.83841,10.010666 -10.660226,10.666665 0.750214,0.650667 1.332528,2.945333 1.332528,4 v 9.333333 z"
     id="Cat_2_"
     inkscape:connector-curvature="0"
     style="fill:#ffffff;stroke-width:0.99999988" /></svg>