<?xml version="1.0" encoding="UTF-8" standalone="no"?>
<!-- Generator: Adobe Illustrator 19.0.0, SVG Export Plug-In . SVG Version: 6.00 Build 0)  -->

<svg
   xmlns:dc="http://purl.org/dc/elements/1.1/"
   xmlns:cc="http://creativecommons.org/ns#"
   xmlns:rdf="http://www.w3.org/1999/02/22-rdf-syntax-ns#"
   xmlns:svg="http://www.w3.org/2000/svg"
   xmlns="http://www.w3.org/2000/svg"
   xmlns:sodipodi="http://sodipodi.sourceforge.net/DTD/sodipodi-0.dtd"
   xmlns:inkscape="http://www.inkscape.org/namespaces/inkscape"
   version="1.1"
   id="Layer_1"
   x="0px"
   y="0px"
   viewBox="0 0 512 512"
   style="enable-background:new 0 0 512 512;"
   xml:space="preserve"
   sodipodi:docname="icon-lock.svg"
   inkscape:version="0.92.3 (2405546, 2018-03-11)"><metadata
   id="metadata79"><rdf:RDF><cc:Work
       rdf:about=""><dc:format>image/svg+xml</dc:format><dc:type
         rdf:resource="http://purl.org/dc/dcmitype/StillImage" /></cc:Work></rdf:RDF></metadata><defs
   id="defs77">
	
	
	
	
	
	
	
	
</defs><sodipodi:namedview
   pagecolor="#ffffff"
   bordercolor="#666666"
   borderopacity="1"
   objecttolerance="10"
   gridtolerance="10"
   guidetolerance="10"
   inkscape:pageopacity="0"
   inkscape:pageshadow="2"
   inkscape:window-width="1440"
   inkscape:window-height="872"
   id="namedview75"
   showgrid="false"
   inkscape:zoom="0.4609375"
   inkscape:cx="-111.72881"
   inkscape:cy="256"
   inkscape:window-x="0"
   inkscape:window-y="0"
   inkscape:window-maximized="1"
   inkscape:current-layer="Layer_1" />
<path
   inkscape:connector-curvature="0"
   id="path2"
   d="M 512,317.793 H 0 V 48.552 C 0,31.488 13.833,17.655 30.897,17.655 h 450.207 c 17.064,0 30.897,13.833 30.897,30.897 v 269.241 z"
   style="fill:#111111;fill-opacity:1" /><path
   inkscape:connector-curvature="0"
   id="path4"
   d="M 361.931,494.345 H 150.069 c 0,-19.5 15.81,-35.31 35.31,-35.31 H 326.62 c 19.501,-0.001 35.311,15.81 35.311,35.31"
   style="fill:#e8edee" /><polygon
   id="polygon6"
   points="211.862,388.414 300.138,388.414 317.793,459.034 194.207,459.034 "
   style="fill:#b0b6bb" /><path
   inkscape:connector-curvature="0"
   id="path8"
   d="M 481.103,388.414 H 30.897 C 13.833,388.414 0,374.581 0,357.517 v -39.724 h 512 v 39.724 c 0,17.064 -13.833,30.897 -30.897,30.897"
   style="fill:#e8edee" /><g
   id="g16">
		<path
   inkscape:connector-curvature="0"
   id="path10"
   d="m 141.241,203.034 c -24.753,0 -44.138,-18.529 -44.138,-42.178 0,-4.873 3.955,-8.828 8.828,-8.828 4.873,0 8.828,3.955 8.828,8.828 0,13.983 11.388,24.523 26.483,24.523 9.251,0 16.057,-2.498 20.233,-7.433 2.26,-2.675 3.302,-6.135 2.922,-9.746 -0.406,-3.884 -2.401,-7.486 -5.491,-9.878 l -46.168,-35.911 c -6.859,-5.341 -11.308,-13.356 -12.209,-21.99 -0.883,-8.439 1.607,-16.605 7,-22.987 8.413,-9.94 20.701,-15.642 33.713,-15.642 24.338,0 44.138,19.8 44.138,44.138 0,4.873 -3.955,8.828 -8.828,8.828 -4.873,0 -8.828,-3.955 -8.828,-8.828 0,-14.601 -11.882,-26.483 -26.483,-26.483 -7.804,0 -15.183,3.425 -20.233,9.393 -2.26,2.675 -3.302,6.135 -2.922,9.754 0.406,3.875 2.401,7.477 5.491,9.878 l 46.168,35.902 c 6.859,5.341 11.308,13.356 12.209,21.99 0.883,8.448 -1.607,16.614 -7.009,22.987 -7.68,9.084 -19.015,13.683 -33.704,13.683"
   style="fill:#25ae88" />
		<path
   inkscape:connector-curvature="0"
   id="path12"
   d="m 141.241,79.448 c -4.873,0 -8.828,-3.955 -8.828,-8.828 V 52.966 c 0,-4.873 3.955,-8.828 8.828,-8.828 4.873,0 8.828,3.955 8.828,8.828 v 17.655 c 0,4.873 -3.955,8.827 -8.828,8.827"
   style="fill:#25ae88" />
		<path
   inkscape:connector-curvature="0"
   id="path14"
   d="m 141.241,220.69 c -4.873,0 -8.828,-3.955 -8.828,-8.828 v -15.695 c 0,-4.873 3.955,-8.828 8.828,-8.828 4.873,0 8.828,3.955 8.828,8.828 v 15.695 c 0,4.873 -3.955,8.828 -8.828,8.828"
   style="fill:#25ae88" />
	</g><g
   id="g26">
		<path
   inkscape:connector-curvature="0"
   id="path18"
   d="m 450.207,97.103 h -70.621 c -4.873,0 -8.828,-3.955 -8.828,-8.828 0,-4.873 3.955,-8.828 8.828,-8.828 h 70.621 c 4.882,0 8.828,3.955 8.828,8.828 -0.001,4.874 -3.946,8.828 -8.828,8.828"
   style="fill:#dd691d" />
		<path
   inkscape:connector-curvature="0"
   id="path20"
   d="M 450.207,150.069 H 317.793 c -4.873,0 -8.828,-3.955 -8.828,-8.828 0,-4.873 3.955,-8.828 8.828,-8.828 h 132.414 c 4.882,0 8.828,3.955 8.828,8.828 0,4.873 -3.946,8.828 -8.828,8.828"
   style="fill:#dd691d" />
		<path
   inkscape:connector-curvature="0"
   id="path22"
   d="m 450.207,203.034 h -44.138 c -4.873,0 -8.828,-3.955 -8.828,-8.828 0,-4.873 3.955,-8.828 8.828,-8.828 h 44.138 c 4.882,0 8.828,3.955 8.828,8.828 0,4.873 -3.946,8.828 -8.828,8.828"
   style="fill:#dd691d" />
		<path
   inkscape:connector-curvature="0"
   id="path24"
   d="m 450.207,256 h -70.621 c -4.873,0 -8.828,-3.955 -8.828,-8.828 0,-4.873 3.955,-8.828 8.828,-8.828 h 70.621 c 4.882,0 8.828,3.955 8.828,8.828 -0.001,4.873 -3.946,8.828 -8.828,8.828"
   style="fill:#dd691d" />
	</g><g
   id="g38">
		<path
   inkscape:connector-curvature="0"
   id="path28"
   d="m 176.552,291.31 h -70.621 c -4.873,0 -8.828,-3.955 -8.828,-8.828 0,-4.873 3.955,-8.828 8.828,-8.828 h 70.621 c 4.873,0 8.828,3.955 8.828,8.828 0,4.873 -3.955,8.828 -8.828,8.828"
   style="fill:#ecba16" />
		<path
   inkscape:connector-curvature="0"
   id="path30"
   d="m 220.69,291.31 c -2.295,0 -4.59,-0.971 -6.268,-2.56 -0.353,-0.441 -0.706,-0.883 -1.059,-1.324 -0.353,-0.53 -0.618,-1.059 -0.794,-1.589 -0.265,-0.53 -0.441,-1.059 -0.53,-1.589 -0.088,-0.618 -0.177,-1.148 -0.177,-1.766 0,-1.148 0.265,-2.295 0.706,-3.354 0.441,-1.059 1.059,-2.03 1.854,-2.913 3.354,-3.266 9.181,-3.266 12.535,0 0.794,0.883 1.412,1.854 1.854,2.913 0.441,1.059 0.706,2.207 0.706,3.354 0,0.618 -0.088,1.148 -0.177,1.766 -0.088,0.53 -0.265,1.059 -0.53,1.589 -0.177,0.53 -0.441,1.059 -0.794,1.589 -0.353,0.441 -0.706,0.883 -1.059,1.324 -1.677,1.589 -3.972,2.56 -6.267,2.56"
   style="fill:#ecba16" />
		<path
   inkscape:connector-curvature="0"
   id="path32"
   d="m 220.69,256 h -26.483 c -4.873,0 -8.828,-3.955 -8.828,-8.828 0,-4.873 3.955,-8.828 8.828,-8.828 h 26.483 c 4.873,0 8.828,3.955 8.828,8.828 -0.001,4.873 -3.956,8.828 -8.828,8.828"
   style="fill:#ecba16" />
		<path
   inkscape:connector-curvature="0"
   id="path34"
   d="m 123.586,256 h -17.655 c -4.873,0 -8.828,-3.955 -8.828,-8.828 0,-4.873 3.955,-8.828 8.828,-8.828 h 17.655 c 4.873,0 8.828,3.955 8.828,8.828 0,4.873 -3.955,8.828 -8.828,8.828"
   style="fill:#ecba16" />
		<path
   inkscape:connector-curvature="0"
   id="path36"
   d="m 158.897,256 c -2.295,0 -4.59,-0.971 -6.268,-2.56 -0.353,-0.441 -0.794,-0.883 -1.059,-1.324 -0.353,-0.53 -0.618,-1.059 -0.794,-1.589 -0.265,-0.53 -0.441,-1.059 -0.53,-1.589 -0.088,-0.618 -0.177,-1.148 -0.177,-1.766 0,-2.295 0.971,-4.59 2.56,-6.268 2.03,-2.03 5.12,-3.001 8.033,-2.383 0.53,0.088 1.059,0.265 1.589,0.53 0.53,0.177 1.059,0.441 1.589,0.794 0.441,0.353 0.883,0.706 1.324,1.059 1.589,1.677 2.56,3.972 2.56,6.268 0,0.618 -0.088,1.148 -0.177,1.766 -0.088,0.53 -0.265,1.059 -0.53,1.589 -0.177,0.53 -0.441,1.059 -0.794,1.589 -0.353,0.441 -0.706,0.883 -1.059,1.324 -0.441,0.353 -0.883,0.706 -1.324,1.059 -0.53,0.353 -1.059,0.618 -1.589,0.794 -0.53,0.265 -1.059,0.441 -1.589,0.53 -0.618,0.089 -1.148,0.177 -1.765,0.177"
   style="fill:#ecba16" />
	</g><path
   inkscape:connector-curvature="0"
   id="path40"
   d="m 450.207,273.655 c -4.882,0 -8.828,-3.955 -8.828,-8.828 V 70.621 c 0,-4.873 3.946,-8.828 8.828,-8.828 4.882,0 8.828,3.955 8.828,8.828 v 194.207 c -0.001,4.872 -3.946,8.827 -8.828,8.827"
   style="fill:#dd691d" />
<g
   id="g44">
</g>
<g
   id="g46">
</g>
<g
   id="g48">
</g>
<g
   id="g50">
</g>
<g
   id="g52">
</g>
<g
   id="g54">
</g>
<g
   id="g56">
</g>
<g
   id="g58">
</g>
<g
   id="g60">
</g>
<g
   id="g62">
</g>
<g
   id="g64">
</g>
<g
   id="g66">
</g>
<g
   id="g68">
</g>
<g
   id="g70">
</g>
<g
   id="g72">
</g>
</svg>