<?xml version="1.0" encoding="UTF-8" standalone="no"?>
<!-- Generator: Adobe Illustrator 13.0.0, SVG Export Plug-In . SVG Version: 6.00 Build 14948)  -->

<svg
   xmlns:dc="http://purl.org/dc/elements/1.1/"
   xmlns:cc="http://creativecommons.org/ns#"
   xmlns:rdf="http://www.w3.org/1999/02/22-rdf-syntax-ns#"
   xmlns:svg="http://www.w3.org/2000/svg"
   xmlns="http://www.w3.org/2000/svg"
   xmlns:sodipodi="http://sodipodi.sourceforge.net/DTD/sodipodi-0.dtd"
   xmlns:inkscape="http://www.inkscape.org/namespaces/inkscape"
   version="1.1"
   id="Layer_1"
   x="0px"
   y="0px"
   width="1503.0811"
   height="538.53802"
   viewBox="0 0 1503.0811 538.53803"
   xml:space="preserve"
   inkscape:version="0.92.3 (2405546, 2018-03-11)"
   sodipodi:docname="icon-java.svg"><metadata
     id="metadata33"><rdf:RDF><cc:Work
         rdf:about=""><dc:format>image/svg+xml</dc:format><dc:type
           rdf:resource="http://purl.org/dc/dcmitype/StillImage" /><dc:title></dc:title></cc:Work></rdf:RDF></metadata><defs
     id="defs31" /><sodipodi:namedview
     pagecolor="#ffffff"
     bordercolor="#666666"
     borderopacity="1"
     objecttolerance="10"
     gridtolerance="10"
     guidetolerance="10"
     inkscape:pageopacity="0"
     inkscape:pageshadow="2"
     inkscape:window-width="1366"
     inkscape:window-height="740"
     id="namedview29"
     showgrid="false"
     inkscape:zoom="0.314"
     inkscape:cx="652.14797"
     inkscape:cy="249.05287"
     inkscape:window-x="0"
     inkscape:window-y="0"
     inkscape:window-maximized="1"
     inkscape:current-layer="Layer_1"
     inkscape:pagecheckerboard="true" /><path
     d="m 824.84651,374.90881 c -0.27681,5.20287 -17.37135,12.15611 -22.9673,14.69993 -25.76151,11.6763 -62.77476,19.42297 -86.92783,2.11492 -23.36378,-16.73175 -16.78782,-47.98651 8.41638,-59.05434 12.68435,-5.50845 29.10935,-8.0737 46.34977,-9.11911 13.77663,-0.82826 41.95084,-2.60812 54.85217,-1.55201 z M 650.63176,213.534 l 10.08092,28.48044 c 16.99354,-2.96465 27.20913,-7.25614 52.80605,-10.8802 19.93369,-2.75287 41.6142,-4.33438 62.95059,-2.37761 21.50846,1.98089 33.50455,7.74936 40.88102,19.18441 3.7406,5.75775 5.77175,12.56356 6.81163,19.67228 l -0.25061,23.03631 c -1.40273,0.53342 -64.2897,3.3828 -73.30457,4.20036 -62.7598,5.76846 -125.92733,30.20668 -116.10824,86.71721 6.1084,35.16025 32.55818,51.17096 82.12114,55.46514 27.17547,2.35348 45.1341,0.11255 67.6226,-6.71201 9.49739,-2.88155 18.32147,-6.1893 26.33009,-9.8214 10.73926,-4.77666 20.13565,-11.66558 22.28275,-12.54477 l 6.64705,24.15676 h 50.92081 c 0.95011,-7.38213 0.19082,-97.75556 0.19082,-107.79675 0,-18.03181 0,-36.01 0,-54.0391 0,-17.45549 -1.84038,-31.22528 -13.25297,-44.18823 -34.49582,-39.35794 -109.51356,-37.49498 -171.4841,-26.78367 -13.86641,2.38835 -46.76875,8.88859 -55.24493,14.23083"
     style="fill:#ed1e24;fill-opacity:1;fill-rule:evenodd;stroke:none;stroke-width:1.91712964"
     id="path14"
     inkscape:connector-curvature="0" /><path
     d="m 1437.0184,377.89223 c -4.3952,1.77985 -9,4.9643 -14.0385,7.5912 -14.3489,7.41429 -32.1916,14.27104 -51.1153,15.95707 -56.1203,4.96432 -69.3171,-36.48979 -51.2837,-57.87223 19.2716,-22.82454 80.378,-21.57007 116.6132,-21.6746 z M 1263.1253,213.534 c 0.3515,4.43893 8.0086,25.1298 10.5372,28.36517 9.4526,-1.37241 30.2428,-7.64481 52.9969,-10.83729 33.022,-4.6909 87.287,-8.60713 103.1733,16.89793 6.4712,10.42986 11.1619,39.26681 6.5872,42.56384 -2.8466,1.4984 -30.4074,1.64582 -36.7328,1.94873 -36.4409,1.64315 -66.5864,3.62137 -98.1907,15.54964 -33.5346,12.58499 -61.4133,34.6885 -54.5006,73.6926 6.2805,35.43368 32.7153,50.90828 82.1473,55.31772 36.325,3.26484 64.8883,-3.46591 93.9827,-16.56556 12.6656,-5.70681 18.0147,-10.6604 22.3238,-12.70026 l 6.4003,24.28007 51.2311,0.0429 V 270.27507 c 0,-18.24088 -1.9899,-30.95187 -13.5746,-44.56349 -33.3736,-39.18372 -110.4225,-36.56486 -170.9865,-26.42984 -14.1881,2.35616 -46.5556,8.82691 -55.3946,14.25226"
     style="fill:#ed1e24;fill-opacity:1;fill-rule:evenodd;stroke:none;stroke-width:1.91712964"
     id="path16"
     inkscape:connector-curvature="0" /><path
     d="m 1032.6706,432.56124 81.6498,0.008 c 2.7045,-0.4691 8.4463,-9.9045 10.0248,-12.16684 3.0823,-4.54347 5.5062,-8.65804 8.4014,-13.18275 5.4912,-8.56424 10.5634,-18.12294 15.3402,-27.26347 19.713,-37.83273 35.6517,-79.11797 49.2264,-118.58313 3.3328,-9.72757 19.0396,-56.65529 19.0396,-63.36729 l -61.0316,-0.0322 c -13.3278,-0.11521 -7.9189,-1.31881 -11.4987,18.1551 -3.6845,20.20033 -9.6021,40.39798 -16.395,59.43229 -4.9974,13.89576 -39.5831,102.2588 -46.4807,107.95489 l -17.4313,-47.32978 c -6.5459,-15.748 -12.5384,-30.90898 -19.4062,-46.3621 l -30.1268,-68.64791 c -3.4338,-7.7279 -6.7069,-15.99997 -10.6831,-23.07651 l -72.13753,-0.12598 c 0.30674,4.56491 47.38593,110.04838 50.57293,117.49215 8.6333,20.08239 16.9786,38.52163 25.481,58.26895 8.2555,19.45515 17.9586,39.54826 25.4548,58.8265"
     style="fill:#ed1e24;fill-opacity:1;fill-rule:evenodd;stroke:none;stroke-width:1.91712964"
     id="path18"
     inkscape:connector-curvature="0" /><path
     d="m 513.87912,193.02007 0.0448,203.07015 c 0,37.75767 -17.19928,80.79327 -70.0465,93.1692 3.08227,4.59707 25.86253,21.32882 31.91109,27.8103 17.91372,-2.27308 44.22886,-14.0298 54.12275,-20.76324 15.14942,-10.25027 24.471,-18.23016 35.68159,-34.63757 22.38374,-32.69955 18.81896,-67.34784 18.81896,-106.57175 0,-80.14191 0.58353,-160.36961 -0.0298,-240.51154 -8.24055,-1.0588 -56.62147,-0.36723 -70.50284,-0.34578 v 78.78023"
     style="fill:#ed1e24;fill-opacity:1;fill-rule:evenodd;stroke:none;stroke-width:1.91712964"
     id="path20"
     inkscape:connector-curvature="0" /><path
     d="M 197.21533,291.77952 185.841,275.24427 c -3.73649,-5.42931 -7.39245,-11.46635 -10.87396,-17.49381 -6.37254,-11.09059 -14.02572,-25.17766 -17.53982,-39.16696 -6.41664,-25.61861 9.40735,-41.50203 23.37364,-58.29225 2.11076,-2.56128 4.58386,-4.95003 6.86716,-7.35411 14.61812,-15.39647 34.64254,-33.83542 50.23456,-49.00759 15.84699,-15.509595 25.3943,-32.642984 27.24433,-57.730544 C 266.14381,33.101175 263.61895,5.0554836 254.36305,1.1583984e-5 257.11797,19.65826 257.75637,33.01107 249.79453,52.767092 c -9.21756,22.938458 -24.22677,36.657439 -41.64389,50.219228 -14.23661,11.08293 -37.53549,31.07093 -49.81662,42.64081 -7.94459,7.54198 -21.3875,21.02899 -26.95101,34.18625 -8.23024,19.45695 -0.069,32.19436 8.74595,45.79448 4.20043,6.48565 8.46988,12.02041 12.95596,17.82356 5.22609,6.77705 9.87705,11.45102 14.06406,16.75188 4.41132,5.61719 9.86939,10.78385 14.68522,16.13073 3.00222,3.30321 12.41725,13.38348 15.38113,15.46549"
     style="fill:#ed1e24;fill-opacity:1;fill-rule:evenodd;stroke:none;stroke-width:1.91712976"
     id="path22"
     inkscape:connector-curvature="0" /><path
     d="m 366.06654,460.46392 c 5.57884,8.99326 0.0671,12.80643 -7.55733,16.37804 -33.87952,15.86042 -148.44911,18.83389 -184.22467,19.35151 -36.47723,0.53871 -73.23244,-0.91447 -108.46737,-7.09338 -5.705378,-0.97965 -30.808276,-4.98645 -31.975808,-11.64465 -0.772603,-4.19276 3.669387,-7.34644 5.960357,-8.76895 8.103708,-5.04013 22.953795,-8.51397 33.168263,-10.37167 2.950462,-0.52529 10.087937,-1.29598 12.29647,-2.19511 -17.066289,-2.51528 -71.150438,6.61985 -82.9829633,23.44074 -7.459552,10.58831 5.0401343,15.50191 13.3585603,18.2204 31.176365,10.17613 96.052041,12.23704 130.276641,12.73741 51.1471,0.69017 174.23259,0.18021 219.33882,-30.81594 2.63605,-1.78868 7.81038,-5.56351 8.34143,-9.22523 0.64416,-4.56085 -4.76215,-8.84564 -7.5324,-10.01317"
     style="fill:#3c8ace;fill-opacity:1;fill-rule:evenodd;stroke:none;stroke-width:1.91712976"
     id="path24"
     inkscape:connector-curvature="0" /><path
     d="m 218.46863,312.60529 c 5.43698,-1.86537 21.47761,-15.01496 25.79882,-19.43395 5.66895,-5.88559 15.32361,-16.76722 16.1614,-29.35509 0.73426,-11.42801 -7.14514,-26.30877 -11.95906,-33.60345 -15.21817,-23.07266 -27.37853,-36.28168 -6.77705,-61.86386 6.88825,-8.51589 14.35547,-15.19517 23.088,-22.40742 10.4541,-8.6405 27.56449,-20.44427 39.81686,-28.13388 l 13.95863,-8.97216 c -7.39054,0.9739 -26.95868,8.80729 -34.67896,11.68298 -10.37359,3.90903 -22.33265,9.85405 -31.39301,15.0744 -31.09392,17.98076 -61.68556,46.10889 -49.17246,85.00553 8.46221,26.31453 33.1165,42.07909 31.34124,61.79677 -1.07934,12.07983 -12.68565,24.16733 -16.18441,30.21013"
     style="fill:#ed1e24;fill-opacity:1;fill-rule:evenodd;stroke:none;stroke-width:1.91712976"
     id="path26"
     inkscape:connector-curvature="0" /><path
     d="m 283.39031,441.28496 c -9.54922,-3.61763 -16.73846,-7.81039 -25.29077,-12.88887 -4.95003,-2.95813 -3.04057,-2.71849 -9.38244,-1.14452 -25.86783,6.37254 -67.81846,6.45497 -94.98036,5.63061 -6.98794,-0.21664 -26.63085,-0.82245 -30.59931,-7.40588 -2.52486,-4.141 0.91256,-7.16623 2.25455,-9.52621 -17.80247,3.58695 -35.932765,18.3776 -11.17495,30.68941 27.85973,13.82442 86.40696,13.97396 116.89315,8.55232 8.67885,-1.54329 48.1238,-10.53655 52.28013,-13.90686"
     style="fill:#3c8ace;fill-opacity:1;fill-rule:evenodd;stroke:none;stroke-width:1.91712976"
     id="path28"
     inkscape:connector-curvature="0" /><path
     d="m 291.6263,383.19401 c -7.35986,-1.85003 -13.96629,-6.44731 -18.48113,-10.40235 -3.9397,-3.37607 -2.59196,-2.53828 -11.05417,-1.12152 -30.45552,5.07656 -121.11659,13.94328 -147.07261,3.24187 -3.36265,-1.39376 -7.241,-3.47576 -7.48064,-7.43655 -0.27607,-4.70272 3.70773,-7.241 5.38522,-9.80995 -20.879464,2.58429 -40.903885,22.70648 -12.955967,32.31322 31.519527,10.79919 99.502867,11.15961 133.023887,6.93617 11.03692,-1.41676 50.18854,-9.03159 58.63541,-13.72089"
     style="fill:#3c8ace;fill-opacity:1;fill-rule:evenodd;stroke:none;stroke-width:1.91712976"
     id="path30"
     inkscape:connector-curvature="0" /><path
     d="m 312.59587,314.77739 c -3.96846,0.16488 -9.27891,1.39951 -13.28571,2.04366 -4.64904,0.69017 -9.07569,1.37075 -13.71898,1.98423 -27.90383,3.90903 -58.83863,7.06271 -86.77313,8.69419 -21.80735,1.28064 -104.063722,3.99913 -116.337187,-7.44997 -0.906803,-5.14557 4.986454,-8.37977 8.604078,-10.35825 14.100489,-7.56308 29.102029,-10.11669 42.993549,-14.46091 -19.1943,-1.80402 -67.452291,12.00507 -84.900089,22.9097 -18.872226,11.76351 12.580206,16.45281 24.345631,18.09195 68.859468,9.59332 133.248188,4.44775 201.342728,-5.22609 11.10593,-1.57397 13.48125,-0.93748 21.04433,-5.74372 5.22034,-3.32622 12.05683,-6.82307 16.68478,-10.48479"
     style="fill:#3c8ace;fill-opacity:1;fill-rule:evenodd;stroke:none;stroke-width:1.91712976"
     id="path32"
     inkscape:connector-curvature="0" /><path
     d="m 74.616796,522.14182 c 19.224978,8.07304 61.093174,12.99239 82.825754,14.75232 30.54755,2.50952 64.08199,1.91713 94.62186,-0.23965 39.53314,-2.80092 86.42038,-7.3311 121.20478,-24.98978 8.26858,-4.22344 23.1781,-14.29604 24.60828,-23.97179 -2.48652,1.1311 -4.63562,3.39332 -6.96301,4.95769 -61.34816,42.23629 -201.56128,38.2084 -273.9406,33.04749 l -42.357064,-3.55628"
     style="fill:#3c8ace;fill-opacity:1;fill-rule:evenodd;stroke:none;stroke-width:1.91712976"
     id="path34"
     inkscape:connector-curvature="0" /><path
     d="m 326.49506,298.30158 c 15.0303,-4.69505 32.12726,-1.57205 41.64581,6.89017 10.28924,9.17346 10.4081,26.5695 2.98689,40.04884 -9.92882,17.97309 -30.77185,34.00796 -48.02602,44.83591 -2.95813,1.86537 -5.81849,3.27254 -8.38744,5.17434 11.12894,-1.17521 37.52015,-13.09784 47.56207,-19.29783 12.8141,-7.91583 27.1178,-19.47037 33.01873,-34.44124 8.42387,-21.2533 -3.82659,-37.47414 -16.88033,-45.15032 -7.50365,-4.38831 -16.56592,-7.0167 -27.1178,-6.58151 -8.07112,0.32975 -21.1632,3.54094 -24.80191,8.52164"
     style="fill:#3c8ace;fill-opacity:1;fill-rule:evenodd;stroke:none;stroke-width:1.91712976"
     id="path36"
     inkscape:connector-curvature="0" /></svg>