<?xml version="1.0" encoding="UTF-8" standalone="no"?>
<!-- Generator: Adobe Illustrator 19.0.0, SVG Export Plug-In . SVG Version: 6.00 Build 0)  -->

<svg
   xmlns:dc="http://purl.org/dc/elements/1.1/"
   xmlns:cc="http://creativecommons.org/ns#"
   xmlns:rdf="http://www.w3.org/1999/02/22-rdf-syntax-ns#"
   xmlns:svg="http://www.w3.org/2000/svg"
   xmlns="http://www.w3.org/2000/svg"
   xmlns:sodipodi="http://sodipodi.sourceforge.net/DTD/sodipodi-0.dtd"
   xmlns:inkscape="http://www.inkscape.org/namespaces/inkscape"
   version="1.1"
   id="Layer_1"
   x="0px"
   y="0px"
   viewBox="0 0 512 512"
   style="enable-background:new 0 0 512 512;"
   xml:space="preserve"
   sodipodi:docname="analytics.svg"
   inkscape:version="0.92.3 (2405546, 2018-03-11)"><metadata
   id="metadata83"><rdf:RDF><cc:Work
       rdf:about=""><dc:format>image/svg+xml</dc:format><dc:type
         rdf:resource="http://purl.org/dc/dcmitype/StillImage" /></cc:Work></rdf:RDF></metadata><defs
   id="defs81">
	
	
	
	
	
	
	
</defs><sodipodi:namedview
   pagecolor="#ffffff"
   bordercolor="#666666"
   borderopacity="1"
   objecttolerance="10"
   gridtolerance="10"
   guidetolerance="10"
   inkscape:pageopacity="0"
   inkscape:pageshadow="2"
   inkscape:window-width="1440"
   inkscape:window-height="872"
   id="namedview79"
   showgrid="false"
   inkscape:zoom="0.921875"
   inkscape:cx="322.67993"
   inkscape:cy="267.7374"
   inkscape:window-x="0"
   inkscape:window-y="0"
   inkscape:window-maximized="1"
   inkscape:current-layer="Layer_1" />
<path
   inkscape:connector-curvature="0"
   id="path2"
   d="M 512,317.793 H 0 V 48.552 C 0,31.488 13.833,17.655 30.897,17.655 h 450.207 c 17.064,0 30.897,13.833 30.897,30.897 v 269.241 z"
   style="fill:#111111;fill-opacity:1" /><g
   id="g34">
		<path
   inkscape:connector-curvature="0"
   id="path4"
   d="M 70.621,88.276 H 44.138 c -4.873,0 -8.828,-3.955 -8.828,-8.828 0,-4.873 3.955,-8.828 8.828,-8.828 h 26.483 c 4.873,0 8.828,3.955 8.828,8.828 -0.001,4.873 -3.955,8.828 -8.828,8.828"
   style="fill:#ea6148" />
		<path
   inkscape:connector-curvature="0"
   id="path6"
   d="m 194.207,88.276 h -88.276 c -4.873,0 -8.828,-3.955 -8.828,-8.828 0,-4.873 3.955,-8.828 8.828,-8.828 h 88.276 c 4.873,0 8.828,3.955 8.828,8.828 -0.001,4.873 -3.955,8.828 -8.828,8.828"
   style="fill:#ea6148" />
		<path
   inkscape:connector-curvature="0"
   id="path8"
   d="M 88.276,123.586 H 44.138 c -4.873,0 -8.828,-3.955 -8.828,-8.828 0,-4.873 3.955,-8.828 8.828,-8.828 h 44.138 c 4.873,0 8.828,3.955 8.828,8.828 0,4.873 -3.955,8.828 -8.828,8.828"
   style="fill:#ea6148" />
		<path
   inkscape:connector-curvature="0"
   id="path10"
   d="m 150.069,123.586 h -26.483 c -4.873,0 -8.828,-3.955 -8.828,-8.828 0,-4.873 3.955,-8.828 8.828,-8.828 h 26.483 c 4.873,0 8.828,3.955 8.828,8.828 0,4.873 -3.955,8.828 -8.828,8.828"
   style="fill:#ea6148" />
		<path
   inkscape:connector-curvature="0"
   id="path12"
   d="m 194.207,123.586 h -8.828 c -4.873,0 -8.828,-3.955 -8.828,-8.828 0,-4.873 3.955,-8.828 8.828,-8.828 h 8.828 c 4.873,0 8.828,3.955 8.828,8.828 0,4.873 -3.955,8.828 -8.828,8.828"
   style="fill:#ea6148" />
		<path
   inkscape:connector-curvature="0"
   id="path14"
   d="M 70.621,158.897 H 44.138 c -4.873,0 -8.828,-3.955 -8.828,-8.828 0,-4.873 3.955,-8.828 8.828,-8.828 h 26.483 c 4.873,0 8.828,3.955 8.828,8.828 -0.001,4.873 -3.955,8.828 -8.828,8.828"
   style="fill:#ea6148" />
		<path
   inkscape:connector-curvature="0"
   id="path16"
   d="m 194.207,158.897 h -88.276 c -4.873,0 -8.828,-3.955 -8.828,-8.828 0,-4.873 3.955,-8.828 8.828,-8.828 h 88.276 c 4.873,0 8.828,3.955 8.828,8.828 -0.001,4.873 -3.955,8.828 -8.828,8.828"
   style="fill:#ea6148" />
		<path
   inkscape:connector-curvature="0"
   id="path18"
   d="M 88.276,194.207 H 44.138 c -4.873,0 -8.828,-3.955 -8.828,-8.828 0,-4.873 3.955,-8.828 8.828,-8.828 h 44.138 c 4.873,0 8.828,3.955 8.828,8.828 -0.001,4.873 -3.955,8.828 -8.828,8.828"
   style="fill:#ea6148" />
		<path
   inkscape:connector-curvature="0"
   id="path20"
   d="m 150.069,194.207 h -26.483 c -4.873,0 -8.828,-3.955 -8.828,-8.828 0,-4.873 3.955,-8.828 8.828,-8.828 h 26.483 c 4.873,0 8.828,3.955 8.828,8.828 0,4.873 -3.955,8.828 -8.828,8.828"
   style="fill:#ea6148" />
		<path
   inkscape:connector-curvature="0"
   id="path22"
   d="m 194.207,194.207 h -8.828 c -4.873,0 -8.828,-3.955 -8.828,-8.828 0,-4.873 3.955,-8.828 8.828,-8.828 h 8.828 c 4.873,0 8.828,3.955 8.828,8.828 -0.001,4.873 -3.955,8.828 -8.828,8.828"
   style="fill:#ea6148" />
		<path
   inkscape:connector-curvature="0"
   id="path24"
   d="M 70.621,229.517 H 44.138 c -4.873,0 -8.828,-3.955 -8.828,-8.828 0,-4.873 3.955,-8.828 8.828,-8.828 h 26.483 c 4.873,0 8.828,3.955 8.828,8.828 -0.001,4.873 -3.955,8.828 -8.828,8.828"
   style="fill:#ea6148" />
		<path
   inkscape:connector-curvature="0"
   id="path26"
   d="m 194.207,229.517 h -88.276 c -4.873,0 -8.828,-3.955 -8.828,-8.828 0,-4.873 3.955,-8.828 8.828,-8.828 h 88.276 c 4.873,0 8.828,3.955 8.828,8.828 -0.001,4.873 -3.955,8.828 -8.828,8.828"
   style="fill:#ea6148" />
		<path
   inkscape:connector-curvature="0"
   id="path28"
   d="M 88.276,264.828 H 44.138 c -4.873,0 -8.828,-3.955 -8.828,-8.828 0,-4.873 3.955,-8.828 8.828,-8.828 h 44.138 c 4.873,0 8.828,3.955 8.828,8.828 0,4.873 -3.955,8.828 -8.828,8.828"
   style="fill:#ea6148" />
		<path
   inkscape:connector-curvature="0"
   id="path30"
   d="m 150.069,264.828 h -26.483 c -4.873,0 -8.828,-3.955 -8.828,-8.828 0,-4.873 3.955,-8.828 8.828,-8.828 h 26.483 c 4.873,0 8.828,3.955 8.828,8.828 0,4.873 -3.955,8.828 -8.828,8.828"
   style="fill:#ea6148" />
		<path
   inkscape:connector-curvature="0"
   id="path32"
   d="m 194.207,264.828 h -8.828 c -4.873,0 -8.828,-3.955 -8.828,-8.828 0,-4.873 3.955,-8.828 8.828,-8.828 h 8.828 c 4.873,0 8.828,3.955 8.828,8.828 0,4.873 -3.955,8.828 -8.828,8.828"
   style="fill:#ea6148" />
	</g><path
   inkscape:connector-curvature="0"
   id="path36"
   d="M 361.931,494.345 H 150.069 c 0,-19.5 15.81,-35.31 35.31,-35.31 H 326.62 c 19.501,-0.001 35.311,15.81 35.311,35.31"
   style="fill:#e8edee" /><polygon
   id="polygon38"
   points="211.862,388.414 300.138,388.414 317.793,459.034 194.207,459.034 "
   style="fill:#b0b6bb" /><path
   inkscape:connector-curvature="0"
   id="path40"
   d="M 481.103,388.414 H 30.897 C 13.833,388.414 0,374.581 0,357.517 v -39.724 h 512 v 39.724 c 0,17.064 -13.833,30.897 -30.897,30.897"
   style="fill:#e8edee" /><path
   inkscape:connector-curvature="0"
   id="path42"
   d="m 379.586,61.793 v 88.276 h 88.276 c 0,-48.755 -39.521,-88.276 -88.276,-88.276"
   style="fill:#ecba16" /><path
   inkscape:connector-curvature="0"
   id="path44"
   d="M 344.276,185.379 V 97.103 c -48.755,0 -88.276,39.521 -88.276,88.276 0,48.755 39.521,88.276 88.276,88.276 48.755,0 88.276,-39.521 88.276,-88.276 z"
   style="fill:#25ae88" />
<g
   id="g48">
</g>
<g
   id="g50">
</g>
<g
   id="g52">
</g>
<g
   id="g54">
</g>
<g
   id="g56">
</g>
<g
   id="g58">
</g>
<g
   id="g60">
</g>
<g
   id="g62">
</g>
<g
   id="g64">
</g>
<g
   id="g66">
</g>
<g
   id="g68">
</g>
<g
   id="g70">
</g>
<g
   id="g72">
</g>
<g
   id="g74">
</g>
<g
   id="g76">
</g>
</svg>