<?xml version="1.0" encoding="UTF-8" standalone="no"?>
<!-- Generator: Adobe Illustrator 19.0.0, SVG Export Plug-In . SVG Version: 6.00 Build 0)  -->

<svg
   xmlns:dc="http://purl.org/dc/elements/1.1/"
   xmlns:cc="http://creativecommons.org/ns#"
   xmlns:rdf="http://www.w3.org/1999/02/22-rdf-syntax-ns#"
   xmlns:svg="http://www.w3.org/2000/svg"
   xmlns="http://www.w3.org/2000/svg"
   xmlns:sodipodi="http://sodipodi.sourceforge.net/DTD/sodipodi-0.dtd"
   xmlns:inkscape="http://www.inkscape.org/namespaces/inkscape"
   version="1.1"
   id="Layer_1"
   x="0px"
   y="0px"
   viewBox="0 0 512 512"
   style="enable-background:new 0 0 512 512;"
   xml:space="preserve"
   sodipodi:docname="analytics.svg"
   inkscape:version="0.92.3 (2405546, 2018-03-11)"><metadata
   id="metadata75"><rdf:RDF><cc:Work
       rdf:about=""><dc:format>image/svg+xml</dc:format><dc:type
         rdf:resource="http://purl.org/dc/dcmitype/StillImage" /></cc:Work></rdf:RDF></metadata><defs
   id="defs73">
	
	
	
	
	
	
</defs><sodipodi:namedview
   pagecolor="#ffffff"
   bordercolor="#666666"
   borderopacity="1"
   objecttolerance="10"
   gridtolerance="10"
   guidetolerance="10"
   inkscape:pageopacity="0"
   inkscape:pageshadow="2"
   inkscape:window-width="1440"
   inkscape:window-height="872"
   id="namedview71"
   showgrid="false"
   inkscape:zoom="0.921875"
   inkscape:cx="139.39716"
   inkscape:cy="279.48389"
   inkscape:window-x="0"
   inkscape:window-y="0"
   inkscape:window-maximized="1"
   inkscape:current-layer="Layer_1" />
<path
   inkscape:connector-curvature="0"
   id="path2"
   d="M 361.931,494.345 H 150.069 c 0,-19.5 15.81,-35.31 35.31,-35.31 H 326.62 c 19.501,-0.001 35.311,15.81 35.311,35.31"
   style="fill:#e8edee" /><polygon
   id="polygon4"
   points="211.862,388.414 300.138,388.414 317.793,459.034 194.207,459.034 "
   style="fill:#b0b6bb" /><path
   inkscape:connector-curvature="0"
   id="path6"
   d="M 512,317.793 H 0 V 48.552 C 0,31.488 13.833,17.655 30.897,17.655 h 450.207 c 17.064,0 30.897,13.833 30.897,30.897 v 269.241 z"
   style="fill:#111111;fill-opacity:1" /><path
   inkscape:connector-curvature="0"
   id="path8"
   d="M 481.103,388.414 H 30.897 C 13.833,388.414 0,374.581 0,357.517 v -39.724 h 512 v 39.724 c 0,17.064 -13.833,30.897 -30.897,30.897"
   style="fill:#e8edee" /><g
   id="g20">
		<path
   inkscape:connector-curvature="0"
   id="path10"
   d="m 158.892,273.655 c -2.136,0 -4.281,-0.768 -5.976,-2.331 -3.584,-3.302 -3.814,-8.889 -0.512,-12.473 l 102.4,-111.228 c 3.302,-3.584 8.889,-3.822 12.473,-0.521 3.584,3.302 3.814,8.889 0.512,12.473 l -102.4,111.228 c -1.739,1.899 -4.113,2.852 -6.497,2.852"
   style="fill:#ecba16" />
		<path
   inkscape:connector-curvature="0"
   id="path12"
   d="m 340.746,241.875 c -2.26,0 -4.52,-0.865 -6.241,-2.587 L 255.057,159.84 c -3.452,-3.452 -3.452,-9.031 0,-12.482 3.452,-3.452 9.031,-3.452 12.482,0 l 79.448,79.448 c 3.452,3.452 3.452,9.031 0,12.482 -1.722,1.722 -3.981,2.587 -6.241,2.587"
   style="fill:#ecba16" />
		<path
   inkscape:connector-curvature="0"
   id="path14"
   d="m 340.746,241.875 c -2.26,0 -4.52,-0.865 -6.241,-2.587 -3.452,-3.452 -3.452,-9.031 0,-12.482 L 461.622,99.689 c 3.443,-3.452 9.031,-3.452 12.482,0 3.452,3.452 3.452,9.039 0,12.482 L 346.987,239.288 c -1.722,1.722 -3.981,2.587 -6.241,2.587"
   style="fill:#ecba16" />
		<path
   inkscape:connector-curvature="0"
   id="path16"
   d="m 467.862,176.552 c -4.873,0 -8.828,-3.955 -8.828,-8.828 v -61.793 c 0,-4.873 3.955,-8.828 8.828,-8.828 4.873,0 8.828,3.955 8.828,8.828 v 61.793 c 0,4.873 -3.955,8.828 -8.828,8.828"
   style="fill:#ecba16" />
		<path
   inkscape:connector-curvature="0"
   id="path18"
   d="m 467.862,114.759 h -61.793 c -4.873,0 -8.828,-3.955 -8.828,-8.828 0,-4.873 3.955,-8.828 8.828,-8.828 h 61.793 c 4.873,0 8.828,3.955 8.828,8.828 0,4.873 -3.955,8.828 -8.828,8.828"
   style="fill:#ecba16" />
	</g><g
   id="g36">
		<path
   inkscape:connector-curvature="0"
   id="path22"
   d="m 44.138,282.483 c -4.873,0 -8.828,-3.955 -8.828,-8.828 V 79.448 c 0,-4.873 3.955,-8.828 8.828,-8.828 4.873,0 8.828,3.955 8.828,8.828 v 194.207 c 0,4.873 -3.955,8.828 -8.828,8.828"
   style="fill:#ea6148" />
		<path
   inkscape:connector-curvature="0"
   id="path24"
   d="M 97.103,97.103 H 79.448 c -4.873,0 -8.828,-3.955 -8.828,-8.828 0,-4.873 3.955,-8.828 8.828,-8.828 h 17.655 c 4.873,0 8.828,3.955 8.828,8.828 0,4.874 -3.955,8.828 -8.828,8.828"
   style="fill:#ea6148" />
		<path
   inkscape:connector-curvature="0"
   id="path26"
   d="m 114.759,132.414 h -35.31 c -4.873,0 -8.828,-3.955 -8.828,-8.828 0,-4.873 3.955,-8.828 8.828,-8.828 h 35.31 c 4.873,0 8.828,3.955 8.828,8.828 0,4.873 -3.956,8.828 -8.828,8.828"
   style="fill:#ea6148" />
		<path
   inkscape:connector-curvature="0"
   id="path28"
   d="M 97.103,167.724 H 79.448 c -4.873,0 -8.828,-3.955 -8.828,-8.828 0,-4.873 3.955,-8.828 8.828,-8.828 h 17.655 c 4.873,0 8.828,3.955 8.828,8.828 0,4.873 -3.955,8.828 -8.828,8.828"
   style="fill:#ea6148" />
		<path
   inkscape:connector-curvature="0"
   id="path30"
   d="m 114.759,203.034 h -35.31 c -4.873,0 -8.828,-3.955 -8.828,-8.828 0,-4.873 3.955,-8.828 8.828,-8.828 h 35.31 c 4.873,0 8.828,3.955 8.828,8.828 0,4.873 -3.956,8.828 -8.828,8.828"
   style="fill:#ea6148" />
		<path
   inkscape:connector-curvature="0"
   id="path32"
   d="M 97.103,238.345 H 79.448 c -4.873,0 -8.828,-3.955 -8.828,-8.828 0,-4.873 3.955,-8.828 8.828,-8.828 h 17.655 c 4.873,0 8.828,3.955 8.828,8.828 0,4.873 -3.955,8.828 -8.828,8.828"
   style="fill:#ea6148" />
		<path
   inkscape:connector-curvature="0"
   id="path34"
   d="m 114.759,273.655 h -35.31 c -4.873,0 -8.828,-3.955 -8.828,-8.828 0,-4.873 3.954,-8.827 8.827,-8.827 h 35.31 c 4.873,0 8.828,3.955 8.828,8.828 0,4.873 -3.955,8.827 -8.827,8.827"
   style="fill:#ea6148" />
	</g>
<g
   id="g40">
</g>
<g
   id="g42">
</g>
<g
   id="g44">
</g>
<g
   id="g46">
</g>
<g
   id="g48">
</g>
<g
   id="g50">
</g>
<g
   id="g52">
</g>
<g
   id="g54">
</g>
<g
   id="g56">
</g>
<g
   id="g58">
</g>
<g
   id="g60">
</g>
<g
   id="g62">
</g>
<g
   id="g64">
</g>
<g
   id="g66">
</g>
<g
   id="g68">
</g>
</svg>