<?xml version="1.0" standalone="no"?><!DOCTYPE svg PUBLIC "-//W3C//DTD SVG 1.1//EN" "http://www.w3.org/Graphics/SVG/1.1/DTD/svg11.dtd"><svg class="icon" height="512" viewBox="0 0 1024 1024" version="1.1" xmlns="http://www.w3.org/2000/svg"><path d="M69.381184 925.715533c-0.874927 4.207835-2.006703 7.611352-3.400446 10.209526-1.397836 2.589988-3.359514 4.693906-5.886057 6.319939-2.529613 1.617847-5.669116 2.833535-9.417487 3.64604-3.752464 0.805342-8.501628 1.215688-14.256702 1.215688-7.15291 0-12.993942-0.652869-17.526165-1.944282-4.53734-1.298576-7.978718-3.243881-10.332323-5.833869-2.354628-2.598174-3.707438-5.91778-4.054339-9.965979-0.352017-4.056386 0-8.834202 1.046842-14.341636l156.430772-816.250422c0.694825-4.207835 1.740644-7.695263 3.139503-10.45205 1.393743-2.749624 3.310396-4.937452 5.755074-6.563486 2.440585-1.617847 5.624091-2.833535 9.54847-3.64604 3.923356-0.805342 8.673543-1.215688 14.256702-1.215688 7.324826 0 13.20986 0.653893 17.657148 1.944282 4.447289 1.298576 7.80271 3.243881 10.07138 5.833869 2.264577 2.598174 3.572362 5.91778 3.923356 9.965979 0.346901 4.056386 0.085958 8.834202-0.784876 14.341636L69.381184 925.715533zM521.670244 597.73157c0 2.393513-0.352017 4.399193-1.046842 6.028297-0.698918 1.629103-2.354628 2.989077-4.970198 4.073782-2.615571 1.084705-6.453992 1.842974-11.510148 2.28095-5.060249 0.432859-11.9471 0.651846-20.665669 0.651846-7.324826 0-13.169951-0.218988-17.526165-0.651846-4.361331-0.437975-7.806803-1.252527-10.332323-2.443655-2.529613-1.191128-4.316306-2.713808-5.362124-4.561899-1.046842-1.842974-1.920746-4.073782-2.615571-6.680143l-30.344099-94.174869c-3.662413-10.641361-7.238868-20.091594-10.725272-28.350698-3.490497-8.253988-7.369851-15.153118-11.641131-20.692275-4.275373-5.54018-9.200546-9.720386-14.779611-12.545734-5.583159-2.820232-12.033058-4.236488-19.357883-4.236488L339.342662 436.428837l0 160.65191c0 2.174526-0.567935 4.129041-1.700735 5.865591-1.13587 1.741667-3.00852 3.151783-5.624091 4.236488-2.615571 1.089821-6.106068 1.955538-10.463306 2.607384-4.361331 0.651846-9.940396 0.977257-16.741289 0.977257-6.630001 0-12.164041-0.325411-16.61133-0.977257-4.447289-0.651846-7.978718-1.517563-10.594289-2.607384-2.615571-1.084705-4.447289-2.494821-5.493108-4.236488-1.046842-1.736551-1.569752-3.691065-1.569752-5.865591L270.544763 214.187197c0-9.556657 1.961678-16.455787 5.886057-20.692275s8.763594-6.354731 14.518668-6.354731l87.632873 0c8.893554 0 16.21838 0.218988 21.973454 0.651846 5.755074 0.437975 10.987239 0.977257 15.69547 1.629103 13.602809 2.393513 25.852808 6.517437 36.753065 12.383028 10.897188 5.865591 20.142759 13.522991 27.728528 22.973224 7.585769 9.450233 13.381775 20.642133 17.396205 33.564443 4.009314 12.927427 6.01704 27.755134 6.01704 44.481074 0 14.124695-1.438769 26.995841-4.316306 38.615483-2.877537 11.624758-7.107885 21.995967-12.68695 31.119765-5.583159 9.123798-12.470009 17.057491-20.665669 23.787776-8.199753 6.736425-17.526165 12.169157-27.990494 16.293081 5.056156 3.045359 9.809413 6.736425 14.256702 11.079336 4.447289 4.348028 8.632611 9.612938 12.555967 15.804964 3.923356 6.191003 7.626701 13.253862 11.117199 21.181415 3.486404 7.93267 6.886851 16.893762 10.202363 26.8843l28.513404 83.095533c2.615571 8.259104 4.357238 14.287401 5.232165 18.085914C521.233292 592.573083 521.670244 595.562161 521.670244 597.73157zM432.991552 311.621297c0-13.900591-2.529613-25.631774-7.585769-35.193547-5.060249-9.556657-13.340843-16.293081-24.850991-20.204158-3.490497-1.084705-7.455809-1.955538-11.902074-2.607384s-10.594289-0.977257-18.442024-0.977257L339.342662 252.638951l0 119.592772 35.053354 0c9.764388 0 18.311041-1.466398 25.635867-4.399193s13.426801-7.05672 18.311041-12.383028c4.880147-5.321192 8.54256-11.6749 10.987239-19.063171C431.769724 329.004199 432.991552 320.745095 432.991552 311.621297zM772.796748 804.823162c0 6.303566-0.221034 11.568477-0.653893 15.804964-0.436952 4.236488-1.090844 7.6574-1.961678 10.264784-0.874927 2.607384-1.961678 4.511757-3.269463 5.702885-1.307785 1.196245-2.746554 1.791809-4.316306 1.791809L592.560804 838.387605c-5.755074 0-10.594289-2.118244-14.518668-6.354731s-5.886057-11.130502-5.886057-20.692275L572.156078 443.763896c0-9.556657 1.961678-16.455787 5.886057-20.692275s8.763594-6.354731 14.518668-6.354731l168.986739 0c1.569752 0 2.963495 0.544399 4.185322 1.629103 1.217734 1.089821 2.264577 2.989077 3.139503 5.702885 0.870834 2.718925 1.524726 6.191003 1.961678 10.42749 0.432859 4.236488 0.653893 9.612938 0.653893 16.130376 0 6.084579-0.221034 11.242042-0.653893 15.47853-0.436952 4.236488-1.090844 7.6574-1.961678 10.264784-0.874927 2.607384-1.920746 4.511757-3.139503 5.702885-1.221828 1.196245-2.615571 1.791809-4.185322 1.791809L640.694057 483.844753l0 102.973256L742.975559 586.818009c1.569752 0 3.00852 0.600681 4.316306 1.791809 1.307785 1.196245 2.39556 3.045359 3.269463 5.54018 0.870834 2.499937 1.524726 5.865591 1.961678 10.102079 0.432859 4.236488 0.653893 9.399067 0.653893 15.47853 0 6.303566-0.221034 11.517311-0.653893 15.641235-0.436952 4.129041-1.091868 7.444553-1.961678 9.939373-0.874927 2.499937-1.961678 4.29277-3.269463 5.376451-1.307785 1.089821-2.746554 1.629103-4.316306 1.629103l-102.281501 0L640.694057 771.258719l121.900328 0c1.569752 0 3.00852 0.600681 4.316306 1.791809 1.307785 1.196245 2.39556 3.095501 3.269463 5.702885 0.870834 2.607384 1.524726 6.028297 1.961678 10.264784C772.575714 793.254685 772.796748 798.524712 772.796748 804.823162zM862.521259 925.715533c-0.874927 4.207835-2.006703 7.611352-3.400446 10.209526-1.397836 2.589988-3.359514 4.693906-5.886057 6.319939-2.529613 1.617847-5.669116 2.833535-9.417487 3.64604-3.752464 0.805342-8.501628 1.215688-14.256702 1.215688-7.15291 0-12.993942-0.652869-17.526165-1.944282-4.53734-1.298576-7.978718-3.243881-10.332323-5.833869-2.354628-2.598174-3.707438-5.91778-4.054339-9.965979-0.352017-4.056386 0-8.834202 1.046842-14.341636l156.430772-816.250422c0.694825-4.207835 1.741667-7.695263 3.139503-10.45205 1.393743-2.749624 3.310396-4.937452 5.755074-6.563486 2.440585-1.617847 5.624091-2.833535 9.54847-3.64604 3.923356-0.805342 8.673543-1.215688 14.256702-1.215688 7.324826 0 13.20986 0.653893 17.657148 1.944282 4.447289 1.298576 7.80271 3.243881 10.07138 5.833869 2.264577 2.598174 3.572362 5.91778 3.924379 9.965979 0.346901 4.056386 0.085958 8.834202-0.784876 14.341636L862.521259 925.715533z" /></svg>