<?xml version="1.0" encoding="iso-8859-1"?>
<!-- Generator: Adobe Illustrator 19.0.0, SVG Export Plug-In . SVG Version: 6.00 Build 0)  -->
<svg version="1.1" id="Capa_1" xmlns="http://www.w3.org/2000/svg" xmlns:xlink="http://www.w3.org/1999/xlink" x="0px" y="0px"
	 viewBox="0 0 512 512" style="enable-background:new 0 0 512 512;" xml:space="preserve">
<circle style="fill:#FFECB3;" cx="256" cy="256" r="256"/>
<path style="fill:#FFD863;" d="M511.101,277.412L310.689,77l-8.878,56.72l-75.344-75.344l-14.071,163.248l-111.823,31.034
	l102.604,102.604l-56.363,50.171l106.533,106.533c0.885,0.009,1.766,0.034,2.653,0.034C390.172,512,500.221,408.776,511.101,277.412
	z"/>
<path style="fill:#FF6838;" d="M383.633,289c0-6.599-0.657-13.03-1.622-19.359l29.416-16.983l-46.241-80.091l-29.342,16.94
	c-10.059-8.083-21.381-14.611-33.604-19.37v-33.912h-92.481v33.912c-12.223,4.759-23.545,11.288-33.604,19.37l-29.342-16.94
	l-46.241,80.091l29.416,16.983c-0.965,6.329-1.622,12.76-1.622,19.359s0.657,13.029,1.622,19.359l-29.416,16.983l46.241,80.091
	l29.342-16.94c10.059,8.083,21.381,14.61,33.604,19.369v33.912h92.481v-33.912c12.223-4.759,23.545-11.287,33.604-19.369
	l29.342,16.94l46.241-80.091l-29.416-16.983C382.976,302.03,383.633,295.599,383.633,289z M255.999,344.698
	c-30.76,0-55.696-24.936-55.696-55.696s24.936-55.697,55.696-55.697s55.697,24.937,55.697,55.697S286.759,344.699,255.999,344.698z"
	/>
<path style="fill:#AE4E32;" d="M383.633,289c0-6.599-0.656-13.03-1.622-19.359l29.416-16.983l-46.241-80.091l-29.342,16.94
	c-10.059-8.083-21.381-14.611-33.604-19.37v-33.912h-46.288v97.081c0.016,0,0.031-0.001,0.047-0.001
	c30.76,0,55.697,24.937,55.697,55.697s-24.937,55.697-55.697,55.696c-0.016,0-0.031-0.001-0.047-0.001v97.077h46.288v-33.912
	c12.223-4.759,23.545-11.287,33.604-19.369l29.342,16.94l46.241-80.091l-29.416-16.983C382.977,302.03,383.633,295.599,383.633,289z
	"/>
<path style="fill:#005C83;" d="M207.681,178.196c5.245,4.082,11.108,7.332,17.25,10.049v146.987
	c8.875,5.976,19.564,9.466,31.068,9.466c11.505,0,22.195-3.49,31.071-9.467V188.243c6.141-2.717,12.004-5.965,17.249-10.047
	c14.745-13.276,24.207-32.297,24.207-53.699c0-29.513-17.695-54.797-42.997-66.121v52.755l-29.531,22.289l-29.532-22.289V58.377
	c-25.301,11.324-42.994,36.608-42.994,66.121C183.474,145.899,192.935,164.921,207.681,178.196z"/>
<path style="fill:#00263F;" d="M285.53,58.377v52.755l-29.531,22.289l0,0l-0.047,211.276c0.016,0,0.031,0.001,0.047,0.001
	c11.505,0,22.195-3.49,31.071-9.467V188.243c6.141-2.717,12.004-5.965,17.249-10.047c14.745-13.276,24.207-32.297,24.207-53.699
	C328.526,94.985,310.832,69.701,285.53,58.377z"/>
<g>
</g>
<g>
</g>
<g>
</g>
<g>
</g>
<g>
</g>
<g>
</g>
<g>
</g>
<g>
</g>
<g>
</g>
<g>
</g>
<g>
</g>
<g>
</g>
<g>
</g>
<g>
</g>
<g>
</g>
</svg>
