<?xml version="1.0" encoding="UTF-8" standalone="no"?>
<!-- Generator: Adobe Illustrator 19.0.0, SVG Export Plug-In . SVG Version: 6.00 Build 0)  -->

<svg
   xmlns:dc="http://purl.org/dc/elements/1.1/"
   xmlns:cc="http://creativecommons.org/ns#"
   xmlns:rdf="http://www.w3.org/1999/02/22-rdf-syntax-ns#"
   xmlns:svg="http://www.w3.org/2000/svg"
   xmlns="http://www.w3.org/2000/svg"
   xmlns:sodipodi="http://sodipodi.sourceforge.net/DTD/sodipodi-0.dtd"
   xmlns:inkscape="http://www.inkscape.org/namespaces/inkscape"
   version="1.1"
   id="Layer_1"
   x="0px"
   y="0px"
   viewBox="0 0 512 512"
   style="enable-background:new 0 0 512 512;"
   xml:space="preserve"
   sodipodi:docname="icon-connect.svg"
   inkscape:version="0.92.3 (2405546, 2018-03-11)"><metadata
   id="metadata63"><rdf:RDF><cc:Work
       rdf:about=""><dc:format>image/svg+xml</dc:format><dc:type
         rdf:resource="http://purl.org/dc/dcmitype/StillImage" /></cc:Work></rdf:RDF></metadata><defs
   id="defs61">
	
	
	
	
	
	
	
</defs><sodipodi:namedview
   pagecolor="#ffffff"
   bordercolor="#666666"
   borderopacity="1"
   objecttolerance="10"
   gridtolerance="10"
   guidetolerance="10"
   inkscape:pageopacity="0"
   inkscape:pageshadow="2"
   inkscape:window-width="1440"
   inkscape:window-height="872"
   id="namedview59"
   showgrid="false"
   inkscape:zoom="0.4609375"
   inkscape:cx="260.33898"
   inkscape:cy="256"
   inkscape:window-x="0"
   inkscape:window-y="0"
   inkscape:window-maximized="1"
   inkscape:current-layer="Layer_1" />
<path
   inkscape:connector-curvature="0"
   id="path2"
   d="M 361.931,494.345 H 150.069 c 0,-19.5 15.81,-35.31 35.31,-35.31 H 326.62 c 19.501,-0.001 35.311,15.81 35.311,35.31"
   style="fill:#e8edee" /><polygon
   id="polygon4"
   points="211.862,388.414 300.138,388.414 317.793,459.034 194.207,459.034 "
   style="fill:#b0b6bb" /><path
   inkscape:connector-curvature="0"
   id="path6"
   d="M 512,317.793 H 0 V 48.552 C 0,31.488 13.833,17.655 30.897,17.655 h 450.207 c 17.064,0 30.897,13.833 30.897,30.897 v 269.241 z"
   style="fill:#111111;fill-opacity:1" /><path
   inkscape:connector-curvature="0"
   id="path8"
   d="M 481.103,388.414 H 30.897 C 13.833,388.414 0,374.581 0,357.517 v -39.724 h 512 v 39.724 c 0,17.064 -13.833,30.897 -30.897,30.897"
   style="fill:#e8edee" /><polygon
   id="polygon10"
   points="282.483,61.793 229.517,61.793 229.517,114.759 282.483,114.759 "
   style="fill:#ecba16" /><g
   id="g16">
		<polygon
   id="polygon12"
   points="264.828,114.759 247.172,114.759 247.172,203.034 264.828,203.034 "
   style="fill:#25ae88" />
		<polygon
   id="polygon14"
   points="379.586,176.553 132.414,176.553 132.414,209.427 114.759,209.427 114.759,158.897 397.241,158.897 397.241,209.427 379.586,209.427 "
   style="fill:#25ae88" />
	</g><g
   id="g24">
		<path
   inkscape:connector-curvature="0"
   id="path18"
   d="m 158.897,238.345 c 0,19.5 -15.81,35.31 -35.31,35.31 -19.5,0 -35.31,-15.81 -35.31,-35.31 0,-19.5 15.81,-35.31 35.31,-35.31 19.5,0 35.31,15.81 35.31,35.31"
   style="fill:#ecba16" />
		<path
   inkscape:connector-curvature="0"
   id="path20"
   d="m 291.31,238.345 c 0,19.5 -15.81,35.31 -35.31,35.31 -19.5,0 -35.31,-15.81 -35.31,-35.31 0,-19.5 15.81,-35.31 35.31,-35.31 19.5,0 35.31,15.81 35.31,35.31"
   style="fill:#ecba16" />
		<path
   inkscape:connector-curvature="0"
   id="path22"
   d="m 423.724,238.345 c 0,19.5 -15.81,35.31 -35.31,35.31 -19.5,0 -35.31,-15.81 -35.31,-35.31 0,-19.5 15.81,-35.31 35.31,-35.31 19.5,-0.001 35.31,15.81 35.31,35.31"
   style="fill:#ecba16" />
	</g>
<g
   id="g28">
</g>
<g
   id="g30">
</g>
<g
   id="g32">
</g>
<g
   id="g34">
</g>
<g
   id="g36">
</g>
<g
   id="g38">
</g>
<g
   id="g40">
</g>
<g
   id="g42">
</g>
<g
   id="g44">
</g>
<g
   id="g46">
</g>
<g
   id="g48">
</g>
<g
   id="g50">
</g>
<g
   id="g52">
</g>
<g
   id="g54">
</g>
<g
   id="g56">
</g>
</svg>