<?xml version="1.0" encoding="UTF-8" standalone="no"?>
<!-- Created with Inkscape (http://www.inkscape.org/) -->

<svg
   xmlns:dc="http://purl.org/dc/elements/1.1/"
   xmlns:cc="http://creativecommons.org/ns#"
   xmlns:rdf="http://www.w3.org/1999/02/22-rdf-syntax-ns#"
   xmlns:svg="http://www.w3.org/2000/svg"
   xmlns="http://www.w3.org/2000/svg"
   xmlns:sodipodi="http://sodipodi.sourceforge.net/DTD/sodipodi-0.dtd"
   xmlns:inkscape="http://www.inkscape.org/namespaces/inkscape"
   width="32.880001"
   height="32.880001"
   viewBox="0 0 8.6995004 8.6995004"
   version="1.1"
   id="svg8"
   inkscape:version="0.92.3 (2405546, 2018-03-11)"
   sodipodi:docname="logo-icon-main.svg"
   inkscape:export-filename="/home/turse/Projects/Portifolio2/img/logo-main.svg.png"
   inkscape:export-xdpi="96"
   inkscape:export-ydpi="96">
  <defs
     id="defs2">
    <filter
       inkscape:collect="always"
       style="color-interpolation-filters:sRGB"
       id="filter824"
       x="-0.035999998"
       width="1.072"
       y="-0.035999998"
       height="1.072">
      <feGaussianBlur
         inkscape:collect="always"
         stdDeviation="3"
         id="feGaussianBlur826" />
    </filter>
    <filter
       inkscape:collect="always"
       style="color-interpolation-filters:sRGB"
       id="filter857"
       x="-0.048"
       width="1.096"
       y="-0.048"
       height="1.096">
      <feGaussianBlur
         inkscape:collect="always"
         stdDeviation="0.15875"
         id="feGaussianBlur859" />
    </filter>
  </defs>
  <sodipodi:namedview
     id="base"
     pagecolor="#ffffff"
     bordercolor="#666666"
     borderopacity="1.0"
     inkscape:pageopacity="0.0"
     inkscape:pageshadow="2"
     inkscape:zoom="7.7965101"
     inkscape:cx="24.400073"
     inkscape:cy="13.421694"
     inkscape:document-units="mm"
     inkscape:current-layer="layer1"
     showgrid="false"
     inkscape:window-width="1366"
     inkscape:window-height="740"
     inkscape:window-x="0"
     inkscape:window-y="0"
     inkscape:window-maximized="1"
     units="px"
     inkscape:lockguides="false"
     showguides="true"
     inkscape:guide-bbox="true" />
  <metadata
     id="metadata5">
    <rdf:RDF>
      <cc:Work
         rdf:about="">
        <dc:format>image/svg+xml</dc:format>
        <dc:type
           rdf:resource="http://purl.org/dc/dcmitype/StillImage" />
        <dc:title></dc:title>
      </cc:Work>
    </rdf:RDF>
  </metadata>
  <g
     inkscape:label="Layer 1"
     inkscape:groupmode="layer"
     id="layer1"
     transform="translate(0,-288.30051)">
    <path
       inkscape:connector-curvature="0"
       style="color:#000000;font-style:normal;font-variant:normal;font-weight:normal;font-stretch:normal;font-size:medium;line-height:normal;font-family:sans-serif;font-variant-ligatures:normal;font-variant-position:normal;font-variant-caps:normal;font-variant-numeric:normal;font-variant-alternates:normal;font-feature-settings:normal;text-indent:0;text-align:start;text-decoration:none;text-decoration-line:none;text-decoration-style:solid;text-decoration-color:#000000;letter-spacing:normal;word-spacing:normal;text-transform:none;writing-mode:lr-tb;direction:ltr;text-orientation:mixed;dominant-baseline:auto;baseline-shift:baseline;text-anchor:start;white-space:normal;shape-padding:0;clip-rule:nonzero;display:inline;overflow:visible;visibility:visible;opacity:1;isolation:auto;mix-blend-mode:normal;color-interpolation:sRGB;color-interpolation-filters:linearRGB;solid-color:#000000;solid-opacity:1;vector-effect:none;fill:#ffffff;fill-opacity:1;fill-rule:nonzero;stroke:none;stroke-width:0.50270832;stroke-linecap:round;stroke-linejoin:miter;stroke-miterlimit:4;stroke-dasharray:none;stroke-dashoffset:0;stroke-opacity:1;paint-order:markers fill stroke;color-rendering:auto;image-rendering:auto;shape-rendering:auto;text-rendering:auto;enable-background:accumulate"
       d="m 4.3497503,288.68151 a 3.9687502,3.9687539 0 0 0 -3.96875018,3.96875 3.9687502,3.9687539 0 0 0 3.96875018,3.96875 3.9687502,3.9687539 0 0 0 3.9687498,-3.96875 3.9687502,3.9687539 0 0 0 -3.9687498,-3.96875 z m -0.79375,0.69383 v 1.29054 H 1.628831 a 3.3734376,3.3734407 0 0 1 1.9271693,-1.29054 z m 1.5875003,3.3e-4 a 3.3734376,3.3734407 0 0 1 1.9307353,1.29022 H 5.1435006 Z M 1.28079,291.26122 h 1.0736556 v 4.10448 A 3.3734376,3.3734407 0 0 1 0.97631259,292.65026 3.3734376,3.3734407 0 0 1 1.28079,291.2612 Z m 1.5295194,0 h 3.0788045 v 4.3902 a 3.3734376,3.3734407 0 0 1 -1.5393636,0.37232 3.3734376,3.3734407 0 0 1 -1.5394409,-0.37533 z m 3.5346686,0 h 1.0758257 a 3.3734376,3.3734407 0 0 1 0.3023847,1.38907 3.3734376,3.3734407 0 0 1 -1.3782104,2.71526 z"
       id="rect4540-3-6" />
    <path
       inkscape:connector-curvature="0"
       style="color:#000000;font-style:normal;font-variant:normal;font-weight:normal;font-stretch:normal;font-size:medium;line-height:normal;font-family:sans-serif;font-variant-ligatures:normal;font-variant-position:normal;font-variant-caps:normal;font-variant-numeric:normal;font-variant-alternates:normal;font-feature-settings:normal;text-indent:0;text-align:start;text-decoration:none;text-decoration-line:none;text-decoration-style:solid;text-decoration-color:#000000;letter-spacing:normal;word-spacing:normal;text-transform:none;writing-mode:lr-tb;direction:ltr;text-orientation:mixed;dominant-baseline:auto;baseline-shift:baseline;text-anchor:start;white-space:normal;shape-padding:0;clip-rule:nonzero;display:inline;overflow:visible;visibility:visible;opacity:1;isolation:auto;mix-blend-mode:normal;color-interpolation:sRGB;color-interpolation-filters:linearRGB;solid-color:#000000;solid-opacity:1;vector-effect:none;fill:#ffffff;fill-opacity:1;fill-rule:nonzero;stroke:none;stroke-width:0.50270832;stroke-linecap:round;stroke-linejoin:miter;stroke-miterlimit:4;stroke-dasharray:none;stroke-dashoffset:0;stroke-opacity:1;paint-order:markers fill stroke;filter:url(#filter857);color-rendering:auto;image-rendering:auto;shape-rendering:auto;text-rendering:auto;enable-background:accumulate"
       d="m 4.3497503,288.68151 a 3.9687503,3.968754 0 0 0 -3.96875028,3.96875 3.9687503,3.968754 0 0 0 3.96875028,3.96875 3.9687503,3.968754 0 0 0 3.96875,-3.96875 3.9687503,3.968754 0 0 0 -3.96875,-3.96875 z m -0.79375,0.69383 v 1.29054 h -1.927169 a 3.3734378,3.3734407 0 0 1 1.927169,-1.29054 z m 1.587501,3.3e-4 a 3.3734378,3.3734407 0 0 1 1.930735,1.29022 h -1.930735 z m -3.862711,1.88555 h 1.073656 v 4.10448 A 3.3734378,3.3734407 0 0 1 0.97631302,292.65026 3.3734378,3.3734407 0 0 1 1.2807903,291.2612 Z m 1.529519,0 h 3.078805 v 4.3902 a 3.3734378,3.3734407 0 0 1 -1.539364,0.37232 3.3734378,3.3734407 0 0 1 -1.539441,-0.37533 z m 3.534669,0 h 1.075826 a 3.3734378,3.3734407 0 0 1 0.302384,1.38907 3.3734378,3.3734407 0 0 1 -1.37821,2.71526 z"
       id="rect4540-3-6-3" />
  </g>
</svg>
