<svg xmlns="http://www.w3.org/2000/svg" viewBox="0 0 100 99.77"><circle cx="50.03" cy="49.66" r="44.64" style="fill:#c8c8c8"/><circle cx="50.03" cy="49.66" r="44.64" style="fill:#000111"/><path d="M.16,49.4l32,47.27A50,50,0,0,1,.15,50C.15,49.8.15,49.6.16,49.4Z" transform="translate(-0.15 -0.12)" style="fill:#f9f9f9"/><path d="M1.59,38,36.72,97.26.53,43.84A49.63,49.63,0,0,1,1.59,38Z" transform="translate(-0.15 -0.12)" style="fill:#f9f9f9"/><path d="M5.05,28.39,38.43,92.7,3.08,33.1A49.79,49.79,0,0,1,5.05,28.39Z" transform="translate(-0.15 -0.12)" style="fill:#f9f9f9"/><path d="M39.2,87.19,6.88,24.93a50.17,50.17,0,0,1,25-21.47Z" transform="translate(-0.15 -0.12)" style="fill:#f9f9f9"/><path d="M46.58.12V99.89h0L38,1.49A49,49,0,0,1,46.58.12Z" transform="translate(-0.15 -0.12)" style="fill:#f9f9f9"/><path d="M100.14,49.4l-32,47.27a50,50,0,0,0,32-46.68C100.15,49.8,100.15,49.6,100.14,49.4Z" transform="translate(-0.15 -0.12)" style="fill:#f9f9f9"/><path d="M98.71,38,63.57,97.26,99.78,43.84A49.66,49.66,0,0,0,98.71,38Z" transform="translate(-0.15 -0.12)" style="fill:#f9f9f9"/><path d="M95.26,28.39,61.87,92.7,97.22,33.1A49.72,49.72,0,0,0,95.26,28.39Z" transform="translate(-0.15 -0.12)" style="fill:#f9f9f9"/><path d="M61.11,87.19,93.42,24.93a50.15,50.15,0,0,0-25-21.49Z" transform="translate(-0.15 -0.12)" style="fill:#f9f9f9"/><path d="M53.72.12V99.89h0l8.62-98.4A49.29,49.29,0,0,0,53.72.12Z" transform="translate(-0.15 -0.12)" style="fill:#f9f9f9"/></svg>