<?xml version="1.0" encoding="UTF-8" standalone="no"?>
<!-- Generator: Adobe Illustrator 19.0.0, SVG Export Plug-In . SVG Version: 6.00 Build 0)  -->

<svg
   xmlns:dc="http://purl.org/dc/elements/1.1/"
   xmlns:cc="http://creativecommons.org/ns#"
   xmlns:rdf="http://www.w3.org/1999/02/22-rdf-syntax-ns#"
   xmlns:svg="http://www.w3.org/2000/svg"
   xmlns="http://www.w3.org/2000/svg"
   xmlns:sodipodi="http://sodipodi.sourceforge.net/DTD/sodipodi-0.dtd"
   xmlns:inkscape="http://www.inkscape.org/namespaces/inkscape"
   version="1.1"
   id="Layer_1"
   x="0px"
   y="0px"
   viewBox="0 0 512 512"
   style="enable-background:new 0 0 512 512;"
   xml:space="preserve"
   sodipodi:docname="social-twitter.svg"
   inkscape:version="0.92.3 (2405546, 2018-03-11)"><metadata
   id="metadata45"><rdf:RDF><cc:Work
       rdf:about=""><dc:format>image/svg+xml</dc:format><dc:type
         rdf:resource="http://purl.org/dc/dcmitype/StillImage" /></cc:Work></rdf:RDF></metadata><defs
   id="defs43" /><sodipodi:namedview
   pagecolor="#ffffff"
   bordercolor="#666666"
   borderopacity="1"
   objecttolerance="10"
   gridtolerance="10"
   guidetolerance="10"
   inkscape:pageopacity="0"
   inkscape:pageshadow="2"
   inkscape:window-width="772"
   inkscape:window-height="480"
   id="namedview41"
   showgrid="false"
   inkscape:zoom="0.4609375"
   inkscape:cx="256"
   inkscape:cy="256"
   inkscape:window-x="0"
   inkscape:window-y="0"
   inkscape:window-maximized="0"
   inkscape:current-layer="Layer_1" />
<circle
   style="fill:#111111;fill-opacity:1"
   cx="256"
   cy="256"
   r="256"
   id="circle2" />
<path
   style="fill:#000000;fill-opacity:1"
   d="M393.014,139.326c-26.703,23.169-53.253,43.475-74.954,71.852  c-53.381,64.372-118.613,155.7-207.386,142.086l158.61,158.396c134.456-6.873,241.497-117.493,242.686-253.376L393.014,139.326z"
   id="path4" />
<path
   style="fill:#FFFFFF;"
   d="M397.872,162.471c-6.513,2.889-13.271,5.167-20.208,6.815c7.644-7.261,13.39-16.346,16.631-26.484  c0.926-2.893-2.219-5.398-4.832-3.848c-9.65,5.725-20.044,10.016-30.894,12.762c-0.628,0.16-1.276,0.24-1.929,0.24  c-1.979,0-3.896-0.733-5.411-2.065c-11.542-10.174-26.39-15.777-41.805-15.777c-6.672,0-13.405,1.04-20.016,3.091  c-20.487,6.353-36.295,23.254-41.257,44.103c-1.86,7.818-2.362,15.648-1.496,23.264c0.097,0.876-0.314,1.486-0.569,1.772  c-0.45,0.502-1.084,0.791-1.745,0.791c-0.072,0-0.15-0.003-0.224-0.01c-44.846-4.168-85.287-25.772-113.869-60.837  c-1.455-1.789-4.253-1.569-5.415,0.422c-5.596,9.606-8.554,20.589-8.554,31.766c0,17.127,6.884,33.27,18.837,45.039  c-5.027-1.193-9.893-3.07-14.414-5.582c-2.188-1.214-4.877,0.35-4.908,2.851c-0.31,25.445,14.588,48.087,36.905,58.282  c-0.45,0.01-0.9,0.014-1.35,0.014c-3.537,0-7.121-0.338-10.645-1.015c-2.463-0.467-4.532,1.867-3.768,4.253  c7.246,22.618,26.717,39.288,50.021,43.07c-19.339,12.983-41.863,19.83-65.302,19.83l-7.306-0.003c-2.255,0-4.16,1.469-4.73,3.65  c-0.565,2.145,0.474,4.413,2.396,5.53c26.412,15.372,56.541,23.495,87.138,23.495c26.784,0,51.838-5.313,74.466-15.798  c20.745-9.609,39.076-23.345,54.486-40.827c14.357-16.286,25.581-35.085,33.365-55.879c7.418-19.816,11.34-40.967,11.34-61.154  v-0.964c0-3.241,1.465-6.291,4.024-8.37c9.706-7.882,18.16-17.158,25.122-27.572C403.796,164.578,400.896,161.13,397.872,162.471  L397.872,162.471z"
   id="path6" />

<g
   id="g10">
</g>
<g
   id="g12">
</g>
<g
   id="g14">
</g>
<g
   id="g16">
</g>
<g
   id="g18">
</g>
<g
   id="g20">
</g>
<g
   id="g22">
</g>
<g
   id="g24">
</g>
<g
   id="g26">
</g>
<g
   id="g28">
</g>
<g
   id="g30">
</g>
<g
   id="g32">
</g>
<g
   id="g34">
</g>
<g
   id="g36">
</g>
<g
   id="g38">
</g>
</svg>