<?xml version="1.0" encoding="UTF-8" standalone="no"?>
<!-- Generator: Adobe Illustrator 19.0.0, SVG Export Plug-In . SVG Version: 6.00 Build 0)  -->

<svg
   xmlns:dc="http://purl.org/dc/elements/1.1/"
   xmlns:cc="http://creativecommons.org/ns#"
   xmlns:rdf="http://www.w3.org/1999/02/22-rdf-syntax-ns#"
   xmlns:svg="http://www.w3.org/2000/svg"
   xmlns="http://www.w3.org/2000/svg"
   xmlns:sodipodi="http://sodipodi.sourceforge.net/DTD/sodipodi-0.dtd"
   xmlns:inkscape="http://www.inkscape.org/namespaces/inkscape"
   version="1.1"
   id="Capa_1"
   x="0px"
   y="0px"
   viewBox="0 0 473.673 473.673"
   style="enable-background:new 0 0 473.673 473.673;"
   xml:space="preserve"
   sodipodi:docname="language-spain.svg"
   inkscape:version="0.92.3 (2405546, 2018-03-11)"><metadata
   id="metadata63"><rdf:RDF><cc:Work
       rdf:about=""><dc:format>image/svg+xml</dc:format><dc:type
         rdf:resource="http://purl.org/dc/dcmitype/StillImage" /></cc:Work></rdf:RDF></metadata><defs
   id="defs61" /><sodipodi:namedview
   pagecolor="#ffffff"
   bordercolor="#666666"
   borderopacity="1"
   objecttolerance="10"
   gridtolerance="10"
   guidetolerance="10"
   inkscape:pageopacity="0"
   inkscape:pageshadow="2"
   inkscape:window-width="1366"
   inkscape:window-height="740"
   id="namedview59"
   showgrid="false"
   inkscape:zoom="0.70460929"
   inkscape:cx="-12.902439"
   inkscape:cy="231.57857"
   inkscape:window-x="0"
   inkscape:window-y="0"
   inkscape:window-maximized="1"
   inkscape:current-layer="Capa_1" />
<g
   id="g10"
   style="fill:#d31520;fill-opacity:1">
	<path
   style="fill:#d31520;fill-opacity:1"
   d="M236.836,473.673c75.779,0,143.185-35.619,186.534-90.991H298.632   C282.529,436.36,273.542,473.673,236.836,473.673z"
   id="path2" />
	<path
   style="fill:#d31520;fill-opacity:1"
   d="M222.79,473.265c-0.045,0-0.086-0.007-0.131-0.007C222.704,473.258,222.749,473.265,222.79,473.265z   "
   id="path4" />
	<path
   style="fill:#d31520;fill-opacity:1"
   d="M298.632,90.991h124.741C380.02,35.627,312.613,0,236.836,0   C273.542,0,282.529,37.313,298.632,90.991z"
   id="path6" />
	<path
   style="fill:#d31520;fill-opacity:1"
   d="M222.659,0.423c0.045,0,0.086-0.007,0.131-0.007C222.749,0.415,222.704,0.415,222.659,0.423z"
   id="path8" />
</g>
<path
   style="fill:#ffd034;fill-opacity:1"
   d="M423.376,90.991H298.632c25.175,83.909,25.175,207.793,0,291.69h124.733  c31.487-40.208,50.308-90.808,50.308-145.843C473.677,181.807,454.855,131.203,423.376,90.991z"
   id="path12" />
<g
   id="g18">
	<path
   style="fill:#C42126;"
   d="M236.836,473.673c-4.712,0-9.394-0.138-14.046-0.408   C227.508,473.527,232.199,473.673,236.836,473.673z"
   id="path14" />
	<path
   style="fill:#C42126;"
   d="M222.79,0.415C227.441,0.138,232.124,0,236.836,0C232.199,0,227.508,0.153,222.79,0.415z"
   id="path16" />
</g>
<g
   id="g24"
   style="fill:#d31520;fill-opacity:1">
	<path
   style="fill:#d31520;fill-opacity:1"
   d="M316.053,382.682H50.309c40.623,51.894,102.386,86.44,172.349,90.576   c0.045,0,0.086,0.007,0.131,0.007c4.652,0.269,9.334,0.408,14.046,0.408C273.542,473.673,299.947,436.36,316.053,382.682z"
   id="path20" />
	<path
   style="fill:#d31520;fill-opacity:1"
   d="M50.309,90.991h265.745C299.947,37.313,273.542,0,236.836,0c-4.712,0-9.394,0.138-14.046,0.415   c-0.045,0-0.086,0.007-0.131,0.007C152.695,4.555,90.932,39.105,50.309,90.991z"
   id="path22" />
</g>
<path
   style="fill:#FFD034;"
   d="M0.001,236.838c0,55.035,18.821,105.635,50.308,145.843h265.745  c25.175-83.901,25.175-207.786,0-291.69H50.309C18.822,131.203,0.001,181.807,0.001,236.838z"
   id="path26" />
<g
   id="g28">
</g>
<g
   id="g30">
</g>
<g
   id="g32">
</g>
<g
   id="g34">
</g>
<g
   id="g36">
</g>
<g
   id="g38">
</g>
<g
   id="g40">
</g>
<g
   id="g42">
</g>
<g
   id="g44">
</g>
<g
   id="g46">
</g>
<g
   id="g48">
</g>
<g
   id="g50">
</g>
<g
   id="g52">
</g>
<g
   id="g54">
</g>
<g
   id="g56">
</g>
</svg>