<svg xmlns="http://www.w3.org/2000/svg" viewBox="0 0 320 100"><g style="isolation:isolate"><g style="isolation:isolate"><path d="M122.45,42c0,.27.26.64.77,1.09a20,20,0,0,0,2.28,1.68q1,.63,2,1.23c.71.4,1.41.8,2.1,1.21l1.18.74L132.5,49c.46.27.95.54,1.46.82s1,.54,1.64.81l1.31.75c.48.27,1,.57,1.65.88a1.67,1.67,0,0,1,.83.88,4.61,4.61,0,0,1,.35,1.66l-.24.53-.27.1a2.22,2.22,0,0,1-.71-.17c-.29-.12-.66-.28-1.1-.5l-1.22-.45-3.11-1.1a15.79,15.79,0,0,1-2.06-.82,17.08,17.08,0,0,1-1.71-1,11.78,11.78,0,0,0-1.16-.67c-.47-.24-1-.51-1.67-.79s-1.23-.56-1.71-.82-.87-.47-1.15-.65c-1-.6-1.75-1-2.35-1.36a3.4,3.4,0,0,0-1.26-.47,1,1,0,0,0-.29.59c-.22.64-.44,1.44-.68,2.41s-.51,2.1-.79,3.39a.72.72,0,0,1-.16.52.61.61,0,0,1-.48.17,2.75,2.75,0,0,1-1.58-.38,1.36,1.36,0,0,1-.53-1.16,13.88,13.88,0,0,1,.17-2.18,16,16,0,0,1,.58-2.4c.08-.37.15-.7.2-1a6,6,0,0,0,.06-.81,1.9,1.9,0,0,0-1-1.6c-.71-.45-1.06-.77-1.06-1a1.61,1.61,0,0,1,.18-.78,1.18,1.18,0,0,1,.52-.54l1.63-.81a.46.46,0,0,0,.25-.28,1.86,1.86,0,0,0,.07-.54v-.87c0-1.21.09-2.46.13-3.76v-.45c0-.2,0-.47,0-.79a2.66,2.66,0,0,1,0-.68c0-.21,0-.41,0-.58l-.28-.7a1.53,1.53,0,0,1-.12-.56,6.81,6.81,0,0,1,.05-.77,6.52,6.52,0,0,0,0-.74,7.19,7.19,0,0,0-.06-.79,5.63,5.63,0,0,1-.07-.77,2.52,2.52,0,0,1,.44-1.4,5.17,5.17,0,0,1,1.35-1.33,7.78,7.78,0,0,1,1.8-.86,6.11,6.11,0,0,1,1.89-.29c.3,0,.75,0,1.35.05s1.06.05,1.4.05a11.36,11.36,0,0,1,1.9.44c.4,0,.77.07,1.09.12a4.92,4.92,0,0,1,.78.15l1,.37a4.11,4.11,0,0,0,.53.16l.79.2a2.19,2.19,0,0,1,.55.2l.81.29,1.06.36a12.45,12.45,0,0,1,1.8.86,16.19,16.19,0,0,1,1.59,1.05,6.08,6.08,0,0,1,1.28,1.44,2.62,2.62,0,0,1,.43,1.39,4.94,4.94,0,0,1,0,.58,8.4,8.4,0,0,1-.15.84,2.25,2.25,0,0,1-.8,1.27,11.62,11.62,0,0,1-2.08,1.5,25.12,25.12,0,0,1-2.25,1.19,10.14,10.14,0,0,1-1.92.68,3.07,3.07,0,0,0-.53.34,5.86,5.86,0,0,1-1.13.57c-.57.25-1.34.55-2.32.92-1.78.66-3.05,1.1-3.79,1.31S122.45,41.72,122.45,42Zm-2.8-9.8c.34-.19.66-.37,1-.56a2.29,2.29,0,0,1,1.18-.27q.31,0,.78.54a1.49,1.49,0,0,1,.47.8,3.27,3.27,0,0,1-.13.65c-.09.34-.23.8-.43,1.38a24.72,24.72,0,0,0-.69,2.47c-.06.33-.17.85-.35,1.56a6.4,6.4,0,0,0-.22.69.33.33,0,0,0,.1.26.34.34,0,0,0,.25.08l5.51-2.11c.14,0,.29-.06.45-.11l.45-.15.41-.39c1-.5,2.1-1,3.2-1.61a6,6,0,0,0,1.55-1.19,1.83,1.83,0,0,0,.51-1.18c0-.5-.39-1-1.15-1.49a14.51,14.51,0,0,0-3.45-1.4,29.6,29.6,0,0,0-3.55-.86,16.74,16.74,0,0,0-2.91-.28,5.77,5.77,0,0,0-2.58.46,1.44,1.44,0,0,0-.87,1.35,3.16,3.16,0,0,0,.13,1.05C119.36,32.09,119.49,32.19,119.65,32.16Z" transform="translate(-0.16 -0.43)" style="fill:#f9f9f9"/><path d="M138.35,46.42l2.43-1.22.32-.27a3.38,3.38,0,0,0,.43-.5A1.52,1.52,0,0,1,142,44a3.89,3.89,0,0,1,.71-.32,5.83,5.83,0,0,1,.62-.51c.26-.21.6-.44,1-.71.2-.09.45-.2.75-.36a8.57,8.57,0,0,0,1-.62,28.24,28.24,0,0,1,4.26-2.62,7.4,7.4,0,0,1,3.09-.88,1.83,1.83,0,0,1,1,.23.69.69,0,0,1,.34.63,1.45,1.45,0,0,1-.2.75,1.72,1.72,0,0,1-.63.55q-.67.36-1.44.81a12.74,12.74,0,0,1-1,.91,11.76,11.76,0,0,1-1.45.94c-.18.18-.33.33-.45.47l-.51.36c-.25.18-.58.38-1,.62a5.13,5.13,0,0,1-1.16,1.15c-.6.48-1.39,1-2.39,1.71a8.36,8.36,0,0,0-.67.65l-1.25,1.35.18.18a5.52,5.52,0,0,0,1.23-.49,12.15,12.15,0,0,0,1.42-.91l1.48-1a7.16,7.16,0,0,1,.81-.52l.38-.16c.12-.06.27-.12.43-.21a10.86,10.86,0,0,1,2.29-1.65,4.48,4.48,0,0,1,2-.54,1.11,1.11,0,0,1,.86.33,1.73,1.73,0,0,1,.34,1c0,.68-.05,1.33-.05,1.95a1.53,1.53,0,0,0,.47,1.17,1.69,1.69,0,0,0,1.29.52,1.1,1.1,0,0,0,.47-.1,3.3,3.3,0,0,0,.47-.27L157,48l.36-.33a2.23,2.23,0,0,0,.31-.14,3,3,0,0,0,.38-.24c.25.4.46.76.63,1.06a7.16,7.16,0,0,1,.39.81c-.41.28-.82.58-1.22.88a12.91,12.91,0,0,1-1.27.87,8,8,0,0,1-1.54.7,5.2,5.2,0,0,1-1.5.23,4.16,4.16,0,0,1-2.67-.75,3.19,3.19,0,0,1-1.1-2.28,1.24,1.24,0,0,0-.06-.37,1,1,0,0,0-.29-.4,2.43,2.43,0,0,1-.29.21l-.37.3-.87.51-1.22.73c-.62.49-1.15.89-1.57,1.2l-.91.67a12.53,12.53,0,0,1-1.24.69c-.48.23-1,.47-1.59.71-.38.15-.7.27-1,.36a2,2,0,0,1-.58.13,3.07,3.07,0,0,1-1.9-.48,1.75,1.75,0,0,1-.61-1.47,2,2,0,0,1,.3-1.05,3.93,3.93,0,0,1,.92-1,1.91,1.91,0,0,0,.06-.42.4.4,0,0,0-.07-.22c0-.07-.1-.15-.17-.25l-.36-.64-.44-.76a2.51,2.51,0,0,0,.3-.32C138,46.85,138.17,46.65,138.35,46.42Z" transform="translate(-0.16 -0.43)" style="fill:#f9f9f9"/><path d="M158,47.32a3.54,3.54,0,0,1,.28-.32q.18-.16.42-.42c.42-.47.78-.88,1.06-1.23a9.63,9.63,0,0,0,.62-.8,5.14,5.14,0,0,0,.6-1.1,7.68,7.68,0,0,0,.36-1.18A33.1,33.1,0,0,1,163.25,36a72.63,72.63,0,0,1,3.39-7.18,6.65,6.65,0,0,1,1.61-2,2.75,2.75,0,0,1,1.76-.68,2.54,2.54,0,0,1,1.12.21,1,1,0,0,1,.56.68,3.42,3.42,0,0,1,.1.63c0,.3,0,.69,0,1.16,0,.11-.15,1.08-.43,2.91-.29.91-.69,2-1.2,3.38S169,38,168.27,39.81c-.17.25-.38.56-.61.94s-.52.83-.86,1.36a3.72,3.72,0,0,0-.17.38c-.06.15-.15.33-.25.52a1.94,1.94,0,0,0-.42.46c-.15.22-.32.49-.52.82a20.19,20.19,0,0,0-.92,2.86c-.29,1.16-.57,2.52-.82,4.09s-.43,2.8-.56,4a29.78,29.78,0,0,0-.18,3,9.75,9.75,0,0,0,.1,1,6.67,6.67,0,0,0,.18,1c.06.22.14.34.25.34s.64-.42,1.16-1.25,1.21-2.09,2-3.76l-.08-.4c.07-.13.17-.28.3-.47a2.36,2.36,0,0,0,.34-.73c.44-1.09.77-1.93,1-2.54a6.9,6.9,0,0,1,.4-1,8.37,8.37,0,0,1,1-1.59A12.29,12.29,0,0,1,171,47.32a9.71,9.71,0,0,1,.64,1.08c.16.31.31.57.43.79a4.75,4.75,0,0,0-.72.92,5.72,5.72,0,0,0-.56,1.23,11.61,11.61,0,0,0-.42,1.17c-.11.4-.23.79-.36,1.15a55.64,55.64,0,0,1-2.61,6.46A17.34,17.34,0,0,1,164.93,64a3.53,3.53,0,0,1-.44.53L164,65a2.86,2.86,0,0,1-.67.42,1.79,1.79,0,0,1-.72.15,3.66,3.66,0,0,1-1.83-.39,2,2,0,0,1-.95-1.16c-.09-.43-.17-.86-.23-1.29s-.13-.85-.2-1.27a4,4,0,0,1-.24-.84,5.77,5.77,0,0,1-.08-1V56.55a3.08,3.08,0,0,1,.12-.69,3.13,3.13,0,0,0,.12-.71c-.11-.41-.21-.82-.32-1.24.05-.48.15-1.07.28-1.79s.3-1.54.49-2.46l-.69-.47a7.18,7.18,0,0,0-.37-.73C158.56,48.14,158.33,47.76,158,47.32Zm10.53-13.67a.23.23,0,0,0-.23.15c0,.1-.11.25-.2.44a2,2,0,0,1-.19.55c-.1.23-.25.52-.42.87a6.7,6.7,0,0,0-.34.79,1.66,1.66,0,0,0-.12.54l.19.16.4-.31a2,2,0,0,1,.21-.67c.13-.24.3-.52.51-.83a6.4,6.4,0,0,0,.4-.73,1.35,1.35,0,0,0,.13-.51.53.53,0,0,0-.08-.35A.3.3,0,0,0,168.57,33.65Z" transform="translate(-0.16 -0.43)" style="fill:#f9f9f9"/><path d="M171.8,46.42l2.43-1.22.32-.27a3.38,3.38,0,0,0,.43-.5,1.52,1.52,0,0,1,.49-.45,3.89,3.89,0,0,1,.71-.32,5.83,5.83,0,0,1,.62-.51c.26-.21.6-.44,1-.71.2-.09.45-.2.75-.36a8.57,8.57,0,0,0,1-.62,28.24,28.24,0,0,1,4.26-2.62A7.4,7.4,0,0,1,186.9,38a1.83,1.83,0,0,1,1,.23.69.69,0,0,1,.34.63,1.45,1.45,0,0,1-.2.75,1.72,1.72,0,0,1-.63.55q-.68.36-1.44.81a12.74,12.74,0,0,1-1,.91,12.57,12.57,0,0,1-1.45.94c-.18.18-.33.33-.45.47l-.51.36c-.25.18-.58.38-1,.62a5.13,5.13,0,0,1-1.16,1.15c-.6.48-1.39,1-2.39,1.71a8.36,8.36,0,0,0-.67.65l-1.25,1.35.18.18a5.52,5.52,0,0,0,1.23-.49,12.15,12.15,0,0,0,1.42-.91l1.48-1a7.16,7.16,0,0,1,.81-.52l.38-.16c.12-.06.27-.12.43-.21a10.86,10.86,0,0,1,2.29-1.65,4.48,4.48,0,0,1,2-.54,1.11,1.11,0,0,1,.86.33,1.73,1.73,0,0,1,.34,1c0,.68,0,1.33,0,1.95a1.53,1.53,0,0,0,.47,1.17,1.69,1.69,0,0,0,1.29.52,1.1,1.1,0,0,0,.47-.1,3.3,3.3,0,0,0,.47-.27l.36-.34.36-.33a2.23,2.23,0,0,0,.31-.14,3,3,0,0,0,.38-.24c.25.4.46.76.63,1.06a7.16,7.16,0,0,1,.39.81c-.41.28-.82.58-1.22.88a12.91,12.91,0,0,1-1.27.87,8,8,0,0,1-1.54.7,5.2,5.2,0,0,1-1.5.23,4.16,4.16,0,0,1-2.67-.75,3.19,3.19,0,0,1-1.1-2.28,1.24,1.24,0,0,0-.06-.37,1,1,0,0,0-.29-.4,2.43,2.43,0,0,1-.29.21l-.37.3c-.24.13-.52.3-.87.51l-1.22.73c-.62.49-1.15.89-1.57,1.2l-.91.67a12.53,12.53,0,0,1-1.24.69c-.48.23-1,.47-1.59.71-.38.15-.7.27-1,.36a2,2,0,0,1-.58.13,3.07,3.07,0,0,1-1.9-.48,1.75,1.75,0,0,1-.62-1.47,2,2,0,0,1,.31-1.05,3.93,3.93,0,0,1,.92-1,1.91,1.91,0,0,0,.06-.42A.51.51,0,0,0,172,49c0-.07-.1-.15-.17-.25l-.36-.64-.44-.76a2.51,2.51,0,0,0,.3-.32C171.47,46.85,171.62,46.65,171.8,46.42Z" transform="translate(-0.16 -0.43)" style="fill:#f9f9f9"/><path d="M191.49,47.32a5.13,5.13,0,0,1,.83-.87,9.32,9.32,0,0,1,1.28-.9c.05-.27.11-.54.16-.81a5.31,5.31,0,0,0,.11-.8,5.33,5.33,0,0,1,.25-.67l.39-.83c.16-.3.38-.68.65-1.12a15.66,15.66,0,0,1,1.09-1.51c.37-.31.76-.65,1.17-1l1.23-1.12a5.56,5.56,0,0,1,.64-.35,7.88,7.88,0,0,0,.7-.37c.21,0,.45-.1.72-.14a6,6,0,0,1,.88-.06,5.15,5.15,0,0,1,1.08.1,1.57,1.57,0,0,1,.68.35,1.52,1.52,0,0,1,.36.49,5,5,0,0,1,.34.79c0,.27.11.57.18.89,0-.08,0,0-.09.11l-.28.71-.24.65a7,7,0,0,1-1.68,2.26A36.42,36.42,0,0,1,198.41,46a1.35,1.35,0,0,0-.32.35.84.84,0,0,0-.13.46,1.36,1.36,0,0,0,.2.75,1.2,1.2,0,0,0,.57.49,3,3,0,0,0,.68.24,9.7,9.7,0,0,0,1.11.23,10.47,10.47,0,0,0,1.9-.27,8.76,8.76,0,0,0,1.52-.49l.43-.17a3.56,3.56,0,0,0,.59-.29l.61,1c.18.32.32.59.43.82a16.48,16.48,0,0,1-2.77,1.72,5.56,5.56,0,0,1-2.28.58,3.89,3.89,0,0,1-1,.29,8,8,0,0,1-1.29.09,6.2,6.2,0,0,1-1.75-.22,3.54,3.54,0,0,1-1.27-.65,2.7,2.7,0,0,1-.54-.6c-.17-.27-.36-.58-.56-.95a2.85,2.85,0,0,0-.45-.66.66.66,0,0,0-.48-.21,1,1,0,0,0-.48.15,3.08,3.08,0,0,0-.59.46,4.63,4.63,0,0,0-.37-.75C192,48.14,191.78,47.76,191.49,47.32ZM200,40.71c-.39,0-.92.39-1.58,1.17a3.37,3.37,0,0,0-1,1.72.22.22,0,0,0,.06.17.66.66,0,0,0,.76-.19l.35-.43c.2-.14.39-.28.58-.44l.54-.46a2,2,0,0,0,.48-.57,1.12,1.12,0,0,0,.16-.57.44.44,0,0,0-.09-.29A.33.33,0,0,0,200,40.71Z" transform="translate(-0.16 -0.43)" style="fill:#f9f9f9"/><path d="M204.93,47.32a3.85,3.85,0,0,0,.48-.5,4.81,4.81,0,0,1,.64-.64L207.81,45a.19.19,0,0,0,.12-.16,2.07,2.07,0,0,0,0-.29,2.78,2.78,0,0,0-.08-.43,8.44,8.44,0,0,1,.24-1.56,3.89,3.89,0,0,1,.43-1.32l-.16-.39a25.52,25.52,0,0,1,1-3c.42-1.08.9-2.25,1.43-3.51a6.39,6.39,0,0,0,.56-.82l.67-1.13a14.88,14.88,0,0,1,1.2-2.22c.5-.77,1.06-1.56,1.68-2.38a16.22,16.22,0,0,1,2.24-2.42,2.88,2.88,0,0,1,1.75-.81A3.51,3.51,0,0,1,221,25a2.1,2.1,0,0,1,.57,1.72,5.89,5.89,0,0,1-.14,1,5.33,5.33,0,0,0-.15,1,2.66,2.66,0,0,1-.29,1,2.7,2.7,0,0,0-.3,1.15.91.91,0,0,1-.13.33l0,.28c-.08.19-.18.42-.33.7s-.33.59-.56,1-.28.73-.48,1.18-.42.94-.69,1.47l-.42.49c-.17.2-.35.42-.54.67a4.82,4.82,0,0,1-.27.61,9,9,0,0,1-.51.81,4.36,4.36,0,0,1-.43.53c-.17.19-.39.43-.64.73a5.61,5.61,0,0,0-.34.51l-.43.69c-.2.23-.46.52-.78.85s-.68.74-1.09,1.2c-.55.75-1.12,1.46-1.71,2.14a4,4,0,0,0,1,3,4.23,4.23,0,0,0,3.08,1,5.82,5.82,0,0,0,.8-.15c.45-.09,1.06-.24,1.85-.44A8.48,8.48,0,0,0,219,48l1.09-.7,1,1.87-1.39,1q-.69.49-1.41,1a7.21,7.21,0,0,1-1.69.8,5.28,5.28,0,0,1-1.68.28c-.28,0-.72,0-1.31-.07s-1-.08-1.33-.08a3.44,3.44,0,0,1-2.47-.91,5.15,5.15,0,0,1-1.38-2.75,1.35,1.35,0,0,0-.15-.32,1.44,1.44,0,0,0-.33-.33l-.82.63c-.31.25-.69.53-1.13.84Zm12.74-16-.18-.08a11.44,11.44,0,0,0-2.26,2.07,3.13,3.13,0,0,0-.76,1.9,1.22,1.22,0,0,1-.18.47,8.15,8.15,0,0,1-.52.87c-.28.42-.58.88-.88,1.38-.34.76-.6,1.38-.77,1.85a3.46,3.46,0,0,0-.27,1L212,41a1,1,0,0,0,.59-.36,6.85,6.85,0,0,0,.8-1,7.13,7.13,0,0,1,.61-.86c.27-.32.57-.71.91-1.15a11.68,11.68,0,0,0,1.36-2.3,11.41,11.41,0,0,0,1-2.36,3.84,3.84,0,0,1,.15-.81C217.53,31.87,217.6,31.61,217.67,31.35Z" transform="translate(-0.16 -0.43)" style="fill:#f9f9f9"/><path d="M239.18,24.62a19.7,19.7,0,0,1,2.39-.37c.87-.08,1.82-.12,2.87-.12.2,0,.49,0,.87.07a7.27,7.27,0,0,0,.92.07,7.75,7.75,0,0,1,.78.13l.8.14.75-.16a1.43,1.43,0,0,1,.52.15l.68.29c.14-.06.35-.15.61-.24a1,1,0,0,1,.66.23,1.15,1.15,0,0,1,.33.66v.64a4,4,0,0,1-.05.67,1.55,1.55,0,0,0,0,.5,4.72,4.72,0,0,1,0,.53.39.39,0,0,1-.13.33.56.56,0,0,1-.35.1,14.61,14.61,0,0,1-2-.13,15.43,15.43,0,0,1-2-.4q-.85.12-1.5.18a3.12,3.12,0,0,0-.75.13c-.16.05-.24.12-.24.2a1.69,1.69,0,0,0,.3.3,2,2,0,0,0,.45.31,1.38,1.38,0,0,1,.43.44,5.75,5.75,0,0,1,.51.9,1.54,1.54,0,0,1,.14.43,1.78,1.78,0,0,1,0,.39,6.62,6.62,0,0,1-.1,1.06A6.94,6.94,0,0,1,246,33.1c-.16.53-.29,1-.38,1.31s-.16.61-.21.79a2.65,2.65,0,0,0-.08.48c0,.19,0,.41-.06.65a2.36,2.36,0,0,1-.21.77c-.12.3-.25.65-.37,1a2.92,2.92,0,0,1-.08.61c-.06.24-.13.5-.22.8a3.37,3.37,0,0,1-.25.6,4.81,4.81,0,0,0-.33.78c0,.2.06.41.08.63-.08.38-.15.77-.22,1.18-.1.58-.21,1.17-.32,1.77s-.2,1.17-.29,1.73c-.11.16-.23.34-.35.55a2,2,0,0,0,.07.44,2.4,2.4,0,0,1,.06.47,3,3,0,0,1-.1.66,3.36,3.36,0,0,0-.11.64q0,.39,0,1.2c0,.55,0,.95,0,1.23s.17.45.24.67a2,2,0,0,1-.18.45.68.68,0,0,1-.25.28c-.32.15-.61.27-.88.37l-.44.32a.58.58,0,0,1-.31.12,2,2,0,0,1-.83-.12.36.36,0,0,1-.24-.32,10.87,10.87,0,0,1,.19-1.31.88.88,0,0,1-.12-.24c0-.11-.11-.24-.2-.41-.09-1.06-.21-2.14-.35-3.25,0-.8.08-1.61.08-2.42,0-.38,0-.86.07-1.44s.13-1.24.25-2,.21-1.42.27-2,.08-1,.08-1.41a3.24,3.24,0,0,1,.07-.62c0-.25.09-.56.14-.92l.16-.85a2.85,2.85,0,0,0,.08-.68c0-.11,0-.22,0-.34L240.3,35c.18-.34.31-.61.4-.82a1.48,1.48,0,0,0,.14-.42c-.07-.18-.15-.35-.24-.53a4.88,4.88,0,0,0,.34-1c.13-.5.26-1.15.4-2v-.59c0-.23,0-.5,0-.83l-.16-.37-.39-.1a6.86,6.86,0,0,0-.7-.1l-.35.18-.71.13c-.24,0-.49.08-.76.14l-5.5,1.16a.5.5,0,0,1-.35-.13.49.49,0,0,1-.14-.36,1.42,1.42,0,0,1,.14-.43,6.76,6.76,0,0,1,.43-.79c0-.48.08-.87.13-1.18a2.62,2.62,0,0,1,.19-.71,2,2,0,0,1,.65-.76,3.43,3.43,0,0,1,1.06-.46,15,15,0,0,1,2.29-.41A11,11,0,0,1,239.18,24.62Z" transform="translate(-0.16 -0.43)" style="fill:#f9f9f9"/><path d="M248.88,47.32a.5.5,0,0,0,.17-.15.27.27,0,0,0,.07-.2,9.65,9.65,0,0,0,1-.78q.57-.49,1.29-1.17c.4-.41.8-.82,1.22-1.22s.87-.81,1.35-1.22.78-.83,1.16-1.27.79-.87,1.22-1.29c.71-.26,1.26-.45,1.65-.55a3.78,3.78,0,0,1,.8-.17.89.89,0,0,1,.62.2.72.72,0,0,1,.21.56.94.94,0,0,1-.08.34c0,.15-.11.31-.18.49s-.27.55-.43.83a13.6,13.6,0,0,1-.51,1.43c-.2.47-.38.94-.56,1.4s-.32,1.12-.42,1.61a7.45,7.45,0,0,0-.14,1.34,7.66,7.66,0,0,0,.14,1.69c.1.36.24.53.42.49l.67-.3.93-.39q.48-.39,1.08-1c.4-.38.89-.83,1.46-1.34.32-.38.65-.76,1-1.12l.44-.39c.17-.15.32-.3.47-.45a4.25,4.25,0,0,1,1.13-1.45,2.27,2.27,0,0,1,1.41-.48,4,4,0,0,1,1.1.13,1,1,0,0,1,.58.4,1.59,1.59,0,0,1,.13.49,5.5,5.5,0,0,1,.06.91,2.59,2.59,0,0,0,.12.65,2.69,2.69,0,0,1,.12.64,1.6,1.6,0,0,0,.34,1.12,1.36,1.36,0,0,0,1.07.38,2.67,2.67,0,0,0,.51-.06l.59-.14,1.07,1.87q-1.6.73-2.64,1.11a4.92,4.92,0,0,1-1.53.37,4,4,0,0,1-2.19-.53,3.08,3.08,0,0,1-1.26-1.56,1.15,1.15,0,0,0-.23-.49,2.78,2.78,0,0,0-.44-.49l-.54.49-.66.57c-.48.45-1,.88-1.44,1.31s-1,.85-1.47,1.27a6.29,6.29,0,0,1-1.88,1.21,4.92,4.92,0,0,1-1.78.38,3.25,3.25,0,0,1-2-.56,2.58,2.58,0,0,1-1-1.66c-.16-.7-.27-1.25-.32-1.65a2.26,2.26,0,0,1,0-.71,4.48,4.48,0,0,0-.14-.89c-.07-.21-.16-.31-.28-.31l-.17.06-1.52,1.2a1.67,1.67,0,0,1-.27.36c-.12.14-.29.32-.5.52a4.06,4.06,0,0,0-.38-.75C249.4,48.14,249.16,47.76,248.88,47.32Z" transform="translate(-0.16 -0.43)" style="fill:#f9f9f9"/><path d="M271.11,47.32c.28-.29.57-.59.85-.9a22,22,0,0,0,3.2-2.35A9.44,9.44,0,0,0,277,42l-.27-1a4.85,4.85,0,0,1,1.72-1.2,5.38,5.38,0,0,1,2.24-.69,2.77,2.77,0,0,1,1.53.41c.42.27.83.55,1.22.85l.42.22a3.92,3.92,0,0,1,1.61,1.69A6,6,0,0,1,286,44.9a5.39,5.39,0,0,1-.83,2.33,5.46,5.46,0,0,0-.82,2.28.2.2,0,0,0,.09.17.46.46,0,0,0,.25.06,1.93,1.93,0,0,0,.83-.24,6.53,6.53,0,0,0,1-.64,15.19,15.19,0,0,1,1.71-1.17,4.13,4.13,0,0,0,.72-.37q.23.41.51.87c.2.31.38.65.56,1l-.54.38-.74.51c-.6.34-1.39.75-2.36,1.23s-2.14,1-3.49,1.66a5.72,5.72,0,0,1-1.23.43,4.2,4.2,0,0,1-1.68-.26.84.84,0,0,1-.56-.82,1.42,1.42,0,0,1,.12-.52,4.92,4.92,0,0,1,.33-.64c.11-.17.22-.36.35-.54a4.48,4.48,0,0,0,.32-.56,15.81,15.81,0,0,0,.89-2.38,7.2,7.2,0,0,0,.31-2,2.68,2.68,0,0,0-.44-1.65,1.79,1.79,0,0,0-1.32-.65,8.66,8.66,0,0,0-1.28.69,10.51,10.51,0,0,0-1.42,1.12,17.36,17.36,0,0,1-1.39,1.2,4.88,4.88,0,0,1-1,.63,3.4,3.4,0,0,1-.77.69,10.88,10.88,0,0,1-1.42.84l-.16.24a1.81,1.81,0,0,1-.34.37q-.23-.46-.48-.93C271.52,48,271.32,47.64,271.11,47.32Z" transform="translate(-0.16 -0.43)" style="fill:#f9f9f9"/><path d="M288.93,47.32l.16-.15a1.78,1.78,0,0,1,.47-.61,4.88,4.88,0,0,1,1-.65q.89-.42,1.38-.69a2.47,2.47,0,0,0,.6-.38,2.13,2.13,0,0,0,.32-.35q.3-.16.72-.45t1-.69A2.1,2.1,0,0,0,295,43a5.72,5.72,0,0,0,.42-.51c.23-.12.5-.28.79-.47s.64-.43,1-.73l1.51-1.21c.56-.44,1.19-.9,1.88-1.38a6.75,6.75,0,0,1,.66-.19,2.46,2.46,0,0,1,.6-.07,3.06,3.06,0,0,1,1.8.44,1.45,1.45,0,0,1,.6,1.25,4.11,4.11,0,0,1-.09.67c-.06.31-.13.7-.2,1.18a22.07,22.07,0,0,1-.54,2.5c-.1.3-.48,1.23-1.12,2.81a8,8,0,0,0-.44,1l-.55,1.39a.75.75,0,0,0,.27.16,1.63,1.63,0,0,0,.67-.28c.32-.18.75-.45,1.28-.82s1.11-.77,1.47-1a7.39,7.39,0,0,1,.67-.4l.59,1c.17.31.33.6.45.87a4.72,4.72,0,0,0-.63.36,5.59,5.59,0,0,0-.52.45l-1.29.65-1.62.8c-.27.2-.63.45-1.08.74l-1.54,1-.51.09a4.3,4.3,0,0,1-.7.59,3.08,3.08,0,0,1-.6.28l-.86.23-.91.24a.65.65,0,0,1-.43-.27.86.86,0,0,1-.1-.53,4.39,4.39,0,0,1-.64-1.26,4.9,4.9,0,0,1-.24-1.58,2.11,2.11,0,0,1,0-.35c0-.12,0-.23.06-.32a3.3,3.3,0,0,1-.19-.63,1.16,1.16,0,0,1,.61-1,2.48,2.48,0,0,1,1.39-.4.62.62,0,0,1,.58.32c.11.21.23.31.36.31s.25-.18.39-.56a10.24,10.24,0,0,0,.38-1.63,12.13,12.13,0,0,0,.24-1.63c0-.46.06-.81.06-1.06a.48.48,0,0,0-.15-.39.72.72,0,0,0-.49-.14,8.52,8.52,0,0,0-2.25,1.22c-1.26.82-3,2-5.29,3.64a2.78,2.78,0,0,1-.31.35c-.13.14-.29.31-.46.51a4.06,4.06,0,0,0-.38-.75C289.44,48.14,289.21,47.76,288.93,47.32Z" transform="translate(-0.16 -0.43)" style="fill:#f9f9f9"/><path d="M305.65,47.32a5.55,5.55,0,0,1,.83-.87,10,10,0,0,1,1.28-.9c.06-.27.11-.54.16-.81a5.31,5.31,0,0,0,.11-.8,5.33,5.33,0,0,1,.25-.67l.39-.83c.16-.3.38-.68.66-1.12a13.87,13.87,0,0,1,1.08-1.51c.37-.31.76-.65,1.17-1l1.23-1.12a5.56,5.56,0,0,1,.64-.35,7.88,7.88,0,0,0,.7-.37c.21,0,.45-.1.72-.14a6,6,0,0,1,.88-.06,5.08,5.08,0,0,1,1.08.1,1.52,1.52,0,0,1,.68.35,1.69,1.69,0,0,1,.37.49,6.3,6.3,0,0,1,.33.79c.05.27.12.57.19.89,0-.08,0,0-.1.11l-.28.71-.24.65a7,7,0,0,1-1.68,2.26A35.23,35.23,0,0,1,312.57,46a1.35,1.35,0,0,0-.32.35.84.84,0,0,0-.13.46,1.36,1.36,0,0,0,.2.75,1.2,1.2,0,0,0,.57.49,3,3,0,0,0,.68.24,10.71,10.71,0,0,0,1.11.23,10.47,10.47,0,0,0,1.9-.27,8.76,8.76,0,0,0,1.52-.49l.43-.17a3.22,3.22,0,0,0,.59-.29l.61,1c.18.32.32.59.43.82a16.48,16.48,0,0,1-2.77,1.72,5.52,5.52,0,0,1-2.28.58,3.81,3.81,0,0,1-1,.29,8.19,8.19,0,0,1-1.3.09,6.2,6.2,0,0,1-1.75-.22,3.54,3.54,0,0,1-1.27-.65,2.46,2.46,0,0,1-.53-.6c-.18-.27-.37-.58-.57-.95a2.85,2.85,0,0,0-.45-.66.66.66,0,0,0-.48-.21,1,1,0,0,0-.48.15,3.08,3.08,0,0,0-.59.46,3.92,3.92,0,0,0-.37-.75C306.17,48.14,305.94,47.76,305.65,47.32Zm8.55-6.61c-.39,0-.92.39-1.57,1.17a3.41,3.41,0,0,0-1,1.72.22.22,0,0,0,.06.17.58.58,0,0,0,.28,0,.6.6,0,0,0,.49-.24l.34-.43c.2-.14.39-.28.58-.44l.54-.46a2.26,2.26,0,0,0,.49-.57,1.23,1.23,0,0,0,.16-.57.44.44,0,0,0-.1-.29A.32.32,0,0,0,314.2,40.71Z" transform="translate(-0.16 -0.43)" style="fill:#f9f9f9"/></g></g><g style="isolation:isolate"><g style="isolation:isolate"><path d="M177.51,68.3A4.14,4.14,0,0,1,176,69.38a4.86,4.86,0,0,1-2,.41,2.26,2.26,0,0,1-1-.13.4.4,0,0,1-.25-.37c0-.1.13-.27.38-.53s.43-.37.51-.37.2,0,.2.08a.21.21,0,0,1-.08.14c-.06,0-.08.08-.08.11s.06.09.2.14a1.88,1.88,0,0,0,.51.06,4,4,0,0,0,1.39-.25,3.47,3.47,0,0,0,1.15-.68,1.25,1.25,0,0,0,.44-.89.94.94,0,0,0-.28-.72,1.6,1.6,0,0,0-.7-.39c-.28-.09-.75-.21-1.41-.37s-1.29-.31-1.69-.44a3.13,3.13,0,0,1-1-.48A.94.94,0,0,1,172,64a1.93,1.93,0,0,1,.78-1.47,5.88,5.88,0,0,1,1.78-1.06,4.91,4.91,0,0,1,1.55-.38c.37,0,.56.11.56.33a.94.94,0,0,1-.13.45.43.43,0,0,1-.4.24.4.4,0,0,1-.21-.08.43.43,0,0,0-.23-.07,4.6,4.6,0,0,0-2.33.87,1.27,1.27,0,0,0-.58,1,.63.63,0,0,0,.46.6,11.24,11.24,0,0,0,1.69.48l.29.07.27.06a7.56,7.56,0,0,1,1.95.69,1.23,1.23,0,0,1,.67,1.15A2.17,2.17,0,0,1,177.51,68.3Z" transform="translate(-0.16 -0.43)" style="fill:#e6e6e6"/><path d="M184.78,63.5c-.14,1-.21,1.53-.22,1.66-.14,1.37-.24,2.42-.3,3.14s-.09,1.37-.09,2a4.94,4.94,0,0,0,.1,1.14,3.29,3.29,0,0,0,.23.66,1,1,0,0,1,.13.29q0,.15-.27.27a1.25,1.25,0,0,1-.54.12c-.14,0-.26-.2-.34-.59a10,10,0,0,1-.12-1.83,23.67,23.67,0,0,1,.18-2.52l.25-2.32a9.82,9.82,0,0,1-1.1,1.67,1.81,1.81,0,0,1-1.35.8c-.43,0-.81-.38-1.15-1.14a12,12,0,0,1-.8-2.58,12.31,12.31,0,0,1-.29-2.11c0-.28.08-.42.25-.42s.39.23.46.69q.63,4.65,1.75,4.65a1,1,0,0,0,.78-.36,7,7,0,0,0,.8-1.11,6.36,6.36,0,0,0,.46-.94,9.83,9.83,0,0,0,.38-1L184.1,62a1.79,1.79,0,0,1,.1-.55.26.26,0,0,1,.26-.16.46.46,0,0,1,.33.2.59.59,0,0,1,.17.37A15.93,15.93,0,0,1,184.78,63.5Z" transform="translate(-0.16 -0.43)" style="fill:#e6e6e6"/><path d="M191.86,68.3a4.1,4.1,0,0,1-1.54,1.08,4.91,4.91,0,0,1-2,.41,2.24,2.24,0,0,1-.95-.13.4.4,0,0,1-.25-.37c0-.1.13-.27.38-.53s.42-.37.51-.37.2,0,.2.08a.21.21,0,0,1-.08.14c-.06,0-.09.08-.09.11s.07.09.21.14a1.85,1.85,0,0,0,.5.06,4.06,4.06,0,0,0,1.4-.25,3.32,3.32,0,0,0,1.14-.68,1.22,1.22,0,0,0,.45-.89.94.94,0,0,0-.28-.72,1.66,1.66,0,0,0-.7-.39c-.28-.09-.75-.21-1.41-.37s-1.29-.31-1.69-.44a3,3,0,0,1-1-.48.94.94,0,0,1-.36-.75,1.94,1.94,0,0,1,.77-1.47,5.93,5.93,0,0,1,1.79-1.06,4.85,4.85,0,0,1,1.55-.38c.37,0,.56.11.56.33a1.07,1.07,0,0,1-.13.45.43.43,0,0,1-.4.24.37.37,0,0,1-.21-.08.44.44,0,0,0-.24-.07,4.53,4.53,0,0,0-2.32.87,1.27,1.27,0,0,0-.58,1,.64.64,0,0,0,.45.6,12,12,0,0,0,1.69.48l.3.07.27.06a7.46,7.46,0,0,1,1.94.69,1.24,1.24,0,0,1,.68,1.15A2.18,2.18,0,0,1,191.86,68.3Z" transform="translate(-0.16 -0.43)" style="fill:#e6e6e6"/><path d="M200.92,62.73a2.22,2.22,0,0,1-.86.23l-1.7.3-1.07.19c0,.58,0,1.19,0,1.82s0,1.2.07,1.68a7,7,0,0,0,.24,1.49l.18.58a.37.37,0,0,1-.21.31.69.69,0,0,1-.39.15.23.23,0,0,1-.16-.06.57.57,0,0,1-.12-.19,4.52,4.52,0,0,1-.19-.88c-.06-.42-.1-.89-.14-1.4s-.06-1-.07-1.6,0-1.2,0-1.77c-.61.1-1.25.23-1.89.37a9,9,0,0,1-1,.18.65.65,0,0,1-.38-.11.39.39,0,0,1-.17-.32c0-.15.05-.24.15-.28a1.18,1.18,0,0,1,.49-.07,4.27,4.27,0,0,0,.73-.09l.61-.13,1.5-.28q0-.36,0-.93,0-.77,0-1.17a8.91,8.91,0,0,1,0-1,2.48,2.48,0,0,1,.16-.65.48.48,0,0,1,.49-.33.3.3,0,0,1,.2.05.26.26,0,0,1,.05.18c0,.07,0,.27-.08.59a7.31,7.31,0,0,0-.09,1.29c0,.41,0,.88,0,1.39v.45c.5-.08,1.48-.28,2.94-.62.09,0,.16-.1.22-.23s.13-.2.19-.2a.51.51,0,0,1,.37.21.62.62,0,0,1,.19.42A.49.49,0,0,1,200.92,62.73Z" transform="translate(-0.16 -0.43)" style="fill:#e6e6e6"/><path d="M208.36,65.21a4.81,4.81,0,0,1-.44,1.32,5.89,5.89,0,0,1-1.32,1.89,3,3,0,0,1-2.17.87,2.45,2.45,0,0,1-1.76-.67,2.67,2.67,0,0,1-.71-2.06,6.44,6.44,0,0,1,2.14-4.68,3,3,0,0,1,2-.81,1.78,1.78,0,0,1,1,.28.89.89,0,0,1,.42.79,1.52,1.52,0,0,1-.65,1.14,6.11,6.11,0,0,1-1.69,1,9.94,9.94,0,0,1-2.15.6,6.19,6.19,0,0,0-.19,1.51,2.29,2.29,0,0,0,.45,1.51,1.59,1.59,0,0,0,1.3.54,2.59,2.59,0,0,0,2.06-.93A8.49,8.49,0,0,0,208,65.41s.06-.13.11-.26.11-.19.15-.19S208.36,65,208.36,65.21Zm-1.84-3.3a1.29,1.29,0,0,0-.64-.15,2,2,0,0,0-1.2.42,3.84,3.84,0,0,0-1,1,3.59,3.59,0,0,0-.5,1,5.75,5.75,0,0,0,1.6-.44,6.61,6.61,0,0,0,1.41-.77c.38-.28.57-.51.57-.68A.46.46,0,0,0,206.52,61.91Z" transform="translate(-0.16 -0.43)" style="fill:#e6e6e6"/><path d="M219.94,69.4a.41.41,0,0,1-.34.14.27.27,0,0,1-.3-.3,48,48,0,0,0-.21-5.18q-.22-1.8-.75-1.8-.89,0-2.6,6.31v0a.48.48,0,0,1-.14.34.42.42,0,0,1-.34.15.27.27,0,0,1-.3-.31c0-.44,0-1.14.07-2.07s.06-1.88.06-2.48a14.65,14.65,0,0,0-.07-1.78c-.05-.36-.16-.53-.32-.53-.38,0-.85.69-1.42,2.08s-1.18,3-1.8,4.92l-.15.43a1,1,0,0,1-.19.29.37.37,0,0,1-.27.12.76.76,0,0,1-.27,0s-.07-.09-.08-.2c-.06-.55-.1-1.28-.13-2.19,0-.24,0-.62-.07-1.16-.11-1.89-.21-3.16-.29-3.83s-.14-1-.14-1.11a.61.61,0,0,1,.14-.32.34.34,0,0,1,.24-.18c.18,0,.32.13.43.38a7.31,7.31,0,0,1,.18,1.48c.07.86.12,1.92.17,3.2l.08,2.56c.61-1.9,1.23-3.62,1.88-5.17s1.25-2.32,1.78-2.32q.56,0,.75.81a10.38,10.38,0,0,1,.2,2.32c0,.54,0,1.31,0,2.31v.78a38.36,38.36,0,0,1,1.34-4c.45-1.09.89-1.63,1.35-1.63q1.69,0,1.7,7.64A.48.48,0,0,1,219.94,69.4Z" transform="translate(-0.16 -0.43)" style="fill:#e6e6e6"/><path d="M227.38,68.3a4.18,4.18,0,0,1-1.54,1.08,4.94,4.94,0,0,1-2,.41,2.29,2.29,0,0,1-1-.13.42.42,0,0,1-.25-.37c0-.1.13-.27.38-.53s.43-.37.51-.37.2,0,.2.08a.21.21,0,0,1-.08.14s-.08.08-.08.11.07.09.2.14a1.88,1.88,0,0,0,.51.06,4,4,0,0,0,1.39-.25,3.47,3.47,0,0,0,1.15-.68,1.21,1.21,0,0,0,.44-.89.94.94,0,0,0-.28-.72,1.6,1.6,0,0,0-.7-.39c-.28-.09-.75-.21-1.41-.37s-1.29-.31-1.69-.44a3.25,3.25,0,0,1-1-.48.94.94,0,0,1-.36-.75,1.93,1.93,0,0,1,.78-1.47,5.88,5.88,0,0,1,1.78-1.06A4.91,4.91,0,0,1,226,61c.37,0,.56.11.56.33a.94.94,0,0,1-.13.45.4.4,0,0,1-.61.16.43.43,0,0,0-.23-.07,4.13,4.13,0,0,0-1,.21,4.38,4.38,0,0,0-1.29.66,1.3,1.3,0,0,0-.58,1,.63.63,0,0,0,.46.6,11.24,11.24,0,0,0,1.69.48l.3.07.26.06a7.42,7.42,0,0,1,1.95.69,1.23,1.23,0,0,1,.67,1.15A2.17,2.17,0,0,1,227.38,68.3Z" transform="translate(-0.16 -0.43)" style="fill:#e6e6e6"/><path d="M240,57.77c0,.23,0,.66,0,1.32s0,1.3,0,2c0,1.28,0,2.57.09,3.9s.1,2.19.13,2.6a1.8,1.8,0,0,0,0,.22l0,.22c0,.31.07.5.07.57s-.08.21-.24.31a.81.81,0,0,1-.38.15c-.12,0-.2,0-.23-.14a1,1,0,0,1-.06-.39c0-.62,0-1.26,0-1.93v-.94c0-.31,0-.72,0-1.23s0-.93,0-1.28a21.18,21.18,0,0,1-1.91,4.55c-.71,1.2-1.48,1.8-2.3,1.8a1.15,1.15,0,0,1-.95-.54,2.57,2.57,0,0,1-.39-1.54,5.92,5.92,0,0,1,.89-2.88,11.81,11.81,0,0,1,2-2.68c.75-.74,1.31-1.12,1.67-1.12s.53.12.53.35a1.3,1.3,0,0,1-.15.55,4.43,4.43,0,0,1-.35.56c-.13.17-.2.25-.22.25a.13.13,0,0,1-.08,0,.05.05,0,0,1,0-.05,1.07,1.07,0,0,1,.08-.29.81.81,0,0,0,.09-.27.27.27,0,0,0,0-.11s0,0-.1,0c-.23,0-.65.32-1.25,1a11,11,0,0,0-1.61,2.28,5.25,5.25,0,0,0-.7,2.46,1.79,1.79,0,0,0,.16.76.56.56,0,0,0,.54.35c.81,0,1.55-.69,2.24-2.07a27,27,0,0,0,1.79-4.7l0-1.4c0-1.24-.05-1.9-.05-2a9.4,9.4,0,0,1,.08-1.44.59.59,0,0,1,.08-.23s.08-.07.17-.07a.54.54,0,0,1,.33.11A.33.33,0,0,1,240,57Z" transform="translate(-0.16 -0.43)" style="fill:#e6e6e6"/><path d="M248.3,65.21a4.81,4.81,0,0,1-.44,1.32,5.89,5.89,0,0,1-1.32,1.89,3,3,0,0,1-2.17.87,2.45,2.45,0,0,1-1.77-.67,2.71,2.71,0,0,1-.71-2.06,6,6,0,0,1,.6-2.58,5.87,5.87,0,0,1,1.55-2.1,3,3,0,0,1,2-.81,1.8,1.8,0,0,1,1,.28.89.89,0,0,1,.42.79,1.55,1.55,0,0,1-.65,1.14,6.26,6.26,0,0,1-1.69,1,10.1,10.1,0,0,1-2.15.6,6.21,6.21,0,0,0-.2,1.51,2.23,2.23,0,0,0,.46,1.51,1.58,1.58,0,0,0,1.29.54,2.59,2.59,0,0,0,2.07-.93,9.13,9.13,0,0,0,1.32-2.07s.06-.13.11-.26.11-.19.15-.19S248.3,65,248.3,65.21Zm-1.84-3.3a1.34,1.34,0,0,0-.64-.15,2,2,0,0,0-1.2.42,3.84,3.84,0,0,0-1,1,3.34,3.34,0,0,0-.5,1,5.84,5.84,0,0,0,1.6-.44,6.61,6.61,0,0,0,1.41-.77c.38-.28.57-.51.57-.68A.46.46,0,0,0,246.46,61.91Z" transform="translate(-0.16 -0.43)" style="fill:#e6e6e6"/><path d="M257.48,61a1,1,0,0,0-.27.22,9.78,9.78,0,0,0-1.6,2.83,22.28,22.28,0,0,0-1.18,4c0,.17-.08.51-.16,1l-.08.58A.72.72,0,0,1,254,70a.9.9,0,0,1-.6.15,3.72,3.72,0,0,1-.56-1c-.32-.68-.65-1.4-1-2.19l-.71-1.57c-.42-1-.78-1.69-1.07-2.23s-.49-.8-.63-.8a.11.11,0,0,0-.1.08q0,.09-.09.09a.16.16,0,0,1-.14-.08.25.25,0,0,1-.06-.16,1.15,1.15,0,0,1,.24-.57c.16-.23.31-.35.47-.35a.37.37,0,0,1,.25.07.67.67,0,0,1,.14.15l.1.13a16.73,16.73,0,0,1,1.37,2.65c.23.5.81,1.81,1.72,3.93l.38.89a9.18,9.18,0,0,1,.16-1.4,24.07,24.07,0,0,1,1.09-3.92,13.16,13.16,0,0,1,1.7-3.25,2.45,2.45,0,0,1,.32-.38.5.5,0,0,1,.33-.11c.05,0,.14.09.26.26a.91.91,0,0,1,.18.35S257.63,60.87,257.48,61Z" transform="translate(-0.16 -0.43)" style="fill:#e6e6e6"/><path d="M264.78,65.21a4.46,4.46,0,0,1-.44,1.32A5.89,5.89,0,0,1,263,68.42a3,3,0,0,1-2.17.87,2.45,2.45,0,0,1-1.76-.67,2.71,2.71,0,0,1-.71-2.06,6.44,6.44,0,0,1,2.14-4.68,3,3,0,0,1,2-.81,1.82,1.82,0,0,1,1,.28.89.89,0,0,1,.42.79,1.54,1.54,0,0,1-.66,1.14,6,6,0,0,1-1.69,1,10,10,0,0,1-2.14.6,6.21,6.21,0,0,0-.2,1.51,2.29,2.29,0,0,0,.45,1.51,1.62,1.62,0,0,0,1.3.54,2.57,2.57,0,0,0,2.06-.93,8.49,8.49,0,0,0,1.32-2.07l.12-.26c.05-.13.1-.19.15-.19S264.78,65,264.78,65.21Zm-1.84-3.3a1.28,1.28,0,0,0-.63-.15,2,2,0,0,0-1.21.42,3.8,3.8,0,0,0-1,1,3.65,3.65,0,0,0-.51,1,5.75,5.75,0,0,0,1.6-.44,6.15,6.15,0,0,0,1.41-.77c.38-.28.57-.51.57-.68A.46.46,0,0,0,262.94,61.91Z" transform="translate(-0.16 -0.43)" style="fill:#e6e6e6"/><path d="M267.47,69a1.06,1.06,0,0,1-.48.1c-.13,0-.25-.16-.37-.47a4.76,4.76,0,0,1-.17-1.45c0-1.26,0-2.79.06-4.58s.05-3.13.07-4a3,3,0,0,1,.17-.91.57.57,0,0,1,.56-.41.17.17,0,0,1,.17.14,2.13,2.13,0,0,1,0,.54.66.66,0,0,1,0,.11c0,.06,0,.17,0,.33-.19,2.93-.29,5.8-.29,8.59a3.07,3.07,0,0,0,.24,1.14q.24.6.24.63C267.69,68.88,267.61,69,267.47,69Z" transform="translate(-0.16 -0.43)" style="fill:#e6e6e6"/><path d="M274.63,67.27a4.45,4.45,0,0,1-1.35,1.46,3.38,3.38,0,0,1-2,.61,2,2,0,0,1-1.63-.62,2.29,2.29,0,0,1-.53-1.54,8.88,8.88,0,0,1,.29-2,8.43,8.43,0,0,1,.82-2.13s.11-.21.27-.49a2,2,0,0,1,.54-.65,1,1,0,0,1,.62-.23.48.48,0,0,1,.28.08.22.22,0,0,1,.12.19.54.54,0,0,1-.09.16l-.14.19a7.5,7.5,0,0,0-.91,1.36,9,9,0,0,0-.72,1.69,6.21,6.21,0,0,0-.25,1.82c0,.88.52,1.33,1.58,1.33a2.38,2.38,0,0,0,1.38-.44,3.4,3.4,0,0,0,1-1.06,2.2,2.2,0,0,0,.38-1.15,1.47,1.47,0,0,0-.38-1,6.19,6.19,0,0,0-1-.92,6.08,6.08,0,0,1-.62-.52.59.59,0,0,1-.2-.34c0-.13.09-.24.28-.32a1.53,1.53,0,0,1,.66-.13.81.81,0,0,1,.28,0,.09.09,0,0,1,.07.09.24.24,0,0,1-.06.11.22.22,0,0,0-.06.12s.11.15.33.34a7.79,7.79,0,0,1,1.11,1.12,2.16,2.16,0,0,1,.44,1.34A3.2,3.2,0,0,1,274.63,67.27Z" transform="translate(-0.16 -0.43)" style="fill:#e6e6e6"/><path d="M282.24,67.05a12.89,12.89,0,0,1-4,.84c0,.76,0,1.37,0,1.86s0,1.21.08,1.74q0,.3,0,.42a1,1,0,0,1-.11.46.39.39,0,0,1-.33.19c-.2,0-.31-.07-.33-.22s0-.48,0-.88,0-.79,0-1.2l0-2.34a2.16,2.16,0,0,0-.31,0h-.43c-.27,0-.4-.18-.4-.55s.07-.4.2-.4a2,2,0,0,1,.39.1,1.89,1.89,0,0,0,.56.1V62.46L277,62.4a1.51,1.51,0,0,1-.6-.16.36.36,0,0,1-.19-.33c0-.29.06-.44.17-.44a1,1,0,0,1,.44.14l.2.09a1.47,1.47,0,0,0,.46.11,1.36,1.36,0,0,1,.19-.37.47.47,0,0,1,.36-.1c.22,0,.33,0,.33.13a.71.71,0,0,1-.05.18.52.52,0,0,0-.05.24,13.18,13.18,0,0,1,2.32.61,8.61,8.61,0,0,1,2.24,1.17,2,2,0,0,1,.95,1.54C283.76,66,283.25,66.61,282.24,67.05Zm0-3a7.24,7.24,0,0,0-1.91-.94,14.2,14.2,0,0,0-2.14-.53c0,.64,0,1.5.05,2.57s0,1.77,0,2.12a9.5,9.5,0,0,0,2.11-.26,6.91,6.91,0,0,0,1.89-.71c.51-.29.77-.62.77-1A1.58,1.58,0,0,0,282.26,64Z" transform="translate(-0.16 -0.43)" style="fill:#e6e6e6"/><path d="M295.33,69.4a.43.43,0,0,1-.35.14c-.2,0-.29-.1-.29-.3a47.51,47.51,0,0,0-.22-5.18c-.14-1.2-.39-1.8-.74-1.8q-.9,0-2.61,6.31v0a.47.47,0,0,1-.13.34.45.45,0,0,1-.35.15.27.27,0,0,1-.3-.31c0-.44,0-1.14.07-2.07s.07-1.88.07-2.48a14.1,14.1,0,0,0-.08-1.78c0-.36-.15-.53-.32-.53-.37,0-.85.69-1.42,2.08s-1.17,3-1.8,4.92l-.15.43a.7.7,0,0,1-.19.29.37.37,0,0,1-.27.12.66.66,0,0,1-.26,0c-.05,0-.07-.09-.08-.2-.06-.55-.1-1.28-.14-2.19,0-.24,0-.62-.06-1.16-.11-1.89-.21-3.16-.3-3.83s-.13-1-.13-1.11a.58.58,0,0,1,.13-.32c.09-.12.17-.18.25-.18s.32.13.43.38a9.42,9.42,0,0,1,.18,1.48c.06.86.12,1.92.16,3.2l.09,2.56q.9-2.85,1.88-5.17c.65-1.54,1.24-2.32,1.78-2.32.36,0,.61.27.74.81a10.38,10.38,0,0,1,.2,2.32q0,.81,0,2.31l0,.78a36,36,0,0,1,1.35-4c.44-1.09.89-1.63,1.34-1.63q1.69,0,1.7,7.64A.47.47,0,0,1,295.33,69.4Z" transform="translate(-0.16 -0.43)" style="fill:#e6e6e6"/><path d="M303.76,65.21a4.46,4.46,0,0,1-.44,1.32A5.89,5.89,0,0,1,302,68.42a3,3,0,0,1-2.17.87,2.45,2.45,0,0,1-1.76-.67,2.71,2.71,0,0,1-.71-2.06,6.44,6.44,0,0,1,2.14-4.68,3,3,0,0,1,2-.81,1.82,1.82,0,0,1,1,.28.89.89,0,0,1,.42.79,1.54,1.54,0,0,1-.66,1.14,6,6,0,0,1-1.69,1,10,10,0,0,1-2.14.6,6.21,6.21,0,0,0-.2,1.51,2.29,2.29,0,0,0,.45,1.51,1.62,1.62,0,0,0,1.3.54,2.57,2.57,0,0,0,2.06-.93,8.49,8.49,0,0,0,1.32-2.07l.12-.26c.05-.13.1-.19.15-.19S303.76,65,303.76,65.21Zm-1.84-3.3a1.28,1.28,0,0,0-.63-.15,2,2,0,0,0-1.21.42,3.8,3.8,0,0,0-1,1,3.65,3.65,0,0,0-.51,1,5.75,5.75,0,0,0,1.6-.44,6.15,6.15,0,0,0,1.41-.77c.38-.28.57-.51.57-.68A.46.46,0,0,0,301.92,61.91Z" transform="translate(-0.16 -0.43)" style="fill:#e6e6e6"/><path d="M310.56,69.69a.61.61,0,0,1-.4.14.51.51,0,0,1-.28-.08.25.25,0,0,1-.11-.21c0-.45,0-1.16.1-2.12s.1-1.88.1-2.57,0-1.19-.06-1.61-.13-.63-.27-.63c-.38,0-.79.47-1.23,1.42s-1,2.18-1.53,3.72l-.25.67a.58.58,0,0,1-.22.27.55.55,0,0,1-.32.1.82.82,0,0,1-.27,0,.27.27,0,0,1-.08-.2l-.13-1.38-.25-2.41c-.07-1-.17-1.8-.28-2.51a2.57,2.57,0,0,1-.05-.39.49.49,0,0,1,.22-.41.82.82,0,0,1,.49-.16q.17,0,.24.81c0,.53.1,1.4.16,2.59l.06.89c.09,1.13.14,1.84.15,2.15a.92.92,0,0,0,.09-.23l.11-.28a41,41,0,0,1,1.68-3.91c.52-1,1-1.56,1.51-1.56.34,0,.57.29.7.88a14.61,14.61,0,0,1,.24,2.25c0,1,.05,2.5.05,4.45A.46.46,0,0,1,310.56,69.69Z" transform="translate(-0.16 -0.43)" style="fill:#e6e6e6"/><path d="M319.73,62.73a2.28,2.28,0,0,1-.87.23l-1.7.3-1.07.19c0,.58,0,1.19,0,1.82s.05,1.2.08,1.68a6.48,6.48,0,0,0,.23,1.49l.18.58a.37.37,0,0,1-.21.31.64.64,0,0,1-.38.15.25.25,0,0,1-.17-.06.56.56,0,0,1-.11-.19,3.87,3.87,0,0,1-.19-.88c-.06-.42-.11-.89-.14-1.4s-.06-1-.08-1.6,0-1.2,0-1.77c-.62.1-1.25.23-1.9.37a8.61,8.61,0,0,1-1,.18A.62.62,0,0,1,312,64a.36.36,0,0,1-.17-.32c0-.15,0-.24.14-.28a1.23,1.23,0,0,1,.5-.07,4.18,4.18,0,0,0,.72-.09l.62-.13c.73-.14,1.23-.24,1.5-.28,0-.24,0-.55,0-.93s0-.9,0-1.17a8.91,8.91,0,0,1,0-1,2.48,2.48,0,0,1,.16-.65.49.49,0,0,1,.49-.33.3.3,0,0,1,.2.05s.05.09.05.18,0,.27-.08.59a7.47,7.47,0,0,0-.08,1.29c0,.41,0,.88,0,1.39l0,.45c.49-.08,1.47-.28,2.93-.62a.37.37,0,0,0,.23-.23c.06-.14.12-.2.19-.2a.53.53,0,0,1,.37.21.66.66,0,0,1,.19.42A.49.49,0,0,1,319.73,62.73Z" transform="translate(-0.16 -0.43)" style="fill:#e6e6e6"/></g></g><path d="M.17,49.83l32.1,47.38A50.13,50.13,0,0,1,.16,50.43C.16,50.23.16,50,.17,49.83Z" transform="translate(-0.16 -0.43)" style="fill:#f9f9f9"/><path d="M1.61,38.42,36.82,97.81.54,44.26A48.87,48.87,0,0,1,1.61,38.42Z" transform="translate(-0.16 -0.43)" style="fill:#f9f9f9"/><path d="M5.07,28.77,38.54,93.24,3.1,33.48Q4,31.07,5.07,28.77Z" transform="translate(-0.16 -0.43)" style="fill:#f9f9f9"/><path d="M39.3,87.72,6.91,25.3A50.27,50.27,0,0,1,32,3.76Z" transform="translate(-0.16 -0.43)" style="fill:#f9f9f9"/><path d="M46.71.43v100h0L38.07,1.8A50.05,50.05,0,0,1,46.71.43Z" transform="translate(-0.16 -0.43)" style="fill:#f9f9f9"/><path d="M100.4,49.83,68.31,97.21a50.14,50.14,0,0,0,32.1-46.78C100.41,50.23,100.41,50,100.4,49.83Z" transform="translate(-0.16 -0.43)" style="fill:#f9f9f9"/><path d="M99,38.42,63.75,97.81,100,44.26A48.87,48.87,0,0,0,99,38.42Z" transform="translate(-0.16 -0.43)" style="fill:#f9f9f9"/><path d="M95.5,28.77,62,93.24,97.47,33.48A48.71,48.71,0,0,0,95.5,28.77Z" transform="translate(-0.16 -0.43)" style="fill:#f9f9f9"/><path d="M61.27,87.72,93.67,25.3A50.33,50.33,0,0,0,68.61,3.76Z" transform="translate(-0.16 -0.43)" style="fill:#f9f9f9"/><path d="M53.87.43v100h0L62.5,1.8A50.09,50.09,0,0,0,53.87.43Z" transform="translate(-0.16 -0.43)" style="fill:#f9f9f9"/></svg>