<svg xmlns="http://www.w3.org/2000/svg" viewBox="0 0 280 336.05"><g style="isolation:isolate"><g style="isolation:isolate"><path d="M100.82,333.27a4.1,4.1,0,0,1-1.54,1.08,4.91,4.91,0,0,1-2,.41,2.24,2.24,0,0,1-1-.13.4.4,0,0,1-.25-.37c0-.1.13-.27.38-.53s.42-.37.51-.37.2,0,.2.08a.21.21,0,0,1-.08.14c-.06,0-.09.08-.09.11s.07.09.21.14a1.8,1.8,0,0,0,.5.06,3.85,3.85,0,0,0,1.4-.26,3.16,3.16,0,0,0,1.14-.67,1.22,1.22,0,0,0,.45-.89.94.94,0,0,0-.28-.72,1.66,1.66,0,0,0-.7-.39c-.28-.09-.75-.21-1.41-.37s-1.29-.31-1.69-.44a3,3,0,0,1-1-.48.94.94,0,0,1-.36-.75,1.93,1.93,0,0,1,.77-1.47,5.93,5.93,0,0,1,1.79-1.06A4.59,4.59,0,0,1,99.4,326c.37,0,.56.11.56.33a1.07,1.07,0,0,1-.13.45.43.43,0,0,1-.4.24.42.42,0,0,1-.22-.08.39.39,0,0,0-.23-.07,4.53,4.53,0,0,0-2.32.87,1.27,1.27,0,0,0-.58,1.05.64.64,0,0,0,.45.6,12,12,0,0,0,1.69.48l.3.07.27.06a7.46,7.46,0,0,1,1.94.69,1.24,1.24,0,0,1,.68,1.15A2.18,2.18,0,0,1,100.82,333.27Z" transform="translate(-1.42 -1.65)" style="fill:#3c3c3c"/><path d="M108.09,328.47c-.13,1-.2,1.53-.21,1.66-.14,1.37-.25,2.42-.31,3.14s-.09,1.37-.09,2a4.86,4.86,0,0,0,.11,1.14,3.53,3.53,0,0,0,.23.66,1.19,1.19,0,0,1,.12.29c0,.1-.08.19-.26.27a1.32,1.32,0,0,1-.54.12c-.15,0-.26-.2-.34-.59a9.81,9.81,0,0,1-.13-1.83,21.68,21.68,0,0,1,.19-2.52l.24-2.32a9.2,9.2,0,0,1-1.09,1.67,1.83,1.83,0,0,1-1.35.8c-.43,0-.81-.38-1.15-1.14a14,14,0,0,1-1.09-4.69q0-.42.24-.42c.25,0,.4.23.47.69.41,3.1,1,4.65,1.75,4.65a1.06,1.06,0,0,0,.78-.36,7.75,7.75,0,0,0,.8-1.11,7.54,7.54,0,0,0,.46-.94c.17-.39.29-.71.38-1l.12-1.69a1.79,1.79,0,0,1,.1-.55.26.26,0,0,1,.26-.16.46.46,0,0,1,.33.2.57.57,0,0,1,.16.37A15.93,15.93,0,0,1,108.09,328.47Z" transform="translate(-1.42 -1.65)" style="fill:#3c3c3c"/><path d="M115.18,333.27a4.1,4.1,0,0,1-1.54,1.08,4.94,4.94,0,0,1-2,.41,2.33,2.33,0,0,1-1-.13.41.41,0,0,1-.24-.37c0-.1.12-.27.38-.53s.42-.37.51-.37.2,0,.2.08,0,.09-.09.14-.08.08-.08.11.07.09.21.14a1.75,1.75,0,0,0,.5.06,3.8,3.8,0,0,0,1.39-.26,3.29,3.29,0,0,0,1.15-.67,1.22,1.22,0,0,0,.45-.89,1,1,0,0,0-.28-.72,1.66,1.66,0,0,0-.7-.39c-.29-.09-.76-.21-1.42-.37s-1.29-.31-1.69-.44a3.07,3.07,0,0,1-1-.48,1,1,0,0,1-.37-.75,1.91,1.91,0,0,1,.78-1.47,6,6,0,0,1,1.78-1.06,4.65,4.65,0,0,1,1.55-.38c.38,0,.56.11.56.33a.94.94,0,0,1-.13.45.4.4,0,0,1-.61.16.41.41,0,0,0-.23-.07,4.13,4.13,0,0,0-1,.21,4.38,4.38,0,0,0-1.29.66,1.29,1.29,0,0,0-.57,1.05.64.64,0,0,0,.45.6,11.62,11.62,0,0,0,1.69.48l.3.07.26.06a7.42,7.42,0,0,1,2,.69,1.24,1.24,0,0,1,.68,1.15A2.18,2.18,0,0,1,115.18,333.27Z" transform="translate(-1.42 -1.65)" style="fill:#3c3c3c"/><path d="M124.24,327.7a2.28,2.28,0,0,1-.87.23l-1.69.3-1.08.19c0,.58,0,1.19,0,1.82s0,1.2.07,1.68a6.48,6.48,0,0,0,.23,1.49l.18.58a.36.36,0,0,1-.2.31.69.69,0,0,1-.39.15.25.25,0,0,1-.17-.06.56.56,0,0,1-.11-.19,3.87,3.87,0,0,1-.19-.88c-.06-.42-.11-.89-.14-1.4s-.06-1-.08-1.6,0-1.2,0-1.77c-.62.1-1.25.23-1.9.37a8.61,8.61,0,0,1-1,.18.64.64,0,0,1-.37-.11.39.39,0,0,1-.17-.32.29.29,0,0,1,.15-.29,1.42,1.42,0,0,1,.49-.06,4.27,4.27,0,0,0,.73-.09l.61-.13,1.5-.28q0-.36,0-.93c0-.51,0-.9,0-1.17a8.5,8.5,0,0,1,.05-1,2.48,2.48,0,0,1,.15-.65.5.5,0,0,1,.5-.33.32.32,0,0,1,.2,0,.26.26,0,0,1,0,.18,4.1,4.1,0,0,1-.08.59,8.64,8.64,0,0,0-.08,1.29c0,.41,0,.88,0,1.39l0,.45c.49-.08,1.47-.28,2.94-.62a.38.38,0,0,0,.22-.23c.06-.14.12-.2.19-.2a.53.53,0,0,1,.37.21.62.62,0,0,1,.19.42A.49.49,0,0,1,124.24,327.7Z" transform="translate(-1.42 -1.65)" style="fill:#3c3c3c"/><path d="M131.68,330.18a4.81,4.81,0,0,1-.44,1.32,5.89,5.89,0,0,1-1.32,1.89,3,3,0,0,1-2.17.87,2.45,2.45,0,0,1-1.77-.67,2.71,2.71,0,0,1-.71-2.06,6,6,0,0,1,.6-2.58,5.87,5.87,0,0,1,1.55-2.1,3,3,0,0,1,2-.81,1.78,1.78,0,0,1,1,.28.89.89,0,0,1,.42.79,1.55,1.55,0,0,1-.65,1.14,6.26,6.26,0,0,1-1.69,1,10.1,10.1,0,0,1-2.15.6,6.21,6.21,0,0,0-.2,1.51,2.23,2.23,0,0,0,.46,1.51,1.58,1.58,0,0,0,1.29.54,2.59,2.59,0,0,0,2.07-.93,9.13,9.13,0,0,0,1.32-2.07c0-.05.06-.13.11-.26s.11-.19.15-.19S131.68,330,131.68,330.18Zm-1.84-3.3a1.34,1.34,0,0,0-.64-.15,2,2,0,0,0-1.2.42,3.84,3.84,0,0,0-1,1,3.34,3.34,0,0,0-.5,1,5.84,5.84,0,0,0,1.6-.44,6.61,6.61,0,0,0,1.41-.77c.38-.28.57-.51.57-.68A.46.46,0,0,0,129.84,326.88Z" transform="translate(-1.42 -1.65)" style="fill:#3c3c3c"/><path d="M143.26,334.37a.43.43,0,0,1-.35.14.26.26,0,0,1-.29-.3,45.08,45.08,0,0,0-.22-5.18c-.14-1.2-.39-1.8-.74-1.8q-.89,0-2.61,6.31v0a.47.47,0,0,1-.13.34.44.44,0,0,1-.35.15c-.19,0-.29-.11-.29-.31,0-.44,0-1.14.06-2.07s.07-1.88.07-2.48a14.1,14.1,0,0,0-.08-1.78c-.05-.36-.15-.53-.32-.53-.37,0-.84.69-1.42,2.08s-1.17,3-1.8,4.92l-.14.43a1,1,0,0,1-.19.29.41.41,0,0,1-.28.12.66.66,0,0,1-.26,0s-.07-.09-.08-.2c-.06-.55-.1-1.28-.13-2.19,0-.24-.05-.62-.07-1.16-.11-1.89-.21-3.16-.3-3.83s-.13-1-.13-1.11a.58.58,0,0,1,.13-.32c.09-.12.17-.18.25-.18s.32.13.43.38a9.42,9.42,0,0,1,.18,1.48c.07.86.12,1.92.17,3.2l.08,2.56q.9-2.85,1.88-5.17c.65-1.54,1.24-2.32,1.78-2.32.36,0,.61.27.74.81a9.81,9.81,0,0,1,.2,2.32q0,.81,0,2.31l0,.78a36,36,0,0,1,1.35-4c.44-1.09.89-1.63,1.34-1.63,1.14,0,1.7,2.55,1.7,7.64A.47.47,0,0,1,143.26,334.37Z" transform="translate(-1.42 -1.65)" style="fill:#3c3c3c"/><path d="M150.7,333.27a4.22,4.22,0,0,1-1.55,1.08,4.89,4.89,0,0,1-2,.41,2.26,2.26,0,0,1-1-.13.4.4,0,0,1-.25-.37c0-.1.13-.27.38-.53s.42-.37.51-.37.2,0,.2.08a.21.21,0,0,1-.08.14c-.06,0-.09.08-.09.11s.07.09.21.14a1.85,1.85,0,0,0,.5.06,3.85,3.85,0,0,0,1.4-.26,3.29,3.29,0,0,0,1.15-.67,1.25,1.25,0,0,0,.44-.89.94.94,0,0,0-.28-.72,1.66,1.66,0,0,0-.7-.39c-.28-.09-.75-.21-1.41-.37s-1.29-.31-1.69-.44a3.13,3.13,0,0,1-1-.48.94.94,0,0,1-.36-.75,1.93,1.93,0,0,1,.77-1.47,6.06,6.06,0,0,1,1.79-1.06,4.59,4.59,0,0,1,1.55-.38c.37,0,.56.11.56.33a1.07,1.07,0,0,1-.13.45.43.43,0,0,1-.4.24.37.37,0,0,1-.21-.08.43.43,0,0,0-.23-.07,4.6,4.6,0,0,0-2.33.87,1.27,1.27,0,0,0-.58,1.05.64.64,0,0,0,.45.6,11.87,11.87,0,0,0,1.7.48l.29.07.27.06a7.46,7.46,0,0,1,1.94.69,1.23,1.23,0,0,1,.68,1.15A2.17,2.17,0,0,1,150.7,333.27Z" transform="translate(-1.42 -1.65)" style="fill:#3c3c3c"/><path d="M163.33,322.74c0,.23,0,.66,0,1.32s0,1.3,0,2c0,1.28,0,2.57.08,3.9s.1,2.19.14,2.6a1.7,1.7,0,0,0,0,.22,1.43,1.43,0,0,0,0,.22q.06.46.06.57c0,.11-.08.21-.24.31a.78.78,0,0,1-.37.15.23.23,0,0,1-.24-.14,1,1,0,0,1-.06-.39c0-.62,0-1.26,0-1.93l0-.94c0-.31,0-.72,0-1.23s0-.93,0-1.28a21.2,21.2,0,0,1-1.9,4.55c-.71,1.2-1.48,1.8-2.3,1.8a1.14,1.14,0,0,1-.95-.54,2.57,2.57,0,0,1-.39-1.54,5.9,5.9,0,0,1,.88-2.88,12.15,12.15,0,0,1,2-2.68c.75-.74,1.31-1.12,1.67-1.12s.53.12.53.35a1.2,1.2,0,0,1-.16.55,4.38,4.38,0,0,1-.34.56c-.13.17-.21.25-.23.25l-.07,0a.05.05,0,0,1,0-.05.79.79,0,0,1,.08-.29,1,1,0,0,0,.08-.27.31.31,0,0,0,0-.11.11.11,0,0,0-.1,0c-.23,0-.65.32-1.25,1a10.65,10.65,0,0,0-1.61,2.28,5.28,5.28,0,0,0-.71,2.46,1.8,1.8,0,0,0,.17.76.56.56,0,0,0,.54.35c.8,0,1.55-.69,2.24-2.07a27.79,27.79,0,0,0,1.79-4.7l0-1.4c0-1.24-.05-1.9-.05-2a8.25,8.25,0,0,1,.08-1.44.91.91,0,0,1,.07-.23s.09-.07.18-.07a.54.54,0,0,1,.33.11.33.33,0,0,1,.16.29Z" transform="translate(-1.42 -1.65)" style="fill:#3c3c3c"/><path d="M171.61,330.18a4.64,4.64,0,0,1-.43,1.32,6.23,6.23,0,0,1-1.32,1.89,3,3,0,0,1-2.18.87,2.45,2.45,0,0,1-1.76-.67,2.71,2.71,0,0,1-.71-2.06,6.44,6.44,0,0,1,2.14-4.68,3.05,3.05,0,0,1,2-.81,1.8,1.8,0,0,1,1,.28.89.89,0,0,1,.42.79,1.55,1.55,0,0,1-.65,1.14,6.18,6.18,0,0,1-1.7,1,9.86,9.86,0,0,1-2.14.6,6.21,6.21,0,0,0-.2,1.51,2.29,2.29,0,0,0,.45,1.51,1.62,1.62,0,0,0,1.3.54,2.57,2.57,0,0,0,2.06-.93,8.49,8.49,0,0,0,1.32-2.07c0-.05.06-.13.12-.26s.1-.19.15-.19S171.61,330,171.61,330.18Zm-1.84-3.3a1.28,1.28,0,0,0-.63-.15,2,2,0,0,0-1.21.42,4,4,0,0,0-1,1,3.65,3.65,0,0,0-.51,1,5.75,5.75,0,0,0,1.6-.44,6.46,6.46,0,0,0,1.42-.77c.38-.28.56-.51.56-.68A.46.46,0,0,0,169.77,326.88Z" transform="translate(-1.42 -1.65)" style="fill:#3c3c3c"/><path d="M180.8,325.94a1.39,1.39,0,0,0-.28.22,10.27,10.27,0,0,0-1.6,2.83,23.14,23.14,0,0,0-1.17,4c0,.17-.09.51-.16,1l-.09.58a.66.66,0,0,1-.22.42.92.92,0,0,1-.6.15c-.06,0-.24-.33-.56-1s-.66-1.4-1-2.19l-.71-1.57c-.43-.95-.79-1.69-1.07-2.23s-.5-.8-.63-.8a.14.14,0,0,0-.11.08q0,.09-.09.09a.19.19,0,0,1-.14-.08.24.24,0,0,1-.05-.16,1.22,1.22,0,0,1,.23-.57c.16-.23.32-.35.48-.35a.34.34,0,0,1,.24.07.54.54,0,0,1,.15.15l.1.13a17.68,17.68,0,0,1,1.37,2.65c.23.5.8,1.81,1.72,3.93l.38.89a9.18,9.18,0,0,1,.16-1.4,23.11,23.11,0,0,1,1.09-3.92,12.83,12.83,0,0,1,1.7-3.25,2.45,2.45,0,0,1,.32-.38.48.48,0,0,1,.32-.11c.06,0,.15.09.27.26a.91.91,0,0,1,.18.35C181,325.76,181,325.84,180.8,325.94Z" transform="translate(-1.42 -1.65)" style="fill:#3c3c3c"/><path d="M188.1,330.18a4.81,4.81,0,0,1-.44,1.32,5.89,5.89,0,0,1-1.32,1.89,3,3,0,0,1-2.17.87,2.45,2.45,0,0,1-1.76-.67,2.67,2.67,0,0,1-.71-2.06,6.44,6.44,0,0,1,2.14-4.68,3,3,0,0,1,2-.81,1.78,1.78,0,0,1,1,.28.89.89,0,0,1,.42.79,1.52,1.52,0,0,1-.65,1.14,6.11,6.11,0,0,1-1.69,1,9.94,9.94,0,0,1-2.15.6,6.19,6.19,0,0,0-.19,1.51,2.29,2.29,0,0,0,.45,1.51,1.61,1.61,0,0,0,1.3.54,2.59,2.59,0,0,0,2.06-.93,8.49,8.49,0,0,0,1.32-2.07c0-.05.06-.13.11-.26s.11-.19.15-.19S188.1,330,188.1,330.18Zm-1.84-3.3a1.29,1.29,0,0,0-.64-.15,2,2,0,0,0-1.2.42,3.84,3.84,0,0,0-1,1,3.59,3.59,0,0,0-.5,1,5.75,5.75,0,0,0,1.6-.44A6.61,6.61,0,0,0,186,328c.38-.28.57-.51.57-.68A.46.46,0,0,0,186.26,326.88Z" transform="translate(-1.42 -1.65)" style="fill:#3c3c3c"/><path d="M190.79,334a1.06,1.06,0,0,1-.48.1c-.13,0-.26-.16-.37-.48a4.35,4.35,0,0,1-.17-1.44c0-1.26,0-2.79,0-4.58s.06-3.13.08-4a3,3,0,0,1,.17-.91.57.57,0,0,1,.55-.41.17.17,0,0,1,.18.14,2.77,2.77,0,0,1,0,.54.66.66,0,0,1,0,.11,2.65,2.65,0,0,0,0,.33c-.2,2.93-.3,5.8-.3,8.59a3.07,3.07,0,0,0,.24,1.14q.24.6.24.63T190.79,334Z" transform="translate(-1.42 -1.65)" style="fill:#3c3c3c"/><path d="M198,332.24a4.45,4.45,0,0,1-1.35,1.46,3.4,3.4,0,0,1-2,.61,2,2,0,0,1-1.63-.62,2.24,2.24,0,0,1-.53-1.54,9.83,9.83,0,0,1,1.1-4.12s.12-.21.28-.49a2.11,2.11,0,0,1,.53-.65,1,1,0,0,1,.63-.23.43.43,0,0,1,.27.08.21.21,0,0,1,.13.19.54.54,0,0,1-.09.16,1.26,1.26,0,0,0-.14.19,7.5,7.5,0,0,0-.91,1.36,9,9,0,0,0-.72,1.69,6.2,6.2,0,0,0-.26,1.82c0,.88.53,1.33,1.59,1.33a2.43,2.43,0,0,0,1.38-.44,3.4,3.4,0,0,0,1-1.06,2.29,2.29,0,0,0,.38-1.15,1.52,1.52,0,0,0-.38-1,6.19,6.19,0,0,0-1-.92,7.94,7.94,0,0,1-.63-.52.56.56,0,0,1-.19-.34c0-.13.09-.24.28-.32a1.47,1.47,0,0,1,.66-.13.85.85,0,0,1,.28,0,.08.08,0,0,1,.06.09.31.31,0,0,1,0,.11.22.22,0,0,0-.06.12s.11.15.33.34a7.21,7.21,0,0,1,1.1,1.12,2.11,2.11,0,0,1,.45,1.34A3.2,3.2,0,0,1,198,332.24Z" transform="translate(-1.42 -1.65)" style="fill:#3c3c3c"/><path d="M205.56,332a12.89,12.89,0,0,1-4,.84c0,.76,0,1.37,0,1.86a15.66,15.66,0,0,0,.08,1.74q0,.3,0,.42a1,1,0,0,1-.11.46.39.39,0,0,1-.33.19c-.2,0-.31-.07-.33-.22s0-.48,0-.88,0-.79,0-1.2l0-2.34a2.16,2.16,0,0,0-.31,0h-.44c-.26,0-.39-.18-.39-.55s.06-.4.19-.4a1.9,1.9,0,0,1,.4.1,1.89,1.89,0,0,0,.56.1v-4.74l-.55-.06a1.46,1.46,0,0,1-.6-.16.37.37,0,0,1-.19-.33c0-.29,0-.44.16-.44a1.08,1.08,0,0,1,.45.14l.2.09a1.47,1.47,0,0,0,.46.11,1.36,1.36,0,0,1,.19-.37.46.46,0,0,1,.35-.1c.22,0,.33,0,.33.13a.44.44,0,0,1,0,.18.67.67,0,0,0,0,.24,12.87,12.87,0,0,1,2.31.61,8.52,8.52,0,0,1,2.25,1.17,2,2,0,0,1,1,1.54C207.08,331,206.57,331.58,205.56,332Zm0-3a7.24,7.24,0,0,0-1.91-.94,14.5,14.5,0,0,0-2.14-.53c0,.64,0,1.5.05,2.57s0,1.77,0,2.12a9.57,9.57,0,0,0,2.11-.26,6.91,6.91,0,0,0,1.89-.71c.51-.29.77-.62.77-1A1.6,1.6,0,0,0,205.58,329Z" transform="translate(-1.42 -1.65)" style="fill:#3c3c3c"/><path d="M218.65,334.37a.45.45,0,0,1-.35.14.27.27,0,0,1-.3-.3,48,48,0,0,0-.21-5.18c-.15-1.2-.39-1.8-.74-1.8q-.9,0-2.61,6.31v0a.51.51,0,0,1-.13.34.45.45,0,0,1-.35.15.27.27,0,0,1-.3-.31c0-.44,0-1.14.07-2.07s.06-1.88.06-2.48a14.65,14.65,0,0,0-.07-1.78c-.05-.36-.16-.53-.32-.53-.38,0-.85.69-1.42,2.08s-1.17,3-1.8,4.92l-.15.43a.81.81,0,0,1-.19.29.37.37,0,0,1-.27.12.66.66,0,0,1-.26,0c-.05,0-.08-.09-.09-.2-.05-.55-.1-1.28-.13-2.19,0-.24,0-.62-.07-1.16-.11-1.89-.2-3.16-.29-3.83s-.13-1-.13-1.11a.58.58,0,0,1,.13-.32q.14-.18.24-.18c.18,0,.32.13.43.38a7.77,7.77,0,0,1,.19,1.48c.06.86.12,1.92.16,3.2l.08,2.56q.91-2.85,1.88-5.17c.65-1.54,1.25-2.32,1.79-2.32.36,0,.61.27.74.81a10.38,10.38,0,0,1,.2,2.32c0,.54,0,1.31,0,2.31V332a38.36,38.36,0,0,1,1.34-4c.45-1.09.9-1.63,1.35-1.63q1.69,0,1.7,7.64A.51.51,0,0,1,218.65,334.37Z" transform="translate(-1.42 -1.65)" style="fill:#3c3c3c"/><path d="M227.08,330.18a4.81,4.81,0,0,1-.44,1.32,5.89,5.89,0,0,1-1.32,1.89,3,3,0,0,1-2.17.87,2.45,2.45,0,0,1-1.76-.67,2.67,2.67,0,0,1-.71-2.06,6.44,6.44,0,0,1,2.14-4.68,3,3,0,0,1,2-.81,1.78,1.78,0,0,1,1,.28.89.89,0,0,1,.42.79,1.52,1.52,0,0,1-.65,1.14,6.11,6.11,0,0,1-1.69,1,9.94,9.94,0,0,1-2.15.6,6.19,6.19,0,0,0-.19,1.51,2.29,2.29,0,0,0,.45,1.51,1.61,1.61,0,0,0,1.3.54,2.59,2.59,0,0,0,2.06-.93,8.49,8.49,0,0,0,1.32-2.07c0-.05.06-.13.11-.26s.11-.19.15-.19S227.08,330,227.08,330.18Zm-1.84-3.3a1.29,1.29,0,0,0-.64-.15,2,2,0,0,0-1.2.42,3.84,3.84,0,0,0-1,1,3.59,3.59,0,0,0-.5,1,5.75,5.75,0,0,0,1.6-.44,6.61,6.61,0,0,0,1.41-.77c.38-.28.57-.51.57-.68A.46.46,0,0,0,225.24,326.88Z" transform="translate(-1.42 -1.65)" style="fill:#3c3c3c"/><path d="M233.88,334.66a.61.61,0,0,1-.4.14.51.51,0,0,1-.28-.08.23.23,0,0,1-.11-.21c0-.45,0-1.16.09-2.12s.1-1.88.1-2.57,0-1.19-.05-1.61-.13-.63-.28-.63c-.37,0-.78.47-1.23,1.42s-.95,2.18-1.52,3.72l-.25.67a.59.59,0,0,1-.54.37.78.78,0,0,1-.27,0,.27.27,0,0,1-.08-.2l-.13-1.38-.25-2.41c-.08-1-.17-1.8-.28-2.51a2.57,2.57,0,0,1-.05-.39.51.51,0,0,1,.21-.41.88.88,0,0,1,.5-.16q.16,0,.24.81c0,.53.1,1.4.16,2.59l.06.89c.09,1.13.14,1.84.15,2.15l.09-.23a2.66,2.66,0,0,1,.11-.28c.59-1.56,1.15-2.86,1.67-3.91s1-1.56,1.51-1.56.58.29.7.88a12.47,12.47,0,0,1,.24,2.25c0,1,0,2.5,0,4.45A.44.44,0,0,1,233.88,334.66Z" transform="translate(-1.42 -1.65)" style="fill:#3c3c3c"/><path d="M243.05,327.7a2.28,2.28,0,0,1-.87.23l-1.7.3-1.07.19c0,.58,0,1.19,0,1.82s0,1.2.08,1.68a6.48,6.48,0,0,0,.23,1.49l.18.58a.37.37,0,0,1-.21.31.66.66,0,0,1-.39.15.23.23,0,0,1-.16-.06.78.78,0,0,1-.12-.19,4.52,4.52,0,0,1-.19-.88c-.06-.42-.1-.89-.14-1.4s-.05-1-.07-1.6,0-1.2,0-1.77c-.61.1-1.24.23-1.89.37a9,9,0,0,1-1,.18.6.6,0,0,1-.37-.11.37.37,0,0,1-.18-.32.29.29,0,0,1,.15-.29,1.45,1.45,0,0,1,.5-.06,4.3,4.3,0,0,0,.72-.09l.61-.13,1.5-.28q0-.36,0-.93,0-.76,0-1.17a8.91,8.91,0,0,1,0-1,2.48,2.48,0,0,1,.16-.65.48.48,0,0,1,.49-.33.3.3,0,0,1,.2,0,.26.26,0,0,1,.05.18c0,.07,0,.27-.08.59a7.31,7.31,0,0,0-.09,1.29c0,.41,0,.88,0,1.39v.45c.5-.08,1.48-.28,2.94-.62.09,0,.16-.1.22-.23s.13-.2.19-.2a.55.55,0,0,1,.38.21.65.65,0,0,1,.18.42A.5.5,0,0,1,243.05,327.7Z" transform="translate(-1.42 -1.65)" style="fill:#3c3c3c"/></g></g><circle cx="140.08" cy="139.06" r="125" style="fill:#c8c8c8"/><circle cx="140.08" cy="139.06" r="125" style="fill:#c8c8c8"/><path d="M1.44,139.64,91.09,272A140,140,0,0,1,1.42,141.3C1.42,140.75,1.42,140.19,1.44,139.64Z" transform="translate(-1.42 -1.65)" style="fill:#111"/><path d="M5.46,107.77l98.36,165.88L2.47,124.06A138.79,138.79,0,0,1,5.46,107.77Z" transform="translate(-1.42 -1.65)" style="fill:#111"/><path d="M15.13,80.8,108.6,260.88,9.62,94A141.16,141.16,0,0,1,15.13,80.8Z" transform="translate(-1.42 -1.65)" style="fill:#111"/><path d="M110.75,245.45,20.26,71.12A140.48,140.48,0,0,1,90.23,11Z" transform="translate(-1.42 -1.65)" style="fill:#111"/><path d="M131.42,1.65V281h0L107.3,5.49A138.81,138.81,0,0,1,131.42,1.65Z" transform="translate(-1.42 -1.65)" style="fill:#111"/><path d="M281.4,139.64,191.75,272A140,140,0,0,0,281.42,141.3C281.42,140.75,281.42,140.19,281.4,139.64Z" transform="translate(-1.42 -1.65)" style="fill:#111"/><path d="M277.38,107.77,179,273.65,280.37,124.06A138.79,138.79,0,0,0,277.38,107.77Z" transform="translate(-1.42 -1.65)" style="fill:#111"/><path d="M267.71,80.8,174.24,260.88,273.22,94A141.16,141.16,0,0,0,267.71,80.8Z" transform="translate(-1.42 -1.65)" style="fill:#111"/><path d="M172.09,245.45,262.58,71.12a140.48,140.48,0,0,0-70-60.16Z" transform="translate(-1.42 -1.65)" style="fill:#111"/><path d="M151.42,1.65V281h0L175.54,5.49A138.81,138.81,0,0,0,151.42,1.65Z" transform="translate(-1.42 -1.65)" style="fill:#111"/><g style="isolation:isolate"><g style="isolation:isolate"><path d="M45.77,306.93c0,.27.25.64.76,1.09a21.22,21.22,0,0,0,2.29,1.68q1,.63,2,1.23l2.1,1.21,1.17.74L55.82,314l1.45.82q.76.41,1.65.81l1.3.75c.49.27,1,.57,1.66.88a1.71,1.71,0,0,1,.83.88,4.61,4.61,0,0,1,.35,1.66l-.24.53-.27.1a2.16,2.16,0,0,1-.71-.17c-.29-.12-.66-.28-1.11-.5l-1.21-.45-3.12-1.1a16.21,16.21,0,0,1-2-.82,15.1,15.1,0,0,1-1.71-1,13.08,13.08,0,0,0-1.16-.67c-.48-.24-1-.51-1.67-.79s-1.23-.56-1.71-.82-.87-.47-1.15-.65c-1-.6-1.75-1.05-2.35-1.36a3.4,3.4,0,0,0-1.26-.47.94.94,0,0,0-.29.59c-.22.64-.45,1.44-.69,2.41s-.5,2.1-.78,3.39a.77.77,0,0,1-.16.52.61.61,0,0,1-.48.17,2.73,2.73,0,0,1-1.58-.38,1.34,1.34,0,0,1-.54-1.16A13.92,13.92,0,0,1,39,315a15.92,15.92,0,0,1,.57-2.4c.09-.37.16-.7.2-1a4.75,4.75,0,0,0,.07-.81,1.89,1.89,0,0,0-1.06-1.6q-1.05-.68-1.05-1a1.73,1.73,0,0,1,.17-.78,1.29,1.29,0,0,1,.52-.54l1.63-.81a.48.48,0,0,0,.26-.28,1.91,1.91,0,0,0,.06-.54v-.87c.06-1.21.1-2.46.14-3.76v-.45a6.71,6.71,0,0,0-.06-.79,3.16,3.16,0,0,1,0-.68c0-.21,0-.41,0-.58s-.2-.51-.28-.7a1.53,1.53,0,0,1-.12-.56,7.44,7.44,0,0,1,.06-.77c0-.34,0-.59,0-.74a5.62,5.62,0,0,0-.07-.79,7.25,7.25,0,0,1-.06-.77,2.44,2.44,0,0,1,.44-1.4,5.17,5.17,0,0,1,1.35-1.33,7.6,7.6,0,0,1,1.8-.86,6,6,0,0,1,1.88-.29c.31,0,.76,0,1.35.05s1.07,0,1.41,0a11.12,11.12,0,0,1,1.89.44c.41,0,.78.07,1.1.12a4.55,4.55,0,0,1,.77.15l1,.37a3.71,3.71,0,0,0,.54.16l.79.2a2,2,0,0,1,.54.2l.82.29,1.06.36a12.45,12.45,0,0,1,1.8.86,16.19,16.19,0,0,1,1.59,1.05,6.08,6.08,0,0,1,1.28,1.44,2.62,2.62,0,0,1,.43,1.39c0,.14,0,.33,0,.58a8.4,8.4,0,0,1-.15.84,2.25,2.25,0,0,1-.8,1.27,12,12,0,0,1-2.08,1.5c-.81.47-1.55.87-2.25,1.19a10.14,10.14,0,0,1-1.92.68,3.69,3.69,0,0,0-.54.34A5.39,5.39,0,0,1,53,304c-.57.25-1.34.55-2.32.92-1.78.66-3,1.1-3.8,1.31S45.77,306.69,45.77,306.93Zm-2.8-9.8,1-.56a2.25,2.25,0,0,1,1.17-.27c.22,0,.48.18.79.54a1.56,1.56,0,0,1,.47.8,4.3,4.3,0,0,1-.13.65c-.09.34-.24.8-.43,1.38-.41,1.32-.64,2.14-.7,2.47s-.17.85-.34,1.56a3.76,3.76,0,0,0-.22.69.3.3,0,0,0,.1.26.33.33,0,0,0,.25.08l5.5-2.11a4.35,4.35,0,0,0,.46-.11l.45-.15.4-.39c1-.5,2.1-1,3.21-1.61a6.17,6.17,0,0,0,1.55-1.19A1.83,1.83,0,0,0,57,298c0-.5-.39-1-1.15-1.49a14.51,14.51,0,0,0-3.45-1.4,29.6,29.6,0,0,0-3.55-.86A16.76,16.76,0,0,0,45.9,294a5.7,5.7,0,0,0-2.57.46,1.44,1.44,0,0,0-.87,1.35,3.16,3.16,0,0,0,.13,1.05C42.68,297.06,42.81,297.16,43,297.13Z" transform="translate(-1.42 -1.65)" style="fill:#111"/><path d="M61.67,311.39l2.43-1.22.32-.27a4.11,4.11,0,0,0,.43-.5,1.52,1.52,0,0,1,.49-.45,3.89,3.89,0,0,1,.71-.32,6.71,6.71,0,0,1,.61-.51c.27-.21.61-.44,1-.71.19-.09.44-.2.75-.36a8.57,8.57,0,0,0,1-.62,28.24,28.24,0,0,1,4.26-2.62,7.4,7.4,0,0,1,3.08-.88,1.85,1.85,0,0,1,1,.23.71.71,0,0,1,.34.63,1.37,1.37,0,0,1-.21.75,1.61,1.61,0,0,1-.62.55c-.45.24-.93.51-1.45.81a10.07,10.07,0,0,1-1,.91,11.6,11.6,0,0,1-1.44.94c-.18.18-.33.33-.45.47l-.51.36c-.25.18-.58.38-1,.62a5.36,5.36,0,0,1-1.16,1.15c-.6.48-1.4,1-2.39,1.71a8.36,8.36,0,0,0-.67.65l-1.26,1.35.19.18a5.52,5.52,0,0,0,1.23-.49,11.32,11.32,0,0,0,1.41-.91l1.49-1a7.16,7.16,0,0,1,.81-.52l.38-.16.42-.21a10.89,10.89,0,0,1,2.3-1.65,4.41,4.41,0,0,1,2-.54,1.07,1.07,0,0,1,.85.33,1.73,1.73,0,0,1,.35,1c0,.68,0,1.33,0,1.95a1.52,1.52,0,0,0,.46,1.17,1.71,1.71,0,0,0,1.3.52,1.1,1.1,0,0,0,.47-.1,4,4,0,0,0,.47-.27l.36-.34.36-.33a1.78,1.78,0,0,0,.3-.14,2.55,2.55,0,0,0,.39-.24c.25.4.46.76.63,1.06a7.16,7.16,0,0,1,.39.81c-.41.28-.82.58-1.22.88a12.91,12.91,0,0,1-1.27.87,7.76,7.76,0,0,1-1.55.7,5.19,5.19,0,0,1-1.49.23,4.21,4.21,0,0,1-2.68-.75,3.22,3.22,0,0,1-1.09-2.28,1,1,0,0,0-.07-.37,1,1,0,0,0-.28-.4l-.29.21-.38.3-.86.51c-.35.2-.76.44-1.22.73-.62.49-1.15.89-1.58,1.2s-.73.53-.9.67a12.76,12.76,0,0,1-1.25.69c-.47.23-1,.47-1.59.71q-.55.22-1,.36a2,2,0,0,1-.59.13,3.06,3.06,0,0,1-1.89-.48,1.75,1.75,0,0,1-.62-1.47,1.92,1.92,0,0,1,.31-1.05,3.75,3.75,0,0,1,.92-1,1.81,1.81,0,0,0,0-.42.49.49,0,0,0-.06-.22c0-.07-.1-.15-.18-.25s-.22-.4-.36-.64-.28-.49-.44-.76a2.41,2.41,0,0,0,.31-.32C61.33,311.82,61.49,311.62,61.67,311.39Z" transform="translate(-1.42 -1.65)" style="fill:#111"/><path d="M81.36,312.29a2.45,2.45,0,0,1,.28-.32l.41-.42c.43-.47.79-.88,1.07-1.23a9.63,9.63,0,0,0,.62-.8,5.62,5.62,0,0,0,.6-1.1,7.68,7.68,0,0,0,.36-1.18A32.38,32.38,0,0,1,86.57,301,72.63,72.63,0,0,1,90,293.82a6.63,6.63,0,0,1,1.6-2,2.78,2.78,0,0,1,1.77-.68,2.57,2.57,0,0,1,1.12.21A1.06,1.06,0,0,1,95,292a2.86,2.86,0,0,1,.09.63c0,.3,0,.69,0,1.16q0,.17-.42,2.91c-.29.91-.69,2-1.21,3.38s-1.15,2.92-1.92,4.69c-.18.25-.38.56-.61.94l-.86,1.36a3.72,3.72,0,0,0-.17.38c-.07.15-.15.33-.26.52a2.18,2.18,0,0,0-.41.46c-.15.22-.33.49-.52.82a20.19,20.19,0,0,0-.92,2.86c-.3,1.16-.57,2.52-.82,4.09s-.43,2.8-.56,4a30.09,30.09,0,0,0-.19,3c0,.32.06.66.11,1a6.93,6.93,0,0,0,.17,1c.07.22.15.34.26.34s.63-.42,1.16-1.25,1.21-2.09,2-3.76l-.08-.4.31-.47a2.36,2.36,0,0,0,.34-.73c.44-1.09.77-1.93,1-2.54a10.91,10.91,0,0,1,.4-1,8.44,8.44,0,0,1,1-1.59,12.29,12.29,0,0,1,1.35-1.46,9.71,9.71,0,0,1,.64,1.08c.16.31.3.57.43.79a4.75,4.75,0,0,0-.72.92,5.28,5.28,0,0,0-.56,1.23,11.61,11.61,0,0,0-.42,1.17c-.12.4-.24.79-.36,1.15a53.78,53.78,0,0,1-2.62,6.46,17,17,0,0,1-2.43,3.83,3.53,3.53,0,0,1-.44.53l-.47.51a2.5,2.5,0,0,1-.67.42,1.79,1.79,0,0,1-.72.15,3.71,3.71,0,0,1-1.83-.39,2,2,0,0,1-1-1.16c-.08-.43-.16-.86-.22-1.29s-.13-.85-.2-1.27a4,4,0,0,1-.24-.84,4.88,4.88,0,0,1-.08-1v-3.09a3.08,3.08,0,0,1,.12-.69,3.13,3.13,0,0,0,.12-.71c-.11-.41-.22-.82-.32-1.24.05-.48.14-1.07.28-1.79s.3-1.54.49-2.46l-.69-.47a5.88,5.88,0,0,0-.38-.73C81.88,313.11,81.64,312.73,81.36,312.29Zm10.52-13.67a.22.22,0,0,0-.22.15l-.2.44a2,2,0,0,1-.19.55c-.11.23-.25.52-.43.87s-.25.56-.33.79a1.66,1.66,0,0,0-.12.54l.19.16.4-.31a1.66,1.66,0,0,1,.21-.67,6.48,6.48,0,0,1,.51-.83,6.4,6.4,0,0,0,.4-.73,1.35,1.35,0,0,0,.13-.51.53.53,0,0,0-.08-.35A.31.31,0,0,0,91.88,298.62Z" transform="translate(-1.42 -1.65)" style="fill:#111"/><path d="M95.12,311.39l2.43-1.22.32-.27a4.11,4.11,0,0,0,.43-.5,1.52,1.52,0,0,1,.49-.45,3.89,3.89,0,0,1,.71-.32,6.71,6.71,0,0,1,.61-.51c.27-.21.61-.44,1-.71.19-.09.44-.2.75-.36a8.57,8.57,0,0,0,1-.62,28.24,28.24,0,0,1,4.26-2.62,7.4,7.4,0,0,1,3.08-.88,1.85,1.85,0,0,1,1,.23.7.7,0,0,1,.33.63,1.36,1.36,0,0,1-.2.75,1.61,1.61,0,0,1-.62.55c-.45.24-.93.51-1.45.81a10.07,10.07,0,0,1-1,.91,11.6,11.6,0,0,1-1.44.94c-.18.18-.33.33-.45.47l-.51.36c-.25.18-.58.38-1,.62a5.36,5.36,0,0,1-1.16,1.15c-.6.48-1.4,1-2.39,1.71a8.36,8.36,0,0,0-.67.65l-1.26,1.35.19.18a5.52,5.52,0,0,0,1.23-.49,11.32,11.32,0,0,0,1.41-.91l1.49-1a7.16,7.16,0,0,1,.81-.52l.38-.16.42-.21a10.89,10.89,0,0,1,2.3-1.65,4.41,4.41,0,0,1,2-.54,1.07,1.07,0,0,1,.85.33,1.73,1.73,0,0,1,.35,1c0,.68,0,1.33,0,1.95a1.52,1.52,0,0,0,.46,1.17,1.71,1.71,0,0,0,1.3.52,1.1,1.1,0,0,0,.47-.1,4,4,0,0,0,.47-.27l.36-.34.36-.33a1.78,1.78,0,0,0,.3-.14,2.55,2.55,0,0,0,.39-.24c.25.4.46.76.63,1.06a7.16,7.16,0,0,1,.39.81c-.41.28-.82.58-1.22.88a12.91,12.91,0,0,1-1.27.87,7.76,7.76,0,0,1-1.55.7,5.19,5.19,0,0,1-1.49.23,4.21,4.21,0,0,1-2.68-.75,3.22,3.22,0,0,1-1.09-2.28,1,1,0,0,0-.07-.37,1,1,0,0,0-.28-.4l-.29.21-.38.3-.86.51c-.35.2-.76.44-1.22.73-.62.49-1.15.89-1.58,1.2s-.73.53-.9.67a12.76,12.76,0,0,1-1.25.69c-.47.23-1,.47-1.59.71q-.55.22-1,.36a2,2,0,0,1-.59.13,3.06,3.06,0,0,1-1.89-.48,1.75,1.75,0,0,1-.62-1.47,1.92,1.92,0,0,1,.31-1.05,3.75,3.75,0,0,1,.92-1,1.81,1.81,0,0,0,0-.42.49.49,0,0,0-.06-.22c0-.07-.1-.15-.18-.25s-.22-.4-.36-.64-.28-.49-.44-.76a2.41,2.41,0,0,0,.31-.32C94.78,311.82,94.94,311.62,95.12,311.39Z" transform="translate(-1.42 -1.65)" style="fill:#111"/><path d="M114.81,312.29a5.13,5.13,0,0,1,.83-.87,8.74,8.74,0,0,1,1.28-.9c0-.27.11-.54.16-.81a7,7,0,0,0,.11-.8,4.12,4.12,0,0,1,.25-.67c.12-.26.24-.54.39-.83s.38-.68.65-1.12a17.29,17.29,0,0,1,1.08-1.51c.38-.31.77-.65,1.18-1l1.23-1.12a4.83,4.83,0,0,1,.64-.35,7.73,7.73,0,0,0,.69-.37c.22-.05.46-.1.72-.14a6.13,6.13,0,0,1,.89-.06,5.22,5.22,0,0,1,1.08.1,1.63,1.63,0,0,1,.68.35,1.88,1.88,0,0,1,.36.49,4.27,4.27,0,0,1,.33.79c.06.27.12.57.19.89,0-.08,0,0-.09.11s-.16.38-.28.71l-.24.65a6.94,6.94,0,0,1-1.69,2.26,35,35,0,0,1-3.52,2.93,1.2,1.2,0,0,0-.32.35.86.86,0,0,0-.14.46,1.45,1.45,0,0,0,.2.75,1.27,1.27,0,0,0,.58.49,3,3,0,0,0,.68.24,9.7,9.7,0,0,0,1.11.23,10.48,10.48,0,0,0,1.89-.27,9.18,9.18,0,0,0,1.53-.49l.43-.17a3.14,3.14,0,0,0,.58-.29l.62,1c.18.32.32.59.42.82a16,16,0,0,1-2.76,1.72,5.56,5.56,0,0,1-2.28.58,3.89,3.89,0,0,1-1,.29,8.1,8.1,0,0,1-1.3.09,6.25,6.25,0,0,1-1.75-.22A3.49,3.49,0,0,1,119,316a2.7,2.7,0,0,1-.54-.6c-.18-.27-.36-.58-.56-.95a2.85,2.85,0,0,0-.45-.66.7.7,0,0,0-.48-.21,1,1,0,0,0-.49.15,3.39,3.39,0,0,0-.58.46,4.06,4.06,0,0,0-.38-.75C115.32,313.11,115.09,312.73,114.81,312.29Zm8.55-6.61c-.39,0-.92.39-1.58,1.17a3.41,3.41,0,0,0-1,1.72.19.19,0,0,0,.07.17.55.55,0,0,0,.28.05.57.57,0,0,0,.48-.24l.35-.43c.19-.14.39-.28.57-.44l.55-.46a2.42,2.42,0,0,0,.48-.57,1.12,1.12,0,0,0,.16-.57.44.44,0,0,0-.09-.29A.33.33,0,0,0,123.36,305.68Z" transform="translate(-1.42 -1.65)" style="fill:#111"/><path d="M128.25,312.29a3.85,3.85,0,0,0,.48-.5,4.81,4.81,0,0,1,.64-.64l1.76-1.18a.23.23,0,0,0,.12-.16,2.07,2.07,0,0,0,0-.29,2.78,2.78,0,0,0-.08-.43,8.44,8.44,0,0,1,.24-1.56,4.24,4.24,0,0,1,.42-1.32l-.16-.39a25.7,25.7,0,0,1,1-3c.42-1.08.89-2.25,1.43-3.51a7.61,7.61,0,0,0,.56-.82l.67-1.13a14.88,14.88,0,0,1,1.2-2.22c.5-.77,1.06-1.56,1.68-2.38a16.79,16.79,0,0,1,2.23-2.42,2.9,2.9,0,0,1,1.75-.81,3.55,3.55,0,0,1,2.13.46,2.1,2.1,0,0,1,.57,1.72,5.21,5.21,0,0,1-.15,1,6,6,0,0,0-.14,1,2.53,2.53,0,0,1-.3,1,2.82,2.82,0,0,0-.29,1.15.91.91,0,0,1-.13.33l0,.28a7.44,7.44,0,0,1-.32.7c-.14.27-.33.59-.56,1s-.28.73-.48,1.18-.43.94-.69,1.47l-.42.49-.55.67a3.56,3.56,0,0,1-.26.61q-.19.35-.51.81a4.36,4.36,0,0,1-.43.53c-.18.19-.39.43-.64.73a5.48,5.48,0,0,0-.35.51l-.42.69c-.2.23-.46.52-.78.85s-.69.74-1.09,1.2c-.56.75-1.13,1.46-1.71,2.14a4,4,0,0,0,1,3,4.27,4.27,0,0,0,3.09,1,5.82,5.82,0,0,0,.8-.15c.45-.09,1.06-.24,1.84-.44a7.46,7.46,0,0,0,.83-.46l1.1-.7,1,1.87-1.39.95c-.46.33-.93.65-1.42,1a7.15,7.15,0,0,1-1.68.8,5.28,5.28,0,0,1-1.68.28c-.29,0-.72,0-1.31-.07s-1-.08-1.34-.08a3.47,3.47,0,0,1-2.47-.91,5.14,5.14,0,0,1-1.37-2.75,1.35,1.35,0,0,0-.15-.32,1.44,1.44,0,0,0-.33-.33l-.82.63q-.47.38-1.14.84Zm12.74-16-.19-.08a11.35,11.35,0,0,0-2.25,2.07,3.15,3.15,0,0,0-.77,1.9,1.16,1.16,0,0,1-.17.47c-.12.23-.29.52-.52.87s-.58.88-.88,1.38c-.34.76-.6,1.38-.78,1.85a3.35,3.35,0,0,0-.26,1l.16.16a1,1,0,0,0,.58-.36,6.81,6.81,0,0,0,.81-1,6.15,6.15,0,0,1,.61-.86c.27-.32.57-.71.91-1.15a12.23,12.23,0,0,0,1.36-2.3,12.76,12.76,0,0,0,1-2.36,3.28,3.28,0,0,1,.14-.81C140.84,296.84,140.92,296.58,141,296.32Z" transform="translate(-1.42 -1.65)" style="fill:#111"/><path d="M162.5,289.59a19.39,19.39,0,0,1,2.39-.37c.86-.08,1.82-.12,2.87-.12.2,0,.49,0,.87.07a7.27,7.27,0,0,0,.92.07,7.75,7.75,0,0,1,.78.13l.8.14.75-.16a1.43,1.43,0,0,1,.52.15c.18.09.41.18.68.29.14-.06.34-.15.61-.24a1,1,0,0,1,.66.23,1.15,1.15,0,0,1,.33.66v.64a5.43,5.43,0,0,1-.05.67,1.8,1.8,0,0,0,0,.5,3.38,3.38,0,0,1,.06.53.39.39,0,0,1-.14.33.53.53,0,0,1-.34.1,14.84,14.84,0,0,1-4-.53q-.85.12-1.5.18a3.12,3.12,0,0,0-.75.13c-.16.05-.24.12-.24.2a2,2,0,0,0,.29.3,2.31,2.31,0,0,0,.46.31,1.49,1.49,0,0,1,.43.44,5.08,5.08,0,0,1,.5.9,2,2,0,0,1,.15.43,1.78,1.78,0,0,1,0,.39,5.76,5.76,0,0,1-.11,1.06,6.94,6.94,0,0,1-.24,1.05c-.16.53-.28,1-.37,1.31s-.16.61-.21.79a2,2,0,0,0-.08.48c0,.19,0,.41-.06.65a3,3,0,0,1-.21.77c-.13.3-.25.65-.38,1a2.38,2.38,0,0,1-.08.61c0,.24-.12.5-.21.8a4.33,4.33,0,0,1-.25.6,5.85,5.85,0,0,0-.34.78,6,6,0,0,1,.08.63c-.07.38-.14.77-.21,1.18-.11.58-.21,1.17-.32,1.77s-.21,1.17-.3,1.73c-.1.16-.22.34-.34.55a2.56,2.56,0,0,0,.06.44,1.9,1.9,0,0,1,.07.47,2.6,2.6,0,0,1-.11.66,3.13,3.13,0,0,0-.1.64q0,.39,0,1.2c0,.55,0,.95,0,1.23s.17.45.24.67a2,2,0,0,1-.17.45.76.76,0,0,1-.25.28c-.32.15-.62.27-.89.37l-.44.32a.53.53,0,0,1-.3.12,2,2,0,0,1-.83-.12.36.36,0,0,1-.24-.32,9.18,9.18,0,0,1,.19-1.31,1.23,1.23,0,0,1-.13-.24,3.67,3.67,0,0,0-.2-.41c-.08-1.06-.2-2.14-.34-3.25.05-.8.08-1.61.08-2.42q0-.57.06-1.44c.05-.57.13-1.24.26-2s.21-1.42.27-2,.08-1,.08-1.41a4.11,4.11,0,0,1,.06-.62c.05-.25.1-.56.15-.92s.11-.59.16-.85a3.47,3.47,0,0,0,.08-.68,2,2,0,0,0,0-.34,2.88,2.88,0,0,0,0-.33c.18-.34.31-.61.4-.82a1.35,1.35,0,0,0,.13-.42c-.07-.18-.15-.35-.24-.53a4.25,4.25,0,0,0,.35-1c.13-.5.26-1.15.4-1.95v-.59c0-.23,0-.5,0-.83l-.16-.37-.39-.1a7.12,7.12,0,0,0-.71-.1l-.34.18-.71.13c-.24,0-.5.08-.76.14l-5.51,1.16a.52.52,0,0,1-.35-.13.53.53,0,0,1-.13-.36,1.63,1.63,0,0,1,.13-.43,8.71,8.71,0,0,1,.43-.79,11.68,11.68,0,0,1,.14-1.18,3.12,3.12,0,0,1,.18-.71,2,2,0,0,1,.66-.76,3.37,3.37,0,0,1,1.05-.46,15.34,15.34,0,0,1,2.3-.41A11,11,0,0,1,162.5,289.59Z" transform="translate(-1.42 -1.65)" style="fill:#111"/><path d="M172.2,312.29a.5.5,0,0,0,.17-.15.32.32,0,0,0,.07-.2,8.72,8.72,0,0,0,1-.78c.39-.33.82-.72,1.3-1.17s.8-.82,1.22-1.22.86-.81,1.35-1.22.77-.83,1.16-1.27.79-.87,1.21-1.29c.72-.26,1.27-.45,1.66-.55a3.78,3.78,0,0,1,.8-.17.91.91,0,0,1,.62.2.72.72,0,0,1,.21.56,1.22,1.22,0,0,1-.08.34c0,.15-.12.31-.19.49a7.32,7.32,0,0,1-.43.83c-.14.48-.31.95-.5,1.43s-.39.94-.56,1.4-.32,1.12-.42,1.61a6.64,6.64,0,0,0-.14,1.34,7.09,7.09,0,0,0,.14,1.69c.1.36.24.53.42.49s.4-.18.66-.3l.94-.39q.48-.39,1.08-1c.4-.38.89-.83,1.46-1.34.32-.38.65-.76,1-1.12l.44-.39c.17-.15.32-.3.46-.45a4.27,4.27,0,0,1,1.14-1.45,2.26,2.26,0,0,1,1.4-.48,4.06,4.06,0,0,1,1.11.13,1,1,0,0,1,.58.4,1.93,1.93,0,0,1,.13.49,7.15,7.15,0,0,1,0,.91,2.59,2.59,0,0,0,.12.65,2.69,2.69,0,0,1,.12.64,1.6,1.6,0,0,0,.35,1.12,1.36,1.36,0,0,0,1.07.38,2.67,2.67,0,0,0,.51-.06l.58-.14,1.07,1.87c-1.07.49-1.94.86-2.63,1.11a5,5,0,0,1-1.53.37,4.05,4.05,0,0,1-2.2-.53,3.06,3.06,0,0,1-1.25-1.56,1.29,1.29,0,0,0-.23-.49,2.78,2.78,0,0,0-.44-.49l-.55.49c-.2.19-.42.38-.65.57-.48.45-1,.88-1.44,1.31l-1.47,1.27a6.46,6.46,0,0,1-1.89,1.21,4.83,4.83,0,0,1-1.77.38,3.25,3.25,0,0,1-2-.56,2.58,2.58,0,0,1-1-1.66c-.16-.7-.27-1.25-.32-1.65a1.75,1.75,0,0,1,0-.71,4.35,4.35,0,0,0-.15-.89c-.06-.21-.15-.31-.28-.31l-.16.06-1.52,1.2a1.67,1.67,0,0,1-.27.36,5.94,5.94,0,0,1-.51.52,3.92,3.92,0,0,0-.37-.75C172.71,313.11,172.48,312.73,172.2,312.29Z" transform="translate(-1.42 -1.65)" style="fill:#111"/><path d="M194.42,312.29c.29-.29.57-.59.86-.9a21.85,21.85,0,0,0,3.19-2.35,9.26,9.26,0,0,0,1.81-2.1l-.27-1a4.75,4.75,0,0,1,1.72-1.2,5.35,5.35,0,0,1,2.23-.69,2.78,2.78,0,0,1,1.54.41c.42.27.82.55,1.21.85l.43.22a3.89,3.89,0,0,1,1.6,1.69,5.84,5.84,0,0,1,.54,2.63,5.53,5.53,0,0,1-.83,2.33,5.51,5.51,0,0,0-.83,2.28.19.19,0,0,0,.1.17.44.44,0,0,0,.25.06,1.93,1.93,0,0,0,.83-.24,6.53,6.53,0,0,0,1-.64,13.43,13.43,0,0,1,1.71-1.17,4.13,4.13,0,0,0,.72-.37q.21.4.51.87c.19.31.38.65.56,1l-.55.38c-.2.15-.45.32-.73.51q-.92.51-2.37,1.23c-1,.48-2.13,1-3.48,1.66a5.72,5.72,0,0,1-1.23.43,4.29,4.29,0,0,1-1.69-.26.85.85,0,0,1-.56-.82,1.42,1.42,0,0,1,.12-.52,4.05,4.05,0,0,1,.34-.64c.1-.17.22-.36.35-.54a4.48,4.48,0,0,0,.32-.56,15.81,15.81,0,0,0,.89-2.38,7.2,7.2,0,0,0,.31-2,2.68,2.68,0,0,0-.44-1.65,1.83,1.83,0,0,0-1.33-.65,9.19,9.19,0,0,0-1.28.69,11.12,11.12,0,0,0-1.41,1.12,17.36,17.36,0,0,1-1.39,1.2,4.88,4.88,0,0,1-1,.63,3.64,3.64,0,0,1-.77.69,10.88,10.88,0,0,1-1.42.84l-.16.24a1.91,1.91,0,0,1-.35.37,10.28,10.28,0,0,0-.48-.93C194.83,312.93,194.64,312.61,194.42,312.29Z" transform="translate(-1.42 -1.65)" style="fill:#111"/><path d="M212.24,312.29l.17-.15a1.73,1.73,0,0,1,.46-.61,5,5,0,0,1,1-.65q.89-.42,1.38-.69a2.47,2.47,0,0,0,.6-.38,2.13,2.13,0,0,0,.32-.35c.19-.11.44-.26.72-.45s.61-.42,1-.69a1.81,1.81,0,0,0,.4-.32,4.44,4.44,0,0,0,.43-.51c.23-.12.49-.28.79-.47s.64-.43,1-.73.95-.77,1.51-1.21,1.19-.9,1.88-1.38c.23-.08.45-.14.65-.19a2.6,2.6,0,0,1,.61-.07,3.06,3.06,0,0,1,1.8.44,1.45,1.45,0,0,1,.6,1.25,4.11,4.11,0,0,1-.09.67c-.07.31-.13.7-.2,1.18a22.07,22.07,0,0,1-.54,2.5c-.1.3-.48,1.23-1.12,2.81a8,8,0,0,0-.44.95c-.15.38-.34.84-.55,1.39a.75.75,0,0,0,.27.16,1.68,1.68,0,0,0,.67-.28c.32-.18.74-.45,1.28-.82s1.11-.77,1.47-1a6.16,6.16,0,0,1,.67-.4l.58,1c.18.31.33.6.46.87a4.72,4.72,0,0,0-.63.36,4.54,4.54,0,0,0-.52.45l-1.3.65-1.61.8c-.27.2-.63.45-1.08.74l-1.54,1-.51.09a4,4,0,0,1-.71.59,2.62,2.62,0,0,1-.6.28l-.85.23-.91.24a.63.63,0,0,1-.43-.27.86.86,0,0,1-.11-.53,4.66,4.66,0,0,1-.64-1.26,4.9,4.9,0,0,1-.24-1.58,2.16,2.16,0,0,1,0-.35c0-.12,0-.23.05-.32a3.76,3.76,0,0,1-.18-.63,1.16,1.16,0,0,1,.61-1,2.46,2.46,0,0,1,1.39-.4.59.59,0,0,1,.57.32c.12.21.24.31.36.31s.26-.18.39-.56a10.05,10.05,0,0,0,.39-1.63c.12-.63.2-1.17.24-1.63s0-.81,0-1.06a.51.51,0,0,0-.14-.39.75.75,0,0,0-.5-.14,8.54,8.54,0,0,0-2.24,1.22q-1.9,1.23-5.29,3.64a3.92,3.92,0,0,1-.31.35l-.47.51a3.92,3.92,0,0,0-.37-.75C212.76,313.11,212.53,312.73,212.24,312.29Z" transform="translate(-1.42 -1.65)" style="fill:#111"/><path d="M229,312.29a5.13,5.13,0,0,1,.83-.87,9.32,9.32,0,0,1,1.28-.9c0-.27.11-.54.16-.81a7,7,0,0,0,.11-.8,4.12,4.12,0,0,1,.25-.67l.39-.83c.16-.3.38-.68.65-1.12a15.66,15.66,0,0,1,1.09-1.51c.37-.31.76-.65,1.17-1l1.23-1.12a5.56,5.56,0,0,1,.64-.35c.23-.11.46-.23.7-.37s.45-.1.72-.14a5.89,5.89,0,0,1,.88-.06,5.22,5.22,0,0,1,1.08.1,1.57,1.57,0,0,1,.68.35,1.52,1.52,0,0,1,.36.49,5,5,0,0,1,.34.79c.05.27.11.57.18.89,0-.08,0,0-.09.11s-.16.38-.28.71l-.24.65a7,7,0,0,1-1.68,2.26,36.42,36.42,0,0,1-3.53,2.93,1.2,1.2,0,0,0-.32.35.84.84,0,0,0-.13.46,1.36,1.36,0,0,0,.2.75,1.2,1.2,0,0,0,.57.49,3,3,0,0,0,.68.24,9.7,9.7,0,0,0,1.11.23,10.6,10.6,0,0,0,1.9-.27,9.05,9.05,0,0,0,1.52-.49l.43-.17a3.14,3.14,0,0,0,.58-.29c.24.39.44.74.62,1s.32.59.43.82a16.48,16.48,0,0,1-2.77,1.72,5.56,5.56,0,0,1-2.28.58,3.89,3.89,0,0,1-1,.29,8.06,8.06,0,0,1-1.29.09,6.15,6.15,0,0,1-1.75-.22,3.54,3.54,0,0,1-1.27-.65,2.7,2.7,0,0,1-.54-.6c-.18-.27-.36-.58-.56-.95a2.85,2.85,0,0,0-.45-.66.7.7,0,0,0-.48-.21,1,1,0,0,0-.48.15,3.08,3.08,0,0,0-.59.46,4.06,4.06,0,0,0-.38-.75C229.49,313.11,229.25,312.73,229,312.29Zm8.55-6.61c-.39,0-.92.39-1.58,1.17a3.41,3.41,0,0,0-1,1.72.22.22,0,0,0,.07.17.55.55,0,0,0,.28.05.57.57,0,0,0,.48-.24l.35-.43a6.17,6.17,0,0,0,.57-.44l.55-.46a2,2,0,0,0,.48-.57,1.12,1.12,0,0,0,.16-.57.44.44,0,0,0-.09-.29A.33.33,0,0,0,237.52,305.68Z" transform="translate(-1.42 -1.65)" style="fill:#111"/></g></g></svg>