<svg xmlns="http://www.w3.org/2000/svg" viewBox="0 0 280 279.3"><path d="M1.44,139.64,91.09,272A140,140,0,0,1,1.42,141.3C1.42,140.75,1.42,140.19,1.44,139.64Z" transform="translate(-1.42 -1.65)" style="fill:#111"/><path d="M5.46,107.77l98.36,165.88L2.47,124.06A138.79,138.79,0,0,1,5.46,107.77Z" transform="translate(-1.42 -1.65)" style="fill:#111"/><path d="M15.13,80.8,108.6,260.88,9.62,94A141.16,141.16,0,0,1,15.13,80.8Z" transform="translate(-1.42 -1.65)" style="fill:#111"/><path d="M110.75,245.45,20.26,71.12A140.48,140.48,0,0,1,90.23,11Z" transform="translate(-1.42 -1.65)" style="fill:#111"/><path d="M131.42,1.65V281h0L107.3,5.49A138.81,138.81,0,0,1,131.42,1.65Z" transform="translate(-1.42 -1.65)" style="fill:#111"/><path d="M281.4,139.64,191.75,272A140,140,0,0,0,281.42,141.3C281.42,140.75,281.42,140.19,281.4,139.64Z" transform="translate(-1.42 -1.65)" style="fill:#111"/><path d="M277.38,107.77,179,273.65,280.37,124.06A138.79,138.79,0,0,0,277.38,107.77Z" transform="translate(-1.42 -1.65)" style="fill:#111"/><path d="M267.71,80.8,174.24,260.88,273.22,94A141.16,141.16,0,0,0,267.71,80.8Z" transform="translate(-1.42 -1.65)" style="fill:#111"/><path d="M172.09,245.45,262.58,71.12a140.48,140.48,0,0,0-70-60.16Z" transform="translate(-1.42 -1.65)" style="fill:#111"/><path d="M151.42,1.65V281h0L175.54,5.49A138.81,138.81,0,0,0,151.42,1.65Z" transform="translate(-1.42 -1.65)" style="fill:#111"/></svg>