<?xml version="1.0" encoding="UTF-8" standalone="no"?><!-- Generator: Gravit.io --><svg xmlns="http://www.w3.org/2000/svg" xmlns:xlink="http://www.w3.org/1999/xlink" style="isolation:isolate" viewBox="0 0 200 60" width="200pt" height="60pt"><defs><clipPath id="_clipPath_peRQhZt4k0VKN79pE59lvOSwXiRYthUR"><rect width="200" height="60"/></clipPath></defs><g clip-path="url(#_clipPath_peRQhZt4k0VKN79pE59lvOSwXiRYthUR)"><g><path d=" M 50.553 27.537 L 48.684 27.537 C 47.161 27.537 45.882 26.222 45.882 24.661 C 45.882 23.874 46.214 23.161 46.804 22.633 L 48.009 21.453 C 49.201 20.273 49.201 18.344 48.009 17.164 L 45.268 14.448 C 44.727 13.907 43.928 13.588 43.117 13.588 C 42.306 13.588 41.519 13.907 40.966 14.448 L 39.811 15.603 C 39.258 16.218 38.521 16.549 37.722 16.549 C 36.149 16.549 34.834 15.271 34.834 13.76 L 34.834 11.879 C 34.834 10.22 33.494 8.794 31.823 8.794 L 28.087 8.794 C 26.415 8.794 25.088 10.208 25.088 11.879 L 25.088 13.747 C 25.088 15.259 23.773 16.537 22.2 16.537 C 21.413 16.537 20.688 16.205 20.16 15.628 L 18.968 14.448 C 18.427 13.895 17.628 13.588 16.817 13.588 C 16.006 13.588 15.219 13.907 14.666 14.448 L 11.901 17.152 C 10.721 18.331 10.721 20.261 11.901 21.429 L 13.056 22.584 C 13.671 23.137 14.015 23.874 14.015 24.661 C 14.015 26.234 12.737 27.537 11.213 27.537 L 9.345 27.537 C 7.661 27.537 6.247 28.852 6.247 30.523 L 6.247 32.391 L 6.247 34.259 C 6.247 35.918 7.661 37.246 9.345 37.246 L 11.213 37.246 C 12.737 37.246 14.015 38.561 14.015 40.121 C 14.015 40.908 13.671 41.645 13.056 42.198 L 11.901 43.341 C 10.721 44.521 10.721 46.451 11.901 47.618 L 14.641 50.347 C 15.182 50.9 15.981 51.207 16.792 51.207 C 17.603 51.207 18.39 50.887 18.943 50.347 L 20.135 49.167 C 20.651 48.589 21.389 48.257 22.175 48.257 C 23.748 48.257 25.063 49.536 25.063 51.047 L 25.063 52.915 C 25.063 54.574 26.391 56 28.074 56 L 31.81 56 C 33.482 56 34.809 54.587 34.809 52.915 L 34.809 51.047 C 34.809 49.536 36.124 48.257 37.697 48.257 C 38.484 48.257 39.221 48.601 39.787 49.204 L 40.942 50.359 C 41.495 50.9 42.281 51.219 43.093 51.219 C 43.904 51.219 44.69 50.9 45.243 50.359 L 47.984 47.631 C 49.164 46.451 49.164 44.521 47.984 43.341 L 46.78 42.162 C 46.19 41.633 45.858 40.908 45.858 40.134 C 45.858 38.561 47.136 37.258 48.66 37.258 L 50.528 37.258 C 52.199 37.258 53.392 35.943 53.392 34.271 L 53.392 32.391 L 53.392 30.523 C 53.416 28.852 52.224 27.537 50.553 27.537 Z  M 39.774 32.391 L 39.774 32.391 C 39.774 37.811 35.387 42.223 29.942 42.223 C 24.498 42.223 20.11 37.811 20.11 32.391 L 20.11 32.391 L 20.11 32.391 C 20.11 26.971 24.498 22.559 29.942 22.559 C 35.387 22.559 39.774 26.971 39.774 32.391 L 39.774 32.391 Z " fill="rgb(17,17,17)"/><path d=" M 69.907 5.815 L 69.416 6.792 C 69.016 7.589 67.992 7.912 67.176 7.501 C 66.764 7.295 66.479 6.934 66.357 6.487 L 66.057 5.547 C 65.753 4.613 64.744 4.106 63.813 4.42 L 61.673 5.14 C 61.248 5.28 60.871 5.614 60.658 6.038 C 60.445 6.463 60.405 6.958 60.543 7.389 L 60.843 8.297 C 61.02 8.748 60.999 9.221 60.789 9.638 C 60.376 10.461 59.362 10.813 58.572 10.416 L 57.588 9.922 C 56.72 9.486 55.623 9.812 55.184 10.686 L 54.202 12.64 C 53.763 13.515 54.153 14.58 55.028 15.019 L 56.005 15.51 C 56.795 15.907 57.118 16.931 56.705 17.754 C 56.498 18.165 56.134 18.457 55.693 18.582 L 54.763 18.895 C 54.332 19.033 53.961 19.37 53.748 19.794 C 53.535 20.218 53.495 20.713 53.633 21.145 L 54.32 23.301 C 54.628 24.228 55.637 24.735 56.557 24.425 L 57.465 24.124 C 57.916 23.948 58.392 23.962 58.803 24.169 C 59.626 24.582 59.972 25.593 59.571 26.39 L 59.08 27.367 C 58.638 28.247 58.954 29.332 59.829 29.771 L 60.806 30.262 L 61.783 30.753 C 62.65 31.189 63.716 30.798 64.158 29.918 L 64.649 28.941 C 65.049 28.144 66.073 27.821 66.889 28.231 C 67.301 28.437 67.596 28.811 67.724 29.278 L 68.018 30.182 C 68.325 31.109 69.334 31.616 70.255 31.306 L 72.402 30.589 C 72.833 30.452 73.204 30.115 73.417 29.691 C 73.63 29.266 73.67 28.771 73.532 28.34 L 73.228 27.406 C 73.062 26.984 73.082 26.512 73.289 26.1 C 73.702 25.277 74.716 24.926 75.506 25.323 L 76.483 25.813 C 77.351 26.249 78.446 25.93 78.888 25.049 L 79.87 23.095 C 80.309 22.221 79.918 21.155 79.044 20.716 L 78.067 20.225 C 77.276 19.828 76.953 18.805 77.367 17.982 C 77.573 17.571 77.947 17.275 78.411 17.138 L 79.318 16.837 C 79.746 16.69 80.12 16.363 80.333 15.938 C 80.546 15.514 80.586 15.019 80.448 14.587 L 79.742 12.437 C 79.434 11.51 78.425 11.003 77.498 11.31 L 76.565 11.63 C 76.133 11.8 75.667 11.783 75.262 11.58 C 74.439 11.166 74.094 10.156 74.494 9.358 L 74.985 8.381 C 75.424 7.507 75.049 6.538 74.175 6.099 L 73.192 5.605 L 72.215 5.114 C 71.347 4.662 70.346 4.94 69.907 5.815 Z  M 69.614 12.727 L 69.614 12.727 C 72.449 14.151 73.604 17.605 72.173 20.452 C 70.743 23.3 67.282 24.436 64.448 23.012 L 64.448 23.012 L 64.448 23.012 C 61.613 21.588 60.458 18.134 61.889 15.286 C 63.319 12.439 66.779 11.303 69.614 12.727 L 69.614 12.727 Z " fill="rgb(17,17,17)"/><path d=" M 61.708 39.506 L 61.419 40.016 C 61.183 40.432 60.626 40.577 60.201 40.335 C 59.986 40.213 59.843 40.013 59.79 39.77 L 59.655 39.259 C 59.517 38.751 58.991 38.452 58.484 38.595 L 57.319 38.922 C 57.088 38.986 56.877 39.154 56.752 39.376 C 56.626 39.597 56.591 39.861 56.653 40.096 L 56.79 40.59 C 56.872 40.836 56.848 41.088 56.725 41.306 C 56.481 41.735 55.929 41.896 55.516 41.662 L 55.003 41.371 C 54.551 41.114 53.955 41.259 53.696 41.715 L 53.118 42.734 C 52.859 43.19 53.039 43.771 53.495 44.03 L 54.005 44.319 C 54.417 44.553 54.562 45.11 54.319 45.539 C 54.197 45.753 53.994 45.9 53.755 45.955 L 53.248 46.097 C 53.014 46.159 52.806 46.329 52.681 46.551 C 52.555 46.772 52.521 47.036 52.583 47.271 L 52.892 48.444 C 53.031 48.948 53.558 49.247 54.059 49.106 L 54.553 48.969 C 54.799 48.887 55.053 48.907 55.268 49.029 C 55.697 49.273 55.855 49.823 55.619 50.239 L 55.33 50.748 C 55.069 51.208 55.209 51.797 55.665 52.056 L 56.175 52.345 L 56.684 52.634 C 57.137 52.891 57.718 52.711 57.978 52.251 L 58.268 51.742 C 58.503 51.326 59.06 51.181 59.486 51.422 C 59.7 51.544 59.848 51.752 59.904 52.005 L 60.037 52.497 C 60.176 53.002 60.703 53.3 61.204 53.159 L 62.372 52.834 C 62.607 52.772 62.814 52.602 62.94 52.38 C 63.066 52.159 63.1 51.895 63.038 51.66 L 62.901 51.153 C 62.823 50.922 62.847 50.67 62.969 50.455 C 63.212 50.026 63.764 49.865 64.177 50.099 L 64.686 50.388 C 65.139 50.645 65.733 50.504 65.994 50.044 L 66.572 49.025 C 66.831 48.569 66.651 47.988 66.195 47.729 L 65.685 47.44 C 65.273 47.206 65.128 46.65 65.371 46.221 C 65.493 46.006 65.701 45.858 65.953 45.797 L 66.447 45.661 C 66.68 45.594 66.889 45.428 67.014 45.207 C 67.14 44.986 67.174 44.722 67.112 44.487 L 66.792 43.317 C 66.653 42.813 66.127 42.514 65.622 42.653 L 65.114 42.799 C 64.878 42.878 64.629 42.857 64.418 42.737 C 63.989 42.493 63.831 41.943 64.067 41.527 L 64.356 41.018 C 64.615 40.562 64.441 40.033 63.985 39.774 L 63.472 39.483 L 62.962 39.194 C 62.51 38.929 61.967 39.05 61.708 39.506 Z  M 61.364 43.198 L 61.364 43.198 C 62.843 44.037 63.367 45.917 62.525 47.402 C 61.682 48.888 59.799 49.402 58.32 48.563 L 58.32 48.563 L 58.32 48.563 C 56.842 47.724 56.317 45.844 57.16 44.359 C 58.003 42.873 59.885 42.359 61.364 43.198 L 61.364 43.198 Z " fill="rgb(17,17,17)"/></g><g><defs><filter id="phoU73V0GjC0mx8XCJ26uHNtEyDQi5yr" x="-200%" y="-200%" width="400%" height="400%" filterUnits="objectBoundingBox" color-interpolation-filters="sRGB"><feGaussianBlur xmlns="http://www.w3.org/2000/svg" stdDeviation="0"/></filter></defs><g filter="url(#phoU73V0GjC0mx8XCJ26uHNtEyDQi5yr)"><path d=" M 149.11 23.878 L 149.11 33.425 L 146.652 33.425 L 146.652 23.878 L 143.504 23.878 L 143.504 21.833 L 152.258 21.833 L 152.258 23.878 L 149.11 23.878 Z  M 161.987 33.425 L 160.132 33.425 L 159.806 32.291 L 159.68 32.291 L 159.68 32.291 Q 159.291 32.909 158.577 33.246 L 158.577 33.246 L 158.577 33.246 Q 157.864 33.583 156.952 33.583 L 156.952 33.583 L 156.952 33.583 Q 155.39 33.583 154.597 32.747 L 154.597 32.747 L 154.597 32.747 Q 153.804 31.91 153.804 30.34 L 153.804 30.34 L 153.804 24.56 L 156.223 24.56 L 156.223 29.738 L 156.223 29.738 Q 156.223 30.697 156.563 31.177 L 156.563 31.177 L 156.563 31.177 Q 156.904 31.657 157.65 31.657 L 157.65 31.657 L 157.65 31.657 Q 158.665 31.657 159.117 30.979 L 159.117 30.979 L 159.117 30.979 Q 159.569 30.301 159.569 28.731 L 159.569 28.731 L 159.569 24.56 L 161.987 24.56 L 161.987 33.425 Z  M 169.472 24.394 L 169.472 24.394 L 169.472 24.394 Q 169.964 24.394 170.289 24.465 L 170.289 24.465 L 170.106 26.733 L 170.106 26.733 Q 169.813 26.653 169.393 26.653 L 169.393 26.653 L 169.393 26.653 Q 168.235 26.653 167.589 27.248 L 167.589 27.248 L 167.589 27.248 Q 166.943 27.843 166.943 28.913 L 166.943 28.913 L 166.943 33.425 L 164.524 33.425 L 164.524 24.56 L 166.356 24.56 L 166.713 26.051 L 166.832 26.051 L 166.832 26.051 Q 167.244 25.305 167.946 24.85 L 167.946 24.85 L 167.946 24.85 Q 168.647 24.394 169.472 24.394 Z  M 178.083 30.792 L 178.083 30.792 L 178.083 30.792 Q 178.083 32.156 177.135 32.87 L 177.135 32.87 L 177.135 32.87 Q 176.188 33.583 174.301 33.583 L 174.301 33.583 L 174.301 33.583 Q 173.333 33.583 172.651 33.453 L 172.651 33.453 L 172.651 33.453 Q 171.97 33.322 171.375 33.068 L 171.375 33.068 L 171.375 31.07 L 171.375 31.07 Q 172.049 31.387 172.893 31.601 L 172.893 31.601 L 172.893 31.601 Q 173.738 31.815 174.38 31.815 L 174.38 31.815 L 174.38 31.815 Q 175.696 31.815 175.696 31.054 L 175.696 31.054 L 175.696 31.054 Q 175.696 30.769 175.522 30.59 L 175.522 30.59 L 175.522 30.59 Q 175.347 30.412 174.919 30.186 L 174.919 30.186 L 174.919 30.186 Q 174.491 29.96 173.777 29.658 L 173.777 29.658 L 173.777 29.658 Q 172.755 29.23 172.275 28.866 L 172.275 28.866 L 172.275 28.866 Q 171.795 28.501 171.577 28.029 L 171.577 28.029 L 171.577 28.029 Q 171.359 27.557 171.359 26.867 L 171.359 26.867 L 171.359 26.867 Q 171.359 25.686 172.275 25.04 L 172.275 25.04 L 172.275 25.04 Q 173.191 24.394 174.872 24.394 L 174.872 24.394 L 174.872 24.394 Q 176.473 24.394 177.988 25.091 L 177.988 25.091 L 177.258 26.836 L 177.258 26.836 Q 176.592 26.55 176.013 26.368 L 176.013 26.368 L 176.013 26.368 Q 175.435 26.186 174.832 26.186 L 174.832 26.186 L 174.832 26.186 Q 173.762 26.186 173.762 26.764 L 173.762 26.764 L 173.762 26.764 Q 173.762 27.089 174.106 27.327 L 174.106 27.327 L 174.106 27.327 Q 174.451 27.565 175.617 28.033 L 175.617 28.033 L 175.617 28.033 Q 176.656 28.453 177.139 28.818 L 177.139 28.818 L 177.139 28.818 Q 177.623 29.183 177.853 29.658 L 177.853 29.658 L 177.853 29.658 Q 178.083 30.134 178.083 30.792 Z  M 183.641 26.114 L 183.641 26.114 L 183.641 26.114 Q 182.872 26.114 182.436 26.602 L 182.436 26.602 L 182.436 26.602 Q 182 27.089 181.936 27.985 L 181.936 27.985 L 185.33 27.985 L 185.33 27.985 Q 185.314 27.089 184.862 26.602 L 184.862 26.602 L 184.862 26.602 Q 184.41 26.114 183.641 26.114 Z  M 183.982 33.583 L 183.982 33.583 L 183.982 33.583 Q 181.841 33.583 180.636 32.402 L 180.636 32.402 L 180.636 32.402 Q 179.431 31.221 179.431 29.056 L 179.431 29.056 L 179.431 29.056 Q 179.431 26.828 180.545 25.611 L 180.545 25.611 L 180.545 25.611 Q 181.659 24.394 183.625 24.394 L 183.625 24.394 L 183.625 24.394 Q 185.504 24.394 186.551 25.464 L 186.551 25.464 L 186.551 25.464 Q 187.598 26.534 187.598 28.422 L 187.598 28.422 L 187.598 29.595 L 181.881 29.595 L 181.881 29.595 Q 181.92 30.626 182.491 31.205 L 182.491 31.205 L 182.491 31.205 Q 183.062 31.783 184.093 31.783 L 184.093 31.783 L 184.093 31.783 Q 184.894 31.783 185.607 31.617 L 185.607 31.617 L 185.607 31.617 Q 186.321 31.45 187.098 31.086 L 187.098 31.086 L 187.098 32.957 L 187.098 32.957 Q 186.464 33.274 185.742 33.429 L 185.742 33.429 L 185.742 33.429 Q 185.021 33.583 183.982 33.583 Z  M 91.704 23.847 L 91.704 26.978 L 92.497 26.978 L 92.497 26.978 Q 93.663 26.978 94.218 26.59 L 94.218 26.59 L 94.218 26.59 Q 94.773 26.201 94.773 25.369 L 94.773 25.369 L 94.773 25.369 Q 94.773 24.544 94.206 24.195 L 94.206 24.195 L 94.206 24.195 Q 93.639 23.847 92.449 23.847 L 92.449 23.847 L 91.704 23.847 Z  M 93.012 28.977 L 91.704 28.977 L 91.704 33.425 L 89.246 33.425 L 89.246 21.833 L 92.624 21.833 L 92.624 21.833 Q 94.987 21.833 96.121 22.693 L 96.121 22.693 L 96.121 22.693 Q 97.254 23.553 97.254 25.305 L 97.254 25.305 L 97.254 25.305 Q 97.254 26.328 96.691 27.125 L 96.691 27.125 L 96.691 27.125 Q 96.128 27.922 95.098 28.374 L 95.098 28.374 L 95.098 28.374 Q 97.714 32.283 98.507 33.425 L 98.507 33.425 L 95.78 33.425 L 93.012 28.977 Z  M 107.094 33.425 L 105.405 33.425 L 104.938 32.22 L 104.874 32.22 L 104.874 32.22 Q 104.264 32.989 103.617 33.286 L 103.617 33.286 L 103.617 33.286 Q 102.971 33.583 101.933 33.583 L 101.933 33.583 L 101.933 33.583 Q 100.656 33.583 99.923 32.854 L 99.923 32.854 L 99.923 32.854 Q 99.189 32.124 99.189 30.776 L 99.189 30.776 L 99.189 30.776 Q 99.189 29.365 100.176 28.695 L 100.176 28.695 L 100.176 28.695 Q 101.163 28.025 103.154 27.954 L 103.154 27.954 L 104.692 27.906 L 104.692 27.518 L 104.692 27.518 Q 104.692 26.17 103.312 26.17 L 103.312 26.17 L 103.312 26.17 Q 102.25 26.17 100.815 26.812 L 100.815 26.812 L 100.014 25.179 L 100.014 25.179 Q 101.544 24.378 103.407 24.378 L 103.407 24.378 L 103.407 24.378 Q 105.191 24.378 106.143 25.155 L 106.143 25.155 L 106.143 25.155 Q 107.094 25.932 107.094 27.518 L 107.094 27.518 L 107.094 33.425 Z  M 104.692 30.047 L 104.692 29.318 L 103.756 29.349 L 103.756 29.349 Q 102.702 29.381 102.186 29.73 L 102.186 29.73 L 102.186 29.73 Q 101.671 30.079 101.671 30.792 L 101.671 30.792 L 101.671 30.792 Q 101.671 31.815 102.844 31.815 L 102.844 31.815 L 102.844 31.815 Q 103.685 31.815 104.188 31.332 L 104.188 31.332 L 104.188 31.332 Q 104.692 30.848 104.692 30.047 L 104.692 30.047 Z  M 114.484 24.56 L 114.484 26.376 L 112.391 26.376 L 112.391 33.425 L 109.973 33.425 L 109.973 26.376 L 108.64 26.376 L 108.64 25.21 L 109.973 24.56 L 109.973 23.91 L 109.973 23.91 Q 109.973 22.396 110.718 21.698 L 110.718 21.698 L 110.718 21.698 Q 111.463 21 113.105 21 L 113.105 21 L 113.105 21 Q 114.357 21 115.333 21.373 L 115.333 21.373 L 114.714 23.149 L 114.714 23.149 Q 113.985 22.919 113.366 22.919 L 113.366 22.919 L 113.366 22.919 Q 112.851 22.919 112.621 23.224 L 112.621 23.224 L 112.621 23.224 Q 112.391 23.529 112.391 24.005 L 112.391 24.005 L 112.391 24.56 L 114.484 24.56 Z  M 123.19 33.425 L 121.501 33.425 L 121.034 32.22 L 120.97 32.22 L 120.97 32.22 Q 120.36 32.989 119.713 33.286 L 119.713 33.286 L 119.713 33.286 Q 119.067 33.583 118.028 33.583 L 118.028 33.583 L 118.028 33.583 Q 116.752 33.583 116.018 32.854 L 116.018 32.854 L 116.018 32.854 Q 115.285 32.124 115.285 30.776 L 115.285 30.776 L 115.285 30.776 Q 115.285 29.365 116.272 28.695 L 116.272 28.695 L 116.272 28.695 Q 117.259 28.025 119.25 27.954 L 119.25 27.954 L 120.788 27.906 L 120.788 27.518 L 120.788 27.518 Q 120.788 26.17 119.408 26.17 L 119.408 26.17 L 119.408 26.17 Q 118.346 26.17 116.91 26.812 L 116.91 26.812 L 116.11 25.179 L 116.11 25.179 Q 117.64 24.378 119.503 24.378 L 119.503 24.378 L 119.503 24.378 Q 121.287 24.378 122.239 25.155 L 122.239 25.155 L 122.239 25.155 Q 123.19 25.932 123.19 27.518 L 123.19 27.518 L 123.19 33.425 Z  M 120.788 30.047 L 120.788 29.318 L 119.852 29.349 L 119.852 29.349 Q 118.798 29.381 118.282 29.73 L 118.282 29.73 L 118.282 29.73 Q 117.767 30.079 117.767 30.792 L 117.767 30.792 L 117.767 30.792 Q 117.767 31.815 118.94 31.815 L 118.94 31.815 L 118.94 31.815 Q 119.781 31.815 120.284 31.332 L 120.284 31.332 L 120.284 31.332 Q 120.788 30.848 120.788 30.047 L 120.788 30.047 Z  M 129.351 26.114 L 129.351 26.114 L 129.351 26.114 Q 128.582 26.114 128.146 26.602 L 128.146 26.602 L 128.146 26.602 Q 127.71 27.089 127.646 27.985 L 127.646 27.985 L 131.04 27.985 L 131.04 27.985 Q 131.024 27.089 130.572 26.602 L 130.572 26.602 L 130.572 26.602 Q 130.12 26.114 129.351 26.114 Z  M 129.692 33.583 L 129.692 33.583 L 129.692 33.583 Q 127.551 33.583 126.346 32.402 L 126.346 32.402 L 126.346 32.402 Q 125.141 31.221 125.141 29.056 L 125.141 29.056 L 125.141 29.056 Q 125.141 26.828 126.255 25.611 L 126.255 25.611 L 126.255 25.611 Q 127.369 24.394 129.335 24.394 L 129.335 24.394 L 129.335 24.394 Q 131.214 24.394 132.261 25.464 L 132.261 25.464 L 132.261 25.464 Q 133.308 26.534 133.308 28.422 L 133.308 28.422 L 133.308 29.595 L 127.591 29.595 L 127.591 29.595 Q 127.63 30.626 128.201 31.205 L 128.201 31.205 L 128.201 31.205 Q 128.772 31.783 129.803 31.783 L 129.803 31.783 L 129.803 31.783 Q 130.604 31.783 131.317 31.617 L 131.317 31.617 L 131.317 31.617 Q 132.031 31.45 132.808 31.086 L 132.808 31.086 L 132.808 32.957 L 132.808 32.957 Q 132.174 33.274 131.452 33.429 L 131.452 33.429 L 131.452 33.429 Q 130.731 33.583 129.692 33.583 Z  M 137.692 21.087 L 137.692 33.425 L 135.274 33.425 L 135.274 21.087 L 137.692 21.087 Z " fill="rgb(17,17,17)"/></g><path d=" M 185.465 39.505 L 185.465 39.457 L 185.465 39.457 Q 184.581 39.303 184.581 38.45 L 184.581 38.45 L 184.581 37.281 L 184.581 37.281 Q 184.581 36.515 183.681 36.492 L 183.681 36.492 L 183.681 35.941 L 183.681 35.941 Q 184.41 35.941 184.828 36.286 L 184.828 36.286 L 184.828 36.286 Q 185.247 36.63 185.247 37.237 L 185.247 37.237 L 185.247 38.45 L 185.247 38.45 Q 185.247 38.835 185.481 39.015 L 185.481 39.015 L 185.481 39.015 Q 185.714 39.195 186.23 39.203 L 186.23 39.203 L 186.23 39.762 L 186.23 39.762 Q 185.746 39.762 185.496 39.939 L 185.496 39.939 L 185.496 39.939 Q 185.247 40.115 185.247 40.528 L 185.247 40.528 L 185.247 41.729 L 185.247 41.729 Q 185.247 42.335 184.84 42.674 L 184.84 42.674 L 184.84 42.674 Q 184.434 43.013 183.681 43.021 L 183.681 43.021 L 183.681 42.466 L 183.681 42.466 Q 184.121 42.458 184.351 42.276 L 184.351 42.276 L 184.351 42.276 Q 184.581 42.094 184.581 41.689 L 184.581 41.689 L 184.581 40.512 L 184.581 40.512 Q 184.581 40.06 184.799 39.822 L 184.799 39.822 L 184.799 39.822 Q 185.017 39.584 185.465 39.505 L 185.465 39.505 Z  M 135.722 38.783 L 135.722 38.783 L 135.722 38.783 Q 135.722 40.218 134.943 40.978 L 134.943 40.978 L 134.943 40.978 Q 134.164 41.737 132.701 41.737 L 132.701 41.737 L 131.095 41.737 L 131.095 35.941 L 132.872 35.941 L 132.872 35.941 Q 134.223 35.941 134.973 36.69 L 134.973 36.69 L 134.973 36.69 Q 135.722 37.439 135.722 38.783 Z  M 135.008 38.807 L 135.008 38.807 L 135.008 38.807 Q 135.008 37.673 134.44 37.098 L 134.44 37.098 L 134.44 37.098 Q 133.871 36.523 132.749 36.523 L 132.749 36.523 L 131.769 36.523 L 131.769 41.154 L 132.59 41.154 L 132.59 41.154 Q 133.795 41.154 134.402 40.561 L 134.402 40.561 L 134.402 40.561 Q 135.008 39.969 135.008 38.807 Z  M 138.751 41.816 L 138.751 41.816 L 138.751 41.816 Q 137.788 41.816 137.231 41.229 L 137.231 41.229 L 137.231 41.229 Q 136.674 40.643 136.674 39.6 L 136.674 39.6 L 136.674 39.6 Q 136.674 38.549 137.191 37.931 L 137.191 37.931 L 137.191 37.931 Q 137.708 37.312 138.58 37.312 L 138.58 37.312 L 138.58 37.312 Q 139.397 37.312 139.873 37.85 L 139.873 37.85 L 139.873 37.85 Q 140.349 38.387 140.349 39.267 L 140.349 39.267 L 140.349 39.683 L 137.355 39.683 L 137.355 39.683 Q 137.375 40.448 137.742 40.845 L 137.742 40.845 L 137.742 40.845 Q 138.109 41.241 138.775 41.241 L 138.775 41.241 L 138.775 41.241 Q 139.476 41.241 140.162 40.948 L 140.162 40.948 L 140.162 41.535 L 140.162 41.535 Q 139.813 41.685 139.502 41.751 L 139.502 41.751 L 139.502 41.751 Q 139.191 41.816 138.751 41.816 Z  M 138.573 37.863 L 138.573 37.863 L 138.573 37.863 Q 138.049 37.863 137.738 38.204 L 137.738 38.204 L 137.738 38.204 Q 137.427 38.545 137.371 39.148 L 137.371 39.148 L 139.643 39.148 L 139.643 39.148 Q 139.643 38.525 139.365 38.194 L 139.365 38.194 L 139.365 38.194 Q 139.088 37.863 138.573 37.863 Z  M 143.191 41.737 L 142.422 41.737 L 140.773 37.392 L 141.479 37.392 L 142.414 39.969 L 142.414 39.969 Q 142.731 40.872 142.787 41.142 L 142.787 41.142 L 142.819 41.142 L 142.819 41.142 Q 142.862 40.932 143.094 40.272 L 143.094 40.272 L 143.094 40.272 Q 143.326 39.612 144.135 37.392 L 144.135 37.392 L 144.84 37.392 L 143.191 41.737 Z  M 147.374 41.816 L 147.374 41.816 L 147.374 41.816 Q 146.41 41.816 145.853 41.229 L 145.853 41.229 L 145.853 41.229 Q 145.296 40.643 145.296 39.6 L 145.296 39.6 L 145.296 39.6 Q 145.296 38.549 145.814 37.931 L 145.814 37.931 L 145.814 37.931 Q 146.331 37.312 147.203 37.312 L 147.203 37.312 L 147.203 37.312 Q 148.02 37.312 148.496 37.85 L 148.496 37.85 L 148.496 37.85 Q 148.971 38.387 148.971 39.267 L 148.971 39.267 L 148.971 39.683 L 145.978 39.683 L 145.978 39.683 Q 145.998 40.448 146.365 40.845 L 146.365 40.845 L 146.365 40.845 Q 146.731 41.241 147.398 41.241 L 147.398 41.241 L 147.398 41.241 Q 148.099 41.241 148.785 40.948 L 148.785 40.948 L 148.785 41.535 L 148.785 41.535 Q 148.436 41.685 148.125 41.751 L 148.125 41.751 L 148.125 41.751 Q 147.814 41.816 147.374 41.816 Z  M 147.195 37.863 L 147.195 37.863 L 147.195 37.863 Q 146.672 37.863 146.361 38.204 L 146.361 38.204 L 146.361 38.204 Q 146.05 38.545 145.994 39.148 L 145.994 39.148 L 148.266 39.148 L 148.266 39.148 Q 148.266 38.525 147.988 38.194 L 147.988 38.194 L 147.988 38.194 Q 147.711 37.863 147.195 37.863 Z  M 150.751 35.568 L 150.751 41.737 L 150.093 41.737 L 150.093 35.568 L 150.751 35.568 Z  M 155.897 39.56 L 155.897 39.56 L 155.897 39.56 Q 155.897 40.623 155.362 41.219 L 155.362 41.219 L 155.362 41.219 Q 154.827 41.816 153.883 41.816 L 153.883 41.816 L 153.883 41.816 Q 153.301 41.816 152.849 41.542 L 152.849 41.542 L 152.849 41.542 Q 152.397 41.269 152.151 40.757 L 152.151 40.757 L 152.151 40.757 Q 151.905 40.246 151.905 39.56 L 151.905 39.56 L 151.905 39.56 Q 151.905 38.498 152.436 37.905 L 152.436 37.905 L 152.436 37.905 Q 152.968 37.312 153.911 37.312 L 153.911 37.312 L 153.911 37.312 Q 154.823 37.312 155.36 37.919 L 155.36 37.919 L 155.36 37.919 Q 155.897 38.525 155.897 39.56 Z  M 152.587 39.56 L 152.587 39.56 L 152.587 39.56 Q 152.587 40.393 152.92 40.829 L 152.92 40.829 L 152.92 40.829 Q 153.253 41.265 153.899 41.265 L 153.899 41.265 L 153.899 41.265 Q 154.546 41.265 154.881 40.831 L 154.881 40.831 L 154.881 40.831 Q 155.216 40.397 155.216 39.56 L 155.216 39.56 L 155.216 39.56 Q 155.216 38.732 154.881 38.301 L 154.881 38.301 L 154.881 38.301 Q 154.546 37.871 153.891 37.871 L 153.891 37.871 L 153.891 37.871 Q 153.245 37.871 152.916 38.296 L 152.916 38.296 L 152.916 38.296 Q 152.587 38.72 152.587 39.56 Z  M 159.073 41.816 L 159.073 41.816 L 159.073 41.816 Q 158.649 41.816 158.298 41.659 L 158.298 41.659 L 158.298 41.659 Q 157.947 41.503 157.709 41.178 L 157.709 41.178 L 157.662 41.178 L 157.662 41.178 Q 157.709 41.558 157.709 41.899 L 157.709 41.899 L 157.709 43.687 L 157.051 43.687 L 157.051 37.392 L 157.586 37.392 L 157.677 37.986 L 157.709 37.986 L 157.709 37.986 Q 157.963 37.63 158.3 37.471 L 158.3 37.471 L 158.3 37.471 Q 158.637 37.312 159.073 37.312 L 159.073 37.312 L 159.073 37.312 Q 159.937 37.312 160.407 37.903 L 160.407 37.903 L 160.407 37.903 Q 160.877 38.494 160.877 39.56 L 160.877 39.56 L 160.877 39.56 Q 160.877 40.631 160.399 41.223 L 160.399 41.223 L 160.399 41.223 Q 159.921 41.816 159.073 41.816 Z  M 158.978 37.871 L 158.978 37.871 L 158.978 37.871 Q 158.312 37.871 158.014 38.24 L 158.014 38.24 L 158.014 38.24 Q 157.717 38.609 157.709 39.414 L 157.709 39.414 L 157.709 39.56 L 157.709 39.56 Q 157.709 40.476 158.014 40.87 L 158.014 40.87 L 158.014 40.87 Q 158.32 41.265 158.994 41.265 L 158.994 41.265 L 158.994 41.265 Q 159.557 41.265 159.876 40.809 L 159.876 40.809 L 159.876 40.809 Q 160.195 40.353 160.195 39.552 L 160.195 39.552 L 160.195 39.552 Q 160.195 38.74 159.876 38.305 L 159.876 38.305 L 159.876 38.305 Q 159.557 37.871 158.978 37.871 Z  M 168.223 41.737 L 167.565 41.737 L 167.565 38.91 L 167.565 38.91 Q 167.565 38.391 167.343 38.131 L 167.343 38.131 L 167.343 38.131 Q 167.121 37.871 166.653 37.871 L 166.653 37.871 L 166.653 37.871 Q 166.039 37.871 165.745 38.224 L 165.745 38.224 L 165.745 38.224 Q 165.452 38.577 165.452 39.31 L 165.452 39.31 L 165.452 41.737 L 164.794 41.737 L 164.794 38.91 L 164.794 38.91 Q 164.794 38.391 164.572 38.131 L 164.572 38.131 L 164.572 38.131 Q 164.35 37.871 163.878 37.871 L 163.878 37.871 L 163.878 37.871 Q 163.26 37.871 162.972 38.242 L 162.972 38.242 L 162.972 38.242 Q 162.685 38.613 162.685 39.457 L 162.685 39.457 L 162.685 41.737 L 162.027 41.737 L 162.027 37.392 L 162.562 37.392 L 162.669 37.986 L 162.701 37.986 L 162.701 37.986 Q 162.887 37.669 163.226 37.491 L 163.226 37.491 L 163.226 37.491 Q 163.565 37.312 163.985 37.312 L 163.985 37.312 L 163.985 37.312 Q 165.004 37.312 165.317 38.05 L 165.317 38.05 L 165.349 38.05 L 165.349 38.05 Q 165.543 37.709 165.912 37.511 L 165.912 37.511 L 165.912 37.511 Q 166.28 37.312 166.752 37.312 L 166.752 37.312 L 166.752 37.312 Q 167.49 37.312 167.856 37.691 L 167.856 37.691 L 167.856 37.691 Q 168.223 38.07 168.223 38.902 L 168.223 38.902 L 168.223 41.737 Z  M 171.415 41.816 L 171.415 41.816 L 171.415 41.816 Q 170.451 41.816 169.894 41.229 L 169.894 41.229 L 169.894 41.229 Q 169.337 40.643 169.337 39.6 L 169.337 39.6 L 169.337 39.6 Q 169.337 38.549 169.854 37.931 L 169.854 37.931 L 169.854 37.931 Q 170.372 37.312 171.244 37.312 L 171.244 37.312 L 171.244 37.312 Q 172.061 37.312 172.536 37.85 L 172.536 37.85 L 172.536 37.85 Q 173.012 38.387 173.012 39.267 L 173.012 39.267 L 173.012 39.683 L 170.019 39.683 L 170.019 39.683 Q 170.039 40.448 170.406 40.845 L 170.406 40.845 L 170.406 40.845 Q 170.772 41.241 171.438 41.241 L 171.438 41.241 L 171.438 41.241 Q 172.14 41.241 172.826 40.948 L 172.826 40.948 L 172.826 41.535 L 172.826 41.535 Q 172.477 41.685 172.166 41.751 L 172.166 41.751 L 172.166 41.751 Q 171.855 41.816 171.415 41.816 Z  M 171.236 37.863 L 171.236 37.863 L 171.236 37.863 Q 170.713 37.863 170.402 38.204 L 170.402 38.204 L 170.402 38.204 Q 170.09 38.545 170.035 39.148 L 170.035 39.148 L 172.307 39.148 L 172.307 39.148 Q 172.307 38.525 172.029 38.194 L 172.029 38.194 L 172.029 38.194 Q 171.751 37.863 171.236 37.863 Z  M 177.766 41.737 L 177.108 41.737 L 177.108 38.926 L 177.108 38.926 Q 177.108 38.395 176.866 38.133 L 176.866 38.133 L 176.866 38.133 Q 176.624 37.871 176.108 37.871 L 176.108 37.871 L 176.108 37.871 Q 175.427 37.871 175.109 38.24 L 175.109 38.24 L 175.109 38.24 Q 174.792 38.609 174.792 39.457 L 174.792 39.457 L 174.792 41.737 L 174.134 41.737 L 174.134 37.392 L 174.669 37.392 L 174.776 37.986 L 174.808 37.986 L 174.808 37.986 Q 175.01 37.665 175.375 37.489 L 175.375 37.489 L 175.375 37.489 Q 175.74 37.312 176.188 37.312 L 176.188 37.312 L 176.188 37.312 Q 176.973 37.312 177.369 37.691 L 177.369 37.691 L 177.369 37.691 Q 177.766 38.07 177.766 38.902 L 177.766 38.902 L 177.766 41.737 Z  M 180.521 41.273 L 180.521 41.273 L 180.521 41.273 Q 180.695 41.273 180.858 41.247 L 180.858 41.247 L 180.858 41.247 Q 181.021 41.221 181.116 41.194 L 181.116 41.194 L 181.116 41.697 L 181.116 41.697 Q 181.009 41.749 180.8 41.782 L 180.8 41.782 L 180.8 41.782 Q 180.592 41.816 180.426 41.816 L 180.426 41.816 L 180.426 41.816 Q 179.165 41.816 179.165 40.488 L 179.165 40.488 L 179.165 37.903 L 178.543 37.903 L 178.543 37.586 L 179.165 37.312 L 179.443 36.385 L 179.823 36.385 L 179.823 37.392 L 181.084 37.392 L 181.084 37.903 L 179.823 37.903 L 179.823 40.46 L 179.823 40.46 Q 179.823 40.853 180.01 41.063 L 180.01 41.063 L 180.01 41.063 Q 180.196 41.273 180.521 41.273 Z  M 98.579 40.195 L 98.579 40.195 L 98.579 40.195 Q 98.579 40.96 98.024 41.388 L 98.024 41.388 L 98.024 41.388 Q 97.469 41.816 96.517 41.816 L 96.517 41.816 L 96.517 41.816 Q 95.486 41.816 94.931 41.55 L 94.931 41.55 L 94.931 40.9 L 94.931 40.9 Q 95.288 41.051 95.708 41.138 L 95.708 41.138 L 95.708 41.138 Q 96.128 41.225 96.541 41.225 L 96.541 41.225 L 96.541 41.225 Q 97.215 41.225 97.556 40.97 L 97.556 40.97 L 97.556 40.97 Q 97.897 40.714 97.897 40.258 L 97.897 40.258 L 97.897 40.258 Q 97.897 39.957 97.776 39.764 L 97.776 39.764 L 97.776 39.764 Q 97.655 39.572 97.371 39.41 L 97.371 39.41 L 97.371 39.41 Q 97.088 39.247 96.509 39.041 L 96.509 39.041 L 96.509 39.041 Q 95.7 38.751 95.353 38.355 L 95.353 38.355 L 95.353 38.355 Q 95.007 37.959 95.007 37.32 L 95.007 37.32 L 95.007 37.32 Q 95.007 36.65 95.51 36.254 L 95.51 36.254 L 95.51 36.254 Q 96.014 35.857 96.842 35.857 L 96.842 35.857 L 96.842 35.857 Q 97.706 35.857 98.432 36.175 L 98.432 36.175 L 98.222 36.761 L 98.222 36.761 Q 97.504 36.46 96.826 36.46 L 96.826 36.46 L 96.826 36.46 Q 96.291 36.46 95.99 36.69 L 95.99 36.69 L 95.99 36.69 Q 95.688 36.92 95.688 37.328 L 95.688 37.328 L 95.688 37.328 Q 95.688 37.63 95.799 37.822 L 95.799 37.822 L 95.799 37.822 Q 95.91 38.014 96.174 38.175 L 96.174 38.175 L 96.174 38.175 Q 96.438 38.335 96.981 38.529 L 96.981 38.529 L 96.981 38.529 Q 97.893 38.855 98.236 39.227 L 98.236 39.227 L 98.236 39.227 Q 98.579 39.6 98.579 40.195 Z  M 103.415 39.56 L 103.415 39.56 L 103.415 39.56 Q 103.415 40.623 102.88 41.219 L 102.88 41.219 L 102.88 41.219 Q 102.345 41.816 101.401 41.816 L 101.401 41.816 L 101.401 41.816 Q 100.819 41.816 100.367 41.542 L 100.367 41.542 L 100.367 41.542 Q 99.915 41.269 99.669 40.757 L 99.669 40.757 L 99.669 40.757 Q 99.423 40.246 99.423 39.56 L 99.423 39.56 L 99.423 39.56 Q 99.423 38.498 99.954 37.905 L 99.954 37.905 L 99.954 37.905 Q 100.485 37.312 101.429 37.312 L 101.429 37.312 L 101.429 37.312 Q 102.341 37.312 102.878 37.919 L 102.878 37.919 L 102.878 37.919 Q 103.415 38.525 103.415 39.56 Z  M 100.105 39.56 L 100.105 39.56 L 100.105 39.56 Q 100.105 40.393 100.438 40.829 L 100.438 40.829 L 100.438 40.829 Q 100.771 41.265 101.417 41.265 L 101.417 41.265 L 101.417 41.265 Q 102.063 41.265 102.398 40.831 L 102.398 40.831 L 102.398 40.831 Q 102.733 40.397 102.733 39.56 L 102.733 39.56 L 102.733 39.56 Q 102.733 38.732 102.398 38.301 L 102.398 38.301 L 102.398 38.301 Q 102.063 37.871 101.409 37.871 L 101.409 37.871 L 101.409 37.871 Q 100.763 37.871 100.434 38.296 L 100.434 38.296 L 100.434 38.296 Q 100.105 38.72 100.105 39.56 Z  M 106.527 37.392 L 106.527 37.903 L 105.421 37.903 L 105.421 41.737 L 104.763 41.737 L 104.763 37.903 L 103.986 37.903 L 103.986 37.606 L 104.763 37.368 L 104.763 37.126 L 104.763 37.126 Q 104.763 35.524 106.163 35.524 L 106.163 35.524 L 106.163 35.524 Q 106.508 35.524 106.971 35.663 L 106.971 35.663 L 106.801 36.19 L 106.801 36.19 Q 106.42 36.067 106.151 36.067 L 106.151 36.067 L 106.151 36.067 Q 105.778 36.067 105.6 36.315 L 105.6 36.315 L 105.6 36.315 Q 105.421 36.563 105.421 37.11 L 105.421 37.11 L 105.421 37.392 L 106.527 37.392 Z  M 108.724 41.273 L 108.724 41.273 L 108.724 41.273 Q 108.898 41.273 109.061 41.247 L 109.061 41.247 L 109.061 41.247 Q 109.223 41.221 109.318 41.194 L 109.318 41.194 L 109.318 41.697 L 109.318 41.697 Q 109.211 41.749 109.003 41.782 L 109.003 41.782 L 109.003 41.782 Q 108.795 41.816 108.629 41.816 L 108.629 41.816 L 108.629 41.816 Q 107.368 41.816 107.368 40.488 L 107.368 40.488 L 107.368 37.903 L 106.745 37.903 L 106.745 37.586 L 107.368 37.312 L 107.645 36.385 L 108.026 36.385 L 108.026 37.392 L 109.287 37.392 L 109.287 37.903 L 108.026 37.903 L 108.026 40.46 L 108.026 40.46 Q 108.026 40.853 108.212 41.063 L 108.212 41.063 L 108.212 41.063 Q 108.399 41.273 108.724 41.273 Z  M 114.516 41.737 L 113.735 41.737 L 112.938 39.188 L 112.938 39.188 Q 112.863 38.954 112.657 38.125 L 112.657 38.125 L 112.625 38.125 L 112.625 38.125 Q 112.466 38.819 112.347 39.195 L 112.347 39.195 L 111.527 41.737 L 110.765 41.737 L 109.58 37.392 L 110.27 37.392 L 110.27 37.392 Q 110.69 39.029 110.91 39.885 L 110.91 39.885 L 110.91 39.885 Q 111.13 40.742 111.162 41.039 L 111.162 41.039 L 111.194 41.039 L 111.194 41.039 Q 111.237 40.813 111.334 40.454 L 111.334 40.454 L 111.334 40.454 Q 111.432 40.095 111.503 39.885 L 111.503 39.885 L 112.3 37.392 L 113.013 37.392 L 113.79 39.885 L 113.79 39.885 Q 114.012 40.567 114.092 41.031 L 114.092 41.031 L 114.123 41.031 L 114.123 41.031 Q 114.139 40.888 114.209 40.591 L 114.209 40.591 L 114.209 40.591 Q 114.278 40.294 115.035 37.392 L 115.035 37.392 L 115.717 37.392 L 114.516 41.737 Z  M 119.662 41.737 L 119.174 41.737 L 119.043 41.118 L 119.012 41.118 L 119.012 41.118 Q 118.687 41.527 118.363 41.671 L 118.363 41.671 L 118.363 41.671 Q 118.04 41.816 117.557 41.816 L 117.557 41.816 L 117.557 41.816 Q 116.91 41.816 116.544 41.483 L 116.544 41.483 L 116.544 41.483 Q 116.177 41.15 116.177 40.535 L 116.177 40.535 L 116.177 40.535 Q 116.177 39.219 118.282 39.156 L 118.282 39.156 L 119.02 39.132 L 119.02 38.862 L 119.02 38.862 Q 119.02 38.351 118.8 38.107 L 118.8 38.107 L 118.8 38.107 Q 118.58 37.863 118.096 37.863 L 118.096 37.863 L 118.096 37.863 Q 117.553 37.863 116.867 38.196 L 116.867 38.196 L 116.665 37.693 L 116.665 37.693 Q 116.986 37.518 117.368 37.419 L 117.368 37.419 L 117.368 37.419 Q 117.751 37.32 118.135 37.32 L 118.135 37.32 L 118.135 37.32 Q 118.913 37.32 119.287 37.665 L 119.287 37.665 L 119.287 37.665 Q 119.662 38.01 119.662 38.771 L 119.662 38.771 L 119.662 41.737 Z  M 117.687 41.273 L 117.687 41.273 L 117.687 41.273 Q 118.302 41.273 118.653 40.936 L 118.653 40.936 L 118.653 40.936 Q 119.004 40.599 119.004 39.992 L 119.004 39.992 L 119.004 39.6 L 118.346 39.628 L 118.346 39.628 Q 117.561 39.655 117.214 39.871 L 117.214 39.871 L 117.214 39.871 Q 116.867 40.087 116.867 40.543 L 116.867 40.543 L 116.867 40.543 Q 116.867 40.9 117.083 41.087 L 117.083 41.087 L 117.083 41.087 Q 117.299 41.273 117.687 41.273 Z  M 123 37.312 L 123 37.312 L 123 37.312 Q 123.289 37.312 123.519 37.36 L 123.519 37.36 L 123.428 37.97 L 123.428 37.97 Q 123.159 37.911 122.952 37.911 L 122.952 37.911 L 122.952 37.911 Q 122.425 37.911 122.05 38.339 L 122.05 38.339 L 122.05 38.339 Q 121.676 38.767 121.676 39.406 L 121.676 39.406 L 121.676 41.737 L 121.018 41.737 L 121.018 37.392 L 121.561 37.392 L 121.636 38.196 L 121.668 38.196 L 121.668 38.196 Q 121.91 37.772 122.251 37.542 L 122.251 37.542 L 122.251 37.542 Q 122.592 37.312 123 37.312 Z  M 126.168 41.816 L 126.168 41.816 L 126.168 41.816 Q 125.204 41.816 124.647 41.229 L 124.647 41.229 L 124.647 41.229 Q 124.09 40.643 124.09 39.6 L 124.09 39.6 L 124.09 39.6 Q 124.09 38.549 124.608 37.931 L 124.608 37.931 L 124.608 37.931 Q 125.125 37.312 125.997 37.312 L 125.997 37.312 L 125.997 37.312 Q 126.814 37.312 127.29 37.85 L 127.29 37.85 L 127.29 37.85 Q 127.765 38.387 127.765 39.267 L 127.765 39.267 L 127.765 39.683 L 124.772 39.683 L 124.772 39.683 Q 124.792 40.448 125.159 40.845 L 125.159 40.845 L 125.159 40.845 Q 125.525 41.241 126.191 41.241 L 126.191 41.241 L 126.191 41.241 Q 126.893 41.241 127.579 40.948 L 127.579 40.948 L 127.579 41.535 L 127.579 41.535 Q 127.23 41.685 126.919 41.751 L 126.919 41.751 L 126.919 41.751 Q 126.608 41.816 126.168 41.816 Z  M 125.989 37.863 L 125.989 37.863 L 125.989 37.863 Q 125.466 37.863 125.155 38.204 L 125.155 38.204 L 125.155 38.204 Q 124.843 38.545 124.788 39.148 L 124.788 39.148 L 127.06 39.148 L 127.06 39.148 Q 127.06 38.525 126.782 38.194 L 126.782 38.194 L 126.782 38.194 Q 126.505 37.863 125.989 37.863 Z  M 91.209 40.512 L 91.209 41.689 L 91.209 41.689 Q 91.209 42.094 91.44 42.276 L 91.44 42.276 L 91.44 42.276 Q 91.672 42.458 92.12 42.466 L 92.12 42.466 L 92.12 43.021 L 92.12 43.021 Q 91.367 43.013 90.955 42.676 L 90.955 42.676 L 90.955 42.676 Q 90.543 42.339 90.543 41.729 L 90.543 41.729 L 90.543 40.528 L 90.543 40.528 Q 90.543 40.115 90.293 39.939 L 90.293 39.939 L 90.293 39.939 Q 90.043 39.762 89.567 39.762 L 89.567 39.762 L 89.567 39.203 L 89.567 39.203 Q 90.083 39.195 90.313 39.013 L 90.313 39.013 L 90.313 39.013 Q 90.543 38.831 90.543 38.45 L 90.543 38.45 L 90.543 37.237 L 90.543 37.237 Q 90.543 36.623 90.971 36.282 L 90.971 36.282 L 90.971 36.282 Q 91.399 35.941 92.12 35.941 L 92.12 35.941 L 92.12 36.492 L 92.12 36.492 Q 91.209 36.515 91.209 37.281 L 91.209 37.281 L 91.209 38.45 L 91.209 38.45 Q 91.209 39.303 90.324 39.457 L 90.324 39.457 L 90.324 39.505 L 90.324 39.505 Q 91.209 39.659 91.209 40.512 L 91.209 40.512 Z " fill="rgb(17,17,17)"/></g><g/></g></svg>