<?xml version="1.0" encoding="UTF-8" standalone="no"?><!-- Generator: Gravit.io --><svg xmlns="http://www.w3.org/2000/svg" xmlns:xlink="http://www.w3.org/1999/xlink" style="isolation:isolate" viewBox="0 0 200 120" width="200pt" height="120pt"><defs><clipPath id="_clipPath_owlDUoyOlbJxYC5cEe56y2XidosVudqg"><rect width="200" height="120"/></clipPath></defs><g clip-path="url(#_clipPath_owlDUoyOlbJxYC5cEe56y2XidosVudqg)"><line x1="10" y1="60" x2="190" y2="60" vector-effect="non-scaling-stroke" stroke-width="2" stroke-dasharray="0,0,0,0" stroke="rgb(17,17,17)" stroke-linejoin="miter" stroke-linecap="round" stroke-miterlimit="3"/><defs><filter id="Cx3tA0LRMhq6WIDSIAh3GiTOKDPv3zBO" x="-200%" y="-200%" width="400%" height="400%" filterUnits="objectBoundingBox" color-interpolation-filters="sRGB"><feGaussianBlur xmlns="http://www.w3.org/2000/svg" stdDeviation="0"/></filter></defs><g filter="url(#Cx3tA0LRMhq6WIDSIAh3GiTOKDPv3zBO)"><path d=" M 40.032 70.01 L 40.032 10.01 Q 65.396 59.087 80 50 C 91.25 43 97.927 43.01 100 50" fill="none" vector-effect="non-scaling-stroke" stroke-width="2" stroke-dasharray="0,0,0,0" stroke="rgb(17,17,17)" stroke-linejoin="round" stroke-linecap="round" stroke-miterlimit="3"/></g><path d=" M 94.175 97.435 L 94.175 97.435 L 94.175 97.435 Q 94.175 100.617 92.448 102.3 L 92.448 102.3 L 92.448 102.3 Q 90.721 103.983 87.478 103.983 L 87.478 103.983 L 83.918 103.983 L 83.918 91.133 L 87.855 91.133 L 87.855 91.133 Q 90.853 91.133 92.514 92.794 L 92.514 92.794 L 92.514 92.794 Q 94.175 94.456 94.175 97.435 Z  M 92.593 97.488 L 92.593 97.488 L 92.593 97.488 Q 92.593 94.974 91.332 93.7 L 91.332 93.7 L 91.332 93.7 Q 90.07 92.425 87.583 92.425 L 87.583 92.425 L 85.412 92.425 L 85.412 102.691 L 87.231 102.691 L 87.231 102.691 Q 89.903 102.691 91.248 101.377 L 91.248 101.377 L 91.248 101.377 Q 92.593 100.063 92.593 97.488 Z  M 100.89 104.159 L 100.89 104.159 L 100.89 104.159 Q 98.754 104.159 97.519 102.858 L 97.519 102.858 L 97.519 102.858 Q 96.284 101.557 96.284 99.246 L 96.284 99.246 L 96.284 99.246 Q 96.284 96.917 97.431 95.545 L 97.431 95.545 L 97.431 95.545 Q 98.578 94.174 100.512 94.174 L 100.512 94.174 L 100.512 94.174 Q 102.322 94.174 103.377 95.365 L 103.377 95.365 L 103.377 95.365 Q 104.432 96.556 104.432 98.507 L 104.432 98.507 L 104.432 99.43 L 97.796 99.43 L 97.796 99.43 Q 97.84 101.126 98.653 102.005 L 98.653 102.005 L 98.653 102.005 Q 99.466 102.884 100.942 102.884 L 100.942 102.884 L 100.942 102.884 Q 102.498 102.884 104.019 102.234 L 104.019 102.234 L 104.019 103.535 L 104.019 103.535 Q 103.245 103.869 102.555 104.014 L 102.555 104.014 L 102.555 104.014 Q 101.865 104.159 100.89 104.159 Z  M 100.494 95.396 L 100.494 95.396 L 100.494 95.396 Q 99.334 95.396 98.644 96.152 L 98.644 96.152 L 98.644 96.152 Q 97.954 96.908 97.831 98.244 L 97.831 98.244 L 102.867 98.244 L 102.867 98.244 Q 102.867 96.864 102.252 96.13 L 102.252 96.13 L 102.252 96.13 Q 101.637 95.396 100.494 95.396 Z  M 110.733 103.983 L 109.028 103.983 L 105.372 94.35 L 106.937 94.35 L 109.011 100.063 L 109.011 100.063 Q 109.714 102.067 109.837 102.665 L 109.837 102.665 L 109.907 102.665 L 109.907 102.665 Q 110.004 102.199 110.518 100.735 L 110.518 100.735 L 110.518 100.735 Q 111.032 99.272 112.825 94.35 L 112.825 94.35 L 114.39 94.35 L 110.733 103.983 Z  M 120.006 104.159 L 120.006 104.159 L 120.006 104.159 Q 117.87 104.159 116.635 102.858 L 116.635 102.858 L 116.635 102.858 Q 115.4 101.557 115.4 99.246 L 115.4 99.246 L 115.4 99.246 Q 115.4 96.917 116.547 95.545 L 116.547 95.545 L 116.547 95.545 Q 117.694 94.174 119.628 94.174 L 119.628 94.174 L 119.628 94.174 Q 121.438 94.174 122.493 95.365 L 122.493 95.365 L 122.493 95.365 Q 123.548 96.556 123.548 98.507 L 123.548 98.507 L 123.548 99.43 L 116.912 99.43 L 116.912 99.43 Q 116.956 101.126 117.769 102.005 L 117.769 102.005 L 117.769 102.005 Q 118.582 102.884 120.059 102.884 L 120.059 102.884 L 120.059 102.884 Q 121.614 102.884 123.135 102.234 L 123.135 102.234 L 123.135 103.535 L 123.135 103.535 Q 122.361 103.869 121.671 104.014 L 121.671 104.014 L 121.671 104.014 Q 120.981 104.159 120.006 104.159 Z  M 119.61 95.396 L 119.61 95.396 L 119.61 95.396 Q 118.45 95.396 117.76 96.152 L 117.76 96.152 L 117.76 96.152 Q 117.07 96.908 116.947 98.244 L 116.947 98.244 L 121.983 98.244 L 121.983 98.244 Q 121.983 96.864 121.368 96.13 L 121.368 96.13 L 121.368 96.13 Q 120.753 95.396 119.61 95.396 Z  M 127.494 90.307 L 127.494 103.983 L 126.035 103.983 L 126.035 90.307 L 127.494 90.307 Z  M 138.902 99.158 L 138.902 99.158 L 138.902 99.158 Q 138.902 101.513 137.716 102.836 L 137.716 102.836 L 137.716 102.836 Q 136.529 104.159 134.438 104.159 L 134.438 104.159 L 134.438 104.159 Q 133.146 104.159 132.144 103.552 L 132.144 103.552 L 132.144 103.552 Q 131.142 102.946 130.597 101.812 L 130.597 101.812 L 130.597 101.812 Q 130.052 100.678 130.052 99.158 L 130.052 99.158 L 130.052 99.158 Q 130.052 96.802 131.229 95.488 L 131.229 95.488 L 131.229 95.488 Q 132.407 94.174 134.499 94.174 L 134.499 94.174 L 134.499 94.174 Q 136.521 94.174 137.711 95.519 L 137.711 95.519 L 137.711 95.519 Q 138.902 96.864 138.902 99.158 Z  M 131.563 99.158 L 131.563 99.158 L 131.563 99.158 Q 131.563 101.003 132.302 101.97 L 132.302 101.97 L 132.302 101.97 Q 133.04 102.937 134.473 102.937 L 134.473 102.937 L 134.473 102.937 Q 135.905 102.937 136.648 101.975 L 136.648 101.975 L 136.648 101.975 Q 137.391 101.012 137.391 99.158 L 137.391 99.158 L 137.391 99.158 Q 137.391 97.321 136.648 96.367 L 136.648 96.367 L 136.648 96.367 Q 135.905 95.414 134.455 95.414 L 134.455 95.414 L 134.455 95.414 Q 133.022 95.414 132.293 96.354 L 132.293 96.354 L 132.293 96.354 Q 131.563 97.294 131.563 99.158 Z  M 145.942 104.159 L 145.942 104.159 L 145.942 104.159 Q 145.002 104.159 144.224 103.812 L 144.224 103.812 L 144.224 103.812 Q 143.446 103.464 142.919 102.744 L 142.919 102.744 L 142.813 102.744 L 142.813 102.744 Q 142.919 103.587 142.919 104.343 L 142.919 104.343 L 142.919 108.307 L 141.46 108.307 L 141.46 94.35 L 142.646 94.35 L 142.849 95.668 L 142.919 95.668 L 142.919 95.668 Q 143.481 94.877 144.229 94.526 L 144.229 94.526 L 144.229 94.526 Q 144.976 94.174 145.942 94.174 L 145.942 94.174 L 145.942 94.174 Q 147.858 94.174 148.9 95.484 L 148.9 95.484 L 148.9 95.484 Q 149.941 96.793 149.941 99.158 L 149.941 99.158 L 149.941 99.158 Q 149.941 101.531 148.882 102.845 L 148.882 102.845 L 148.882 102.845 Q 147.823 104.159 145.942 104.159 Z  M 145.731 95.414 L 145.731 95.414 L 145.731 95.414 Q 144.255 95.414 143.596 96.231 L 143.596 96.231 L 143.596 96.231 Q 142.937 97.048 142.919 98.833 L 142.919 98.833 L 142.919 99.158 L 142.919 99.158 Q 142.919 101.188 143.596 102.063 L 143.596 102.063 L 143.596 102.063 Q 144.272 102.937 145.767 102.937 L 145.767 102.937 L 145.767 102.937 Q 147.015 102.937 147.722 101.926 L 147.722 101.926 L 147.722 101.926 Q 148.43 100.916 148.43 99.14 L 148.43 99.14 L 148.43 99.14 Q 148.43 97.338 147.722 96.376 L 147.722 96.376 L 147.722 96.376 Q 147.015 95.414 145.731 95.414 Z  M 166.228 103.983 L 164.769 103.983 L 164.769 97.716 L 164.769 97.716 Q 164.769 96.565 164.276 95.989 L 164.276 95.989 L 164.276 95.989 Q 163.784 95.414 162.747 95.414 L 162.747 95.414 L 162.747 95.414 Q 161.385 95.414 160.734 96.196 L 160.734 96.196 L 160.734 96.196 Q 160.084 96.978 160.084 98.604 L 160.084 98.604 L 160.084 103.983 L 158.625 103.983 L 158.625 97.716 L 158.625 97.716 Q 158.625 96.565 158.133 95.989 L 158.133 95.989 L 158.133 95.989 Q 157.641 95.414 156.595 95.414 L 156.595 95.414 L 156.595 95.414 Q 155.224 95.414 154.586 96.235 L 154.586 96.235 L 154.586 96.235 Q 153.949 97.057 153.949 98.929 L 153.949 98.929 L 153.949 103.983 L 152.49 103.983 L 152.49 94.35 L 153.677 94.35 L 153.914 95.668 L 153.984 95.668 L 153.984 95.668 Q 154.397 94.965 155.149 94.57 L 155.149 94.57 L 155.149 94.57 Q 155.9 94.174 156.832 94.174 L 156.832 94.174 L 156.832 94.174 Q 159.091 94.174 159.785 95.809 L 159.785 95.809 L 159.855 95.809 L 159.855 95.809 Q 160.286 95.053 161.104 94.614 L 161.104 94.614 L 161.104 94.614 Q 161.921 94.174 162.967 94.174 L 162.967 94.174 L 162.967 94.174 Q 164.602 94.174 165.415 95.014 L 165.415 95.014 L 165.415 95.014 Q 166.228 95.853 166.228 97.699 L 166.228 97.699 L 166.228 103.983 Z  M 173.303 104.159 L 173.303 104.159 L 173.303 104.159 Q 171.167 104.159 169.932 102.858 L 169.932 102.858 L 169.932 102.858 Q 168.697 101.557 168.697 99.246 L 168.697 99.246 L 168.697 99.246 Q 168.697 96.917 169.844 95.545 L 169.844 95.545 L 169.844 95.545 Q 170.991 94.174 172.925 94.174 L 172.925 94.174 L 172.925 94.174 Q 174.735 94.174 175.79 95.365 L 175.79 95.365 L 175.79 95.365 Q 176.845 96.556 176.845 98.507 L 176.845 98.507 L 176.845 99.43 L 170.209 99.43 L 170.209 99.43 Q 170.253 101.126 171.066 102.005 L 171.066 102.005 L 171.066 102.005 Q 171.879 102.884 173.355 102.884 L 173.355 102.884 L 173.355 102.884 Q 174.911 102.884 176.432 102.234 L 176.432 102.234 L 176.432 103.535 L 176.432 103.535 Q 175.658 103.869 174.968 104.014 L 174.968 104.014 L 174.968 104.014 Q 174.278 104.159 173.303 104.159 Z  M 172.907 95.396 L 172.907 95.396 L 172.907 95.396 Q 171.747 95.396 171.057 96.152 L 171.057 96.152 L 171.057 96.152 Q 170.367 96.908 170.244 98.244 L 170.244 98.244 L 175.28 98.244 L 175.28 98.244 Q 175.28 96.864 174.665 96.13 L 174.665 96.13 L 174.665 96.13 Q 174.05 95.396 172.907 95.396 Z  M 187.383 103.983 L 185.924 103.983 L 185.924 97.751 L 185.924 97.751 Q 185.924 96.574 185.388 95.994 L 185.388 95.994 L 185.388 95.994 Q 184.852 95.414 183.709 95.414 L 183.709 95.414 L 183.709 95.414 Q 182.197 95.414 181.494 96.231 L 181.494 96.231 L 181.494 96.231 Q 180.791 97.048 180.791 98.929 L 180.791 98.929 L 180.791 103.983 L 179.332 103.983 L 179.332 94.35 L 180.519 94.35 L 180.756 95.668 L 180.826 95.668 L 180.826 95.668 Q 181.274 94.957 182.083 94.565 L 182.083 94.565 L 182.083 94.565 Q 182.892 94.174 183.885 94.174 L 183.885 94.174 L 183.885 94.174 Q 185.625 94.174 186.504 95.014 L 186.504 95.014 L 186.504 95.014 Q 187.383 95.853 187.383 97.699 L 187.383 97.699 L 187.383 103.983 Z  M 193.491 102.955 L 193.491 102.955 L 193.491 102.955 Q 193.878 102.955 194.238 102.897 L 194.238 102.897 L 194.238 102.897 Q 194.599 102.84 194.81 102.779 L 194.81 102.779 L 194.81 103.895 L 194.81 103.895 Q 194.572 104.009 194.111 104.084 L 194.111 104.084 L 194.111 104.084 Q 193.649 104.159 193.28 104.159 L 193.28 104.159 L 193.28 104.159 Q 190.485 104.159 190.485 101.214 L 190.485 101.214 L 190.485 95.484 L 189.105 95.484 L 189.105 94.781 L 190.485 94.174 L 191.101 92.118 L 191.944 92.118 L 191.944 94.35 L 194.739 94.35 L 194.739 95.484 L 191.944 95.484 L 191.944 101.153 L 191.944 101.153 Q 191.944 102.023 192.357 102.489 L 192.357 102.489 L 192.357 102.489 Q 192.771 102.955 193.491 102.955 Z  M 11.83 100.564 L 11.83 100.564 L 11.83 100.564 Q 11.83 102.26 10.6 103.209 L 10.6 103.209 L 10.6 103.209 Q 9.369 104.159 7.26 104.159 L 7.26 104.159 L 7.26 104.159 Q 4.975 104.159 3.744 103.57 L 3.744 103.57 L 3.744 102.128 L 3.744 102.128 Q 4.535 102.462 5.467 102.656 L 5.467 102.656 L 5.467 102.656 Q 6.398 102.849 7.313 102.849 L 7.313 102.849 L 7.313 102.849 Q 8.807 102.849 9.563 102.282 L 9.563 102.282 L 9.563 102.282 Q 10.318 101.715 10.318 100.705 L 10.318 100.705 L 10.318 100.705 Q 10.318 100.037 10.05 99.61 L 10.05 99.61 L 10.05 99.61 Q 9.782 99.184 9.154 98.824 L 9.154 98.824 L 9.154 98.824 Q 8.525 98.463 7.242 98.006 L 7.242 98.006 L 7.242 98.006 Q 5.449 97.365 4.68 96.486 L 4.68 96.486 L 4.68 96.486 Q 3.911 95.607 3.911 94.192 L 3.911 94.192 L 3.911 94.192 Q 3.911 92.707 5.027 91.828 L 5.027 91.828 L 5.027 91.828 Q 6.144 90.949 7.98 90.949 L 7.98 90.949 L 7.98 90.949 Q 9.896 90.949 11.505 91.652 L 11.505 91.652 L 11.039 92.953 L 11.039 92.953 Q 9.448 92.285 7.945 92.285 L 7.945 92.285 L 7.945 92.285 Q 6.759 92.285 6.091 92.794 L 6.091 92.794 L 6.091 92.794 Q 5.423 93.304 5.423 94.209 L 5.423 94.209 L 5.423 94.209 Q 5.423 94.877 5.669 95.304 L 5.669 95.304 L 5.669 95.304 Q 5.915 95.73 6.5 96.086 L 6.5 96.086 L 6.5 96.086 Q 7.084 96.442 8.288 96.873 L 8.288 96.873 L 8.288 96.873 Q 10.31 97.593 11.07 98.419 L 11.07 98.419 L 11.07 98.419 Q 11.83 99.246 11.83 100.564 Z  M 22.553 99.158 L 22.553 99.158 L 22.553 99.158 Q 22.553 101.513 21.366 102.836 L 21.366 102.836 L 21.366 102.836 Q 20.18 104.159 18.088 104.159 L 18.088 104.159 L 18.088 104.159 Q 16.796 104.159 15.794 103.552 L 15.794 103.552 L 15.794 103.552 Q 14.792 102.946 14.247 101.812 L 14.247 101.812 L 14.247 101.812 Q 13.702 100.678 13.702 99.158 L 13.702 99.158 L 13.702 99.158 Q 13.702 96.802 14.88 95.488 L 14.88 95.488 L 14.88 95.488 Q 16.058 94.174 18.149 94.174 L 18.149 94.174 L 18.149 94.174 Q 20.171 94.174 21.362 95.519 L 21.362 95.519 L 21.362 95.519 Q 22.553 96.864 22.553 99.158 Z  M 15.214 99.158 L 15.214 99.158 L 15.214 99.158 Q 15.214 101.003 15.952 101.97 L 15.952 101.97 L 15.952 101.97 Q 16.69 102.937 18.123 102.937 L 18.123 102.937 L 18.123 102.937 Q 19.556 102.937 20.298 101.975 L 20.298 101.975 L 20.298 101.975 Q 21.041 101.012 21.041 99.158 L 21.041 99.158 L 21.041 99.158 Q 21.041 97.321 20.298 96.367 L 20.298 96.367 L 20.298 96.367 Q 19.556 95.414 18.105 95.414 L 18.105 95.414 L 18.105 95.414 Q 16.673 95.414 15.943 96.354 L 15.943 96.354 L 15.943 96.354 Q 15.214 97.294 15.214 99.158 Z  M 29.452 94.35 L 29.452 95.484 L 27 95.484 L 27 103.983 L 25.541 103.983 L 25.541 95.484 L 23.818 95.484 L 23.818 94.825 L 25.541 94.297 L 25.541 93.761 L 25.541 93.761 Q 25.541 90.21 28.644 90.21 L 28.644 90.21 L 28.644 90.21 Q 29.408 90.21 30.437 90.518 L 30.437 90.518 L 30.059 91.687 L 30.059 91.687 Q 29.215 91.415 28.617 91.415 L 28.617 91.415 L 28.617 91.415 Q 27.791 91.415 27.396 91.964 L 27.396 91.964 L 27.396 91.964 Q 27 92.513 27 93.726 L 27 93.726 L 27 94.35 L 29.452 94.35 Z  M 34.321 102.955 L 34.321 102.955 L 34.321 102.955 Q 34.708 102.955 35.068 102.897 L 35.068 102.897 L 35.068 102.897 Q 35.429 102.84 35.64 102.779 L 35.64 102.779 L 35.64 103.895 L 35.64 103.895 Q 35.402 104.009 34.941 104.084 L 34.941 104.084 L 34.941 104.084 Q 34.479 104.159 34.11 104.159 L 34.11 104.159 L 34.11 104.159 Q 31.315 104.159 31.315 101.214 L 31.315 101.214 L 31.315 95.484 L 29.936 95.484 L 29.936 94.781 L 31.315 94.174 L 31.931 92.118 L 32.774 92.118 L 32.774 94.35 L 35.569 94.35 L 35.569 95.484 L 32.774 95.484 L 32.774 101.153 L 32.774 101.153 Q 32.774 102.023 33.188 102.489 L 33.188 102.489 L 33.188 102.489 Q 33.601 102.955 34.321 102.955 Z  M 47.162 103.983 L 45.431 103.983 L 43.664 98.332 L 43.664 98.332 Q 43.497 97.813 43.04 95.976 L 43.04 95.976 L 42.97 95.976 L 42.97 95.976 Q 42.618 97.514 42.354 98.349 L 42.354 98.349 L 40.535 103.983 L 38.848 103.983 L 36.22 94.35 L 37.749 94.35 L 37.749 94.35 Q 38.681 97.98 39.168 99.878 L 39.168 99.878 L 39.168 99.878 Q 39.656 101.777 39.727 102.436 L 39.727 102.436 L 39.797 102.436 L 39.797 102.436 Q 39.894 101.935 40.109 101.14 L 40.109 101.14 L 40.109 101.14 Q 40.324 100.344 40.482 99.878 L 40.482 99.878 L 42.249 94.35 L 43.831 94.35 L 45.554 99.878 L 45.554 99.878 Q 46.046 101.39 46.222 102.418 L 46.222 102.418 L 46.292 102.418 L 46.292 102.418 Q 46.327 102.102 46.481 101.443 L 46.481 101.443 L 46.481 101.443 Q 46.635 100.784 48.313 94.35 L 48.313 94.35 L 49.825 94.35 L 47.162 103.983 Z  M 58.57 103.983 L 57.489 103.983 L 57.199 102.612 L 57.129 102.612 L 57.129 102.612 Q 56.408 103.517 55.692 103.838 L 55.692 103.838 L 55.692 103.838 Q 54.976 104.159 53.903 104.159 L 53.903 104.159 L 53.903 104.159 Q 52.471 104.159 51.658 103.42 L 51.658 103.42 L 51.658 103.42 Q 50.845 102.682 50.845 101.32 L 50.845 101.32 L 50.845 101.32 Q 50.845 98.402 55.512 98.261 L 55.512 98.261 L 57.146 98.208 L 57.146 97.611 L 57.146 97.611 Q 57.146 96.477 56.659 95.937 L 56.659 95.937 L 56.659 95.937 Q 56.171 95.396 55.099 95.396 L 55.099 95.396 L 55.099 95.396 Q 53.895 95.396 52.374 96.134 L 52.374 96.134 L 51.926 95.018 L 51.926 95.018 Q 52.638 94.631 53.486 94.412 L 53.486 94.412 L 53.486 94.412 Q 54.334 94.192 55.187 94.192 L 55.187 94.192 L 55.187 94.192 Q 56.909 94.192 57.74 94.957 L 57.74 94.957 L 57.74 94.957 Q 58.57 95.721 58.57 97.409 L 58.57 97.409 L 58.57 103.983 Z  M 54.193 102.955 L 54.193 102.955 L 54.193 102.955 Q 55.556 102.955 56.333 102.208 L 56.333 102.208 L 56.333 102.208 Q 57.111 101.46 57.111 100.116 L 57.111 100.116 L 57.111 99.246 L 55.652 99.307 L 55.652 99.307 Q 53.912 99.369 53.143 99.848 L 53.143 99.848 L 53.143 99.848 Q 52.374 100.327 52.374 101.337 L 52.374 101.337 L 52.374 101.337 Q 52.374 102.128 52.853 102.542 L 52.853 102.542 L 52.853 102.542 Q 53.332 102.955 54.193 102.955 Z  M 65.971 94.174 L 65.971 94.174 L 65.971 94.174 Q 66.612 94.174 67.122 94.28 L 67.122 94.28 L 66.92 95.633 L 66.92 95.633 Q 66.322 95.501 65.865 95.501 L 65.865 95.501 L 65.865 95.501 Q 64.696 95.501 63.866 96.451 L 63.866 96.451 L 63.866 96.451 Q 63.035 97.4 63.035 98.815 L 63.035 98.815 L 63.035 103.983 L 61.576 103.983 L 61.576 94.35 L 62.78 94.35 L 62.947 96.134 L 63.018 96.134 L 63.018 96.134 Q 63.554 95.194 64.31 94.684 L 64.31 94.684 L 64.31 94.684 Q 65.065 94.174 65.971 94.174 Z  M 72.993 104.159 L 72.993 104.159 L 72.993 104.159 Q 70.857 104.159 69.623 102.858 L 69.623 102.858 L 69.623 102.858 Q 68.388 101.557 68.388 99.246 L 68.388 99.246 L 68.388 99.246 Q 68.388 96.917 69.535 95.545 L 69.535 95.545 L 69.535 95.545 Q 70.682 94.174 72.615 94.174 L 72.615 94.174 L 72.615 94.174 Q 74.426 94.174 75.48 95.365 L 75.48 95.365 L 75.48 95.365 Q 76.535 96.556 76.535 98.507 L 76.535 98.507 L 76.535 99.43 L 69.899 99.43 L 69.899 99.43 Q 69.943 101.126 70.756 102.005 L 70.756 102.005 L 70.756 102.005 Q 71.569 102.884 73.046 102.884 L 73.046 102.884 L 73.046 102.884 Q 74.602 102.884 76.122 102.234 L 76.122 102.234 L 76.122 103.535 L 76.122 103.535 Q 75.349 103.869 74.659 104.014 L 74.659 104.014 L 74.659 104.014 Q 73.969 104.159 72.993 104.159 Z  M 72.598 95.396 L 72.598 95.396 L 72.598 95.396 Q 71.438 95.396 70.748 96.152 L 70.748 96.152 L 70.748 96.152 Q 70.058 96.908 69.935 98.244 L 69.935 98.244 L 74.971 98.244 L 74.971 98.244 Q 74.971 96.864 74.355 96.13 L 74.355 96.13 L 74.355 96.13 Q 73.74 95.396 72.598 95.396 Z " fill="rgb(17,17,17)"/><defs><filter id="UOMcf97uUrx9utPbsfamgwEpjPGGN6Gs" x="-200%" y="-200%" width="400%" height="400%" filterUnits="objectBoundingBox" color-interpolation-filters="sRGB"><feGaussianBlur xmlns="http://www.w3.org/2000/svg" stdDeviation="0"/></filter></defs><g filter="url(#UOMcf97uUrx9utPbsfamgwEpjPGGN6Gs)"><path d=" M 105.792 76.372 L 105.792 85.043 L 105.138 85.043 L 105.138 76.372 L 102.123 76.372 L 102.123 75.763 L 108.807 75.763 L 108.807 76.372 L 105.792 76.372 L 105.792 76.372 Z  M 109.95 78.143 L 110.572 78.143 L 110.572 82.612 L 110.572 82.612 Q 110.572 83.653 111.01 84.126 L 111.01 84.126 L 111.01 84.126 Q 111.448 84.599 112.368 84.599 L 112.368 84.599 L 112.368 84.599 Q 113.6 84.599 114.18 83.977 L 114.18 83.977 L 114.18 83.977 Q 114.761 83.355 114.761 81.952 L 114.761 81.952 L 114.761 78.143 L 115.383 78.143 L 115.383 85.043 L 114.85 85.043 L 114.736 84.091 L 114.698 84.091 L 114.698 84.091 Q 114.025 85.17 112.305 85.17 L 112.305 85.17 L 112.305 85.17 Q 109.95 85.17 109.95 82.65 L 109.95 82.65 L 109.95 78.143 L 109.95 78.143 Z  M 120.411 78.01 L 120.411 78.01 L 120.411 78.01 Q 120.849 78.01 121.35 78.099 L 121.35 78.099 L 121.229 78.702 L 121.229 78.702 Q 120.798 78.594 120.334 78.594 L 120.334 78.594 L 120.334 78.594 Q 119.452 78.594 118.887 79.343 L 118.887 79.343 L 118.887 79.343 Q 118.322 80.092 118.322 81.235 L 118.322 81.235 L 118.322 85.043 L 117.694 85.043 L 117.694 78.143 L 118.227 78.143 L 118.291 79.387 L 118.335 79.387 L 118.335 79.387 Q 118.76 78.626 119.243 78.318 L 119.243 78.318 L 119.243 78.318 Q 119.725 78.01 120.411 78.01 Z  M 127.031 83.247 L 127.031 83.247 L 127.031 83.247 Q 127.031 84.174 126.327 84.672 L 126.327 84.672 L 126.327 84.672 Q 125.622 85.17 124.327 85.17 L 124.327 85.17 L 124.327 85.17 Q 122.943 85.17 122.131 84.745 L 122.131 84.745 L 122.131 84.066 L 122.131 84.066 Q 123.172 84.586 124.327 84.586 L 124.327 84.586 L 124.327 84.586 Q 125.349 84.586 125.879 84.247 L 125.879 84.247 L 125.879 84.247 Q 126.409 83.907 126.409 83.342 L 126.409 83.342 L 126.409 83.342 Q 126.409 82.822 125.987 82.466 L 125.987 82.466 L 125.987 82.466 Q 125.565 82.111 124.6 81.768 L 124.6 81.768 L 124.6 81.768 Q 123.565 81.393 123.146 81.124 L 123.146 81.124 L 123.146 81.124 Q 122.728 80.854 122.515 80.514 L 122.515 80.514 L 122.515 80.514 Q 122.302 80.175 122.302 79.686 L 122.302 79.686 L 122.302 79.686 Q 122.302 78.911 122.953 78.461 L 122.953 78.461 L 122.953 78.461 Q 123.604 78.01 124.771 78.01 L 124.771 78.01 L 124.771 78.01 Q 125.889 78.01 126.892 78.429 L 126.892 78.429 L 126.657 79 L 126.657 79 Q 125.641 78.581 124.771 78.581 L 124.771 78.581 L 124.771 78.581 Q 123.927 78.581 123.432 78.861 L 123.432 78.861 L 123.432 78.861 Q 122.937 79.14 122.937 79.635 L 122.937 79.635 L 122.937 79.635 Q 122.937 80.175 123.321 80.498 L 123.321 80.498 L 123.321 80.498 Q 123.705 80.822 124.822 81.222 L 124.822 81.222 L 124.822 81.222 Q 125.755 81.558 126.181 81.828 L 126.181 81.828 L 126.181 81.828 Q 126.606 82.098 126.819 82.441 L 126.819 82.441 L 126.819 82.441 Q 127.031 82.783 127.031 83.247 Z  M 131.595 85.17 L 131.595 85.17 L 131.595 85.17 Q 130.091 85.17 129.25 84.243 L 129.25 84.243 L 129.25 84.243 Q 128.409 83.317 128.409 81.647 L 128.409 81.647 L 128.409 81.647 Q 128.409 79.997 129.221 79.003 L 129.221 79.003 L 129.221 79.003 Q 130.034 78.01 131.411 78.01 L 131.411 78.01 L 131.411 78.01 Q 132.63 78.01 133.334 78.861 L 133.334 78.861 L 133.334 78.861 Q 134.039 79.711 134.039 81.171 L 134.039 81.171 L 134.039 81.679 L 129.069 81.679 L 129.069 81.679 Q 129.082 83.101 129.732 83.85 L 129.732 83.85 L 129.732 83.85 Q 130.383 84.599 131.595 84.599 L 131.595 84.599 L 131.595 84.599 Q 132.186 84.599 132.633 84.516 L 132.633 84.516 L 132.633 84.516 Q 133.081 84.434 133.766 84.161 L 133.766 84.161 L 133.766 84.732 L 133.766 84.732 Q 133.182 84.986 132.687 85.078 L 132.687 85.078 L 132.687 85.078 Q 132.192 85.17 131.595 85.17 Z  M 131.411 78.569 L 131.411 78.569 L 131.411 78.569 Q 130.415 78.569 129.812 79.226 L 129.812 79.226 L 129.812 79.226 Q 129.208 79.883 129.107 81.12 L 129.107 81.12 L 133.373 81.12 L 133.373 81.12 Q 133.373 79.921 132.852 79.245 L 132.852 79.245 L 132.852 79.245 Q 132.332 78.569 131.411 78.569 Z  M 67.478 81 L 65.173 81 L 65.173 85.043 L 64.526 85.043 L 64.526 75.763 L 66.735 75.763 L 66.735 75.763 Q 68.461 75.763 69.287 76.401 L 69.287 76.401 L 69.287 76.401 Q 70.112 77.039 70.112 78.321 L 70.112 78.321 L 70.112 78.321 Q 70.112 79.254 69.62 79.895 L 69.62 79.895 L 69.62 79.895 Q 69.128 80.536 68.125 80.816 L 68.125 80.816 L 70.645 85.043 L 69.871 85.043 L 67.478 81 L 67.478 81 Z  M 65.173 76.347 L 65.173 80.441 L 66.944 80.441 L 66.944 80.441 Q 68.119 80.441 68.766 79.917 L 68.766 79.917 L 68.766 79.917 Q 69.414 79.394 69.414 78.372 L 69.414 78.372 L 69.414 78.372 Q 69.414 77.312 68.779 76.829 L 68.779 76.829 L 68.779 76.829 Q 68.144 76.347 66.709 76.347 L 66.709 76.347 L 65.173 76.347 L 65.173 76.347 Z  M 76.745 85.043 L 76.282 85.043 L 76.123 83.951 L 76.072 83.951 L 76.072 83.951 Q 75.552 84.618 75.003 84.894 L 75.003 84.894 L 75.003 84.894 Q 74.454 85.17 73.705 85.17 L 73.705 85.17 L 73.705 85.17 Q 72.689 85.17 72.124 84.65 L 72.124 84.65 L 72.124 84.65 Q 71.559 84.129 71.559 83.209 L 71.559 83.209 L 71.559 83.209 Q 71.559 82.199 72.4 81.641 L 72.4 81.641 L 72.4 81.641 Q 73.241 81.082 74.834 81.051 L 74.834 81.051 L 76.148 81.012 L 76.148 80.555 L 76.148 80.555 Q 76.148 79.572 75.749 79.07 L 75.749 79.07 L 75.749 79.07 Q 75.349 78.569 74.46 78.569 L 74.46 78.569 L 74.46 78.569 Q 73.501 78.569 72.473 79.102 L 72.473 79.102 L 72.238 78.556 L 72.238 78.556 Q 73.375 78.023 74.485 78.023 L 74.485 78.023 L 74.485 78.023 Q 75.622 78.023 76.183 78.613 L 76.183 78.613 L 76.183 78.613 Q 76.745 79.203 76.745 80.454 L 76.745 80.454 L 76.745 85.043 L 76.745 85.043 Z  M 73.743 84.599 L 73.743 84.599 L 73.743 84.599 Q 74.847 84.599 75.485 83.967 L 75.485 83.967 L 75.485 83.967 Q 76.123 83.336 76.123 82.212 L 76.123 82.212 L 76.123 81.533 L 74.917 81.584 L 74.917 81.584 Q 73.463 81.654 72.844 82.038 L 72.844 82.038 L 72.844 82.038 Q 72.226 82.422 72.226 83.234 L 72.226 83.234 L 72.226 83.234 Q 72.226 83.882 72.622 84.24 L 72.622 84.24 L 72.622 84.24 Q 73.019 84.599 73.743 84.599 Z  M 81.544 78.143 L 81.544 78.689 L 79.919 78.689 L 79.919 85.043 L 79.291 85.043 L 79.291 78.689 L 78.008 78.689 L 78.008 78.321 L 79.291 78.086 L 79.291 77.553 L 79.291 77.553 Q 79.291 76.283 79.757 75.69 L 79.757 75.69 L 79.757 75.69 Q 80.224 75.096 81.284 75.096 L 81.284 75.096 L 81.284 75.096 Q 81.855 75.096 82.426 75.268 L 82.426 75.268 L 82.28 75.814 L 82.28 75.814 Q 81.772 75.655 81.271 75.655 L 81.271 75.655 L 81.271 75.655 Q 80.535 75.655 80.227 76.09 L 80.227 76.09 L 80.227 76.09 Q 79.919 76.525 79.919 77.502 L 79.919 77.502 L 79.919 78.143 L 81.544 78.143 L 81.544 78.143 Z  M 87.53 85.043 L 87.066 85.043 L 86.908 83.951 L 86.857 83.951 L 86.857 83.951 Q 86.336 84.618 85.787 84.894 L 85.787 84.894 L 85.787 84.894 Q 85.238 85.17 84.489 85.17 L 84.489 85.17 L 84.489 85.17 Q 83.474 85.17 82.909 84.65 L 82.909 84.65 L 82.909 84.65 Q 82.344 84.129 82.344 83.209 L 82.344 83.209 L 82.344 83.209 Q 82.344 82.199 83.185 81.641 L 83.185 81.641 L 83.185 81.641 Q 84.026 81.082 85.619 81.051 L 85.619 81.051 L 86.933 81.012 L 86.933 80.555 L 86.933 80.555 Q 86.933 79.572 86.533 79.07 L 86.533 79.07 L 86.533 79.07 Q 86.133 78.569 85.245 78.569 L 85.245 78.569 L 85.245 78.569 Q 84.286 78.569 83.258 79.102 L 83.258 79.102 L 83.023 78.556 L 83.023 78.556 Q 84.159 78.023 85.27 78.023 L 85.27 78.023 L 85.27 78.023 Q 86.406 78.023 86.968 78.613 L 86.968 78.613 L 86.968 78.613 Q 87.53 79.203 87.53 80.454 L 87.53 80.454 L 87.53 85.043 L 87.53 85.043 Z  M 84.527 84.599 L 84.527 84.599 L 84.527 84.599 Q 85.632 84.599 86.27 83.967 L 86.27 83.967 L 86.27 83.967 Q 86.908 83.336 86.908 82.212 L 86.908 82.212 L 86.908 81.533 L 85.702 81.584 L 85.702 81.584 Q 84.248 81.654 83.629 82.038 L 83.629 82.038 L 83.629 82.038 Q 83.01 82.422 83.01 83.234 L 83.01 83.234 L 83.01 83.234 Q 83.01 83.882 83.407 84.24 L 83.407 84.24 L 83.407 84.24 Q 83.804 84.599 84.527 84.599 Z  M 92.551 85.17 L 92.551 85.17 L 92.551 85.17 Q 91.046 85.17 90.205 84.243 L 90.205 84.243 L 90.205 84.243 Q 89.364 83.317 89.364 81.647 L 89.364 81.647 L 89.364 81.647 Q 89.364 79.997 90.177 79.003 L 90.177 79.003 L 90.177 79.003 Q 90.989 78.01 92.367 78.01 L 92.367 78.01 L 92.367 78.01 Q 93.585 78.01 94.29 78.861 L 94.29 78.861 L 94.29 78.861 Q 94.995 79.711 94.995 81.171 L 94.995 81.171 L 94.995 81.679 L 90.024 81.679 L 90.024 81.679 Q 90.037 83.101 90.688 83.85 L 90.688 83.85 L 90.688 83.85 Q 91.338 84.599 92.551 84.599 L 92.551 84.599 L 92.551 84.599 Q 93.141 84.599 93.589 84.516 L 93.589 84.516 L 93.589 84.516 Q 94.036 84.434 94.722 84.161 L 94.722 84.161 L 94.722 84.732 L 94.722 84.732 Q 94.138 84.986 93.643 85.078 L 93.643 85.078 L 93.643 85.078 Q 93.147 85.17 92.551 85.17 Z  M 92.367 78.569 L 92.367 78.569 L 92.367 78.569 Q 91.37 78.569 90.767 79.226 L 90.767 79.226 L 90.767 79.226 Q 90.164 79.883 90.063 81.12 L 90.063 81.12 L 94.328 81.12 L 94.328 81.12 Q 94.328 79.921 93.808 79.245 L 93.808 79.245 L 93.808 79.245 Q 93.287 78.569 92.367 78.569 Z  M 97.527 75.166 L 97.527 85.043 L 96.899 85.043 L 96.899 75.166 L 97.527 75.166 L 97.527 75.166 Z " fill="rgb(17,17,17)"/></g></g></svg>