<svg height="511pt" viewBox="1 -5 511.99999 511" width="511pt" xmlns="http://www.w3.org/2000/svg"><path d="m512 282.496094c0 50.035156-40.558594 90.59375-90.59375 90.59375-50.03125 0-90.589844-40.558594-90.589844-90.59375 0-50.03125 40.558594-90.589844 90.589844-90.589844 50.035156 0 90.59375 40.558594 90.59375 90.589844zm0 0" fill="#ffbe1d"/><path d="m346.308594 82.832031-2.699219 20.582031-8.632813 65.753907c-1.554687 11.84375-11.640624 20.695312-23.589843 20.695312h-103.058594c-11.945313 0-22.03125-8.851562-23.585937-20.695312l-11.332032-86.335938 86.449219-23.15625zm0 0" fill="#1f81a3"/><path d="m343.609375 103.414062-8.632813 65.753907c-1.554687 11.84375-11.640624 20.695312-23.589843 20.695312h-70.125c-11.949219 0-22.03125-8.851562-23.585938-20.695312l-5.851562-44.5625c-1.476563-11.230469 7.265625-21.191407 18.589843-21.191407zm0 0" fill="#2c92bf"/><path d="m358.144531 59.550781v12.597657c0 5.898437-4.789062 10.683593-10.683593 10.683593h-175.203126c-5.894531 0-10.683593-4.785156-10.683593-10.683593v-12.597657c0-5.894531 4.789062-10.679687 10.683593-10.679687h175.203126c5.894531 0 10.683593 4.785156 10.683593 10.679687zm0 0" fill="#1f81a3"/><path d="m358.144531 59.550781v12.597657c0 5.898437-4.789062 10.683593-10.683593 10.683593h-134.035157c-5.898437 0-10.683593-4.785156-10.683593-10.683593v-12.597657c0-5.894531 4.785156-10.679687 10.683593-10.679687h134.035157c5.894531 0 10.683593 4.785156 10.683593 10.679687zm0 0" fill="#2c92bf"/><path d="m259.859375.5c-9.664063 0-17.496094 7.832031-17.496094 17.496094v83.359375c0 9.664062 7.832031 17.496093 17.496094 17.496093s17.496094-7.832031 17.496094-17.496093v-83.359375c0-9.664063-7.832031-17.496094-17.496094-17.496094zm0 0" fill="#3c3f4d"/><path d="m320.441406 441.371094c0 33.457031-27.125 60.582031-60.582031 60.582031-33.460937 0-60.582031-27.125-60.582031-60.582031 0-33.460938 27.121094-60.582032 60.582031-60.582032 33.457031 0 60.582031 27.121094 60.582031 60.582032zm0 0" fill="#ff491f"/><path d="m265.117188 401.878906c-1.808594-.238281-3.59375-.347656-5.355469-.34375-3.019531.007813-4.089844 4.035156-1.492188 5.578125 11.679688 6.941407 19.511719 19.679688 19.511719 34.257813s-7.832031 27.320312-19.519531 34.257812c-2.589844 1.542969-1.53125 5.570313 1.480469 5.578125h.117187c22.730469 0 41.015625-19.042969 39.773437-42.042969-1.019531-18.976562-15.671874-34.808593-34.515624-37.285156zm0 0" fill="#ed3618"/><path d="m485.316406 282.496094c0 35.296875-28.613281 63.910156-63.910156 63.910156-35.292969 0-63.90625-28.613281-63.90625-63.910156 0-35.292969 28.613281-63.90625 63.90625-63.90625 35.296875 0 63.910156 28.613281 63.910156 63.90625zm0 0" fill="#ffe14d"/><path d="m165.179688 337.050781h-118.355469c-25.816407 0-46.824219-21.003906-46.824219-46.824219 0-25.820312 21.007812-46.828124 46.824219-46.828124h118.355469c25.820312 0 46.828124 21.007812 46.828124 46.828124 0 25.820313-21.007812 46.824219-46.828124 46.824219zm-118.355469-78.214843c-17.304688 0-31.386719 14.082031-31.386719 31.390624 0 17.308594 14.082031 31.386719 31.386719 31.386719h118.355469c17.308593 0 31.390624-14.078125 31.390624-31.386719 0-17.308593-14.082031-31.390624-31.390624-31.390624zm0 0" fill="#32cc77"/><path d="m106.003906 258.835938c-4.261718 0-7.71875-3.453126-7.71875-7.71875v-28.691407c-20.160156-3.648437-35.503906-21.332031-35.503906-42.53125 0-23.832031 19.390625-43.222656 43.222656-43.222656 23.832032 0 43.222656 19.390625 43.222656 43.222656 0 4.261719-3.457031 7.71875-7.71875 7.71875-4.261718 0-7.71875-3.457031-7.71875-7.71875 0-15.320312-12.464843-27.785156-27.785156-27.785156-15.320312 0-27.785156 12.464844-27.785156 27.785156 0 15.320313 12.464844 27.785157 27.785156 27.785157 4.261719 0 7.71875 3.457031 7.71875 7.71875v35.71875c0 4.265624-3.457031 7.71875-7.71875 7.71875zm0 0" fill="#32cc77"/><path d="m428.140625 275.097656v-19.011718c3.171875.5 5.300781 1.578124 7.023437 2.453124 1.484376.75 2.652344 1.34375 3.964844 1.34375 4.191406 0 6.003906-5.125 6.003906-7.738281 0-5.578125-8.730468-8.160156-16.992187-8.730469v-1.148437c0-2.921875-2.378906-5.296875-5.296875-5.296875-2.921875 0-5.296875 2.375-5.296875 5.296875v1.484375c-12.628906 2.113281-19.863281 9.824219-19.863281 21.183594 0 13.964844 11.425781 18.355468 19.863281 21.53125v21.335937c-4.652344-.882812-7.679687-3.234375-10.121094-5.128906-1.992187-1.546875-3.566406-2.765625-5.367187-2.765625-3.609375 0-6.328125 4.761719-6.328125 7.84375 0 5.828125 8.945312 12.816406 21.816406 13.617188v.53125c0 1.632812.753906 3.152343 2.046875 4.15625.769531.726562 1.882812 1.140624 3.0625 1.140624.027344 0 .054688-.003906.105469-.007812l.082031.007812c2.921875 0 5.296875-2.375 5.296875-5.296874v-1.121094c12.042969-2.574219 18.941406-10.90625 18.941406-22.890625 0-13.5625-9.082031-18.980469-18.941406-22.789063zm5.203125 24.199219c0 3.648437-1.796875 6.339844-5.203125 7.800781v-16.132812c3.59375 2.125 5.203125 4.710937 5.203125 8.332031zm-15.796875-42.578125v14.34375c-3.226563-1.480469-6.125-3.457031-6.125-7.535156 0-3.273438 2.117187-5.621094 6.125-6.808594zm0 0" fill="#ffbe1d"/><g fill="#c4e2f2"><path d="m259.859375 373.457031c-4.261719 0-7.71875-3.457031-7.71875-7.71875v-151.367187c0-4.265625 3.457031-7.71875 7.71875-7.71875s7.71875 3.453125 7.71875 7.71875v151.367187c0 4.261719-3.457031 7.71875-7.71875 7.71875zm0 0"/><path d="m314.144531 394.804688c-1.976562 0-3.953125-.753907-5.460937-2.261719-3.011719-3.011719-3.011719-7.902344 0-10.914063l21.703125-21.703125c3.015625-3.011719 7.902343-3.011719 10.917969 0 3.011718 3.015625 3.011718 7.902344 0 10.917969l-21.703126 21.699219c-1.507812 1.507812-3.484374 2.261719-5.457031 2.261719zm0 0"/><path d="m204.546875 393.78125c-1.972656 0-3.949219-.753906-5.457031-2.261719l-20.675782-20.675781c-3.015624-3.015625-3.015624-7.902344 0-10.917969 3.011719-3.011719 7.902344-3.011719 10.914063 0l20.675781 20.679688c3.015625 3.011719 3.015625 7.902343 0 10.914062-1.503906 1.507813-3.480468 2.261719-5.457031 2.261719zm0 0"/></g></svg>