<svg height="512pt" viewBox="-2 0 512 512.00004" width="512pt" xmlns="http://www.w3.org/2000/svg"><path d="m271.152344 169.40625v313.015625c0 16.332031-13.246094 29.578125-29.578125 29.578125h-211.996094c-16.34375 0-29.578125-13.246094-29.578125-29.578125v-313.015625c0-16.347656 13.234375-29.582031 29.578125-29.582031h211.996094c16.332031 0 29.578125 13.234375 29.578125 29.582031zm0 0" fill="#2c92bf"/><path d="m271.152344 169.40625v194.777344h-35.464844c-16.832031 0-30.472656-13.652344-30.472656-30.480469v-193.878906h36.359375c16.332031 0 29.578125 13.234375 29.578125 29.582031zm0 0" fill="#1f81a3"/><path d="m31.09375 170.917969h208.964844v76.882812h-208.964844zm0 0" fill="#c4e2f2"/><path d="m205.214844 170.917969h34.84375v76.882812h-34.84375zm0 0" fill="#83b2c6"/><g fill="#e5e5e5"><path d="m38.867188 288.347656h52.648437v53.199219h-52.648437zm0 0"/><path d="m179.628906 420.773438h52.65625v53.199218h-52.65625zm0 0"/><path d="m107.0625 420.773438h57.019531v53.199218h-57.019531zm0 0"/><path d="m240.058594 280.574219v73.710937c-4.289063 0-7.773438 3.480469-7.773438 7.773438v43.167968h-52.660156v-48.132812h45.449219c4.289062 0 7.773437-3.484375 7.773437-7.773438 0-4.292968-3.484375-7.773437-7.773437-7.773437h-45.449219v-53.199219h41.136719c4.289062 0 7.773437-3.484375 7.773437-7.773437zm0 0"/><path d="m107.0625 357.09375h57.019531v48.132812h-57.019531zm0 0"/><path d="m107.0625 288.347656h57.019531v53.199219h-57.019531zm0 0"/><path d="m38.867188 420.773438h52.648437v53.199218h-52.648437zm0 0"/><path d="m38.867188 357.09375h52.648437v48.132812h-52.648437zm0 0"/></g><path d="m240.058594 280.574219v73.710937c-4.289063 0-7.773438 3.480469-7.773438 7.773438v1.9375c-6.101562-.675782-11.660156-3.160156-16.125-6.902344h8.914063c4.289062 0 7.773437-3.484375 7.773437-7.773438 0-4.292968-3.484375-7.773437-7.773437-7.773437h-18.832031c-.675782-2.5-1.027344-5.132813-1.027344-7.847656v-45.351563h15.546875c4.289062 0 7.773437-3.484375 7.773437-7.773437zm0 0" fill="#cbcbcb"/><path d="m251.238281 364.179688h226.136719c16.832031 0 30.476562-13.644532 30.476562-30.476563v-276.167969c0-16.832031-13.644531-30.476562-30.476562-30.476562h-226.136719c-16.832031 0-30.476562 13.644531-30.476562 30.476562v276.167969c0 16.832031 13.644531 30.476563 30.476562 30.476563zm0 0" fill="#ff8e1d"/><path d="m251.855469 58.152344h224.902343v274.933594h-224.902343zm0 0" fill="#e5e5e5"/><path d="m408.839844 94.59375h-77.664063c-12.59375 0-22.835937-10.242188-22.835937-22.835938v-48.921874c0-12.589844 10.242187-22.835938 22.835937-22.835938h77.667969c12.589844 0 22.832031 10.246094 22.832031 22.835938v48.925781c0 12.589843-10.242187 22.832031-22.835937 22.832031zm-77.664063-79.046875c-4.019531 0-7.289062 3.269531-7.289062 7.289063v48.925781c0 4.015625 3.269531 7.289062 7.289062 7.289062h77.667969c4.019531 0 7.285156-3.273437 7.285156-7.289062v-48.925781c0-4.019532-3.265625-7.289063-7.285156-7.289063zm0 0" fill="#ffe14d"/><path d="m309.394531 195.0625c-2.816406 0-5.417969-1.527344-6.792969-4l-20.730468-37.3125c-2.082032-3.75-.730469-8.484375 3.019531-10.566406 3.757813-2.085938 8.488281-.734375 10.574219 3.019531l13.472656 24.25 29.742188-61.1875c1.875-3.859375 6.523437-5.46875 10.390624-3.589844 3.859376 1.875 5.46875 6.527344 3.589844 10.386719l-36.273437 74.625c-1.269531 2.605469-3.878907 4.292969-6.777344 4.371094-.070313.003906-.140625.003906-.214844.003906zm0 0" fill="#32cc77"/><path d="m442.558594 176.992188h-68.402344c-4.296875 0-7.773438-3.480469-7.773438-7.773438s3.476563-7.773438 7.773438-7.773438h68.402344c4.296875 0 7.773437 3.480469 7.773437 7.773438s-3.480469 7.773438-7.773437 7.773438zm0 0" fill="#3c3f4d"/><path d="m442.558594 143.824219h-68.402344c-4.296875 0-7.773438-3.480469-7.773438-7.773438s3.476563-7.773437 7.773438-7.773437h68.402344c4.296875 0 7.773437 3.480468 7.773437 7.773437s-3.480469 7.773438-7.773437 7.773438zm0 0" fill="#3c3f4d"/><path d="m309.394531 292.96875c-2.816406 0-5.417969-1.527344-6.792969-4l-20.730468-37.3125c-2.082032-3.75-.730469-8.484375 3.019531-10.566406 3.757813-2.085938 8.488281-.734375 10.574219 3.019531l13.472656 24.25 29.742188-61.1875c1.875-3.859375 6.523437-5.46875 10.390624-3.589844 3.859376 1.875 5.46875 6.527344 3.589844 10.386719l-36.273437 74.625c-1.269531 2.605469-3.878907 4.292969-6.777344 4.371094-.070313.003906-.140625.003906-.214844.003906zm0 0" fill="#32cc77"/><path d="m442.558594 274.898438h-68.402344c-4.296875 0-7.773438-3.480469-7.773438-7.773438s3.476563-7.773438 7.773438-7.773438h68.402344c4.296875 0 7.773437 3.480469 7.773437 7.773438s-3.480469 7.773438-7.773437 7.773438zm0 0" fill="#3c3f4d"/><path d="m442.558594 241.730469h-68.402344c-4.296875 0-7.773438-3.480469-7.773438-7.773438s3.476563-7.773437 7.773438-7.773437h68.402344c4.296875 0 7.773437 3.480468 7.773437 7.773437s-3.480469 7.773438-7.773437 7.773438zm0 0" fill="#3c3f4d"/></svg>