<svg height="512pt" viewBox="0 0 512.00001 512" width="512pt" xmlns="http://www.w3.org/2000/svg"><path d="m443.277344 142.5v238.816406c0 21.242188-17.21875 38.457032-38.460938 38.457032h-366.355468c-21.242188 0-38.460938-17.214844-38.460938-38.457032v-238.816406c0-21.015625 17.035156-38.058594 38.046875-38.058594h367.183594c21.011719 0 38.046875 17.042969 38.046875 38.058594zm0 0" fill="#2c92bf"/><path d="m311.050781 471.09375-89.410156 20.371094-89.414063-20.371094 12.246094-51.3125 73.371094-26.976562 80.957031 26.976562 3.960938 16.609375zm0 0" fill="#2d303b"/><path d="m443.28125 376.789062v4.523438c0 21.242188-17.222656 38.46875-38.464844 38.46875h-366.359375c-21.242187 0-38.457031-17.226562-38.457031-38.46875v-4.519531h443.28125zm0 0" fill="#3c3f4d"/><path d="m311.050781 471.09375h-136.757812l8.285156-34.703125h120.183594zm0 0" fill="#3c3f4d"/><path d="m443.277344 142.5v125.96875h-102.074219c-14.480469 0-26.253906-11.773438-26.253906-26.253906v-137.773438h90.277343c21.015626 0 38.050782 17.042969 38.050782 38.058594zm0 0" fill="#1f81a3"/><path d="m363.746094 499.660156v12.1875h-284.207032v-12.1875c0-15.777344 12.792969-28.566406 28.566407-28.566406h227.070312c15.777344 0 28.570313 12.789062 28.570313 28.566406zm0 0" fill="#2d303b"/><path d="m363.746094 499.660156v12.1875h-235.367188v-12.1875c0-15.777344 12.792969-28.566406 28.578125-28.566406h178.21875c15.777344 0 28.570313 12.789062 28.570313 28.566406zm0 0" fill="#3c3f4d"/><path d="m485.738281 260.75h-120.90625c-10.242187 0-18.542969-8.300781-18.542969-18.539062v-215.949219c0-10.242188 8.300782-18.542969 18.542969-18.542969h120.90625c10.242188 0 18.542969 8.300781 18.542969 18.542969v215.949219c0 10.238281-8.300781 18.539062-18.542969 18.539062zm0 0" fill="#3c3f4d"/><path d="m346.289062 46.246094h157.992188v175.976562h-157.992188zm0 0" fill="#2c92bf"/><g fill="#e5e5e5"><path d="m420.4375 96.101562h-44.765625c-4.261719 0-7.71875-3.457031-7.71875-7.71875 0-4.261718 3.457031-7.71875 7.71875-7.71875h44.765625c4.265625 0 7.71875 3.457032 7.71875 7.71875 0 4.261719-3.453125 7.71875-7.71875 7.71875zm0 0"/><path d="m451.3125 131.894531h-75.640625c-4.261719 0-7.71875-3.457031-7.71875-7.71875 0-4.265625 3.457031-7.71875 7.71875-7.71875h75.640625c4.261719 0 7.71875 3.453125 7.71875 7.71875 0 4.261719-3.457031 7.71875-7.71875 7.71875zm0 0"/><path d="m474.464844 167.683594h-98.792969c-4.261719 0-7.71875-3.453125-7.71875-7.71875 0-4.261719 3.457031-7.71875 7.71875-7.71875h98.792969c4.265625 0 7.71875 3.457031 7.71875 7.71875 0 4.265625-3.453125 7.71875-7.71875 7.71875zm0 0"/><path d="m86.550781 164.046875h-44.765625c-4.261718 0-7.71875-3.453125-7.71875-7.71875 0-4.261719 3.457032-7.71875 7.71875-7.71875h44.765625c4.265625 0 7.71875 3.457031 7.71875 7.71875 0 4.265625-3.453125 7.71875-7.71875 7.71875zm0 0"/><path d="m117.425781 199.839844h-75.640625c-4.261718 0-7.71875-3.457032-7.71875-7.71875 0-4.261719 3.457032-7.71875 7.71875-7.71875h75.640625c4.261719 0 7.71875 3.457031 7.71875 7.71875 0 4.261718-3.457031 7.71875-7.71875 7.71875zm0 0"/><path d="m140.578125 235.632812h-98.792969c-4.261718 0-7.71875-3.457031-7.71875-7.71875 0-4.265624 3.457032-7.71875 7.71875-7.71875h98.792969c4.265625 0 7.71875 3.453126 7.71875 7.71875 0 4.261719-3.453125 7.71875-7.71875 7.71875zm0 0"/><path d="m202.527344 230.335938 38.589844 121.949218 18.523437-57.117187 57.117187-12.347657zm0 0"/></g><path d="m202.527344 230.335938 38.589844 121.949218 18.523437-57.117187zm0 0" fill="#cbcbcb"/><path d="m485.738281 268.46875h-120.90625c-14.480469 0-26.261719-11.777344-26.261719-26.257812v-215.949219c0-14.480469 11.78125-26.261719 26.261719-26.261719h120.90625c14.480469 0 26.261719 11.78125 26.261719 26.261719v215.949219c0 14.480468-11.78125 26.257812-26.261719 26.257812zm-120.90625-253.03125c-5.96875 0-10.824219 4.855469-10.824219 10.824219v215.949219c0 5.96875 4.855469 10.820312 10.824219 10.820312h120.90625c5.96875 0 10.824219-4.851562 10.824219-10.820312v-215.949219c0-5.96875-4.855469-10.824219-10.824219-10.824219zm0 0" fill="#3c3f4d"/></svg>