<?xml version="1.0" encoding="UTF-8" standalone="no"?>
<!-- Created with Inkscape (http://www.inkscape.org/) -->

<svg
   xmlns:dc="http://purl.org/dc/elements/1.1/"
   xmlns:cc="http://creativecommons.org/ns#"
   xmlns:rdf="http://www.w3.org/1999/02/22-rdf-syntax-ns#"
   xmlns:svg="http://www.w3.org/2000/svg"
   xmlns="http://www.w3.org/2000/svg"
   xmlns:sodipodi="http://sodipodi.sourceforge.net/DTD/sodipodi-0.dtd"
   xmlns:inkscape="http://www.inkscape.org/namespaces/inkscape"
   width="210mm"
   height="297mm"
   viewBox="0 0 210 297"
   version="1.1"
   id="svg8"
   inkscape:version="0.92.3 (2405546, 2018-03-11)"
   sodipodi:docname="warrior-war.svg">
  <defs
     id="defs2" />
  <sodipodi:namedview
     id="base"
     pagecolor="#ffffff"
     bordercolor="#666666"
     borderopacity="1.0"
     inkscape:pageopacity="0.0"
     inkscape:pageshadow="2"
     inkscape:zoom="0.7"
     inkscape:cx="387.13428"
     inkscape:cy="713.41326"
     inkscape:document-units="mm"
     inkscape:current-layer="layer1"
     showgrid="false"
     inkscape:window-width="1366"
     inkscape:window-height="740"
     inkscape:window-x="1366"
     inkscape:window-y="0"
     inkscape:window-maximized="1" />
  <metadata
     id="metadata5">
    <rdf:RDF>
      <cc:Work
         rdf:about="">
        <dc:format>image/svg+xml</dc:format>
        <dc:type
           rdf:resource="http://purl.org/dc/dcmitype/StillImage" />
        <dc:title></dc:title>
      </cc:Work>
    </rdf:RDF>
  </metadata>
  <g
     inkscape:label="Layer 1"
     inkscape:groupmode="layer"
     id="layer1">
    <path
       style="fill:#111111;fill-opacity:1;stroke-width:3.77952766"
       d="M -10.273438 161.28516 C -10.332919 161.28121 -10.32719 161.40183 -10.248047 161.66016 C -9.9314774 162.69348 -9.1760923 165.51225 -8.5683594 167.92578 C -7.9606227 170.33931 -7.0682921 172.55922 -6.5859375 172.85742 C -5.1807318 173.72588 -5.5738869 178.64327 -7.2382812 181.01953 C -8.1900003 182.37827 -8.526523 184.15793 -8.1308594 185.73438 C -7.313495 188.99104 -5.7089844 188.02835 -5.7089844 184.28125 C -5.7089844 179.20788 -4.0283746 180.14082 -1.7089844 186.50195 C 0.67126759 193.03003 0.5939463 195.12659 -2.6875 212.78125 C -3.1986395 215.53127 -4.3245838 222.00618 -5.1894531 227.16992 C -6.0543186 232.33363 -7.0021219 236.94612 -7.2949219 237.41992 C -8.2016457 238.88702 -9.7089844 238.36857 -9.7089844 236.58984 C -9.7089844 235.11503 -9.8974761 235.14718 -11.177734 236.83984 C -12.849249 239.04977 -12.79283 239.13162 -13.263672 233.78125 C -13.508419 231.00012 -14.409396 229.09563 -16.21875 227.53125 C -19.625745 224.58534 -21.533439 224.68817 -22.748047 227.88281 C -23.415508 229.63837 -24.238782 230.29189 -25.279297 229.89258 C -27.464344 229.05413 -33.153443 231.64998 -35.042969 234.34766 C -36.62006 236.59927 -36.63313 236.58565 -36.152344 233.20312 C -34.059971 218.48243 -28.446756 172.59886 -28.148438 167.78125 L -27.775391 161.78125 L -29.166016 165.78125 C -29.930289 167.98124 -30.590557 171.3649 -30.632812 173.30273 C -30.675083 175.24057 -32.26218 188.51555 -34.160156 202.80273 C -36.058129 217.08992 -37.745633 230.13122 -37.910156 231.78125 C -38.133129 234.01737 -38.781872 234.8615 -40.458984 235.09961 C -41.811991 235.2918 -42.715539 234.89312 -42.724609 234.09961 C -42.733034 233.37386 -43.144034 232.14087 -43.638672 231.35938 C -44.400787 230.15526 -44.970348 230.21406 -47.373047 231.74609 C -48.932488 232.74041 -51.120314 234.65616 -52.234375 236.00391 C -53.974186 238.10869 -54.785375 238.35601 -57.984375 237.75586 C -60.674862 237.25114 -61.708984 236.54869 -61.708984 235.22461 C -61.708984 234.21646 -62.834702 232.12912 -64.210938 230.58594 C -66.626256 227.87764 -66.76488 227.8458 -68.175781 229.67188 C -68.979709 230.71238 -69.812251 232.06239 -70.027344 232.67188 C -70.540675 234.12658 -74.632732 229.26084 -74.675781 227.14453 C -74.741398 223.91946 -71.37768 215.28125 -70.056641 215.28125 C -67.980969 215.28125 -68.437516 214.03128 -71.601562 211.04492 C -74.797437 208.02856 -75.985936 208.55321 -77.236328 213.53516 C -78.019076 216.65387 -77.043276 217.11992 -75.150391 214.53125 C -74.447225 213.56951 -73.645689 213.01045 -73.369141 213.28711 C -72.8116 213.84463 -77.104849 229.28358 -78.587891 232.05469 C -79.597089 233.94037 -77.611239 237.84755 -76.306641 236.54297 C -75.516481 235.75282 -73.748042 238.11864 -73.724609 239.99805 C -73.71595 240.68694 -74.378966 240.96106 -75.25 240.62695 C -76.097491 240.30157 -76.693879 240.42824 -76.574219 240.9082 C -76.281993 242.08046 -78.468827 249.40561 -79.667969 251.27148 C -80.431426 252.45962 -80.878335 252.51032 -81.867188 251.52148 C -82.85604 250.53268 -82.830616 250.28125 -81.742188 250.28125 C -80.990519 250.28125 -80.69493 249.96134 -81.085938 249.57031 C -81.476941 249.17932 -82.892807 250.19183 -84.230469 251.82031 C -86.282552 254.31858 -86.823224 254.54686 -87.695312 253.28125 C -88.263772 252.45625 -88.490167 250.76874 -88.199219 249.53125 C -87.552715 246.78149 -90.114334 246.39536 -91.583984 249.02148 C -93.200311 251.90969 -94.07201 249.58483 -92.693359 246.0625 C -89.813745 238.70535 -88.208786 235.713 -86.457031 234.43945 C -85.092017 233.4471 -84.893492 232.76374 -85.689453 231.80469 C -86.48357 230.84782 -85.562623 227.41031 -82.167969 218.64453 C -79.640852 212.11887 -75.726957 201.83125 -73.46875 195.78125 C -71.210547 189.73125 -68.816333 183.88128 -68.148438 182.78125 C -67.480546 181.68126 -66.636952 178.98128 -66.273438 176.78125 L -65.611328 172.78125 L -67.8125 176.28125 C -69.022406 178.20624 -70.34736 181.13126 -70.757812 182.78125 C -72.923795 191.48841 -88.924044 230.71646 -91.666016 234.04297 L -94.708984 237.73633 L -94.708984 365.37695 L 865.29102 365.37695 L 865.29102 300.51562 L 863.04102 299.99805 C 856.96463 298.59686 846.42702 295.23431 843.77148 293.84961 C 842.132 292.99476 840.34101 292.29284 839.79102 292.28906 C 839.24102 292.28536 833.93406 290.70785 827.99805 288.7832 C 816.49494 285.05353 810.27183 284.39715 808.35156 286.71094 C 807.67348 287.528 804.30774 288.42679 800.47852 288.81445 C 796.80005 289.18685 792.66601 290.22508 791.29102 291.12109 C 785.74637 294.73425 781.54029 296.06649 777.17188 295.59375 C 773.03367 295.14588 772.54227 295.37384 768.33203 299.70117 C 764.15698 303.99233 763.54105 304.2832 758.64062 304.2832 C 755.76259 304.2832 753.15235 304.70015 752.83789 305.20898 C 752.52343 305.71778 749.3403 306.1146 745.76562 306.0957 C 742.19099 306.0751 738.71014 306.51117 738.0293 307.06445 C 737.19088 307.74579 730.82079 307.45282 718.29102 306.15625 C 701.31833 304.39994 699.00672 303.91921 690.29102 300.32812 C 685.06601 298.17531 678.76604 296.16073 676.29102 295.85156 C 673.81603 295.54243 669.091 294.81189 665.79102 294.22852 C 662.491 293.64511 658.44101 293.0413 656.79102 292.88672 C 655.14103 292.7321 652.66601 292.34804 651.29102 292.0332 C 649.91602 291.71826 645.64103 290.94088 641.79102 290.30664 C 634.7501 289.14667 614.86278 282.83245 612.54688 281.02148 C 611.35322 280.08809 608.29398 279.62766 601.72656 279.39258 C 599.33393 279.30701 598.292 278.57044 596.98047 276.0332 C 593.52061 269.33989 591.4066 266.08742 589.70312 264.8418 C 586.9525 262.83052 586.87445 262.15088 587.37891 244.49414 C 587.62167 235.99663 586.46298 233.2122 581.74609 230.96289 C 577.57406 228.97339 574.50129 224.6725 576.10547 223.06836 C 576.9209 222.25293 576.50176 221.58669 574.53516 220.56641 C 569.0771 217.73475 564.932 221.57735 567.15039 227.41211 C 567.94772 229.50926 567.75834 230.21481 566.0918 231.37305 C 564.97653 232.14815 561.21112 234.92072 557.72266 237.5332 C 554.23419 240.14569 550.83378 242.2832 550.16602 242.2832 C 549.49825 242.2832 542.39016 238.51454 534.37109 233.9082 C 517.83702 224.41074 515.29102 223.03889 515.29102 223.63477 C 515.29102 223.86736 522.69341 228.63108 531.74023 234.2207 C 541.31896 240.13899 548.44809 245.20245 548.81055 246.34375 C 549.24255 247.70491 550.25052 248.25994 552.11133 248.16016 C 553.58493 248.08105 555.57852 248.34869 556.54102 248.75586 C 557.53458 249.17618 558.29102 249.06382 558.29102 248.49609 C 558.29102 247.9461 557.61601 247.2386 556.79102 246.92188 C 554.82079 246.16586 554.85848 244.2832 556.84375 244.2832 C 557.69792 244.2832 560.04579 243.16206 562.06055 241.79297 C 565.33044 239.57102 565.82037 239.47989 566.63281 240.93164 C 567.93732 243.26266 566.80384 253.44011 564.85742 256.87109 C 563.94879 258.47278 562.10452 261.30345 560.75977 263.16211 C 559.41505 265.02077 557.7624 269.22087 557.08594 272.49609 L 555.85547 278.45117 L 551.82227 277.80664 C 542.39061 276.30012 534.22724 276.14268 531.35938 277.41211 C 529.75103 278.12402 528.65428 279.06277 528.92188 279.49609 C 529.18965 279.92938 526.97896 280.2832 524.00977 280.2832 C 519.17492 280.2832 518.48808 280.55283 517.43359 282.86719 C 516.2915 285.37381 516.0545 285.43183 509.52344 284.83398 C 502.12966 284.15715 492.29102 281.66377 492.29102 280.4668 C 492.29102 280.04901 490.4932 279.63651 488.29688 279.54883 C 485.26006 279.42769 484.05402 279.8555 483.26172 281.33594 C 482.6887 282.40664 481.58301 283.2832 480.80469 283.2832 C 480.02637 283.2832 479.02967 283.84571 478.58984 284.5332 C 478.15002 285.2207 476.15416 286.61354 474.1543 287.62891 C 471.37306 289.04101 470.05367 289.22661 468.53906 288.41602 C 466.3252 287.23117 462.36288 288.18484 456.03516 291.42578 C 453.19771 292.87905 451.80959 293.09673 450.35156 292.31641 C 447.67645 290.88472 444.12389 291.02582 440.69336 292.70117 C 439.0964 293.48112 434.866 294.25236 431.29102 294.41602 C 425.61742 294.67567 420.92763 296.23231 419.29102 298.39844 C 418.21805 299.81841 411.57614 301.02341 409.92188 300.09766 C 408.99861 299.58096 403.41712 299.11592 397.51758 299.06641 C 391.618 299.01689 385.77851 298.60656 384.54102 298.1543 C 383.28315 297.69463 381.18347 297.75325 379.7793 298.28711 C 378.12575 298.91561 375.6198 298.86123 372.44727 298.12891 C 368.58081 297.23645 366.45823 297.32207 361.70898 298.56055 C 355.38969 300.2085 347.75982 302.72263 342.66797 304.83398 C 340.51579 305.72637 338.35858 305.86269 335.72852 305.26953 C 333.6294 304.79607 328.05976 304.31695 323.35156 304.20508 C 315.43818 304.0169 314.21214 304.26951 307.13086 307.54492 C 299.65586 311.00251 299.22076 311.07925 289.13086 310.7168 C 283.44399 310.51255 276.091 309.87175 272.79102 309.29492 C 269.491 308.71809 266.11605 308.22568 265.29102 308.19922 C 264.46602 308.1731 260.41599 307.54432 256.29102 306.80273 C 252.166 306.06115 246.6535 305.16463 244.04102 304.80859 C 241.41647 304.45082 239.28295 303.62751 239.27539 302.9707 C 239.26549 302.20338 238.99968 302.14516 238.52539 302.80469 C 237.50394 304.22503 231.63162 304.64407 230.83398 303.35352 C 229.78377 301.65416 226.29102 300.03542 226.29102 301.24805 C 226.29102 301.81739 226.93989 302.2832 227.73242 302.2832 C 228.52499 302.2832 229.48754 302.79408 229.87305 303.41797 C 230.35822 304.20283 229.61454 304.41047 227.45703 304.09375 C 225.74234 303.84203 224.17694 303.89377 223.97852 304.20898 C 223.78009 304.52423 223.73774 304.26457 223.88477 303.63086 C 224.37217 301.52884 223.1047 301.37766 221.04883 303.29297 C 219.93307 304.33245 217.61943 305.4818 215.90625 305.84766 C 214.1931 306.21351 212.26742 306.93404 211.62891 307.44727 C 210.8891 308.04197 210.20894 307.95818 209.75195 307.21875 C 209.35752 306.58058 209.65092 305.67849 210.4043 305.21289 C 211.51911 304.52392 211.53459 304.12639 210.49023 303.08203 C 209.44584 302.03752 209.03114 302.07707 208.26367 303.29102 C 207.74501 304.1114 207.3142 305.57071 207.30664 306.5332 C 207.29821 307.4957 206.42729 309.14496 205.37305 310.19922 C 203.63592 311.93637 202.76882 312.02602 196.12305 311.14648 C 192.0898 310.61274 185.00554 309.99498 180.37891 309.77539 C 175.75228 309.55565 171.70228 309.01409 171.37891 308.57227 C 171.05553 308.13048 168.54102 307.6416 165.79102 307.48438 C 163.04102 307.32737 160.63478 306.75238 160.44531 306.20703 C 160.25583 305.66165 158.11833 303.35698 155.69531 301.08594 C 151.74347 297.382 150.35762 294.54864 151.79492 293.11133 C 152.07259 292.83365 155.03058 293.02041 158.36719 293.52539 C 163.13777 294.24743 165.251 294.11481 168.26172 292.91016 C 171.76216 291.50943 174.10256 291.48024 179.82812 292.75977 C 180.94911 293.01027 184.07185 292.55094 186.76562 291.74023 C 189.45942 290.92949 191.91634 290.64056 192.22656 291.09766 C 192.53678 291.55475 193.6148 292.23281 194.62305 292.60547 C 196.59269 293.33352 196.3378 295.9651 194.3418 295.50781 C 193.6822 295.35667 193.41782 295.68154 193.75586 296.22852 C 194.09392 296.77549 192.77726 297.88759 190.83008 298.70117 C 188.40789 299.71325 187.29102 300.82916 187.29102 302.23242 C 187.29102 304.46726 188.45473 304.8009 191.17383 303.3457 C 192.70107 302.52834 192.86865 302.80158 192.47461 305.48633 C 192.16232 307.61432 192.37251 308.34962 193.15625 307.86523 C 193.78014 307.47965 194.29102 306.37593 194.29102 305.41211 C 194.29102 303.40314 197.777 299.31758 199.58008 299.21289 C 200.24615 299.17423 199.92419 298.8016 198.86523 298.38672 C 197.00242 297.65693 197.0124 297.56181 199.15234 295.42188 C 201.27246 293.29997 203.29102 293.28901 203.29102 295.39844 C 203.29102 295.94859 202.87136 296.14057 202.35938 295.82422 C 201.84738 295.50772 201.21187 295.59924 200.94727 296.02734 C 200.68268 296.45545 202.43267 296.82107 204.83594 296.84375 C 208.04847 296.87266 208.95029 296.57627 208.24023 295.7207 C 207.70906 295.08068 207.05873 292.01873 206.79492 288.91797 C 206.40865 284.37879 206.60478 283.28125 207.80273 283.28125 C 209.64688 283.28125 209.67062 281.36477 207.85547 278.9707 C 206.88307 277.68816 206.27096 277.50174 205.75781 278.33203 C 205.35954 278.97644 205.53183 279.81144 206.14062 280.1875 C 206.87794 280.6432 206.6148 281.41447 205.35156 282.49609 C 203.59383 284.00106 203.33313 283.98434 201.78125 282.26953 C 200.19681 280.51874 200.22165 280.45037 202.26367 280.98438 C 204.17432 281.48403 204.07022 281.16407 201.35156 278.1875 C 198.05364 274.57677 197.61287 270.00686 200.25586 266.82227 C 201.37025 265.47951 201.334 265.32642 200.02148 265.83008 C 197.89843 266.64476 197.22548 264.03404 197.48438 255.99805 C 197.6021 252.34434 197.38128 249.03753 196.99414 248.65039 C 196.01062 247.66688 196.11584 246.28125 197.17383 246.28125 C 197.65968 246.28125 198.28421 247.15241 198.5625 248.2168 C 198.93529 249.64232 199.64675 250.00094 201.26367 249.57812 C 202.91812 249.14548 203.13085 248.79577 202.125 248.1582 C 201.21529 247.58152 201.17057 247.30821 201.98242 247.29688 C 202.63746 247.28845 203.45108 247.73125 203.79102 248.28125 C 204.9343 250.13114 208.10832 249.30159 210.04102 246.64844 L 211.95898 244.01562 L 207.60352 240.00195 C 205.20852 237.79433 203.40314 235.83515 203.58984 235.64844 C 203.77654 235.46177 211.77234 234.39573 221.35938 233.2793 C 247.92715 230.18541 257.0568 228.84803 254.0918 228.48633 C 252.60799 228.30529 241.51206 229.30997 229.43359 230.71875 C 200.50986 234.09224 201.28231 234.12135 197.12305 229.51758 C 194.06313 226.13059 193.48988 225.87238 191.37305 226.92773 C 190.07953 227.57264 188.74444 228.48751 188.40625 228.96094 C 188.06805 229.43436 186.55352 230.36478 185.04102 231.0293 C 183.52852 231.69381 182.29102 232.93281 182.29102 233.7832 C 182.29102 235.89528 177.74905 237.45675 173.77344 236.71094 C 171.97422 236.37339 169.55415 236.60503 168.39648 237.22461 C 166.52236 238.22758 166.10883 237.96587 164.61719 234.83789 C 163.03861 231.52748 163.04198 231.21268 164.70508 229.375 C 165.78843 228.17783 166.23061 226.66556 165.84766 225.45898 C 165.31813 223.79055 166.85427 222.58569 176.00781 217.49414 C 181.93886 214.19503 188.36602 210.80197 190.29102 209.95312 C 192.21602 209.10432 194.91602 207.45316 196.29102 206.2832 L 198.79102 204.15625 L 196.29102 204.82617 C 193.32982 205.62089 192.43843 206.08074 179.63672 213.44141 C 165.04174 221.83309 164.69746 221.95778 162.23633 219.73047 C 159.48858 217.2438 157.20473 218.68505 155.48828 223.98633 C 154.61592 226.6806 153.29582 228.40516 151.48828 229.21484 C 150.00442 229.87951 144.06601 233.04572 138.29102 236.25 C 127.6143 242.17414 120.77281 245.00266 124.6543 241.88867 C 126.41825 240.4735 126.43268 240.14493 124.92188 235.71094 C 122.08076 227.37277 118.26829 226.15653 115.73828 232.78125 C 114.79307 235.25624 113.62839 237.28125 113.15039 237.28125 C 112.67239 237.28125 110.0923 239.51486 107.41797 242.24609 C 104.7436 244.97733 102.34882 247.00518 102.0957 246.75195 C 101.8427 246.49884 101.8257 244.99308 102.05859 243.40625 C 102.38737 241.16609 106.71317 236.66121 121.40625 223.25391 C 131.81428 213.75667 140.117 205.77333 139.85742 205.51367 C 139.34882 205.0051 137.58229 206.5325 114.18164 227.70508 C 105.71687 235.36387 98.640376 242.00142 98.457031 242.45508 C 98.273694 242.90889 97.373691 243.24464 96.457031 243.20117 C 95.41768 243.15192 95.261503 242.9336 96.041016 242.61914 C 97.758395 241.92616 97.529664 238.46341 95.490234 234.29297 C 93.342355 229.90082 90.84989 229.38613 87.78125 232.69727 C 85.869969 234.75956 84.451459 235.28125 80.755859 235.28125 C 78.20876 235.28125 76.273686 234.87627 76.457031 234.38281 C 76.640361 233.88932 87.253517 223.47637 100.04102 211.24219 C 112.82852 199.00797 123.29102 188.54953 123.29102 188.00195 C 123.29102 186.7806 118.5406 191.12016 92.134766 216.45898 C 80.773736 227.36092 71.245675 236.28125 70.962891 236.28125 C 70.680129 236.28125 70.153725 234.93743 69.792969 233.29492 C 69.43222 231.65245 67.854488 229.39285 66.285156 228.27539 C 63.155076 226.04657 63.054885 226.11016 60.177734 232.13477 C 58.576315 235.48808 58.561714 235.49495 57.941406 233.02344 C 57.573556 231.55785 56.125765 230.04169 54.421875 229.33594 C 51.923135 228.30091 51.436043 227.43454 50.845703 222.98438 C 50.469735 220.15018 49.674968 217.24413 49.080078 216.52734 C 48.029498 215.26143 50.675324 212.18907 67.541016 195.08398 C 69.603515 192.9922 71.291016 190.79893 71.291016 190.20898 C 71.291016 188.38737 66.89245 192.46631 56.78125 203.66406 C 50.721821 210.37465 46.555648 214.21232 45.691406 213.88086 C 44.833779 213.55174 43.691043 214.57219 42.689453 216.56445 C 41.800315 218.33301 39.229319 221.69373 36.974609 224.03125 C 31.697569 229.50204 27.503378 229.88568 24.517578 225.16992 C 23.433991 223.45851 22.273034 222.49931 21.939453 223.03906 C 21.388364 223.93073 13.852979 223.17527 12.800781 222.12305 C 12.574611 221.89688 10.128998 215.40188 7.3671875 207.68945 L 2.3457031 193.66797 L 4.1679688 182.97461 C 5.1698799 177.09332 5.6400755 172.28125 5.2128906 172.28125 C 4.7857095 172.28125 3.8886779 175.66782 3.2207031 179.80859 C 2.5527283 183.94933 1.6775891 187.54037 1.2753906 187.78906 C 0.54545047 188.24019 -2.5785212 180.35172 -4.6679688 172.78125 C -5.2751687 170.58126 -6.9094511 166.75627 -8.2988281 164.28125 C -9.3408609 162.42501 -10.094994 161.297 -10.273438 161.28516 z M 2.171875 198.31445 C 2.5119569 198.33324 4.6496948 203.88409 6.921875 210.65039 C 9.8018977 219.22686 10.777173 223.44849 10.140625 224.58594 C 9.4894653 225.7495 9.7885739 226.77685 11.183594 228.17188 C 13.043616 230.03189 15.291016 233.57641 15.291016 234.64844 C 15.291016 234.92276 14.033877 235.11025 12.498047 235.06641 C 10.962217 235.02275 8.7424638 235.5043 7.5644531 236.13477 C 5.5058427 237.2365 -4.7089844 237.7891 -4.7089844 236.79883 C -4.7089844 236.53388 -3.5546777 229.44641 -2.1425781 221.04883 C -0.7304786 212.65125 0.67993516 204.09378 0.99023438 202.03125 C 1.3005525 199.96876 1.8317931 198.29556 2.171875 198.31445 z M 40.566406 223.28125 C 41.003471 223.28125 40.879715 224.18122 40.291016 225.28125 C 39.702313 226.38124 38.783356 227.28125 38.248047 227.28125 C 37.708895 227.28125 37.831557 226.38911 38.523438 225.28125 C 39.210397 224.18122 40.129353 223.28125 40.566406 223.28125 z M 16.105469 230.35547 C 16.447398 230.29936 16.936174 230.52602 17.507812 231.09766 C 18.34638 231.93622 18.379338 232.59137 17.623047 233.34766 C 16.86676 234.10394 16.365503 233.9171 15.900391 232.70508 C 15.371973 231.32803 15.535586 230.44898 16.105469 230.35547 z M 152.78711 230.47656 C 153.38122 230.42275 152.92248 231.19515 151.90625 232.74609 C 151.01799 234.10173 150.29102 236.12675 150.29102 237.24609 C 150.29102 239.88254 149.1194 239.83533 147.43164 237.13281 C 146.43254 235.53301 145.88993 235.31158 145.30273 236.26172 C 144.86934 236.96312 143.96862 237.19792 143.30078 236.78516 C 142.5166 236.30051 143.94924 235.01663 147.34766 233.1582 C 150.54512 231.40966 152.193 230.53037 152.78711 230.47656 z M 26.791016 236.28906 L 29.291016 236.30078 C 30.666015 236.30645 32.466013 236.74811 33.291016 237.28125 C 34.239703 237.89444 34.342987 238.25429 33.572266 238.26562 C 32.902537 238.27405 32.614242 238.95708 32.929688 239.78125 C 33.692299 241.76913 33.330496 241.64933 29.791016 238.74805 L 26.791016 236.28906 z M -40.542969 237.28125 C -39.232418 237.28125 -38.672684 237.84361 -38.886719 238.94727 C -39.366677 241.4221 -41.375537 241.66343 -41.988281 239.32031 C -42.392823 237.77335 -42.043566 237.28125 -40.542969 237.28125 z M 141.24023 237.28125 C 142.89154 237.28125 142.46602 239.9996 140.70898 240.67383 C 138.8367 241.39228 134.29102 241.48639 134.29102 240.80664 C 134.29102 240.15195 139.9496 237.28125 141.24023 237.28125 z M -13.689453 240.28125 C -12.562379 240.28125 -11.708984 240.9526 -11.708984 241.83984 C -11.708984 242.69738 -11.309946 243.15122 -10.822266 242.84961 C -10.334586 242.54819 -9.4383099 242.90188 -8.8300781 243.63477 C -8.0083143 244.62489 -8.1719194 246.03221 -9.4667969 249.11328 C -11.633936 254.26984 -13.30638 254.41982 -14.09375 249.5293 C -14.425808 247.46681 -14.91623 244.54374 -15.183594 243.03125 C -15.579204 240.79332 -15.30115 240.28125 -13.689453 240.28125 z M 176.38281 241.55664 C 177.43759 241.68225 177.25668 242.45816 175.83594 243.87891 C 174.47283 245.24203 174.40083 245.7343 175.4668 246.41016 C 176.40859 247.00709 176.14165 247.25429 174.54102 247.26562 C 173.30352 247.27405 172.29102 247.75738 172.29102 248.33984 C 172.29102 248.92246 172.7356 249.12311 173.2793 248.78711 C 173.84617 248.43675 174.01336 248.83863 173.67188 249.72852 C 173.07931 251.27272 169.22159 251.87785 167.9668 250.62305 C 167.60489 250.26116 167.7106 249.47365 168.20312 248.87305 C 168.69565 248.27244 169.25513 246.68233 169.44531 245.33984 C 169.70178 243.52956 170.65873 242.67557 173.15039 242.0332 C 174.67231 241.64086 175.74994 241.48127 176.38281 241.55664 z M 580.87695 241.99805 L 582.65234 244.70898 C 584.29009 247.20869 584.30398 247.60911 582.83594 249.84961 C 581.9603 251.18601 581.07954 252.2793 580.87695 252.2793 C 579.93457 252.2793 579.43352 247.39293 580.11523 244.84375 L 580.87695 241.99805 z M -3.4296875 242.45703 C -3.2614973 242.47663 -3.1118515 242.5444 -2.9902344 242.66602 C -2.621583 243.03467 -3.308682 244.3243 -4.515625 245.53125 C -6.2792622 247.29485 -6.7089844 247.41068 -6.7089844 246.125 C -6.7089844 244.48171 -4.607019 242.31983 -3.4296875 242.45703 z M 137.33984 242.85156 C 138.52177 242.81356 139.29102 242.94408 139.29102 243.30859 C 139.29102 243.67241 138.34385 244.82728 137.18555 245.875 C 135.61858 247.2924 133.57689 247.78125 129.21289 247.78125 C 123.51361 247.78125 123.40068 247.72727 125.19141 245.93555 C 126.53449 244.5917 133.79406 242.96557 137.33984 242.85156 z M 10.472656 243.29492 C 11.920306 243.26242 12.488015 247.54186 11.148438 248.39062 C 8.8376268 249.85481 7.6281281 249.37694 7.7109375 247.03125 C 7.7859158 244.90663 8.9510827 243.32894 10.472656 243.29492 z M -85.767578 244.28125 C -86.35003 244.28125 -86.548915 244.73125 -86.208984 245.28125 C -85.869065 245.83125 -85.392923 246.28125 -85.150391 246.28125 C -84.907836 246.28125 -84.708984 245.83125 -84.708984 245.28125 C -84.708984 244.73125 -85.185119 244.28125 -85.767578 244.28125 z M -63.898438 244.50195 C -63.706192 244.48485 -63.449703 244.54848 -63.123047 244.67383 C -62.255211 245.0068 -61.356975 245.2793 -61.126953 245.2793 C -60.896924 245.2793 -60.708984 246.82814 -60.708984 248.7207 C -60.708984 250.61323 -61.162915 252.44273 -61.716797 252.78516 C -62.814255 253.46343 -63.232966 252.52748 -64.119141 247.42383 C -64.480994 245.33866 -64.475175 244.55326 -63.898438 244.50195 z M 150.86133 254.88086 C 151.13159 254.88833 151.29102 254.97191 151.29102 255.14062 C 151.29102 255.59054 150.16602 256.47116 148.79102 257.09766 C 147.41602 257.72392 146.29102 257.86984 146.29102 257.41992 C 146.29102 256.97001 147.41602 256.08939 148.79102 255.46289 C 149.65039 255.07147 150.41089 254.8684 150.86133 254.88086 z M 153.84961 255.2793 C 154.09216 255.2793 154.29102 255.73125 154.29102 256.28125 C 154.29102 256.83125 153.81488 257.2793 153.23242 257.2793 C 152.64997 257.2793 152.45108 256.83125 152.79102 256.28125 C 153.13093 255.73125 153.60708 255.2793 153.84961 255.2793 z M 208.34961 255.28125 C 207.83208 255.28125 207.1308 255.73125 206.79102 256.28125 C 206.45108 256.83125 206.87496 257.28125 207.73242 257.28125 C 208.58988 257.28125 209.29102 256.83125 209.29102 256.28125 C 209.29102 255.73125 208.86714 255.28125 208.34961 255.28125 z M 76.884766 256.63086 C 77.024838 256.66356 77.193324 256.78317 77.394531 256.98438 C 78.18531 257.77535 78.192988 258.61031 77.423828 259.93359 C 76.482994 261.55221 76.347147 261.41618 76.320312 258.83008 C 76.303679 257.21651 76.464549 256.53275 76.884766 256.63086 z M 126.34961 257.2793 C 126.93206 257.2793 127.13095 257.73122 126.79102 258.28125 C 126.4511 258.83125 125.97495 259.28125 125.73242 259.28125 C 125.48987 259.28125 125.29102 258.83125 125.29102 258.28125 C 125.29102 257.73122 125.76715 257.2793 126.34961 257.2793 z M 116.77344 257.74609 C 117.11264 257.73416 117.29102 257.88932 117.29102 258.21094 C 117.29102 258.76093 116.39102 259.69255 115.29102 260.28125 C 114.0046 260.96965 113.29102 260.99476 113.29102 260.35156 C 113.29102 259.80157 114.19101 258.86995 115.29102 258.28125 C 115.93423 257.93705 116.43424 257.75802 116.77344 257.74609 z M 200.72852 268.79297 C 200.50369 268.86177 200.24249 269.35605 200.02148 270.20117 C 199.58651 271.86435 199.71692 272.25379 200.45898 271.51172 C 201.04009 270.93062 201.31862 269.86597 201.07812 269.14453 C 200.98451 268.86367 200.86341 268.75169 200.72852 268.79297 z M 213.93555 272.33203 C 213.54636 272.39643 213.16242 272.67969 212.84375 273.19531 C 212.53285 273.69833 212.84422 274.33668 213.53516 274.61523 C 215.75015 275.50822 216.24119 275.31581 215.65234 273.78125 C 215.24775 272.72686 214.58419 272.2247 213.93555 272.33203 z M 201.85547 273.25586 C 200.94628 273.24725 200.29102 273.41715 200.29102 273.8125 C 200.29102 274.10522 201.20784 274.68323 202.32812 275.09766 C 203.4484 275.51212 205.27787 275.85156 206.39453 275.85156 C 208.29405 275.85156 208.31094 275.76924 206.66602 274.56641 C 205.59118 273.78048 203.37078 273.2702 201.85547 273.25586 z M 224.54883 274.66602 C 224.28492 274.71574 224.04867 274.86401 223.9043 275.09766 C 223.61547 275.56496 224.03318 275.94727 224.83398 275.94727 C 226.52015 275.94727 226.66777 275.6309 225.35938 274.82227 C 225.10339 274.66409 224.81273 274.61629 224.54883 274.66602 z M 211.76562 275.60547 C 211.06915 275.53243 211.33003 276.27058 212.4375 278.70117 C 213.06793 280.08478 214.0147 280.9496 214.54297 280.62305 C 215.11118 280.27185 215.00011 279.71912 214.26953 279.26758 C 213.59012 278.84782 213.31382 278.04998 213.65625 277.49609 C 213.99856 276.94224 213.60701 276.23123 212.78516 275.91602 C 212.33628 275.74377 211.99778 275.62982 211.76562 275.60547 z M 221.15234 277.30078 C 220.9345 277.3648 220.37472 278.31348 218.92969 280.78125 L 217.17188 283.78125 L 219.23047 281.41992 C 220.36312 280.12147 221.29102 278.58268 221.29102 278.00195 C 221.29102 277.54081 221.28305 277.26237 221.15234 277.30078 z M 227.66016 277.38477 C 227.43309 277.30435 227.5163 277.68345 227.85547 278.57422 C 228.231 279.56037 228.78962 280.11467 229.09766 279.80664 C 229.40554 279.49872 229.09751 278.69198 228.41406 278.01367 C 228.04372 277.64606 227.7964 277.43302 227.66016 277.38477 z M 216.6543 278.62695 C 216.50273 278.604 216.39914 278.96916 216.36914 279.69727 C 216.32571 280.75122 216.56231 281.34199 216.89453 281.00977 C 217.22675 280.67751 217.26337 279.8156 216.97461 279.09375 C 216.85492 278.7946 216.74524 278.64073 216.6543 278.62695 z M 589.14844 279.58594 C 590.80562 279.55618 592.02886 279.61909 592.3418 279.8125 C 594.09319 280.89492 593.31601 281.86868 589.54102 283.32422 C 587.47853 284.11947 585.56617 284.83917 585.29102 284.92383 C 584.30513 285.22766 575.29102 281.9143 575.29102 281.24805 C 575.29102 280.58874 584.17688 279.67522 589.14844 279.58594 z M -81.611328 285.28125 C -81.115133 285.28125 -80.821485 285.84375 -80.958984 286.53125 C -81.096484 287.21878 -80.452979 287.78541 -79.529297 287.79297 C -78.605618 287.79996 -77.518764 288.1375 -77.113281 288.54297 C -76.707795 288.9484 -76.901303 289.28125 -77.542969 289.28125 C -78.184634 289.28125 -78.708984 289.80558 -78.708984 290.44727 C -78.708984 291.08899 -78.412671 291.31716 -78.050781 290.95508 C -77.688888 290.59319 -76.778201 290.8088 -76.025391 291.43359 C -74.910536 292.35882 -75.222041 292.91457 -77.707031 294.42578 C -81.724552 296.86887 -83.849414 296.74877 -80.847656 294.24805 C -79.316914 292.97283 -78.965322 292.22755 -79.847656 292.12891 C -80.59609 292.04511 -81.658988 291.87189 -82.208984 291.74414 C -82.758985 291.61639 -83.52236 291.45998 -83.90625 291.39648 C -84.917364 291.22939 -82.685175 285.28125 -81.611328 285.28125 z M 49.884766 286.28125 C 50.658276 286.28125 51.291016 286.92814 51.291016 287.7207 C 51.291016 290.0329 49.567145 290.44578 48.998047 288.26953 C 48.661019 286.98071 48.973367 286.28125 49.884766 286.28125 z M 39.316406 289.28125 C 40.559988 289.28125 42.485311 294.04142 42.082031 296.11914 C 41.922339 296.94191 41.263361 297.78923 40.619141 298.00391 C 39.890145 298.24659 39.640609 297.66123 39.957031 296.45117 C 40.236671 295.38183 39.974863 294.20362 39.376953 293.83398 C 37.998185 292.98189 37.949336 289.28125 39.316406 289.28125 z M -66.953125 289.57812 C -66.609786 289.53334 -66.126743 289.62442 -65.458984 289.82617 C -64.221484 290.20004 -62.838751 290.84794 -62.384766 291.26758 C -61.93078 291.68726 -62.94328 292.23411 -64.634766 292.48242 C -67.145132 292.85085 -67.708984 292.58523 -67.708984 291.03906 C -67.708984 290.10219 -67.525356 289.65276 -66.953125 289.57812 z M 140.875 290.99219 C 141.31948 291.02236 141.9325 291.27491 142.52344 291.70703 C 143.93797 292.74134 144.07024 293.56448 143.27148 296.34961 C 142.73758 298.21125 142.54449 300.50626 142.84375 301.44922 C 143.22648 302.65508 142.85507 303.13015 141.58984 303.05078 C 140.60048 302.98865 138.89102 303.19537 137.79102 303.51172 C 134.89841 304.34329 132.64882 301.45463 133.32031 297.77148 C 133.76915 295.30954 134.30132 294.82495 136.32812 295.0332 C 138.20257 295.22577 138.43861 295.06031 137.31836 294.33789 C 136.0815 293.54026 136.16137 293.27035 137.81836 292.65625 C 138.90294 292.25426 140.0184 291.59519 140.29688 291.18945 C 140.40131 291.0373 140.60831 290.97408 140.875 290.99219 z M 22.380859 291.28125 C 24.120659 291.28125 27.221529 295.57301 27.257812 298.03125 C 27.276113 299.26874 26.953517 300.23039 26.541016 300.16992 C 19.979658 299.2114 11.291016 296.19268 11.291016 294.87109 C 11.291016 294.67437 12.157947 294.2868 13.216797 294.00977 C 14.567324 293.65657 14.982717 293.91973 14.609375 294.89258 C 14.263594 295.79369 14.785694 296.28125 16.101562 296.28125 C 19.446622 296.28125 21.291016 295.17683 21.291016 293.17383 C 21.291016 292.13268 21.781517 291.28125 22.380859 291.28125 z M 214.16797 291.73633 C 213.69606 291.66599 213.53606 291.86588 213.79883 292.29102 C 214.13483 292.8347 214.83208 293.28125 215.34961 293.28125 C 216.78806 293.28125 216.4707 292.56326 214.73828 291.89844 C 214.5158 291.81307 214.32527 291.75977 214.16797 291.73633 z M 35.259766 294.28125 C 35.792505 294.28125 35.968917 294.95625 35.652344 295.78125 C 35.335752 296.60625 35.574753 297.28125 36.183594 297.28125 C 36.791944 297.28125 37.290202 297.95717 37.291016 298.78125 C 37.289809 300.75943 35.668162 300.7051 34.898438 298.69922 C 33.994711 296.34416 34.163276 294.28125 35.259766 294.28125 z M 121.74805 296.5293 C 123.14607 296.5293 124.29102 296.9348 124.29102 297.42969 C 124.29102 297.92454 125.41602 298.75655 126.79102 299.2793 C 130.94725 300.85952 129.79899 302.96173 124.04102 304.3125 C 121.15352 304.9899 118.35895 305.79385 117.83203 306.09961 C 116.03884 307.13996 107.39591 307.25717 106.77344 306.25 C 106.43248 305.6983 105.78541 305.47416 105.33594 305.75195 C 104.88648 306.02975 104.2153 305.25083 103.8457 304.01953 C 103.19314 301.84532 103.15013 301.83704 102.33984 303.7793 C 101.57299 305.61762 101.44831 305.63776 100.79102 304.02734 C 100.39764 303.0636 100.34071 301.21604 100.66602 299.91992 C 101.22026 297.71177 101.67076 297.57779 107.8125 297.80078 C 112.17887 297.95937 114.96506 298.58038 116.1582 299.66016 C 119.38649 302.58173 123.52387 301.29926 120.75195 298.23633 C 119.33502 296.67077 119.41545 296.5293 121.74805 296.5293 z M 231.67969 297.66406 C 231.56016 297.65876 231.42851 297.69631 231.29102 297.78125 C 230.74102 298.12114 230.29102 298.82228 230.29102 299.33984 C 230.29102 299.85737 230.74102 300.28125 231.29102 300.28125 C 231.84101 300.28125 232.29102 299.57816 232.29102 298.7207 C 232.29102 298.07764 232.03828 297.67996 231.67969 297.66406 z M 94.505859 298.72852 C 97.085151 298.72178 97.291016 299.17274 97.291016 300.73438 C 97.291016 303.1041 94.777237 303.78565 92.541016 302.02148 C 91.697735 301.35636 91.291016 301.40097 91.291016 302.1582 C 91.291016 302.77555 90.792442 303.2793 90.183594 303.2793 C 89.574697 303.2793 89.335771 302.60429 89.652344 301.7793 C 90.378421 299.88727 88.912574 299.82622 87.371094 301.68359 C 86.477669 302.7601 86.507909 303.20572 87.498047 303.60352 L 87.5 303.60352 C 88.207271 303.88827 87.578256 304.15775 86.099609 304.20117 C 82.823821 304.29729 81.94439 303.13628 83.587891 300.88867 C 84.458032 299.69869 86.651957 299.10366 91.054688 298.86328 C 92.5223 298.78318 93.646096 298.73076 94.505859 298.72852 z M 136.84961 300.28125 C 136.60707 300.28125 136.13095 300.73125 135.79102 301.28125 C 135.4511 301.83125 135.64996 302.28125 136.23242 302.28125 C 136.81488 302.28125 137.29102 301.83125 137.29102 301.28125 C 137.29102 300.73125 137.09214 300.28125 136.84961 300.28125 z M 202.97656 300.3125 C 202.63216 300.21058 201.68464 300.74505 200.64844 301.78125 C 199.82343 302.60625 199.62947 303.28125 200.21875 303.28125 C 200.80804 303.28125 201.34245 304.51876 201.40625 306.03125 C 201.47733 307.7162 201.69875 308.10319 201.97852 307.0332 C 202.33085 305.68565 202.85183 305.50938 204.25391 306.25977 C 205.65749 307.01091 206.17478 306.83277 206.5293 305.47656 C 206.78181 304.51097 206.38047 303.15388 205.63867 302.46094 C 204.75692 301.63734 204.29102 301.58267 204.29102 302.30078 C 204.29102 302.90494 203.83436 303.11498 203.27539 302.76953 C 202.71641 302.42404 202.51752 301.72291 202.83398 301.21094 C 203.17268 300.66292 203.1832 300.37365 202.97656 300.3125 z M 113.75586 300.74805 C 113.59297 300.73906 113.46738 300.77087 113.39258 300.8457 C 113.09336 301.14493 113.51124 301.80669 114.32031 302.31836 C 116.69159 303.818 117.97165 303.35289 115.86328 301.75781 C 115.0684 301.15636 114.24452 300.77501 113.75586 300.74805 z M 109.29102 301.2793 C 108.74101 301.2793 108.29102 301.9543 108.29102 302.7793 C 108.29102 303.60429 108.74101 304.2793 109.29102 304.2793 C 109.84102 304.2793 110.29102 303.60429 110.29102 302.7793 C 110.29102 301.9543 109.84102 301.2793 109.29102 301.2793 z M 125.84961 301.28125 C 125.60707 301.28125 125.13095 301.73125 124.79102 302.28125 C 124.45109 302.83125 124.64996 303.28125 125.23242 303.28125 C 125.81488 303.28125 126.29102 302.83125 126.29102 302.28125 C 126.29102 301.73125 126.09214 301.28125 125.84961 301.28125 z M 133.84961 302.2793 C 134.09216 302.2793 134.29102 302.7293 134.29102 303.2793 C 134.29102 303.82933 133.81488 304.28125 133.23242 304.28125 C 132.64997 304.28125 132.45108 303.82933 132.79102 303.2793 C 133.13093 302.7293 133.60708 302.2793 133.84961 302.2793 z M 148.5 302.61719 C 148.72343 302.61865 149.23698 302.7446 150.05664 302.95117 C 151.30271 303.26521 152.56635 303.91676 152.86523 304.40039 C 153.71105 305.76892 151.88222 305.43623 149.73242 303.83008 C 148.56195 302.95559 148.12762 302.61475 148.5 302.61719 z M 163.29102 303.28125 C 162.74101 303.28125 162.29102 303.73125 162.29102 304.28125 C 162.29102 304.83125 162.74101 305.28125 163.29102 305.28125 C 163.84102 305.28125 164.29102 304.83125 164.29102 304.28125 C 164.29102 303.73125 163.84102 303.28125 163.29102 303.28125 z M 93.232422 304.28125 C 93.814881 304.28125 94.291016 304.73125 94.291016 305.28125 C 94.291016 305.83125 94.092142 306.28125 93.849609 306.28125 C 93.60707 306.28125 93.130946 305.83125 92.791016 305.28125 C 92.451096 304.73125 92.649963 304.28125 93.232422 304.28125 z M 199.84961 304.28125 C 199.60707 304.28125 199.13095 304.73125 198.79102 305.28125 C 198.4511 305.83125 198.64996 306.28125 199.23242 306.28125 C 199.81488 306.28125 200.29102 305.83125 200.29102 305.28125 C 200.29102 304.73125 200.09214 304.28125 199.84961 304.28125 z M 96.232422 305.28125 C 96.814881 305.28125 97.291016 305.73125 97.291016 306.28125 C 97.291016 306.83128 97.092142 307.28125 96.849609 307.28125 C 96.60707 307.28125 96.130946 306.83128 95.791016 306.28125 C 95.451096 305.73125 95.649963 305.28125 96.232422 305.28125 z M 196.29102 308.41016 C 195.83789 308.41016 195.38477 308.47848 195.04102 308.61719 C 194.35352 308.89442 194.91602 309.12305 196.29102 309.12305 C 197.666 309.12305 198.22852 308.8946 197.54102 308.61719 C 197.19727 308.47848 196.74414 308.41016 196.29102 308.41016 z "
       transform="scale(0.26458333)"
       id="path826" />
  </g>
</svg>
