<?xml version="1.0" encoding="UTF-8" standalone="no"?><!-- Generator: Gravit.io --><svg xmlns="http://www.w3.org/2000/svg" xmlns:xlink="http://www.w3.org/1999/xlink" style="isolation:isolate" viewBox="0 0 200 120" width="200pt" height="120pt"><defs><clipPath id="_clipPath_OWC4knOclU2MGXSWRQQafqpX9gHE4ySI"><rect width="200" height="120"/></clipPath></defs><g clip-path="url(#_clipPath_OWC4knOclU2MGXSWRQQafqpX9gHE4ySI)"><line x1="10" y1="60" x2="190" y2="60" vector-effect="non-scaling-stroke" stroke-width="2" stroke-dasharray="0,0,0,0" stroke="rgb(238,238,238)" stroke-linejoin="miter" stroke-linecap="round" stroke-miterlimit="3"/><defs><filter id="dUKuWeozGlqxqRUdSJf92iuvxfQDAq3q" x="-200%" y="-200%" width="400%" height="400%" filterUnits="objectBoundingBox" color-interpolation-filters="sRGB"><feGaussianBlur xmlns="http://www.w3.org/2000/svg" stdDeviation="0"/></filter></defs><g filter="url(#dUKuWeozGlqxqRUdSJf92iuvxfQDAq3q)"><path d=" M 40.032 70.01 L 40.032 10.01 Q 65.396 59.087 80 50 C 91.25 43 97.927 43.01 100 50" fill="none" vector-effect="non-scaling-stroke" stroke-width="2" stroke-dasharray="0,0,0,0" stroke="rgb(238,238,238)" stroke-linejoin="round" stroke-linecap="round" stroke-miterlimit="3"/></g><path d=" M 94.175 97.435 L 94.175 97.435 L 94.175 97.435 Q 94.175 100.617 92.448 102.3 L 92.448 102.3 L 92.448 102.3 Q 90.721 103.983 87.478 103.983 L 87.478 103.983 L 83.918 103.983 L 83.918 91.133 L 87.855 91.133 L 87.855 91.133 Q 90.853 91.133 92.514 92.794 L 92.514 92.794 L 92.514 92.794 Q 94.175 94.456 94.175 97.435 Z  M 92.593 97.488 L 92.593 97.488 L 92.593 97.488 Q 92.593 94.974 91.332 93.7 L 91.332 93.7 L 91.332 93.7 Q 90.07 92.425 87.583 92.425 L 87.583 92.425 L 85.412 92.425 L 85.412 102.691 L 87.231 102.691 L 87.231 102.691 Q 89.903 102.691 91.248 101.377 L 91.248 101.377 L 91.248 101.377 Q 92.593 100.063 92.593 97.488 Z  M 100.89 104.159 L 100.89 104.159 L 100.89 104.159 Q 98.754 104.159 97.519 102.858 L 97.519 102.858 L 97.519 102.858 Q 96.284 101.557 96.284 99.246 L 96.284 99.246 L 96.284 99.246 Q 96.284 96.917 97.431 95.545 L 97.431 95.545 L 97.431 95.545 Q 98.578 94.174 100.512 94.174 L 100.512 94.174 L 100.512 94.174 Q 102.322 94.174 103.377 95.365 L 103.377 95.365 L 103.377 95.365 Q 104.432 96.556 104.432 98.507 L 104.432 98.507 L 104.432 99.43 L 97.796 99.43 L 97.796 99.43 Q 97.84 101.126 98.653 102.005 L 98.653 102.005 L 98.653 102.005 Q 99.466 102.884 100.942 102.884 L 100.942 102.884 L 100.942 102.884 Q 102.498 102.884 104.019 102.234 L 104.019 102.234 L 104.019 103.535 L 104.019 103.535 Q 103.245 103.869 102.555 104.014 L 102.555 104.014 L 102.555 104.014 Q 101.865 104.159 100.89 104.159 Z  M 100.494 95.396 L 100.494 95.396 L 100.494 95.396 Q 99.334 95.396 98.644 96.152 L 98.644 96.152 L 98.644 96.152 Q 97.954 96.908 97.831 98.244 L 97.831 98.244 L 102.867 98.244 L 102.867 98.244 Q 102.867 96.864 102.252 96.13 L 102.252 96.13 L 102.252 96.13 Q 101.637 95.396 100.494 95.396 Z  M 110.733 103.983 L 109.028 103.983 L 105.372 94.35 L 106.937 94.35 L 109.011 100.063 L 109.011 100.063 Q 109.714 102.067 109.837 102.665 L 109.837 102.665 L 109.907 102.665 L 109.907 102.665 Q 110.004 102.199 110.518 100.735 L 110.518 100.735 L 110.518 100.735 Q 111.032 99.272 112.825 94.35 L 112.825 94.35 L 114.39 94.35 L 110.733 103.983 Z  M 120.006 104.159 L 120.006 104.159 L 120.006 104.159 Q 117.87 104.159 116.635 102.858 L 116.635 102.858 L 116.635 102.858 Q 115.4 101.557 115.4 99.246 L 115.4 99.246 L 115.4 99.246 Q 115.4 96.917 116.547 95.545 L 116.547 95.545 L 116.547 95.545 Q 117.694 94.174 119.628 94.174 L 119.628 94.174 L 119.628 94.174 Q 121.438 94.174 122.493 95.365 L 122.493 95.365 L 122.493 95.365 Q 123.548 96.556 123.548 98.507 L 123.548 98.507 L 123.548 99.43 L 116.912 99.43 L 116.912 99.43 Q 116.956 101.126 117.769 102.005 L 117.769 102.005 L 117.769 102.005 Q 118.582 102.884 120.059 102.884 L 120.059 102.884 L 120.059 102.884 Q 121.614 102.884 123.135 102.234 L 123.135 102.234 L 123.135 103.535 L 123.135 103.535 Q 122.361 103.869 121.671 104.014 L 121.671 104.014 L 121.671 104.014 Q 120.981 104.159 120.006 104.159 Z  M 119.61 95.396 L 119.61 95.396 L 119.61 95.396 Q 118.45 95.396 117.76 96.152 L 117.76 96.152 L 117.76 96.152 Q 117.07 96.908 116.947 98.244 L 116.947 98.244 L 121.983 98.244 L 121.983 98.244 Q 121.983 96.864 121.368 96.13 L 121.368 96.13 L 121.368 96.13 Q 120.753 95.396 119.61 95.396 Z  M 127.494 90.307 L 127.494 103.983 L 126.035 103.983 L 126.035 90.307 L 127.494 90.307 Z  M 138.902 99.158 L 138.902 99.158 L 138.902 99.158 Q 138.902 101.513 137.716 102.836 L 137.716 102.836 L 137.716 102.836 Q 136.529 104.159 134.438 104.159 L 134.438 104.159 L 134.438 104.159 Q 133.146 104.159 132.144 103.552 L 132.144 103.552 L 132.144 103.552 Q 131.142 102.946 130.597 101.812 L 130.597 101.812 L 130.597 101.812 Q 130.052 100.678 130.052 99.158 L 130.052 99.158 L 130.052 99.158 Q 130.052 96.802 131.229 95.488 L 131.229 95.488 L 131.229 95.488 Q 132.407 94.174 134.499 94.174 L 134.499 94.174 L 134.499 94.174 Q 136.521 94.174 137.711 95.519 L 137.711 95.519 L 137.711 95.519 Q 138.902 96.864 138.902 99.158 Z  M 131.563 99.158 L 131.563 99.158 L 131.563 99.158 Q 131.563 101.003 132.302 101.97 L 132.302 101.97 L 132.302 101.97 Q 133.04 102.937 134.473 102.937 L 134.473 102.937 L 134.473 102.937 Q 135.905 102.937 136.648 101.975 L 136.648 101.975 L 136.648 101.975 Q 137.391 101.012 137.391 99.158 L 137.391 99.158 L 137.391 99.158 Q 137.391 97.321 136.648 96.367 L 136.648 96.367 L 136.648 96.367 Q 135.905 95.414 134.455 95.414 L 134.455 95.414 L 134.455 95.414 Q 133.022 95.414 132.293 96.354 L 132.293 96.354 L 132.293 96.354 Q 131.563 97.294 131.563 99.158 Z  M 145.942 104.159 L 145.942 104.159 L 145.942 104.159 Q 145.002 104.159 144.224 103.812 L 144.224 103.812 L 144.224 103.812 Q 143.446 103.464 142.919 102.744 L 142.919 102.744 L 142.813 102.744 L 142.813 102.744 Q 142.919 103.587 142.919 104.343 L 142.919 104.343 L 142.919 108.307 L 141.46 108.307 L 141.46 94.35 L 142.646 94.35 L 142.849 95.668 L 142.919 95.668 L 142.919 95.668 Q 143.481 94.877 144.229 94.526 L 144.229 94.526 L 144.229 94.526 Q 144.976 94.174 145.942 94.174 L 145.942 94.174 L 145.942 94.174 Q 147.858 94.174 148.9 95.484 L 148.9 95.484 L 148.9 95.484 Q 149.941 96.793 149.941 99.158 L 149.941 99.158 L 149.941 99.158 Q 149.941 101.531 148.882 102.845 L 148.882 102.845 L 148.882 102.845 Q 147.823 104.159 145.942 104.159 Z  M 145.731 95.414 L 145.731 95.414 L 145.731 95.414 Q 144.255 95.414 143.596 96.231 L 143.596 96.231 L 143.596 96.231 Q 142.937 97.048 142.919 98.833 L 142.919 98.833 L 142.919 99.158 L 142.919 99.158 Q 142.919 101.188 143.596 102.063 L 143.596 102.063 L 143.596 102.063 Q 144.272 102.937 145.767 102.937 L 145.767 102.937 L 145.767 102.937 Q 147.015 102.937 147.722 101.926 L 147.722 101.926 L 147.722 101.926 Q 148.43 100.916 148.43 99.14 L 148.43 99.14 L 148.43 99.14 Q 148.43 97.338 147.722 96.376 L 147.722 96.376 L 147.722 96.376 Q 147.015 95.414 145.731 95.414 Z  M 166.228 103.983 L 164.769 103.983 L 164.769 97.716 L 164.769 97.716 Q 164.769 96.565 164.276 95.989 L 164.276 95.989 L 164.276 95.989 Q 163.784 95.414 162.747 95.414 L 162.747 95.414 L 162.747 95.414 Q 161.385 95.414 160.734 96.196 L 160.734 96.196 L 160.734 96.196 Q 160.084 96.978 160.084 98.604 L 160.084 98.604 L 160.084 103.983 L 158.625 103.983 L 158.625 97.716 L 158.625 97.716 Q 158.625 96.565 158.133 95.989 L 158.133 95.989 L 158.133 95.989 Q 157.641 95.414 156.595 95.414 L 156.595 95.414 L 156.595 95.414 Q 155.224 95.414 154.586 96.235 L 154.586 96.235 L 154.586 96.235 Q 153.949 97.057 153.949 98.929 L 153.949 98.929 L 153.949 103.983 L 152.49 103.983 L 152.49 94.35 L 153.677 94.35 L 153.914 95.668 L 153.984 95.668 L 153.984 95.668 Q 154.397 94.965 155.149 94.57 L 155.149 94.57 L 155.149 94.57 Q 155.9 94.174 156.832 94.174 L 156.832 94.174 L 156.832 94.174 Q 159.091 94.174 159.785 95.809 L 159.785 95.809 L 159.855 95.809 L 159.855 95.809 Q 160.286 95.053 161.104 94.614 L 161.104 94.614 L 161.104 94.614 Q 161.921 94.174 162.967 94.174 L 162.967 94.174 L 162.967 94.174 Q 164.602 94.174 165.415 95.014 L 165.415 95.014 L 165.415 95.014 Q 166.228 95.853 166.228 97.699 L 166.228 97.699 L 166.228 103.983 Z  M 173.303 104.159 L 173.303 104.159 L 173.303 104.159 Q 171.167 104.159 169.932 102.858 L 169.932 102.858 L 169.932 102.858 Q 168.697 101.557 168.697 99.246 L 168.697 99.246 L 168.697 99.246 Q 168.697 96.917 169.844 95.545 L 169.844 95.545 L 169.844 95.545 Q 170.991 94.174 172.925 94.174 L 172.925 94.174 L 172.925 94.174 Q 174.735 94.174 175.79 95.365 L 175.79 95.365 L 175.79 95.365 Q 176.845 96.556 176.845 98.507 L 176.845 98.507 L 176.845 99.43 L 170.209 99.43 L 170.209 99.43 Q 170.253 101.126 171.066 102.005 L 171.066 102.005 L 171.066 102.005 Q 171.879 102.884 173.355 102.884 L 173.355 102.884 L 173.355 102.884 Q 174.911 102.884 176.432 102.234 L 176.432 102.234 L 176.432 103.535 L 176.432 103.535 Q 175.658 103.869 174.968 104.014 L 174.968 104.014 L 174.968 104.014 Q 174.278 104.159 173.303 104.159 Z  M 172.907 95.396 L 172.907 95.396 L 172.907 95.396 Q 171.747 95.396 171.057 96.152 L 171.057 96.152 L 171.057 96.152 Q 170.367 96.908 170.244 98.244 L 170.244 98.244 L 175.28 98.244 L 175.28 98.244 Q 175.28 96.864 174.665 96.13 L 174.665 96.13 L 174.665 96.13 Q 174.05 95.396 172.907 95.396 Z  M 187.383 103.983 L 185.924 103.983 L 185.924 97.751 L 185.924 97.751 Q 185.924 96.574 185.388 95.994 L 185.388 95.994 L 185.388 95.994 Q 184.852 95.414 183.709 95.414 L 183.709 95.414 L 183.709 95.414 Q 182.197 95.414 181.494 96.231 L 181.494 96.231 L 181.494 96.231 Q 180.791 97.048 180.791 98.929 L 180.791 98.929 L 180.791 103.983 L 179.332 103.983 L 179.332 94.35 L 180.519 94.35 L 180.756 95.668 L 180.826 95.668 L 180.826 95.668 Q 181.274 94.957 182.083 94.565 L 182.083 94.565 L 182.083 94.565 Q 182.892 94.174 183.885 94.174 L 183.885 94.174 L 183.885 94.174 Q 185.625 94.174 186.504 95.014 L 186.504 95.014 L 186.504 95.014 Q 187.383 95.853 187.383 97.699 L 187.383 97.699 L 187.383 103.983 Z  M 193.491 102.955 L 193.491 102.955 L 193.491 102.955 Q 193.878 102.955 194.238 102.897 L 194.238 102.897 L 194.238 102.897 Q 194.599 102.84 194.81 102.779 L 194.81 102.779 L 194.81 103.895 L 194.81 103.895 Q 194.572 104.009 194.111 104.084 L 194.111 104.084 L 194.111 104.084 Q 193.649 104.159 193.28 104.159 L 193.28 104.159 L 193.28 104.159 Q 190.485 104.159 190.485 101.214 L 190.485 101.214 L 190.485 95.484 L 189.105 95.484 L 189.105 94.781 L 190.485 94.174 L 191.101 92.118 L 191.944 92.118 L 191.944 94.35 L 194.739 94.35 L 194.739 95.484 L 191.944 95.484 L 191.944 101.153 L 191.944 101.153 Q 191.944 102.023 192.357 102.489 L 192.357 102.489 L 192.357 102.489 Q 192.771 102.955 193.491 102.955 Z  M 11.83 100.564 L 11.83 100.564 L 11.83 100.564 Q 11.83 102.26 10.6 103.209 L 10.6 103.209 L 10.6 103.209 Q 9.369 104.159 7.26 104.159 L 7.26 104.159 L 7.26 104.159 Q 4.975 104.159 3.744 103.57 L 3.744 103.57 L 3.744 102.128 L 3.744 102.128 Q 4.535 102.462 5.467 102.656 L 5.467 102.656 L 5.467 102.656 Q 6.398 102.849 7.313 102.849 L 7.313 102.849 L 7.313 102.849 Q 8.807 102.849 9.563 102.282 L 9.563 102.282 L 9.563 102.282 Q 10.318 101.715 10.318 100.705 L 10.318 100.705 L 10.318 100.705 Q 10.318 100.037 10.05 99.61 L 10.05 99.61 L 10.05 99.61 Q 9.782 99.184 9.154 98.824 L 9.154 98.824 L 9.154 98.824 Q 8.525 98.463 7.242 98.006 L 7.242 98.006 L 7.242 98.006 Q 5.449 97.365 4.68 96.486 L 4.68 96.486 L 4.68 96.486 Q 3.911 95.607 3.911 94.192 L 3.911 94.192 L 3.911 94.192 Q 3.911 92.707 5.027 91.828 L 5.027 91.828 L 5.027 91.828 Q 6.144 90.949 7.98 90.949 L 7.98 90.949 L 7.98 90.949 Q 9.896 90.949 11.505 91.652 L 11.505 91.652 L 11.039 92.953 L 11.039 92.953 Q 9.448 92.285 7.945 92.285 L 7.945 92.285 L 7.945 92.285 Q 6.759 92.285 6.091 92.794 L 6.091 92.794 L 6.091 92.794 Q 5.423 93.304 5.423 94.209 L 5.423 94.209 L 5.423 94.209 Q 5.423 94.877 5.669 95.304 L 5.669 95.304 L 5.669 95.304 Q 5.915 95.73 6.5 96.086 L 6.5 96.086 L 6.5 96.086 Q 7.084 96.442 8.288 96.873 L 8.288 96.873 L 8.288 96.873 Q 10.31 97.593 11.07 98.419 L 11.07 98.419 L 11.07 98.419 Q 11.83 99.246 11.83 100.564 Z  M 22.553 99.158 L 22.553 99.158 L 22.553 99.158 Q 22.553 101.513 21.366 102.836 L 21.366 102.836 L 21.366 102.836 Q 20.18 104.159 18.088 104.159 L 18.088 104.159 L 18.088 104.159 Q 16.796 104.159 15.794 103.552 L 15.794 103.552 L 15.794 103.552 Q 14.792 102.946 14.247 101.812 L 14.247 101.812 L 14.247 101.812 Q 13.702 100.678 13.702 99.158 L 13.702 99.158 L 13.702 99.158 Q 13.702 96.802 14.88 95.488 L 14.88 95.488 L 14.88 95.488 Q 16.058 94.174 18.149 94.174 L 18.149 94.174 L 18.149 94.174 Q 20.171 94.174 21.362 95.519 L 21.362 95.519 L 21.362 95.519 Q 22.553 96.864 22.553 99.158 Z  M 15.214 99.158 L 15.214 99.158 L 15.214 99.158 Q 15.214 101.003 15.952 101.97 L 15.952 101.97 L 15.952 101.97 Q 16.69 102.937 18.123 102.937 L 18.123 102.937 L 18.123 102.937 Q 19.556 102.937 20.298 101.975 L 20.298 101.975 L 20.298 101.975 Q 21.041 101.012 21.041 99.158 L 21.041 99.158 L 21.041 99.158 Q 21.041 97.321 20.298 96.367 L 20.298 96.367 L 20.298 96.367 Q 19.556 95.414 18.105 95.414 L 18.105 95.414 L 18.105 95.414 Q 16.673 95.414 15.943 96.354 L 15.943 96.354 L 15.943 96.354 Q 15.214 97.294 15.214 99.158 Z  M 29.452 94.35 L 29.452 95.484 L 27 95.484 L 27 103.983 L 25.541 103.983 L 25.541 95.484 L 23.818 95.484 L 23.818 94.825 L 25.541 94.297 L 25.541 93.761 L 25.541 93.761 Q 25.541 90.21 28.644 90.21 L 28.644 90.21 L 28.644 90.21 Q 29.408 90.21 30.437 90.518 L 30.437 90.518 L 30.059 91.687 L 30.059 91.687 Q 29.215 91.415 28.617 91.415 L 28.617 91.415 L 28.617 91.415 Q 27.791 91.415 27.396 91.964 L 27.396 91.964 L 27.396 91.964 Q 27 92.513 27 93.726 L 27 93.726 L 27 94.35 L 29.452 94.35 Z  M 34.321 102.955 L 34.321 102.955 L 34.321 102.955 Q 34.708 102.955 35.068 102.897 L 35.068 102.897 L 35.068 102.897 Q 35.429 102.84 35.64 102.779 L 35.64 102.779 L 35.64 103.895 L 35.64 103.895 Q 35.402 104.009 34.941 104.084 L 34.941 104.084 L 34.941 104.084 Q 34.479 104.159 34.11 104.159 L 34.11 104.159 L 34.11 104.159 Q 31.315 104.159 31.315 101.214 L 31.315 101.214 L 31.315 95.484 L 29.936 95.484 L 29.936 94.781 L 31.315 94.174 L 31.931 92.118 L 32.774 92.118 L 32.774 94.35 L 35.569 94.35 L 35.569 95.484 L 32.774 95.484 L 32.774 101.153 L 32.774 101.153 Q 32.774 102.023 33.188 102.489 L 33.188 102.489 L 33.188 102.489 Q 33.601 102.955 34.321 102.955 Z  M 47.162 103.983 L 45.431 103.983 L 43.664 98.332 L 43.664 98.332 Q 43.497 97.813 43.04 95.976 L 43.04 95.976 L 42.97 95.976 L 42.97 95.976 Q 42.618 97.514 42.354 98.349 L 42.354 98.349 L 40.535 103.983 L 38.848 103.983 L 36.22 94.35 L 37.749 94.35 L 37.749 94.35 Q 38.681 97.98 39.168 99.878 L 39.168 99.878 L 39.168 99.878 Q 39.656 101.777 39.727 102.436 L 39.727 102.436 L 39.797 102.436 L 39.797 102.436 Q 39.894 101.935 40.109 101.14 L 40.109 101.14 L 40.109 101.14 Q 40.324 100.344 40.482 99.878 L 40.482 99.878 L 42.249 94.35 L 43.831 94.35 L 45.554 99.878 L 45.554 99.878 Q 46.046 101.39 46.222 102.418 L 46.222 102.418 L 46.292 102.418 L 46.292 102.418 Q 46.327 102.102 46.481 101.443 L 46.481 101.443 L 46.481 101.443 Q 46.635 100.784 48.313 94.35 L 48.313 94.35 L 49.825 94.35 L 47.162 103.983 Z  M 58.57 103.983 L 57.489 103.983 L 57.199 102.612 L 57.129 102.612 L 57.129 102.612 Q 56.408 103.517 55.692 103.838 L 55.692 103.838 L 55.692 103.838 Q 54.976 104.159 53.903 104.159 L 53.903 104.159 L 53.903 104.159 Q 52.471 104.159 51.658 103.42 L 51.658 103.42 L 51.658 103.42 Q 50.845 102.682 50.845 101.32 L 50.845 101.32 L 50.845 101.32 Q 50.845 98.402 55.512 98.261 L 55.512 98.261 L 57.146 98.208 L 57.146 97.611 L 57.146 97.611 Q 57.146 96.477 56.659 95.937 L 56.659 95.937 L 56.659 95.937 Q 56.171 95.396 55.099 95.396 L 55.099 95.396 L 55.099 95.396 Q 53.895 95.396 52.374 96.134 L 52.374 96.134 L 51.926 95.018 L 51.926 95.018 Q 52.638 94.631 53.486 94.412 L 53.486 94.412 L 53.486 94.412 Q 54.334 94.192 55.187 94.192 L 55.187 94.192 L 55.187 94.192 Q 56.909 94.192 57.74 94.957 L 57.74 94.957 L 57.74 94.957 Q 58.57 95.721 58.57 97.409 L 58.57 97.409 L 58.57 103.983 Z  M 54.193 102.955 L 54.193 102.955 L 54.193 102.955 Q 55.556 102.955 56.333 102.208 L 56.333 102.208 L 56.333 102.208 Q 57.111 101.46 57.111 100.116 L 57.111 100.116 L 57.111 99.246 L 55.652 99.307 L 55.652 99.307 Q 53.912 99.369 53.143 99.848 L 53.143 99.848 L 53.143 99.848 Q 52.374 100.327 52.374 101.337 L 52.374 101.337 L 52.374 101.337 Q 52.374 102.128 52.853 102.542 L 52.853 102.542 L 52.853 102.542 Q 53.332 102.955 54.193 102.955 Z  M 65.971 94.174 L 65.971 94.174 L 65.971 94.174 Q 66.612 94.174 67.122 94.28 L 67.122 94.28 L 66.92 95.633 L 66.92 95.633 Q 66.322 95.501 65.865 95.501 L 65.865 95.501 L 65.865 95.501 Q 64.696 95.501 63.866 96.451 L 63.866 96.451 L 63.866 96.451 Q 63.035 97.4 63.035 98.815 L 63.035 98.815 L 63.035 103.983 L 61.576 103.983 L 61.576 94.35 L 62.78 94.35 L 62.947 96.134 L 63.018 96.134 L 63.018 96.134 Q 63.554 95.194 64.31 94.684 L 64.31 94.684 L 64.31 94.684 Q 65.065 94.174 65.971 94.174 Z  M 72.993 104.159 L 72.993 104.159 L 72.993 104.159 Q 70.857 104.159 69.623 102.858 L 69.623 102.858 L 69.623 102.858 Q 68.388 101.557 68.388 99.246 L 68.388 99.246 L 68.388 99.246 Q 68.388 96.917 69.535 95.545 L 69.535 95.545 L 69.535 95.545 Q 70.682 94.174 72.615 94.174 L 72.615 94.174 L 72.615 94.174 Q 74.426 94.174 75.48 95.365 L 75.48 95.365 L 75.48 95.365 Q 76.535 96.556 76.535 98.507 L 76.535 98.507 L 76.535 99.43 L 69.899 99.43 L 69.899 99.43 Q 69.943 101.126 70.756 102.005 L 70.756 102.005 L 70.756 102.005 Q 71.569 102.884 73.046 102.884 L 73.046 102.884 L 73.046 102.884 Q 74.602 102.884 76.122 102.234 L 76.122 102.234 L 76.122 103.535 L 76.122 103.535 Q 75.349 103.869 74.659 104.014 L 74.659 104.014 L 74.659 104.014 Q 73.969 104.159 72.993 104.159 Z  M 72.598 95.396 L 72.598 95.396 L 72.598 95.396 Q 71.438 95.396 70.748 96.152 L 70.748 96.152 L 70.748 96.152 Q 70.058 96.908 69.935 98.244 L 69.935 98.244 L 74.971 98.244 L 74.971 98.244 Q 74.971 96.864 74.355 96.13 L 74.355 96.13 L 74.355 96.13 Q 73.74 95.396 72.598 95.396 Z " fill="rgb(238,238,238)"/><defs><filter id="qB0kZ4V4yLwSZ4UbPdNIWveBZ1Uoqu42" x="-200%" y="-200%" width="400%" height="400%" filterUnits="objectBoundingBox" color-interpolation-filters="sRGB"><feGaussianBlur xmlns="http://www.w3.org/2000/svg" stdDeviation="0"/></filter></defs><g filter="url(#qB0kZ4V4yLwSZ4UbPdNIWveBZ1Uoqu42)"><path d=" M 106.576 76.721 L 106.576 85.043 L 105.497 85.043 L 105.497 76.721 L 102.558 76.721 L 102.558 75.763 L 109.515 75.763 L 109.515 76.721 L 106.576 76.721 L 106.576 76.721 Z  M 110.677 78.086 L 111.743 78.086 L 111.743 82.599 L 111.743 82.599 Q 111.743 83.45 112.13 83.869 L 112.13 83.869 L 112.13 83.869 Q 112.517 84.288 113.343 84.288 L 113.343 84.288 L 113.343 84.288 Q 114.434 84.288 114.939 83.691 L 114.939 83.691 L 114.939 83.691 Q 115.444 83.094 115.444 81.742 L 115.444 81.742 L 115.444 78.086 L 116.497 78.086 L 116.497 85.043 L 115.628 85.043 L 115.475 84.11 L 115.418 84.11 L 115.418 84.11 Q 115.094 84.624 114.52 84.897 L 114.52 84.897 L 114.52 84.897 Q 113.946 85.17 113.209 85.17 L 113.209 85.17 L 113.209 85.17 Q 111.94 85.17 111.308 84.567 L 111.308 84.567 L 111.308 84.567 Q 110.677 83.964 110.677 82.637 L 110.677 82.637 L 110.677 78.086 L 110.677 78.086 Z  M 121.906 77.959 L 121.906 77.959 L 121.906 77.959 Q 122.369 77.959 122.737 78.035 L 122.737 78.035 L 122.591 79.013 L 122.591 79.013 Q 122.159 78.918 121.829 78.918 L 121.829 78.918 L 121.829 78.918 Q 120.985 78.918 120.385 79.603 L 120.385 79.603 L 120.385 79.603 Q 119.785 80.289 119.785 81.311 L 119.785 81.311 L 119.785 85.043 L 118.732 85.043 L 118.732 78.086 L 119.601 78.086 L 119.722 79.375 L 119.773 79.375 L 119.773 79.375 Q 120.16 78.696 120.706 78.327 L 120.706 78.327 L 120.706 78.327 Q 121.252 77.959 121.906 77.959 Z  M 128.526 83.145 L 128.526 83.145 L 128.526 83.145 Q 128.526 84.116 127.802 84.643 L 127.802 84.643 L 127.802 84.643 Q 127.079 85.17 125.771 85.17 L 125.771 85.17 L 125.771 85.17 Q 124.387 85.17 123.613 84.732 L 123.613 84.732 L 123.613 83.755 L 123.613 83.755 Q 124.115 84.009 124.689 84.155 L 124.689 84.155 L 124.689 84.155 Q 125.263 84.301 125.797 84.301 L 125.797 84.301 L 125.797 84.301 Q 126.622 84.301 127.066 84.037 L 127.066 84.037 L 127.066 84.037 Q 127.51 83.774 127.51 83.234 L 127.51 83.234 L 127.51 83.234 Q 127.51 82.828 127.158 82.539 L 127.158 82.539 L 127.158 82.539 Q 126.806 82.25 125.784 81.857 L 125.784 81.857 L 125.784 81.857 Q 124.813 81.495 124.403 81.225 L 124.403 81.225 L 124.403 81.225 Q 123.994 80.955 123.794 80.613 L 123.794 80.613 L 123.794 80.613 Q 123.594 80.27 123.594 79.794 L 123.594 79.794 L 123.594 79.794 Q 123.594 78.943 124.286 78.451 L 124.286 78.451 L 124.286 78.451 Q 124.978 77.959 126.184 77.959 L 126.184 77.959 L 126.184 77.959 Q 127.307 77.959 128.38 78.416 L 128.38 78.416 L 128.006 79.273 L 128.006 79.273 Q 126.958 78.842 126.108 78.842 L 126.108 78.842 L 126.108 78.842 Q 125.359 78.842 124.978 79.076 L 124.978 79.076 L 124.978 79.076 Q 124.597 79.311 124.597 79.724 L 124.597 79.724 L 124.597 79.724 Q 124.597 80.003 124.74 80.2 L 124.74 80.2 L 124.74 80.2 Q 124.883 80.397 125.2 80.574 L 125.2 80.574 L 125.2 80.574 Q 125.517 80.752 126.419 81.089 L 126.419 81.089 L 126.419 81.089 Q 127.656 81.539 128.091 81.996 L 128.091 81.996 L 128.091 81.996 Q 128.526 82.453 128.526 83.145 Z  M 133.179 85.17 L 133.179 85.17 L 133.179 85.17 Q 131.636 85.17 130.745 84.231 L 130.745 84.231 L 130.745 84.231 Q 129.853 83.291 129.853 81.622 L 129.853 81.622 L 129.853 81.622 Q 129.853 79.94 130.681 78.949 L 130.681 78.949 L 130.681 78.949 Q 131.51 77.959 132.906 77.959 L 132.906 77.959 L 132.906 77.959 Q 134.214 77.959 134.975 78.819 L 134.975 78.819 L 134.975 78.819 Q 135.737 79.679 135.737 81.089 L 135.737 81.089 L 135.737 81.755 L 130.945 81.755 L 130.945 81.755 Q 130.976 82.98 131.563 83.615 L 131.563 83.615 L 131.563 83.615 Q 132.151 84.25 133.217 84.25 L 133.217 84.25 L 133.217 84.25 Q 134.341 84.25 135.439 83.78 L 135.439 83.78 L 135.439 84.719 L 135.439 84.719 Q 134.88 84.961 134.382 85.065 L 134.382 85.065 L 134.382 85.065 Q 133.884 85.17 133.179 85.17 Z  M 132.893 78.842 L 132.893 78.842 L 132.893 78.842 Q 132.055 78.842 131.557 79.387 L 131.557 79.387 L 131.557 79.387 Q 131.059 79.933 130.97 80.898 L 130.97 80.898 L 134.607 80.898 L 134.607 80.898 Q 134.607 79.902 134.163 79.372 L 134.163 79.372 L 134.163 79.372 Q 133.719 78.842 132.893 78.842 Z  M 65.875 81.184 L 63.939 81.184 L 63.939 85.043 L 62.86 85.043 L 62.86 75.763 L 65.405 75.763 L 65.405 75.763 Q 67.113 75.763 67.928 76.417 L 67.928 76.417 L 67.928 76.417 Q 68.744 77.071 68.744 78.385 L 68.744 78.385 L 68.744 78.385 Q 68.744 80.225 66.878 80.873 L 66.878 80.873 L 69.398 85.043 L 68.122 85.043 L 65.875 81.184 L 65.875 81.184 Z  M 63.939 76.709 L 63.939 80.257 L 65.418 80.257 L 65.418 80.257 Q 66.56 80.257 67.094 79.803 L 67.094 79.803 L 67.094 79.803 Q 67.627 79.349 67.627 78.442 L 67.627 78.442 L 67.627 78.442 Q 67.627 77.521 67.084 77.115 L 67.084 77.115 L 67.084 77.115 Q 66.541 76.709 65.342 76.709 L 65.342 76.709 L 63.939 76.709 L 63.939 76.709 Z  M 75.796 85.043 L 75.015 85.043 L 74.806 84.053 L 74.755 84.053 L 74.755 84.053 Q 74.235 84.707 73.717 84.938 L 73.717 84.938 L 73.717 84.938 Q 73.2 85.17 72.426 85.17 L 72.426 85.17 L 72.426 85.17 Q 71.391 85.17 70.804 84.637 L 70.804 84.637 L 70.804 84.637 Q 70.217 84.104 70.217 83.12 L 70.217 83.12 L 70.217 83.12 Q 70.217 81.012 73.587 80.911 L 73.587 80.911 L 74.768 80.873 L 74.768 80.441 L 74.768 80.441 Q 74.768 79.622 74.416 79.232 L 74.416 79.232 L 74.416 79.232 Q 74.063 78.842 73.289 78.842 L 73.289 78.842 L 73.289 78.842 Q 72.419 78.842 71.321 79.375 L 71.321 79.375 L 70.997 78.569 L 70.997 78.569 Q 71.511 78.289 72.124 78.131 L 72.124 78.131 L 72.124 78.131 Q 72.737 77.972 73.352 77.972 L 73.352 77.972 L 73.352 77.972 Q 74.596 77.972 75.196 78.524 L 75.196 78.524 L 75.196 78.524 Q 75.796 79.076 75.796 80.295 L 75.796 80.295 L 75.796 85.043 L 75.796 85.043 Z  M 72.635 84.301 L 72.635 84.301 L 72.635 84.301 Q 73.619 84.301 74.181 83.761 L 74.181 83.761 L 74.181 83.761 Q 74.742 83.221 74.742 82.25 L 74.742 82.25 L 74.742 81.622 L 73.689 81.666 L 73.689 81.666 Q 72.432 81.711 71.876 82.057 L 71.876 82.057 L 71.876 82.057 Q 71.321 82.403 71.321 83.133 L 71.321 83.133 L 71.321 83.133 Q 71.321 83.704 71.667 84.002 L 71.667 84.002 L 71.667 84.002 Q 72.013 84.301 72.635 84.301 Z  M 81.103 78.086 L 81.103 78.905 L 79.332 78.905 L 79.332 85.043 L 78.278 85.043 L 78.278 78.905 L 77.034 78.905 L 77.034 78.429 L 78.278 78.048 L 78.278 77.661 L 78.278 77.661 Q 78.278 75.096 80.519 75.096 L 80.519 75.096 L 80.519 75.096 Q 81.071 75.096 81.814 75.319 L 81.814 75.319 L 81.541 76.163 L 81.541 76.163 Q 80.931 75.966 80.5 75.966 L 80.5 75.966 L 80.5 75.966 Q 79.903 75.966 79.617 76.363 L 79.617 76.363 L 79.617 76.363 Q 79.332 76.76 79.332 77.635 L 79.332 77.635 L 79.332 78.086 L 81.103 78.086 L 81.103 78.086 Z  M 87.431 85.043 L 86.651 85.043 L 86.441 84.053 L 86.39 84.053 L 86.39 84.053 Q 85.87 84.707 85.353 84.938 L 85.353 84.938 L 85.353 84.938 Q 84.835 85.17 84.061 85.17 L 84.061 85.17 L 84.061 85.17 Q 83.026 85.17 82.439 84.637 L 82.439 84.637 L 82.439 84.637 Q 81.852 84.104 81.852 83.12 L 81.852 83.12 L 81.852 83.12 Q 81.852 81.012 85.222 80.911 L 85.222 80.911 L 86.403 80.873 L 86.403 80.441 L 86.403 80.441 Q 86.403 79.622 86.051 79.232 L 86.051 79.232 L 86.051 79.232 Q 85.698 78.842 84.924 78.842 L 84.924 78.842 L 84.924 78.842 Q 84.054 78.842 82.956 79.375 L 82.956 79.375 L 82.633 78.569 L 82.633 78.569 Q 83.147 78.289 83.759 78.131 L 83.759 78.131 L 83.759 78.131 Q 84.372 77.972 84.988 77.972 L 84.988 77.972 L 84.988 77.972 Q 86.232 77.972 86.832 78.524 L 86.832 78.524 L 86.832 78.524 Q 87.431 79.076 87.431 80.295 L 87.431 80.295 L 87.431 85.043 L 87.431 85.043 Z  M 84.27 84.301 L 84.27 84.301 L 84.27 84.301 Q 85.254 84.301 85.816 83.761 L 85.816 83.761 L 85.816 83.761 Q 86.378 83.221 86.378 82.25 L 86.378 82.25 L 86.378 81.622 L 85.324 81.666 L 85.324 81.666 Q 84.067 81.711 83.512 82.057 L 83.512 82.057 L 83.512 82.057 Q 82.956 82.403 82.956 83.133 L 82.956 83.133 L 82.956 83.133 Q 82.956 83.704 83.302 84.002 L 83.302 84.002 L 83.302 84.002 Q 83.648 84.301 84.27 84.301 Z  M 92.541 85.17 L 92.541 85.17 L 92.541 85.17 Q 90.999 85.17 90.107 84.231 L 90.107 84.231 L 90.107 84.231 Q 89.215 83.291 89.215 81.622 L 89.215 81.622 L 89.215 81.622 Q 89.215 79.94 90.043 78.949 L 90.043 78.949 L 90.043 78.949 Q 90.872 77.959 92.268 77.959 L 92.268 77.959 L 92.268 77.959 Q 93.576 77.959 94.338 78.819 L 94.338 78.819 L 94.338 78.819 Q 95.099 79.679 95.099 81.089 L 95.099 81.089 L 95.099 81.755 L 90.307 81.755 L 90.307 81.755 Q 90.339 82.98 90.926 83.615 L 90.926 83.615 L 90.926 83.615 Q 91.513 84.25 92.579 84.25 L 92.579 84.25 L 92.579 84.25 Q 93.703 84.25 94.801 83.78 L 94.801 83.78 L 94.801 84.719 L 94.801 84.719 Q 94.242 84.961 93.744 85.065 L 93.744 85.065 L 93.744 85.065 Q 93.246 85.17 92.541 85.17 Z  M 92.256 78.842 L 92.256 78.842 L 92.256 78.842 Q 91.418 78.842 90.919 79.387 L 90.919 79.387 L 90.919 79.387 Q 90.421 79.933 90.332 80.898 L 90.332 80.898 L 93.969 80.898 L 93.969 80.898 Q 93.969 79.902 93.525 79.372 L 93.525 79.372 L 93.525 79.372 Q 93.081 78.842 92.256 78.842 Z  M 97.949 75.166 L 97.949 85.043 L 96.896 85.043 L 96.896 75.166 L 97.949 75.166 L 97.949 75.166 Z " fill="rgb(238,238,238)"/></g></g></svg>