<?xml version="1.0" encoding="UTF-8" standalone="no"?>
<!-- Created with Inkscape (http://www.inkscape.org/) -->

<svg
   xmlns:dc="http://purl.org/dc/elements/1.1/"
   xmlns:cc="http://creativecommons.org/ns#"
   xmlns:rdf="http://www.w3.org/1999/02/22-rdf-syntax-ns#"
   xmlns:svg="http://www.w3.org/2000/svg"
   xmlns="http://www.w3.org/2000/svg"
   xmlns:xlink="http://www.w3.org/1999/xlink"
   xmlns:sodipodi="http://sodipodi.sourceforge.net/DTD/sodipodi-0.dtd"
   xmlns:inkscape="http://www.inkscape.org/namespaces/inkscape"
   width="326.578"
   height="326.578"
   viewBox="0 0 86.407095 86.407095"
   version="1.1"
   id="svg8"
   inkscape:version="0.92.3 (2405546, 2018-03-11)"
   sodipodi:docname="logo-main.svg"
   inkscape:export-filename="/home/turse/Projects/Portifolio2/img/logo-main.svg.png"
   inkscape:export-xdpi="96"
   inkscape:export-ydpi="96">
  <defs
     id="defs2">
    <linearGradient
       inkscape:collect="always"
       id="linearGradient840">
      <stop
         style="stop-color:#c8c8c8;stop-opacity:1"
         offset="0"
         id="stop836" />
      <stop
         style="stop-color:#f0f0f0;stop-opacity:0"
         offset="1"
         id="stop838" />
    </linearGradient>
    <filter
       inkscape:collect="always"
       style="color-interpolation-filters:sRGB"
       id="filter824-35-3"
       x="-0.035999998"
       width="1.072"
       y="-0.035999998"
       height="1.072">
      <feGaussianBlur
         inkscape:collect="always"
         stdDeviation="3"
         id="feGaussianBlur826-62-6" />
    </filter>
    <filter
       inkscape:collect="always"
       style="color-interpolation-filters:sRGB"
       id="filter824-7"
       x="-0.035999998"
       width="1.072"
       y="-0.035999998"
       height="1.072">
      <feGaussianBlur
         inkscape:collect="always"
         stdDeviation="3"
         id="feGaussianBlur826-5" />
    </filter>
    <radialGradient
       inkscape:collect="always"
       xlink:href="#linearGradient840"
       id="radialGradient842"
       cx="58.816441"
       cy="296.20453"
       fx="58.816441"
       fy="296.20453"
       r="37.146526"
       gradientTransform="matrix(-0.49062807,-0.31027395,0.29198059,-0.46170224,-2.7575337,398.39809)"
       gradientUnits="userSpaceOnUse"
       spreadMethod="reflect" />
  </defs>
  <sodipodi:namedview
     id="base"
     pagecolor="#ffffff"
     bordercolor="#666666"
     borderopacity="1.0"
     inkscape:pageopacity="0.0"
     inkscape:pageshadow="2"
     inkscape:zoom="1.4142136"
     inkscape:cx="142.5601"
     inkscape:cy="194.79161"
     inkscape:document-units="mm"
     inkscape:current-layer="layer1"
     showgrid="false"
     inkscape:window-width="1366"
     inkscape:window-height="740"
     inkscape:window-x="0"
     inkscape:window-y="0"
     inkscape:window-maximized="1"
     units="px"
     inkscape:lockguides="false"
     showguides="true"
     inkscape:guide-bbox="true" />
  <metadata
     id="metadata5">
    <rdf:RDF>
      <cc:Work
         rdf:about="">
        <dc:format>image/svg+xml</dc:format>
        <dc:type
           rdf:resource="http://purl.org/dc/dcmitype/StillImage" />
        <dc:title />
      </cc:Work>
    </rdf:RDF>
  </metadata>
  <g
     inkscape:label="Layer 1"
     inkscape:groupmode="layer"
     id="layer1"
     transform="translate(0,-210.59291)">
    <ellipse
       style="opacity:1;fill:#ffffff;fill-opacity:1;fill-rule:nonzero;stroke:none;stroke-width:21.16666794;stroke-linecap:square;stroke-linejoin:miter;stroke-miterlimit:4;stroke-dasharray:none;stroke-opacity:1;paint-order:markers stroke fill"
       id="path14"
       ry="36.090679"
       rx="37.146526"
       cy="252.46257"
       cx="44.057507" />
    <ellipse
       style="opacity:1;fill:url(#radialGradient842);fill-opacity:1;fill-rule:nonzero;stroke:none;stroke-width:21.16666794;stroke-linecap:square;stroke-linejoin:miter;stroke-miterlimit:4;stroke-dasharray:none;stroke-opacity:1;paint-order:markers stroke fill"
       id="path14-3"
       ry="36.186665"
       rx="37.530468"
       cy="252.55858"
       cx="43.961514" />
    <path
       inkscape:connector-curvature="0"
       style="color:#000000;font-style:normal;font-variant:normal;font-weight:normal;font-stretch:normal;font-size:medium;line-height:normal;font-family:sans-serif;font-variant-ligatures:normal;font-variant-position:normal;font-variant-caps:normal;font-variant-numeric:normal;font-variant-alternates:normal;font-feature-settings:normal;text-indent:0;text-align:start;text-decoration:none;text-decoration-line:none;text-decoration-style:solid;text-decoration-color:#000000;letter-spacing:normal;word-spacing:normal;text-transform:none;writing-mode:lr-tb;direction:ltr;text-orientation:mixed;dominant-baseline:auto;baseline-shift:baseline;text-anchor:start;white-space:normal;shape-padding:0;clip-rule:nonzero;display:inline;overflow:visible;visibility:visible;opacity:1;isolation:auto;mix-blend-mode:normal;color-interpolation:sRGB;color-interpolation-filters:linearRGB;solid-color:#000000;solid-opacity:1;vector-effect:none;fill:#111111;fill-opacity:1;fill-rule:nonzero;stroke:none;stroke-width:0.50270832;stroke-linecap:round;stroke-linejoin:miter;stroke-miterlimit:4;stroke-dasharray:none;stroke-dashoffset:0;stroke-opacity:1;paint-order:markers fill stroke;color-rendering:auto;image-rendering:auto;shape-rendering:auto;text-rendering:auto;enable-background:accumulate"
       d="M 43.733205,217.47589 A 36.320611,36.320608 0 0 0 7.4125951,253.7965 36.320611,36.320608 0 0 0 43.733205,290.11711 36.320611,36.320608 0 0 0 80.053815,253.7965 36.320611,36.320608 0 0 0 43.733205,217.47589 Z m -7.26412,6.34972 v 11.81058 h -17.63678 a 30.87252,30.872517 0 0 1 17.63678,-11.81058 z m 14.52824,0.003 a 30.87252,30.872517 0 0 1 17.66942,11.80774 h -17.66942 z m -35.35017,17.25592 h 9.82572 v 37.56276 a 30.87252,30.872517 0 0 1 -12.61219,-24.85075 30.87252,30.872517 0 0 1 2.78647,-12.71223 z m 13.99763,0 h 28.17614 v 40.17754 a 30.87252,30.872517 0 0 1 -14.08772,3.40732 30.87252,30.872517 0 0 1 -14.08842,-3.43486 z m 32.34804,0 h 9.84558 a 30.87252,30.872517 0 0 1 2.76732,12.71222 30.87252,30.872517 0 0 1 -12.6129,24.84912 z"
       id="rect4540-3-6-3" />
    <path
       style="color:#000000;font-style:normal;font-variant:normal;font-weight:normal;font-stretch:normal;font-size:medium;line-height:normal;font-family:sans-serif;font-variant-ligatures:normal;font-variant-position:normal;font-variant-caps:normal;font-variant-numeric:normal;font-variant-alternates:normal;font-feature-settings:normal;text-indent:0;text-align:start;text-decoration:none;text-decoration-line:none;text-decoration-style:solid;text-decoration-color:#000000;letter-spacing:normal;word-spacing:normal;text-transform:none;writing-mode:lr-tb;direction:ltr;text-orientation:mixed;dominant-baseline:auto;baseline-shift:baseline;text-anchor:start;white-space:normal;shape-padding:0;clip-rule:nonzero;display:inline;overflow:visible;visibility:visible;opacity:1;isolation:auto;mix-blend-mode:normal;color-interpolation:sRGB;color-interpolation-filters:linearRGB;solid-color:#000000;solid-opacity:1;vector-effect:none;fill:#808080;fill-opacity:1;fill-rule:nonzero;stroke:#000000;stroke-width:1.38408554;stroke-linecap:round;stroke-linejoin:miter;stroke-miterlimit:4;stroke-dasharray:none;stroke-dashoffset:0;stroke-opacity:1;paint-order:markers fill stroke;filter:url(#filter824-7);color-rendering:auto;image-rendering:auto;shape-rendering:auto;text-rendering:auto;enable-background:accumulate"
       d="M 100,0 A 99.999997,99.999997 0 0 0 0,100 99.999997,99.999997 0 0 0 100,200 99.999997,99.999997 0 0 0 200,100 99.999997,99.999997 0 0 0 100,0 Z M 80,17.482422 V 50 H 31.441406 A 84.999999,84.999999 0 0 1 80,17.482422 Z m 40,0.0078 A 84.999999,84.999999 0 0 1 168.64844,50 H 120 Z M 22.671875,65 H 49.724609 V 168.41992 A 84.999999,84.999999 0 0 1 15,100 84.999999,84.999999 0 0 1 22.671875,65 Z m 38.539063,0 H 138.78711 V 175.61914 A 84.999999,84.999999 0 0 1 100,185 84.999999,84.999999 0 0 1 61.210938,175.54297 Z m 89.062502,0 h 27.10742 A 84.999999,84.999999 0 0 1 185,100 84.999999,84.999999 0 0 1 150.27344,168.41602 Z"
       transform="matrix(0.36320611,0,0,0.36320611,7.4125951,217.4759)"
       id="rect4540-3-5"
       inkscape:connector-curvature="0" />
    <path
       style="color:#000000;font-style:normal;font-variant:normal;font-weight:normal;font-stretch:normal;font-size:medium;line-height:normal;font-family:sans-serif;font-variant-ligatures:normal;font-variant-position:normal;font-variant-caps:normal;font-variant-numeric:normal;font-variant-alternates:normal;font-feature-settings:normal;text-indent:0;text-align:start;text-decoration:none;text-decoration-line:none;text-decoration-style:solid;text-decoration-color:#000000;letter-spacing:normal;word-spacing:normal;text-transform:none;writing-mode:lr-tb;direction:ltr;text-orientation:mixed;dominant-baseline:auto;baseline-shift:baseline;text-anchor:start;white-space:normal;shape-padding:0;clip-rule:nonzero;display:inline;overflow:visible;visibility:visible;opacity:1;isolation:auto;mix-blend-mode:normal;color-interpolation:sRGB;color-interpolation-filters:linearRGB;solid-color:#000000;solid-opacity:1;vector-effect:none;fill:#000000;fill-opacity:1;fill-rule:nonzero;stroke:#000000;stroke-width:1.23978329;stroke-linecap:round;stroke-linejoin:miter;stroke-miterlimit:4;stroke-dasharray:none;stroke-dashoffset:0;stroke-opacity:1;paint-order:markers fill stroke;filter:url(#filter824-35-3);color-rendering:auto;image-rendering:auto;shape-rendering:auto;text-rendering:auto;enable-background:accumulate"
       d="M 100,0 A 99.999997,99.999997 0 0 0 0,100 99.999997,99.999997 0 0 0 100,200 99.999997,99.999997 0 0 0 200,100 99.999997,99.999997 0 0 0 100,0 Z M 80,17.482422 V 50 H 31.441406 A 84.999999,84.999999 0 0 1 80,17.482422 Z m 40,0.0078 A 84.999999,84.999999 0 0 1 168.64844,50 H 120 Z M 22.671875,65 H 49.724609 V 168.41992 A 84.999999,84.999999 0 0 1 15,100 84.999999,84.999999 0 0 1 22.671875,65 Z m 38.539063,0 H 138.78711 V 175.61914 A 84.999999,84.999999 0 0 1 100,185 84.999999,84.999999 0 0 1 61.210938,175.54297 Z m 89.062502,0 h 27.10742 A 84.999999,84.999999 0 0 1 185,100 84.999999,84.999999 0 0 1 150.27344,168.41602 Z"
       transform="matrix(0.40795906,0,0,0.40301757,3.1280001,213.1444)"
       id="rect4540-3-9-6"
       inkscape:connector-curvature="0" />
  </g>
</svg>
