<?xml version="1.0" encoding="UTF-8" standalone="no"?>
<!-- Created with Inkscape (http://www.inkscape.org/) -->

<svg
   xmlns:dc="http://purl.org/dc/elements/1.1/"
   xmlns:cc="http://creativecommons.org/ns#"
   xmlns:rdf="http://www.w3.org/1999/02/22-rdf-syntax-ns#"
   xmlns:svg="http://www.w3.org/2000/svg"
   xmlns="http://www.w3.org/2000/svg"
   xmlns:sodipodi="http://sodipodi.sourceforge.net/DTD/sodipodi-0.dtd"
   xmlns:inkscape="http://www.inkscape.org/namespaces/inkscape"
   width="100"
   height="100"
   viewBox="0 0 26.458333 26.458334"
   version="1.1"
   id="svg4596"
   inkscape:version="0.92.4 (5da689c313, 2019-01-14)"
   sodipodi:docname="logo-rafael-turse-dark.svg">
  <defs
     id="defs4590" />
  <sodipodi:namedview
     id="base"
     pagecolor="#ffffff"
     bordercolor="#666666"
     borderopacity="1.0"
     inkscape:pageopacity="0.0"
     inkscape:pageshadow="2"
     inkscape:zoom="3.959798"
     inkscape:cx="41.128637"
     inkscape:cy="34.048192"
     inkscape:document-units="mm"
     inkscape:current-layer="layer1"
     showgrid="false"
     units="px"
     inkscape:window-width="1366"
     inkscape:window-height="745"
     inkscape:window-x="-8"
     inkscape:window-y="-8"
     inkscape:window-maximized="1" />
  <metadata
     id="metadata4593">
    <rdf:RDF>
      <cc:Work
         rdf:about="">
        <dc:format>image/svg+xml</dc:format>
        <dc:type
           rdf:resource="http://purl.org/dc/dcmitype/StillImage" />
        <dc:title></dc:title>
      </cc:Work>
    </rdf:RDF>
  </metadata>
  <g
     inkscape:label="Layer 1"
     inkscape:groupmode="layer"
     id="layer1"
     transform="translate(0,-270.54164)">
    <circle
       style="fill:#999999;stroke-width:0.33932287"
       id="path169"
       cx="13.175851"
       cy="284.21469"
       r="11.90625" />
    <path
       style="fill:#111111;fill-opacity:1;stroke-width:0.07017279"
       d="m 14.031183,270.80966 v 25.10235 l 2.078427,-24.79229 a 13.229165,13.229165 0 0 0 -2.078427,-0.31006 z m -1.603517,0.0165 a 13.229165,13.229165 0 0 0 -2.078943,0.28939 l 2.078943,24.79487 z m -3.6504248,0.74052 a 13.229165,13.229165 0 0 0 -6.3804882,4.87981 l 8.303369,18.05678 z m 8.9043668,0.004 -1.958536,23.36136 8.438242,-18.34978 a 13.229165,13.229165 0 0 0 -6.479706,-5.01158 z m -15.891536,5.81101 a 13.229165,13.229165 0 0 0 -0.66611,1.32705 l 9.669695,18.28726 a 13.229165,13.229165 0 0 0 0.01809,0.004 z m 22.964489,0.16485 -8.919353,19.39727 a 13.229165,13.229165 0 0 0 0.02222,-0.006 l 9.550321,-18.06143 a 13.229165,13.229165 0 0 0 -0.65319,-1.33015 z M 0.66817502,279.89265 A 13.229165,13.229165 0 0 0 0.262516,281.48273 l 9.1710162,15.17169 a 13.229165,13.229165 0 0 0 0.1183399,0.0398 z m 25.18347798,0.19069 -8.744688,16.538 a 13.229165,13.229165 0 0 0 0.127643,-0.0465 l 8.999966,-14.88849 a 13.229165,13.229165 0 0 0 -0.382921,-1.603 z M 0.05581,283.02527 A 13.229165,13.229165 0 0 0 0,284.01023 13.229165,13.229165 0 0 0 7.9623042,296.10458 Z m 26.363765,0.24133 -7.692038,12.72326 a 13.229165,13.229165 0 0 0 7.730795,-11.97963 13.229165,13.229165 0 0 0 -0.03876,-0.74363 z"
       id="path10"
       inkscape:connector-curvature="0" />
  </g>
</svg>
