<?xml version="1.0" encoding="UTF-8" standalone="no"?>
<!-- Created with Inkscape (http://www.inkscape.org/) -->

<svg
   xmlns:dc="http://purl.org/dc/elements/1.1/"
   xmlns:cc="http://creativecommons.org/ns#"
   xmlns:rdf="http://www.w3.org/1999/02/22-rdf-syntax-ns#"
   xmlns:svg="http://www.w3.org/2000/svg"
   xmlns="http://www.w3.org/2000/svg"
   xmlns:sodipodi="http://sodipodi.sourceforge.net/DTD/sodipodi-0.dtd"
   xmlns:inkscape="http://www.inkscape.org/namespaces/inkscape"
   width="307.82599"
   height="100"
   viewBox="0 0 81.445625 26.458334"
   version="1.1"
   id="svg4596"
   inkscape:version="0.92.4 (5da689c313, 2019-01-14)"
   sodipodi:docname="logo-rafael-turse-horizontal-name-light.svg">
  <defs
     id="defs4590" />
  <sodipodi:namedview
     id="base"
     pagecolor="#ffffff"
     bordercolor="#666666"
     borderopacity="1.0"
     inkscape:pageopacity="0.0"
     inkscape:pageshadow="2"
     inkscape:zoom="1.4"
     inkscape:cx="201.67634"
     inkscape:cy="40.472853"
     inkscape:document-units="mm"
     inkscape:current-layer="layer1"
     showgrid="false"
     units="px"
     inkscape:window-width="1366"
     inkscape:window-height="745"
     inkscape:window-x="-8"
     inkscape:window-y="-8"
     inkscape:window-maximized="1" />
  <metadata
     id="metadata4593">
    <rdf:RDF>
      <cc:Work
         rdf:about="">
        <dc:format>image/svg+xml</dc:format>
        <dc:type
           rdf:resource="http://purl.org/dc/dcmitype/StillImage" />
        <dc:title></dc:title>
      </cc:Work>
    </rdf:RDF>
  </metadata>
  <g
     inkscape:label="Layer 1"
     inkscape:groupmode="layer"
     id="layer1"
     transform="translate(0,-270.54165)">
    <path
       style="fill:#f9f9f9;fill-opacity:1;stroke-width:0.07053091"
       d="m 14.031184,270.54171 v 25.35921 l 2.078427,-25.04598 a 13.229166,13.364533 0 0 0 -2.078427,-0.31323 z m -1.603517,0.0167 a 13.229166,13.364533 0 0 0 -2.078943,0.29235 l 2.078943,25.04858 z m -3.650426,0.74809 a 13.229166,13.364533 0 0 0 -6.380488,4.92973 l 8.303369,18.24155 z m 8.904371,0.004 -1.958539,23.60041 8.438239,-18.53754 a 13.229166,13.364533 0 0 0 -6.4797,-5.06286 z m -15.89154,5.87046 a 13.229166,13.364533 0 0 0 -0.66611,1.34064 l 9.669696,18.47438 a 13.229166,13.364533 0 0 0 0.01809,0.004 z m 22.96449,0.16654 -8.919353,19.59576 a 13.229166,13.364533 0 0 0 0.02222,-0.006 l 9.550323,-18.24625 a 13.229166,13.364533 0 0 0 -0.65319,-1.34376 z m -24.086387,2.37012 a 13.229166,13.364533 0 0 0 -0.405659,1.60635 l 9.171016,15.32693 a 13.229166,13.364533 0 0 0 0.11834,0.0402 z m 25.183477,0.19264 -8.74469,16.70722 a 13.229166,13.364533 0 0 0 0.12765,-0.047 l 8.99996,-15.04084 a 13.229166,13.364533 0 0 0 -0.38292,-1.6194 z M 0.05581,282.88231 A 13.229166,13.364533 0 0 0 0,283.87735 13.229166,13.364533 0 0 0 7.962304,296.09546 Z m 26.363762,0.2438 -7.69203,12.85345 a 13.229166,13.364533 0 0 0 7.73079,-12.10221 13.229166,13.364533 0 0 0 -0.0388,-0.75124 z"
       id="path10"
       inkscape:connector-curvature="0" />
    <text
       xml:space="preserve"
       style="font-style:normal;font-variant:normal;font-weight:bold;font-stretch:normal;font-size:4.37573051px;line-height:1.25;font-family:'Ink Free';-inkscape-font-specification:'Ink Free Bold';letter-spacing:0px;word-spacing:0px;fill:#e6e6e6;fill-opacity:1;stroke:none;stroke-width:0.10939322;"
       x="43.036182"
       y="285.07825"
       id="text51"
       transform="scale(0.98759824,1.0125575)"><tspan
         sodipodi:role="line"
         id="tspan49"
         x="43.036182"
         y="285.07825"
         style="font-style:normal;font-variant:normal;font-weight:normal;font-stretch:normal;font-family:'Ink Free';-inkscape-font-specification:'Ink Free';fill:#e6e6e6;fill-opacity:1;stroke-width:0.10939322;"
         transform="matrix(1.2501353,0,0,1,-0.34113517,0)">systems development</tspan></text>
    <text
       xml:space="preserve"
       style="font-style:normal;font-weight:normal;font-size:11.3816328px;line-height:1.25;font-family:sans-serif;letter-spacing:0px;word-spacing:0px;fill:#f9f9f9;fill-opacity:1;stroke:none;stroke-width:0.28454071;"
       x="28.254469"
       y="293.25418"
       id="text11"
       transform="scale(1.0327687,0.96827102)"><tspan
         sodipodi:role="line"
         id="tspan9"
         x="28.254469"
         y="293.25418"
         style="font-style:normal;font-variant:normal;font-weight:bold;font-stretch:normal;font-family:Mistral;-inkscape-font-specification:'Mistral Bold';fill:#f9f9f9;fill-opacity:1;stroke-width:0.28454071;"
         transform="matrix(1.2501353,0,0,1,-0.34113517,0)">Rafael Turse</tspan></text>
  </g>
</svg>
