<?xml version="1.0" encoding="UTF-8" standalone="no"?>
<!-- Generator: Adobe Illustrator 19.0.0, SVG Export Plug-In . SVG Version: 6.00 Build 0)  -->

<svg
   xmlns:dc="http://purl.org/dc/elements/1.1/"
   xmlns:cc="http://creativecommons.org/ns#"
   xmlns:rdf="http://www.w3.org/1999/02/22-rdf-syntax-ns#"
   xmlns:svg="http://www.w3.org/2000/svg"
   xmlns="http://www.w3.org/2000/svg"
   xmlns:sodipodi="http://sodipodi.sourceforge.net/DTD/sodipodi-0.dtd"
   xmlns:inkscape="http://www.inkscape.org/namespaces/inkscape"
   version="1.1"
   id="Capa_1"
   x="0px"
   y="0px"
   viewBox="0 0 512 512"
   style="enable-background:new 0 0 512 512;"
   xml:space="preserve"
   sodipodi:docname="social-email.svg"
   inkscape:version="0.92.3 (2405546, 2018-03-11)"><metadata
   id="metadata51"><rdf:RDF><cc:Work
       rdf:about=""><dc:format>image/svg+xml</dc:format><dc:type
         rdf:resource="http://purl.org/dc/dcmitype/StillImage" /></cc:Work></rdf:RDF></metadata><defs
   id="defs49" /><sodipodi:namedview
   pagecolor="#ffffff"
   bordercolor="#666666"
   borderopacity="1"
   objecttolerance="10"
   gridtolerance="10"
   guidetolerance="10"
   inkscape:pageopacity="0"
   inkscape:pageshadow="2"
   inkscape:window-width="1366"
   inkscape:window-height="740"
   id="namedview47"
   showgrid="false"
   inkscape:zoom="0.4609375"
   inkscape:cx="256"
   inkscape:cy="256"
   inkscape:window-x="0"
   inkscape:window-y="0"
   inkscape:window-maximized="1"
   inkscape:current-layer="Capa_1" />
<circle
   style="fill:#111111;fill-opacity:1"
   cx="256"
   cy="256"
   r="256"
   id="circle2" />
<path
   style="fill:#000000;fill-opacity:1"
   d="M415.813,147.466H95.558l116.019,120.806l33.48,33.9c-18.216-4.164-19.343-6.759-27.415-13.349  c-4.234-3.457-12.414-12.852-24.838-25.54C154.023,223.682,88.217,156.484,88.217,156.484v198.822l8.265,8.265l-0.925,0.963  L242.68,511.657c4.412,0.226,8.852,0.343,13.32,0.343c141.385,0,256-114.615,256-256c0-4.246-0.11-8.466-0.313-12.661  L415.813,147.466z"
   id="path4" />
<g
   id="g14">
	<polygon
   style="fill:#FFFFFF;"
   points="88.217,156.484 88.217,355.306 185.175,255.493  "
   id="polygon6" />
	<polygon
   style="fill:#FFFFFF;"
   points="423.783,156.484 423.783,355.306 327.307,255.895  "
   id="polygon8" />
	<path
   style="fill:#FFFFFF;"
   d="M95.558,147.466h320.255L289.948,278.524c-8.958,9.327-21.331,14.599-34.262,14.599   s-25.304-5.272-34.262-14.599L95.558,147.466z"
   id="path10" />
	<path
   style="fill:#FFFFFF;"
   d="M297.209,285.496c-10.799,11.244-25.933,17.694-41.523,17.694c-15.589,0-30.724-6.448-41.522-17.693   l-21.349-22.23L95.558,364.534h320.255l-97.256-101.267L297.209,285.496z"
   id="path12" />
</g>
<g
   id="g16">
</g>
<g
   id="g18">
</g>
<g
   id="g20">
</g>
<g
   id="g22">
</g>
<g
   id="g24">
</g>
<g
   id="g26">
</g>
<g
   id="g28">
</g>
<g
   id="g30">
</g>
<g
   id="g32">
</g>
<g
   id="g34">
</g>
<g
   id="g36">
</g>
<g
   id="g38">
</g>
<g
   id="g40">
</g>
<g
   id="g42">
</g>
<g
   id="g44">
</g>
</svg>