<?xml version="1.0" encoding="UTF-8" standalone="no"?>
<!-- Generator: Adobe Illustrator 19.0.0, SVG Export Plug-In . SVG Version: 6.00 Build 0)  -->

<svg
   xmlns:dc="http://purl.org/dc/elements/1.1/"
   xmlns:cc="http://creativecommons.org/ns#"
   xmlns:rdf="http://www.w3.org/1999/02/22-rdf-syntax-ns#"
   xmlns:svg="http://www.w3.org/2000/svg"
   xmlns="http://www.w3.org/2000/svg"
   xmlns:sodipodi="http://sodipodi.sourceforge.net/DTD/sodipodi-0.dtd"
   xmlns:inkscape="http://www.inkscape.org/namespaces/inkscape"
   version="1.1"
   id="Layer_1"
   x="0px"
   y="0px"
   viewBox="0 0 512.002 512.002"
   style="enable-background:new 0 0 512.002 512.002;"
   xml:space="preserve"
   sodipodi:docname="social-linkedin.svg"
   inkscape:version="0.92.3 (2405546, 2018-03-11)"><metadata
   id="metadata45"><rdf:RDF><cc:Work
       rdf:about=""><dc:format>image/svg+xml</dc:format><dc:type
         rdf:resource="http://purl.org/dc/dcmitype/StillImage" /></cc:Work></rdf:RDF></metadata><defs
   id="defs43" /><sodipodi:namedview
   pagecolor="#ffffff"
   bordercolor="#666666"
   borderopacity="1"
   objecttolerance="10"
   gridtolerance="10"
   guidetolerance="10"
   inkscape:pageopacity="0"
   inkscape:pageshadow="2"
   inkscape:window-width="772"
   inkscape:window-height="480"
   id="namedview41"
   showgrid="false"
   inkscape:zoom="0.46093569"
   inkscape:cx="256.00101"
   inkscape:cy="256.00101"
   inkscape:window-x="0"
   inkscape:window-y="0"
   inkscape:window-maximized="0"
   inkscape:current-layer="Layer_1" />
<circle
   style="fill:#111111;fill-opacity:1"
   cx="256.001"
   cy="256"
   r="256"
   id="circle2" />
<path
   style="fill:#000000;fill-opacity:1"
   d="M511.016,233.634L394.729,117.198c-71.035,9.237-145.27,7.859-216.305,9.511  c-29.306,0-58.613,13.791-53.441,46.545c10.343,65.508,15.515,129.293,3.448,196.525c-1.9,8.545-5.897,17.089-11.117,25.059  L233.48,511.005c7.421,0.646,14.929,0.996,22.519,0.996c141.384,0,256-114.616,256-256  C512.001,248.461,511.656,241.005,511.016,233.634z"
   id="path4" />
<path
   style="fill:#FFFFFF;"
   d="M376.023,109.468H135.979c-14.643,0-26.51,11.867-26.51,26.51V376.02  c0,14.639,11.867,26.51,26.51,26.51h240.042c14.639,0,26.51-11.871,26.51-26.51V135.978  C402.533,121.335,390.662,109.468,376.023,109.468L376.023,109.468z M200.155,362.517c0,4.263-3.453,7.716-7.716,7.716h-32.837  c-4.263,0-7.716-3.455-7.716-7.716V224.856c0-4.263,3.455-7.716,7.716-7.716h32.839c4.263,0,7.716,3.455,7.716,7.716v137.661  H200.155z M176.02,204.162c-17.23,0-31.196-13.969-31.196-31.201c0-17.229,13.965-31.196,31.196-31.196  c17.232,0,31.198,13.969,31.198,31.196C207.218,190.195,193.251,204.162,176.02,204.162L176.02,204.162z M371.773,363.139  c0,3.918-3.175,7.096-7.09,7.096h-35.242c-3.915,0-7.092-3.177-7.092-7.096v-64.574c0-9.63,2.826-42.21-25.172-42.21  c-21.719,0-26.124,22.3-27.008,32.304v74.478c0,3.918-3.175,7.096-7.094,7.096h-34.082c-3.918,0-7.096-3.177-7.096-7.096V224.234  c0-3.918,3.177-7.096,7.096-7.096h34.082c3.918,0,7.094,3.177,7.094,7.096v12.009c8.054-12.085,20.023-21.416,45.502-21.416  c56.425,0,56.105,52.717,56.105,81.686v66.627H371.773z"
   id="path6" />

<g
   id="g10">
</g>
<g
   id="g12">
</g>
<g
   id="g14">
</g>
<g
   id="g16">
</g>
<g
   id="g18">
</g>
<g
   id="g20">
</g>
<g
   id="g22">
</g>
<g
   id="g24">
</g>
<g
   id="g26">
</g>
<g
   id="g28">
</g>
<g
   id="g30">
</g>
<g
   id="g32">
</g>
<g
   id="g34">
</g>
<g
   id="g36">
</g>
<g
   id="g38">
</g>
</svg>