<svg xmlns="http://www.w3.org/2000/svg" viewBox="0 0 512 512"><circle cx="256" cy="256" r="256" style="fill:#111"/><path d="M233.83,242.4a49,49,0,0,0,7.8-27.41c-.45-27-22.94-48.5-50-48.5H116.2a6.4,6.4,0,0,0-6.4,6.39v166a6.41,6.41,0,0,0,6.4,6.4h84.3c31.28,0,57.2-25.08,57.32-56.37a56.55,56.55,0,0,0-24-46.47Zm-90.92-42.81h49.4a16.23,16.23,0,0,1,0,32.45h-49.4Zm58.32,112.54H142.91v-47h58.32a23.49,23.49,0,1,1,0,47Z" transform="translate(-0.33 -0.83)" style="fill:#fff"/><path d="M402.87,277.1c0-38.64-30.46-70.08-67.9-70.08s-67.89,31.44-67.89,70.08,30.46,70.08,67.89,70.08A67.27,67.27,0,0,0,391.44,316a71.35,71.35,0,0,0,4.27-7.59,2.87,2.87,0,0,0-2.59-4.12l-33.37-.08a2.85,2.85,0,0,0-2,.81,31.56,31.56,0,0,1-22.8,9c-16.59,0-30.49-12.41-34-28.94h95.19a6.65,6.65,0,0,0,6.65-6.65V277.1Zm-67.9-37c12.15,0,22.86,6.66,29.08,16.72H305.9c6.22-10.06,16.93-16.72,29.07-16.72Z" transform="translate(-0.33 -0.83)" style="fill:#fff"/><path d="M363.19,198.8H303a5.09,5.09,0,0,1-5.09-5.09v-15.1a5.09,5.09,0,0,1,5.09-5.09h60.22a5.09,5.09,0,0,1,5.08,5.09v15.1a5.08,5.08,0,0,1-5.08,5.09Z" transform="translate(-0.33 -0.83)" style="fill:#fff"/></svg>