<?xml version="1.0" encoding="UTF-8" standalone="no"?>
<!-- Generator: Adobe Illustrator 19.0.0, SVG Export Plug-In . SVG Version: 6.00 Build 0)  -->

<svg
   xmlns:dc="http://purl.org/dc/elements/1.1/"
   xmlns:cc="http://creativecommons.org/ns#"
   xmlns:rdf="http://www.w3.org/1999/02/22-rdf-syntax-ns#"
   xmlns:svg="http://www.w3.org/2000/svg"
   xmlns="http://www.w3.org/2000/svg"
   xmlns:sodipodi="http://sodipodi.sourceforge.net/DTD/sodipodi-0.dtd"
   xmlns:inkscape="http://www.inkscape.org/namespaces/inkscape"
   version="1.1"
   id="Layer_1"
   x="0px"
   y="0px"
   viewBox="0 0 512 512"
   style="enable-background:new 0 0 512 512;"
   xml:space="preserve"
   sodipodi:docname="social-instagram.svg"
   inkscape:version="0.92.3 (2405546, 2018-03-11)"><metadata
   id="metadata55"><rdf:RDF><cc:Work
       rdf:about=""><dc:format>image/svg+xml</dc:format><dc:type
         rdf:resource="http://purl.org/dc/dcmitype/StillImage" /></cc:Work></rdf:RDF></metadata><defs
   id="defs53" /><sodipodi:namedview
   pagecolor="#ffffff"
   bordercolor="#666666"
   borderopacity="1"
   objecttolerance="10"
   gridtolerance="10"
   guidetolerance="10"
   inkscape:pageopacity="0"
   inkscape:pageshadow="2"
   inkscape:window-width="1366"
   inkscape:window-height="740"
   id="namedview51"
   showgrid="false"
   inkscape:zoom="0.4609375"
   inkscape:cx="256"
   inkscape:cy="256"
   inkscape:window-x="0"
   inkscape:window-y="0"
   inkscape:window-maximized="1"
   inkscape:current-layer="Layer_1" />
<circle
   style="fill:#111111;fill-opacity:1"
   cx="256"
   cy="256"
   r="256"
   id="circle2" />
<path
   style="fill:#000000;fill-opacity:1"
   d="M374.71,132.922c-30.587,3.872-62.479,3.737-94.575,0.681  c-44.822-3.448-110.33-24.135-134.465,17.239c-38.772,66.236-19.649,151.035-10.614,226.078l134.737,134.708  c130.388-6.923,234.886-111.407,241.831-241.79L374.71,132.922z"
   id="path4" />
<g
   id="g10">
	<path
   style="fill:#FFFFFF;"
   d="M315.227,109.468H196.772c-48.14,0-87.304,39.164-87.304,87.304v118.455   c0,48.138,39.164,87.305,87.305,87.305h118.455c48.138,0,87.305-39.165,87.305-87.305V196.772   C402.532,148.632,363.367,109.468,315.227,109.468L315.227,109.468z M373.05,315.228c0,31.934-25.888,57.822-57.822,57.822H196.773   c-31.934,0-57.822-25.888-57.822-57.822V196.773c0-31.934,25.888-57.823,57.822-57.823h118.455   c31.934,0,57.822,25.89,57.822,57.823V315.228z"
   id="path6" />
	<path
   style="fill:#FFFFFF;"
   d="M256,180.202c-41.794,0-75.798,34.004-75.798,75.798c0,41.791,34.004,75.795,75.798,75.795   s75.795-34.001,75.795-75.795S297.794,180.202,256,180.202L256,180.202z M256,302.313c-25.579,0-46.316-20.733-46.316-46.313   s20.737-46.316,46.316-46.316s46.313,20.735,46.313,46.316C302.313,281.579,281.579,302.313,256,302.313L256,302.313z"
   id="path8" />
</g>

<g
   id="g20">
</g>
<g
   id="g22">
</g>
<g
   id="g24">
</g>
<g
   id="g26">
</g>
<g
   id="g28">
</g>
<g
   id="g30">
</g>
<g
   id="g32">
</g>
<g
   id="g34">
</g>
<g
   id="g36">
</g>
<g
   id="g38">
</g>
<g
   id="g40">
</g>
<g
   id="g42">
</g>
<g
   id="g44">
</g>
<g
   id="g46">
</g>
<g
   id="g48">
</g>
</svg>