<?xml version="1.0" encoding="UTF-8" standalone="no"?>
<!-- Generator: Adobe Illustrator 19.0.0, SVG Export Plug-In . SVG Version: 6.00 Build 0)  -->

<svg
   xmlns:dc="http://purl.org/dc/elements/1.1/"
   xmlns:cc="http://creativecommons.org/ns#"
   xmlns:rdf="http://www.w3.org/1999/02/22-rdf-syntax-ns#"
   xmlns:svg="http://www.w3.org/2000/svg"
   xmlns="http://www.w3.org/2000/svg"
   xmlns:sodipodi="http://sodipodi.sourceforge.net/DTD/sodipodi-0.dtd"
   xmlns:inkscape="http://www.inkscape.org/namespaces/inkscape"
   version="1.1"
   id="Layer_1"
   x="0px"
   y="0px"
   viewBox="0 0 512 512"
   style="enable-background:new 0 0 512 512;"
   xml:space="preserve"
   sodipodi:docname="social-whatsup.svg"
   inkscape:version="0.92.3 (2405546, 2018-03-11)"><metadata
   id="metadata53"><rdf:RDF><cc:Work
       rdf:about=""><dc:format>image/svg+xml</dc:format><dc:type
         rdf:resource="http://purl.org/dc/dcmitype/StillImage" /></cc:Work></rdf:RDF></metadata><defs
   id="defs51" /><sodipodi:namedview
   pagecolor="#ffffff"
   bordercolor="#666666"
   borderopacity="1"
   objecttolerance="10"
   gridtolerance="10"
   guidetolerance="10"
   inkscape:pageopacity="0"
   inkscape:pageshadow="2"
   inkscape:window-width="1366"
   inkscape:window-height="740"
   id="namedview49"
   showgrid="false"
   inkscape:zoom="0.4609375"
   inkscape:cx="256"
   inkscape:cy="256"
   inkscape:window-x="0"
   inkscape:window-y="0"
   inkscape:window-maximized="1"
   inkscape:current-layer="Layer_1" />
<circle
   style="fill:#111111;fill-opacity:1"
   cx="256"
   cy="256"
   r="256"
   id="circle2" />
<path
   style="fill:#000000;fill-opacity:1"
   d="M360.241,151.826c-14.843-3.712-36.671-16.532-50.8-21.671  c-55.165-17.239-129.293-3.448-149.98,60.337c-1.724,1.724-5.172,1.724-6.896,1.724c-41.374,48.269-13.791,106.882-17.239,160.323  c-1.177,18.839-11.083,35.497-23.831,49.588l107.282,107.17C230.931,511.067,243.355,512,256,512  c126.436,0,231.452-91.665,252.247-212.161L360.241,151.826z"
   id="path4" />
<g
   id="g10">
	<path
   style="fill:#FFFFFF;"
   d="M248.837,108.447c-78.029,3.712-139.604,68.696-139.369,146.811   c0.072,23.792,5.816,46.249,15.95,66.095l-15.557,75.514c-0.841,4.086,2.843,7.663,6.901,6.701l73.995-17.53   c19.011,9.471,40.364,14.939,62.962,15.284c79.753,1.219,146.251-62.105,148.74-141.829   C405.121,174.035,334.591,104.362,248.837,108.447L248.837,108.447z M337.13,335.936c-21.669,21.669-50.483,33.604-81.13,33.604   c-17.944,0-35.126-4.027-51.066-11.966l-10.302-5.134l-45.37,10.747l9.549-46.356l-5.075-9.943   c-8.276-16.206-12.472-33.728-12.472-52.084c0-30.648,11.935-59.459,33.604-81.13c21.476-21.478,50.759-33.604,81.134-33.604   c30.644,0,59.458,11.935,81.127,33.604c21.669,21.669,33.604,50.483,33.604,81.127C370.735,285.177,358.607,314.459,337.13,335.936   L337.13,335.936z"
   id="path6" />
	<path
   style="fill:#FFFFFF;"
   d="M327.115,286.582l-28.384-8.149c-3.729-1.069-7.749-0.01-10.468,2.76l-6.942,7.07   c-2.926,2.984-7.366,3.941-11.24,2.374c-13.427-5.434-41.672-30.548-48.881-43.106c-2.084-3.624-1.739-8.152,0.817-11.462   l6.058-7.839c2.374-3.07,2.874-7.197,1.305-10.747l-11.941-27.008c-2.86-6.468-11.126-8.352-16.527-3.784   c-7.921,6.701-17.32,16.88-18.461,28.16c-2.015,19.887,6.515,44.954,38.762,75.055c37.257,34.778,67.094,39.369,86.523,34.664   c11.019-2.667,19.825-13.365,25.379-22.126C336.906,296.467,333.91,288.535,327.115,286.582L327.115,286.582z"
   id="path8" />
</g>

<g
   id="g18">
</g>
<g
   id="g20">
</g>
<g
   id="g22">
</g>
<g
   id="g24">
</g>
<g
   id="g26">
</g>
<g
   id="g28">
</g>
<g
   id="g30">
</g>
<g
   id="g32">
</g>
<g
   id="g34">
</g>
<g
   id="g36">
</g>
<g
   id="g38">
</g>
<g
   id="g40">
</g>
<g
   id="g42">
</g>
<g
   id="g44">
</g>
<g
   id="g46">
</g>
</svg>